<?xml version="1.0" encoding="utf-8"?>
<!-- Generator: Adobe Illustrator 18.0.0, SVG Export Plug-In . SVG Version: 6.00 Build 0)  -->
<!DOCTYPE svg PUBLIC "-//W3C//DTD SVG 1.1//EN" "http://www.w3.org/Graphics/SVG/1.1/DTD/svg11.dtd" [
	<!ENTITY st0 "fill:#ADDEDC;">
	<!ENTITY st1 "fill:#E361A4;">
	<!ENTITY st2 "fill:#BB5CA3;">
	<!ENTITY st3 "fill:#7D57A4;">
	<!ENTITY st4 "fill:#A4D0EF;">
	<!ENTITY st5 "fill:#00548D;">
	<!ENTITY st6 "fill:#009BDA;">
	<!ENTITY st7 "fill:#F15A29;">
	<!ENTITY st8 "fill:#FFFFFF;">
	<!ENTITY st9 "fill:#97ABD8;">
	<!ENTITY st10 "fill:#F8BFD8;">
	<!ENTITY st11 "fill:#F69080;">
	<!ENTITY st12 "fill:none;stroke:#00AEEF;stroke-width:7;stroke-linecap:round;stroke-linejoin:round;stroke-miterlimit:10;">
	<!ENTITY st13 "fill:none;stroke:#EF4136;stroke-width:7;stroke-linecap:round;stroke-linejoin:round;stroke-miterlimit:10;">
	<!ENTITY st14 "fill:none;stroke:#FFF200;stroke-width:7;stroke-linecap:round;stroke-linejoin:round;stroke-miterlimit:10;">
	<!ENTITY st15 "fill:none;stroke:#DA1C5C;stroke-width:7;stroke-linecap:round;stroke-linejoin:round;stroke-miterlimit:10;">
	<!ENTITY st16 "fill:none;stroke:#2BB673;stroke-width:7;stroke-linecap:round;stroke-linejoin:round;stroke-miterlimit:10;">
	<!ENTITY st17 "fill:none;stroke:#87CBF0;stroke-width:7;stroke-linecap:round;stroke-linejoin:round;stroke-miterlimit:10;">
	<!ENTITY st18 "fill:none;stroke:#F6ADCD;stroke-width:7;stroke-linecap:round;stroke-linejoin:round;stroke-miterlimit:10;">
	<!ENTITY st19 "fill:none;stroke:#FFFFFF;stroke-width:7;stroke-linecap:round;stroke-linejoin:round;stroke-miterlimit:10;">
	<!ENTITY st20 "fill:none;stroke:#8B5E3C;stroke-width:7;stroke-linecap:round;stroke-linejoin:round;stroke-miterlimit:10;">
	<!ENTITY st21 "fill:#F16460;">
	<!ENTITY st22 "fill:none;stroke:#FFF200;stroke-width:7;stroke-miterlimit:10;">
	<!ENTITY st23 "fill:#E6E7E8;">
	<!ENTITY st24 "fill:#F17DB1;stroke:#F17DB1;stroke-width:8.2549;stroke-miterlimit:10;">
	<!ENTITY st25 "fill:#DBA5CB;stroke:#DBA5CB;stroke-width:8.2549;stroke-miterlimit:10;">
	<!ENTITY st26 "fill:#EC008C;stroke:#EC008C;stroke-width:8.2549;stroke-miterlimit:10;">
	<!ENTITY st27 "fill:#9E91C5;">
	<!ENTITY st28 "fill:none;stroke:#FFF200;stroke-width:7;stroke-linecap:round;stroke-miterlimit:10;">
	<!ENTITY st29 "fill:#4D9D47;">
	<!ENTITY st30 "fill:none;stroke:#FFFFFF;stroke-width:6;stroke-linecap:round;stroke-linejoin:round;stroke-miterlimit:10;">
	<!ENTITY st31 "fill:#55BF9E;">
	<!ENTITY st32 "fill:#8ED8F8;">
	<!ENTITY st33 "fill:#00969E;">
	<!ENTITY st34 "fill:none;stroke:#00969E;stroke-width:7;stroke-miterlimit:10;">
	<!ENTITY st35 "fill:#B1CFDE;">
	<!ENTITY st36 "fill:#F26522;">
	<!ENTITY st37 "fill:#ED1B32;">
	<!ENTITY st38 "fill:#FFF200;">
	<!ENTITY st39 "fill:#A5DFF9;">
	<!ENTITY st40 "fill:#8DC63F;">
	<!ENTITY st41 "fill:#F26971;">
	<!ENTITY st42 "fill:#AC88B1;">
	<!ENTITY st43 "fill:#EF4136;">
	<!ENTITY st44 "fill:#00AEEF;">
	<!ENTITY st45 "fill:#8B5E3C;">
	<!ENTITY st46 "fill:#2BB673;">
	<!ENTITY st47 "fill:#DA1C5C;">
	<!ENTITY st48 "fill:#87CBF0;">
	<!ENTITY st49 "fill:#F6ADCD;">
	<!ENTITY st50 "fill:#0064A0;">
	<!ENTITY st51 "fill:#73C7AA;">
	<!ENTITY st52 "fill:none;stroke:#9159A4;stroke-width:50;stroke-linecap:round;stroke-miterlimit:10;">
	<!ENTITY st53 "fill:none;stroke:#EF4444;stroke-width:50;stroke-linecap:round;stroke-miterlimit:10;">
	<!ENTITY st54 "fill:#F79880;">
	<!ENTITY st55 "fill:#74C273;">
	<!ENTITY st56 "fill:#F17DB1;">
]>
<svg version="1.1" id="Layer_1" xmlns="http://www.w3.org/2000/svg" xmlns:xlink="http://www.w3.org/1999/xlink" x="0px" y="0px"
	 viewBox="0 0 311.3 420.4" style="enable-background:new 0 0 311.3 420.4;" xml:space="preserve">
<rect x="0" y="0" style="&st7;" width="311.3" height="420.4"/>
<path style="&st8;" d="M164.1,218.6c0,1.8-1.4,3.2-3.2,3.2c-1.7,0-3.2-1.4-3.2-3.2c0-1.8,1.4-3.2,3.2-3.2
	C162.7,215.4,164.1,216.8,164.1,218.6z M150,211.4c-1.8,0-3.2,1.4-3.2,3.2c0,1.8,1.4,3.2,3.2,3.2c1.8,0,3.2-1.4,3.2-3.2
	C153.2,212.9,151.7,211.4,150,211.4z M150.6,221.8c-1.7,0-3.2,1.4-3.2,3.2c0,1.7,1.4,3.2,3.2,3.2c1.8,0,3.2-1.4,3.2-3.2
	C153.8,223.2,152.3,221.8,150.6,221.8z M160.7,226.5c-1.8,0-3.2,1.4-3.2,3.2c0,1.8,1.4,3.2,3.2,3.2c1.8,0,3.2-1.4,3.2-3.2
	C163.9,227.9,162.5,226.5,160.7,226.5z M170.6,213.2c-1.7,0-3.2,1.4-3.2,3.2c0,1.8,1.4,3.2,3.2,3.2c1.8,0,3.2-1.4,3.2-3.2
	C173.8,214.6,172.4,213.2,170.6,213.2z M173,222.7c-1.8,0-3.2,1.4-3.2,3.2c0,1.8,1.4,3.2,3.2,3.2c1.8,0,3.2-1.4,3.2-3.2
	C176.2,224.2,174.8,222.7,173,222.7z M169.4,232.9c-1.8,0-3.2,1.4-3.2,3.2c0,1.8,1.4,3.2,3.2,3.2c1.8,0,3.2-1.4,3.2-3.2
	C172.6,234.3,171.2,232.9,169.4,232.9z M160.5,241c-1.8,0-3.2,1.4-3.2,3.2c0,1.8,1.4,3.2,3.2,3.2c1.8,0,3.2-1.4,3.2-3.2
	C163.7,242.4,162.3,241,160.5,241z M153.6,233.8c-1.8,0-3.2,1.4-3.2,3.2c0,1.8,1.4,3.2,3.2,3.2c1.8,0,3.2-1.4,3.2-3.2
	C156.7,235.3,155.3,233.8,153.6,233.8z M142.5,236.2c-1.8,0-3.2,1.4-3.2,3.2c0,1.8,1.4,3.2,3.2,3.2c1.8,0,3.2-1.4,3.2-3.2
	C145.6,237.6,144.2,236.2,142.5,236.2z M141.7,225.7c-1.8,0-3.2,1.4-3.2,3.2c0,1.8,1.4,3.2,3.2,3.2c1.7,0,3.2-1.4,3.2-3.2
	C144.8,227.1,143.4,225.7,141.7,225.7z M137.9,214.4c-1.8,0-3.2,1.4-3.2,3.2c0,1.8,1.4,3.2,3.2,3.2c1.8,0,3.2-1.4,3.2-3.2
	C141.1,215.8,139.7,214.4,137.9,214.4z M142.7,205.3c-1.8,0-3.2,1.4-3.2,3.2c0,1.7,1.4,3.2,3.2,3.2c1.8,0,3.2-1.4,3.2-3.2
	C145.8,206.7,144.4,205.3,142.7,205.3z M155.3,198.7c-1.7,0-3.2,1.4-3.2,3.2c0,1.8,1.4,3.2,3.2,3.2c1.8,0,3.2-1.4,3.2-3.2
	C158.5,200.2,157.1,198.7,155.3,198.7z M166.1,200.1c-1.8,0-3.2,1.4-3.2,3.2c0,1.7,1.4,3.2,3.2,3.2c1.7,0,3.2-1.4,3.2-3.2
	C169.2,201.6,167.8,200.1,166.1,200.1z M159.9,206.7c-1.8,0-3.2,1.4-3.2,3.2c0,1.8,1.4,3.2,3.2,3.2c1.8,0,3.2-1.4,3.2-3.2
	C163.1,208.1,161.6,206.7,159.9,206.7z M175.8,202.7c-1.7,0-3.2,1.4-3.2,3.2c0,1.8,1.4,3.2,3.2,3.2c1.8,0,3.2-1.4,3.2-3.2
	C178.9,204.1,177.5,202.7,175.8,202.7z M182.1,211c-1.8,0-3.2,1.4-3.2,3.2c0,1.8,1.4,3.2,3.2,3.2c1.7,0,3.2-1.4,3.2-3.2
	C185.3,212.5,183.9,211,182.1,211z M189.7,204.5c-1.8,0-3.2,1.4-3.2,3.2c0,1.8,1.4,3.2,3.2,3.2c1.8,0,3.2-1.4,3.2-3.2
	C192.8,205.9,191.4,204.5,189.7,204.5z M194.2,194.8c-1.8,0-3.2,1.4-3.2,3.2c0,1.8,1.4,3.2,3.2,3.2c1.7,0,3.2-1.4,3.2-3.2
	C197.4,196.2,196,194.8,194.2,194.8z M204.9,186.4c-1.8,0-3.2,1.4-3.2,3.2c0,1.8,1.4,3.2,3.2,3.2c1.8,0,3.2-1.4,3.2-3.2
	C208.1,187.9,206.7,186.4,204.9,186.4z M195,183.9c-1.8,0-3.2,1.4-3.2,3.2c0,1.8,1.4,3.2,3.2,3.2c1.7,0,3.2-1.4,3.2-3.2
	C198.2,185.3,196.8,183.9,195,183.9z M184.3,184.3c-1.8,0-3.2,1.4-3.2,3.2c0,1.7,1.4,3.2,3.2,3.2c1.8,0,3.2-1.4,3.2-3.2
	C187.5,185.7,186.1,184.3,184.3,184.3z M172.6,189.2c-1.8,0-3.2,1.4-3.2,3.2c0,1.8,1.4,3.2,3.2,3.2c1.8,0,3.2-1.4,3.2-3.2
	C175.8,190.6,174.4,189.2,172.6,189.2z M162.7,190.2c-1.8,0-3.2,1.4-3.2,3.2c0,1.7,1.4,3.2,3.2,3.2c1.8,0,3.2-1.4,3.2-3.2
	C165.9,191.6,164.4,190.2,162.7,190.2z M160.7,179.3c-1.8,0-3.2,1.4-3.2,3.2c0,1.8,1.4,3.2,3.2,3.2c1.8,0,3.2-1.4,3.2-3.2
	C163.9,180.7,162.5,179.3,160.7,179.3z M172.4,179.1c-1.7,0-3.2,1.4-3.2,3.2c0,1.8,1.4,3.2,3.2,3.2c1.8,0,3.2-1.4,3.2-3.2
	C175.6,180.5,174.2,179.1,172.4,179.1z M182.5,174c-1.8,0-3.2,1.4-3.2,3.2c0,1.8,1.4,3.2,3.2,3.2c1.8,0,3.2-1.4,3.2-3.2
	C185.7,175.4,184.3,174,182.5,174z M192.6,172.8c-1.8,0-3.2,1.4-3.2,3.2c0,1.8,1.4,3.2,3.2,3.2c1.8,0,3.2-1.4,3.2-3.2
	C195.8,174.2,194.4,172.8,192.6,172.8z M202.4,173.8c-1.8,0-3.2,1.4-3.2,3.2c0,1.8,1.4,3.2,3.2,3.2c1.7,0,3.2-1.4,3.2-3.2
	C205.5,175.2,204.1,173.8,202.4,173.8z M212.1,177.1c-1.8,0-3.2,1.4-3.2,3.2c0,1.8,1.4,3.2,3.2,3.2c1.8,0,3.2-1.4,3.2-3.2
	C215.2,178.5,213.8,177.1,212.1,177.1z M216.6,167.8c-1.7,0-3.2,1.4-3.2,3.2c0,1.8,1.4,3.2,3.2,3.2c1.8,0,3.2-1.4,3.2-3.2
	C219.8,169.2,218.4,167.8,216.6,167.8z M206.9,163.4c-1.8,0-3.2,1.4-3.2,3.2c0,1.8,1.4,3.2,3.2,3.2c1.8,0,3.2-1.4,3.2-3.2
	C210.1,164.9,208.7,163.4,206.9,163.4z M196.8,161.3c-1.8,0-3.2,1.4-3.2,3.2c0,1.8,1.4,3.2,3.2,3.2c1.7,0,3.2-1.4,3.2-3.2
	C200,162.7,198.5,161.3,196.8,161.3z M186.7,161.5c-1.8,0-3.2,1.4-3.2,3.2c0,1.8,1.4,3.2,3.2,3.2c1.8,0,3.2-1.4,3.2-3.2
	C189.9,162.9,188.4,161.5,186.7,161.5z M177,164.2c-1.8,0-3.2,1.4-3.2,3.2c0,1.8,1.4,3.2,3.2,3.2c1.7,0,3.2-1.4,3.2-3.2
	C180.1,165.7,178.7,164.2,177,164.2z M168.2,169.8c-1.8,0-3.2,1.4-3.2,3.2c0,1.8,1.4,3.2,3.2,3.2c1.8,0,3.2-1.4,3.2-3.2
	C171.4,171.2,170,169.8,168.2,169.8z M160.3,162.1c-1.8,0-3.2,1.4-3.2,3.2c0,1.8,1.4,3.2,3.2,3.2c1.8,0,3.2-1.4,3.2-3.2
	C163.5,163.5,162.1,162.1,160.3,162.1z M154.6,171.2c-1.8,0-3.2,1.4-3.2,3.2c0,1.8,1.4,3.2,3.2,3.2c1.8,0,3.2-1.4,3.2-3.2
	C157.7,172.6,156.3,171.2,154.6,171.2z M151.8,184.1c-1.8,0-3.2,1.4-3.2,3.2c0,1.8,1.4,3.2,3.2,3.2c1.8,0,3.2-1.4,3.2-3.2
	C155,185.5,153.5,184.1,151.8,184.1z M143.4,177.3c-1.8,0-3.2,1.4-3.2,3.2c0,1.8,1.4,3.2,3.2,3.2c1.8,0,3.2-1.4,3.2-3.2
	C146.6,178.7,145.2,177.3,143.4,177.3z M145.4,166.2c-1.8,0-3.2,1.4-3.2,3.2c0,1.8,1.4,3.2,3.2,3.2c1.8,0,3.2-1.4,3.2-3.2
	C148.6,167.6,147.2,166.2,145.4,166.2z M150.2,157.1c-1.8,0-3.2,1.4-3.2,3.2c0,1.8,1.4,3.2,3.2,3.2c1.8,0,3.2-1.4,3.2-3.2
	C153.4,158.5,151.9,157.1,150.2,157.1z M157.3,149.8c-1.8,0-3.2,1.4-3.2,3.2c0,1.8,1.4,3.2,3.2,3.2c1.7,0,3.2-1.4,3.2-3.2
	C160.5,151.2,159.1,149.8,157.3,149.8z M168.2,155.9c-1.8,0-3.2,1.4-3.2,3.2c0,1.8,1.4,3.2,3.2,3.2c1.8,0,3.2-1.4,3.2-3.2
	C171.4,157.3,170,155.9,168.2,155.9z M177.6,151.7c-1.8,0-3.2,1.4-3.2,3.2c0,1.8,1.4,3.2,3.2,3.2c1.8,0,3.2-1.4,3.2-3.2
	C180.7,153.2,179.3,151.7,177.6,151.7z M187.7,150c-1.7,0-3.2,1.4-3.2,3.2c0,1.8,1.4,3.2,3.2,3.2c1.7,0,3.2-1.4,3.2-3.2
	C190.8,151.4,189.4,150,187.7,150z M198.4,150.5c-1.8,0-3.2,1.4-3.2,3.2c0,1.8,1.4,3.2,3.2,3.2c1.8,0,3.2-1.4,3.2-3.2
	C201.6,152,200.1,150.5,198.4,150.5z M208.9,152.9c-1.8,0-3.2,1.4-3.2,3.2c0,1.8,1.4,3.2,3.2,3.2c1.8,0,3.2-1.4,3.2-3.2
	C212.1,154.4,210.7,152.9,208.9,152.9z M219.2,157.5c-1.8,0-3.2,1.4-3.2,3.2s1.4,3.2,3.2,3.2c1.8,0,3.2-1.4,3.2-3.2
	S221,157.5,219.2,157.5z M220.2,147.2c-1.8,0-3.2,1.4-3.2,3.2c0,1.8,1.4,3.2,3.2,3.2c1.8,0,3.2-1.4,3.2-3.2
	C223.4,148.6,222,147.2,220.2,147.2z M208.7,142.8c-1.8,0-3.2,1.4-3.2,3.2c0,1.8,1.4,3.2,3.2,3.2c1.8,0,3.2-1.4,3.2-3.2
	C211.9,144.2,210.4,142.8,208.7,142.8z M219.2,136.9c-1.8,0-3.2,1.4-3.2,3.2c0,1.8,1.4,3.2,3.2,3.2c1.8,0,3.2-1.4,3.2-3.2
	C222.4,138.3,221,136.9,219.2,136.9z M216.8,126.8c-1.8,0-3.2,1.4-3.2,3.2s1.4,3.2,3.2,3.2c1.8,0,3.2-1.4,3.2-3.2
	S218.6,126.8,216.8,126.8z M212.7,116.4c-1.8,0-3.2,1.4-3.2,3.2c0,1.8,1.4,3.2,3.2,3.2c1.8,0,3.2-1.4,3.2-3.2
	C215.8,117.9,214.4,116.4,212.7,116.4z M206.9,106.9c-1.8,0-3.2,1.4-3.2,3.2c0,1.8,1.4,3.2,3.2,3.2c1.8,0,3.2-1.4,3.2-3.2
	C210.1,108.3,208.7,106.9,206.9,106.9z M198.6,112.9c-1.8,0-3.2,1.4-3.2,3.2c0,1.8,1.4,3.2,3.2,3.2c1.8,0,3.2-1.4,3.2-3.2
	C201.8,114.3,200.3,112.9,198.6,112.9z M203.7,122.6c-1.8,0-3.2,1.4-3.2,3.2c0,1.8,1.4,3.2,3.2,3.2c1.8,0,3.2-1.4,3.2-3.2
	C206.9,124,205.5,122.6,203.7,122.6z M207.3,132.5c-1.8,0-3.2,1.4-3.2,3.2c0,1.8,1.4,3.2,3.2,3.2c1.8,0,3.2-1.4,3.2-3.2
	C210.5,133.9,209.1,132.5,207.3,132.5z M197.6,140c-1.8,0-3.2,1.4-3.2,3.2c0,1.8,1.4,3.2,3.2,3.2c1.8,0,3.2-1.4,3.2-3.2
	C200.8,141.5,199.3,140,197.6,140z M186.3,139.6c-1.8,0-3.2,1.4-3.2,3.2c0,1.8,1.4,3.2,3.2,3.2c1.7,0,3.2-1.4,3.2-3.2
	C189.5,141.1,188,139.6,186.3,139.6z M175.6,140.8c-1.8,0-3.2,1.4-3.2,3.2c0,1.8,1.4,3.2,3.2,3.2c1.8,0,3.2-1.4,3.2-3.2
	C178.7,142.2,177.3,140.8,175.6,140.8z M165.7,144.4c-1.7,0-3.2,1.4-3.2,3.2c0,1.8,1.4,3.2,3.2,3.2c1.8,0,3.2-1.4,3.2-3.2
	C168.8,145.8,167.4,144.4,165.7,144.4z M160.9,134.7c-1.7,0-3.2,1.4-3.2,3.2c0,1.8,1.4,3.2,3.2,3.2c1.8,0,3.2-1.4,3.2-3.2
	C164.1,136.1,162.7,134.7,160.9,134.7z M154.6,126.2c-1.8,0-3.2,1.4-3.2,3.2c0,1.8,1.4,3.2,3.2,3.2c1.8,0,3.2-1.4,3.2-3.2
	C157.7,127.6,156.3,126.2,154.6,126.2z M165.7,122.6c-1.7,0-3.2,1.4-3.2,3.2c0,1.8,1.4,3.2,3.2,3.2c1.8,0,3.2-1.4,3.2-3.2
	C168.8,124,167.4,122.6,165.7,122.6z M171.4,131.1c-1.8,0-3.2,1.4-3.2,3.2c0,1.8,1.4,3.2,3.2,3.2c1.8,0,3.2-1.4,3.2-3.2
	C174.6,132.5,173.2,131.1,171.4,131.1z M182.7,129.5c-1.7,0-3.2,1.4-3.2,3.2c0,1.7,1.4,3.2,3.2,3.2c1.8,0,3.2-1.4,3.2-3.2
	C185.9,131,184.5,129.5,182.7,129.5z M195,129.9c-1.8,0-3.2,1.4-3.2,3.2c0,1.8,1.4,3.2,3.2,3.2c1.7,0,3.2-1.4,3.2-3.2
	C198.2,131.3,196.8,129.9,195,129.9z M190.6,120.4c-1.8,0-3.2,1.4-3.2,3.2c0,1.8,1.4,3.2,3.2,3.2c1.8,0,3.2-1.4,3.2-3.2
	C193.8,121.8,192.4,120.4,190.6,120.4z M177.6,120.6c-1.8,0-3.2,1.4-3.2,3.2c0,1.8,1.4,3.2,3.2,3.2c1.8,0,3.2-1.4,3.2-3.2
	C180.7,122,179.3,120.6,177.6,120.6z M184.7,111.7c-1.8,0-3.2,1.4-3.2,3.2c0,1.8,1.4,3.2,3.2,3.2c1.8,0,3.2-1.4,3.2-3.2
	C187.9,113.1,186.5,111.7,184.7,111.7z M192,103.9c-1.8,0-3.2,1.4-3.2,3.2c0,1.8,1.4,3.2,3.2,3.2c1.8,0,3.2-1.4,3.2-3.2
	C195.2,105.4,193.8,103.9,192,103.9z M200,97.8c-1.8,0-3.2,1.4-3.2,3.2c0,1.8,1.4,3.2,3.2,3.2c1.7,0,3.2-1.4,3.2-3.2
	C203.1,99.2,201.7,97.8,200,97.8z M208.1,92.2c-1.8,0-3.2,1.4-3.2,3.2c0,1.8,1.4,3.2,3.2,3.2c1.8,0,3.2-1.4,3.2-3.2
	C211.3,93.7,209.9,92.2,208.1,92.2z M199.8,83.5c-1.8,0-3.2,1.4-3.2,3.2c0,1.8,1.4,3.2,3.2,3.2c1.8,0,3.2-1.4,3.2-3.2
	C202.9,84.9,201.5,83.5,199.8,83.5z M191.8,89.3c-1.7,0-3.2,1.4-3.2,3.2c0,1.8,1.4,3.2,3.2,3.2c1.8,0,3.2-1.4,3.2-3.2
	C195,90.7,193.6,89.3,191.8,89.3z M182.5,81.7c-1.8,0-3.2,1.4-3.2,3.2c0,1.8,1.4,3.2,3.2,3.2c1.8,0,3.2-1.4,3.2-3.2
	C185.7,83.2,184.3,81.7,182.5,81.7z M172,75c-1.8,0-3.2,1.4-3.2,3.2c0,1.8,1.4,3.2,3.2,3.2c1.8,0,3.2-1.4,3.2-3.2
	C175.2,76.4,173.8,75,172,75z M165.5,82.1c-1.8,0-3.2,1.4-3.2,3.2c0,1.8,1.4,3.2,3.2,3.2c1.8,0,3.2-1.4,3.2-3.2
	C168.6,83.5,167.2,82.1,165.5,82.1z M154.6,76.8c-1.8,0-3.2,1.4-3.2,3.2c0,1.8,1.4,3.2,3.2,3.2c1.8,0,3.2-1.4,3.2-3.2
	C157.7,78.2,156.3,76.8,154.6,76.8z M175.8,88.5c-1.7,0-3.2,1.4-3.2,3.2c0,1.8,1.4,3.2,3.2,3.2c1.8,0,3.2-1.4,3.2-3.2
	C178.9,89.9,177.5,88.5,175.8,88.5z M184.5,95.8c-1.8,0-3.2,1.4-3.2,3.2c0,1.8,1.4,3.2,3.2,3.2c1.8,0,3.2-1.4,3.2-3.2
	C187.7,97.2,186.3,95.8,184.5,95.8z M177.8,103.5c-1.7,0-3.2,1.4-3.2,3.2c0,1.8,1.4,3.2,3.2,3.2c1.8,0,3.2-1.4,3.2-3.2
	C180.9,105,179.5,103.5,177.8,103.5z M169,96.4c-1.8,0-3.2,1.4-3.2,3.2c0,1.8,1.4,3.2,3.2,3.2c1.8,0,3.2-1.4,3.2-3.2
	C172.2,97.8,170.8,96.4,169,96.4z M163.5,104.7c-1.8,0-3.2,1.4-3.2,3.2c0,1.8,1.4,3.2,3.2,3.2c1.8,0,3.2-1.4,3.2-3.2
	C166.7,106.2,165.2,104.7,163.5,104.7z M158.5,115c-1.8,0-3.2,1.4-3.2,3.2c0,1.8,1.4,3.2,3.2,3.2c1.8,0,3.2-1.4,3.2-3.2
	C161.7,116.5,160.3,115,158.5,115z M151.6,139.8c-1.8,0-3.2,1.4-3.2,3.2c0,1.8,1.4,3.2,3.2,3.2c1.8,0,3.2-1.4,3.2-3.2
	C154.7,141.3,153.3,139.8,151.6,139.8z M143.8,146.6c-1.8,0-3.2,1.4-3.2,3.2c0,1.8,1.4,3.2,3.2,3.2c1.8,0,3.2-1.4,3.2-3.2
	C147,148,145.6,146.6,143.8,146.6z M138.1,154.9c-1.8,0-3.2,1.4-3.2,3.2c0,1.8,1.4,3.2,3.2,3.2c1.8,0,3.2-1.4,3.2-3.2
	C141.3,156.3,139.8,154.9,138.1,154.9z M134.5,164.2c-1.8,0-3.2,1.4-3.2,3.2c0,1.8,1.4,3.2,3.2,3.2c1.8,0,3.2-1.4,3.2-3.2
	C137.7,165.7,136.3,164.2,134.5,164.2z M133.7,174.7c-1.8,0-3.2,1.4-3.2,3.2c0,1.8,1.4,3.2,3.2,3.2c1.8,0,3.2-1.4,3.2-3.2
	C136.9,176.2,135.5,174.7,133.7,174.7z M137.1,186.4c-1.8,0-3.2,1.4-3.2,3.2c0,1.8,1.4,3.2,3.2,3.2c1.7,0,3.2-1.4,3.2-3.2
	C140.3,187.9,138.9,186.4,137.1,186.4z M136.7,197c-1.8,0-3.2,1.4-3.2,3.2c0,1.8,1.4,3.2,3.2,3.2c1.8,0,3.2-1.4,3.2-3.2
	C139.9,198.4,138.5,197,136.7,197z M125.8,198.4c-1.8,0-3.2,1.4-3.2,3.2c0,1.8,1.4,3.2,3.2,3.2c1.8,0,3.2-1.4,3.2-3.2
	C129,199.8,127.6,198.4,125.8,198.4z M127.2,186.2c-1.7,0-3.2,1.4-3.2,3.2c0,1.8,1.4,3.2,3.2,3.2c1.8,0,3.2-1.4,3.2-3.2
	C130.4,187.7,128.9,186.2,127.2,186.2z M123,176.1c-1.7,0-3.2,1.4-3.2,3.2c0,1.8,1.4,3.2,3.2,3.2c1.8,0,3.2-1.4,3.2-3.2
	C126.2,177.6,124.8,176.1,123,176.1z M122.6,165.8c-1.8,0-3.2,1.4-3.2,3.2c0,1.8,1.4,3.2,3.2,3.2c1.7,0,3.2-1.4,3.2-3.2
	C125.8,167.2,124.4,165.8,122.6,165.8z M125,156.1c-1.7,0-3.2,1.4-3.2,3.2c0,1.8,1.4,3.2,3.2,3.2c1.8,0,3.2-1.4,3.2-3.2
	C128.2,157.5,126.8,156.1,125,156.1z M129.6,147c-1.8,0-3.2,1.4-3.2,3.2c0,1.8,1.4,3.2,3.2,3.2c1.7,0,3.2-1.4,3.2-3.2
	C132.7,148.4,131.3,147,129.6,147z M120.4,141.6c-1.8,0-3.2,1.4-3.2,3.2c0,1.8,1.4,3.2,3.2,3.2c1.8,0,3.2-1.4,3.2-3.2
	C123.6,143,122.2,141.6,120.4,141.6z M115.1,150.9c-1.8,0-3.2,1.4-3.2,3.2c0,1.8,1.4,3.2,3.2,3.2c1.8,0,3.2-1.4,3.2-3.2
	C118.3,152.4,116.8,150.9,115.1,150.9z M110.3,138.1c-1.7,0-3.2,1.4-3.2,3.2c0,1.8,1.4,3.2,3.2,3.2c1.8,0,3.2-1.4,3.2-3.2
	C113.5,139.5,112.1,138.1,110.3,138.1z M136.3,138.8c-1.8,0-3.2,1.4-3.2,3.2c0,1.7,1.4,3.2,3.2,3.2c1.8,0,3.2-1.4,3.2-3.2
	C139.5,140.3,138.1,138.8,136.3,138.8z M144.8,131.7c-1.8,0-3.2,1.4-3.2,3.2c0,1.7,1.4,3.2,3.2,3.2c1.8,0,3.2-1.4,3.2-3.2
	C148,133.1,146.6,131.7,144.8,131.7z M136.7,125.4c-1.8,0-3.2,1.4-3.2,3.2c0,1.8,1.4,3.2,3.2,3.2c1.8,0,3.2-1.4,3.2-3.2
	C139.9,126.8,138.5,125.4,136.7,125.4z M147,119.4c-1.8,0-3.2,1.4-3.2,3.2c0,1.8,1.4,3.2,3.2,3.2c1.7,0,3.2-1.4,3.2-3.2
	C150.2,120.8,148.8,119.4,147,119.4z M150.4,108.5c-1.8,0-3.2,1.4-3.2,3.2c0,1.8,1.4,3.2,3.2,3.2c1.8,0,3.2-1.4,3.2-3.2
	C153.6,109.9,152.1,108.5,150.4,108.5z M154.7,98.6c-1.7,0-3.2,1.4-3.2,3.2c0,1.8,1.4,3.2,3.2,3.2c1.8,0,3.2-1.4,3.2-3.2
	C157.9,100,156.5,98.6,154.7,98.6z M159.7,89.7c-1.8,0-3.2,1.4-3.2,3.2c0,1.8,1.4,3.2,3.2,3.2c1.8,0,3.2-1.4,3.2-3.2
	C162.9,91.1,161.5,89.7,159.7,89.7z M149.2,84.7c-1.8,0-3.2,1.4-3.2,3.2c0,1.8,1.4,3.2,3.2,3.2c1.8,0,3.2-1.4,3.2-3.2
	C152.4,86.1,151,84.7,149.2,84.7z M144.6,93.4c-1.8,0-3.2,1.4-3.2,3.2c0,1.8,1.4,3.2,3.2,3.2c1.8,0,3.2-1.4,3.2-3.2
	C147.8,94.9,146.4,93.4,144.6,93.4z M140.9,103.1c-1.8,0-3.2,1.4-3.2,3.2c0,1.8,1.4,3.2,3.2,3.2c1.7,0,3.2-1.4,3.2-3.2
	C144,104.6,142.6,103.1,140.9,103.1z M137.9,113.9c-1.8,0-3.2,1.4-3.2,3.2c0,1.8,1.4,3.2,3.2,3.2c1.8,0,3.2-1.4,3.2-3.2
	C141.1,115.3,139.7,113.9,137.9,113.9z M128.6,109.3c-1.8,0-3.2,1.4-3.2,3.2c0,1.8,1.4,3.2,3.2,3.2c1.8,0,3.2-1.4,3.2-3.2
	C131.7,110.7,130.3,109.3,128.6,109.3z M130.8,99.2c-1.8,0-3.2,1.4-3.2,3.2c0,1.8,1.4,3.2,3.2,3.2c1.8,0,3.2-1.4,3.2-3.2
	C133.9,100.6,132.5,99.2,130.8,99.2z M133.9,89.7c-1.8,0-3.2,1.4-3.2,3.2c0,1.8,1.4,3.2,3.2,3.2c1.8,0,3.2-1.4,3.2-3.2
	C137.1,91.1,135.7,89.7,133.9,89.7z M138.1,80.7c-1.8,0-3.2,1.4-3.2,3.2c0,1.8,1.4,3.2,3.2,3.2c1.8,0,3.2-1.4,3.2-3.2
	C141.3,82.2,139.8,80.7,138.1,80.7z M126,78.2c-1.8,0-3.2,1.4-3.2,3.2c0,1.8,1.4,3.2,3.2,3.2c1.8,0,3.2-1.4,3.2-3.2
	C129.2,79.6,127.7,78.2,126,78.2z M122.2,86.9c-1.8,0-3.2,1.4-3.2,3.2c0,1.7,1.4,3.2,3.2,3.2c1.8,0,3.2-1.4,3.2-3.2
	C125.4,88.3,124,86.9,122.2,86.9z M119.6,96.4c-1.8,0-3.2,1.4-3.2,3.2c0,1.8,1.4,3.2,3.2,3.2c1.8,0,3.2-1.4,3.2-3.2
	C122.8,97.8,121.4,96.4,119.6,96.4z M117.7,106.5c-1.8,0-3.2,1.4-3.2,3.2c0,1.8,1.4,3.2,3.2,3.2c1.8,0,3.2-1.4,3.2-3.2
	C120.8,107.9,119.4,106.5,117.7,106.5z M106.8,105.1c-1.8,0-3.2,1.4-3.2,3.2c0,1.8,1.4,3.2,3.2,3.2c1.8,0,3.2-1.4,3.2-3.2
	C109.9,106.6,108.5,105.1,106.8,105.1z M108.3,95.4c-1.8,0-3.2,1.4-3.2,3.2c0,1.8,1.4,3.2,3.2,3.2c1.8,0,3.2-1.4,3.2-3.2
	C111.5,96.8,110.1,95.4,108.3,95.4z M110.3,85.5c-1.7,0-3.2,1.4-3.2,3.2c0,1.8,1.4,3.2,3.2,3.2c1.8,0,3.2-1.4,3.2-3.2
	C113.5,86.9,112.1,85.5,110.3,85.5z M98,85.9c-1.8,0-3.2,1.4-3.2,3.2c0,1.7,1.4,3.2,3.2,3.2c1.8,0,3.2-1.4,3.2-3.2
	C101.2,87.3,99.8,85.9,98,85.9z M96.2,95.2c-1.8,0-3.2,1.4-3.2,3.2c0,1.8,1.4,3.2,3.2,3.2c1.8,0,3.2-1.4,3.2-3.2
	C99.4,96.6,98,95.2,96.2,95.2z M95.5,104.9c-1.8,0-3.2,1.4-3.2,3.2c0,1.8,1.4,3.2,3.2,3.2c1.8,0,3.2-1.4,3.2-3.2
	C98.6,106.4,97.2,104.9,95.5,104.9z M95.9,115c-1.8,0-3.2,1.4-3.2,3.2c0,1.8,1.4,3.2,3.2,3.2c1.7,0,3.2-1.4,3.2-3.2
	C99,116.5,97.6,115,95.9,115z M97.2,125.4c-1.8,0-3.2,1.4-3.2,3.2c0,1.8,1.4,3.2,3.2,3.2c1.8,0,3.2-1.4,3.2-3.2
	C100.4,126.8,99,125.4,97.2,125.4z M100.2,136.7c-1.8,0-3.2,1.4-3.2,3.2c0,1.8,1.4,3.2,3.2,3.2c1.8,0,3.2-1.4,3.2-3.2
	C103.4,138.1,102,136.7,100.2,136.7z M104.8,148.2c-1.8,0-3.2,1.4-3.2,3.2c0,1.7,1.4,3.2,3.2,3.2c1.8,0,3.2-1.4,3.2-3.2
	C107.9,149.6,106.5,148.2,104.8,148.2z M94.5,147.2c-1.8,0-3.2,1.4-3.2,3.2c0,1.8,1.4,3.2,3.2,3.2c1.8,0,3.2-1.4,3.2-3.2
	C97.6,148.6,96.2,147.2,94.5,147.2z M89.7,136.7c-1.8,0-3.2,1.4-3.2,3.2c0,1.8,1.4,3.2,3.2,3.2c1.8,0,3.2-1.4,3.2-3.2
	C92.9,138.1,91.5,136.7,89.7,136.7z M79.2,138.3c-1.8,0-3.2,1.4-3.2,3.2c0,1.8,1.4,3.2,3.2,3.2c1.8,0,3.2-1.4,3.2-3.2
	C82.4,139.7,80.9,138.3,79.2,138.3z M75.6,128.5c-1.8,0-3.2,1.4-3.2,3.2c0,1.8,1.4,3.2,3.2,3.2c1.8,0,3.2-1.4,3.2-3.2
	C78.8,130,77.4,128.5,75.6,128.5z M65.1,132.3c-1.8,0-3.2,1.4-3.2,3.2c0,1.8,1.4,3.2,3.2,3.2c1.7,0,3.2-1.4,3.2-3.2
	C68.3,133.7,66.9,132.3,65.1,132.3z M54.6,137.3c-1.8,0-3.2,1.4-3.2,3.2c0,1.8,1.4,3.2,3.2,3.2c1.8,0,3.2-1.4,3.2-3.2
	C57.8,138.7,56.4,137.3,54.6,137.3z M44.5,143.6c-1.7,0-3.2,1.4-3.2,3.2c0,1.8,1.4,3.2,3.2,3.2c1.8,0,3.2-1.4,3.2-3.2
	C47.7,145,46.2,143.6,44.5,143.6z M34.8,151.7c-1.8,0-3.2,1.4-3.2,3.2c0,1.8,1.4,3.2,3.2,3.2c1.8,0,3.2-1.4,3.2-3.2
	C37.9,153.2,36.5,151.7,34.8,151.7z M39.9,159.9c-1.8,0-3.2,1.4-3.2,3.2c0,1.8,1.4,3.2,3.2,3.2c1.8,0,3.2-1.4,3.2-3.2
	C43.1,161.3,41.7,159.9,39.9,159.9z M49.1,152.3c-1.8,0-3.2,1.4-3.2,3.2c0,1.8,1.4,3.2,3.2,3.2c1.7,0,3.2-1.4,3.2-3.2
	C52.2,153.8,50.8,152.3,49.1,152.3z M58.8,146.2c-1.8,0-3.2,1.4-3.2,3.2c0,1.8,1.4,3.2,3.2,3.2c1.8,0,3.2-1.4,3.2-3.2
	C61.9,147.6,60.5,146.2,58.8,146.2z M68.7,141.4c-1.8,0-3.2,1.4-3.2,3.2c0,1.8,1.4,3.2,3.2,3.2c1.8,0,3.2-1.4,3.2-3.2
	C71.9,142.8,70.4,141.4,68.7,141.4z M74,150.9c-1.8,0-3.2,1.4-3.2,3.2c0,1.8,1.4,3.2,3.2,3.2c1.8,0,3.2-1.4,3.2-3.2
	C77.2,152.4,75.8,150.9,74,150.9z M63.9,155.1c-1.8,0-3.2,1.4-3.2,3.2c0,1.8,1.4,3.2,3.2,3.2c1.8,0,3.2-1.4,3.2-3.2
	C67.1,156.5,65.7,155.1,63.9,155.1z M54.8,160.7c-1.8,0-3.2,1.4-3.2,3.2c0,1.8,1.4,3.2,3.2,3.2c1.7,0,3.2-1.4,3.2-3.2
	C58,162.1,56.6,160.7,54.8,160.7z M45.9,167.8c-1.8,0-3.2,1.4-3.2,3.2c0,1.8,1.4,3.2,3.2,3.2c1.7,0,3.2-1.4,3.2-3.2
	C49.1,169.2,47.6,167.8,45.9,167.8z M37.7,175.9c-1.8,0-3.2,1.4-3.2,3.2c0,1.8,1.4,3.2,3.2,3.2c1.8,0,3.2-1.4,3.2-3.2
	C40.9,177.4,39.5,175.9,37.7,175.9z M30.6,185.5c-1.8,0-3.2,1.4-3.2,3.2c0,1.8,1.4,3.2,3.2,3.2c1.8,0,3.2-1.4,3.2-3.2
	C33.8,186.9,32.4,185.5,30.6,185.5z M24.5,195.8c-1.8,0-3.2,1.4-3.2,3.2c0,1.8,1.4,3.2,3.2,3.2c1.7,0,3.2-1.4,3.2-3.2
	C27.6,197.2,26.2,195.8,24.5,195.8z M31.6,168.6c-1.8,0-3.2,1.4-3.2,3.2c0,1.8,1.4,3.2,3.2,3.2c1.8,0,3.2-1.4,3.2-3.2
	C34.8,170,33.3,168.6,31.6,168.6z M24.1,178.3c-1.8,0-3.2,1.4-3.2,3.2c0,1.8,1.4,3.2,3.2,3.2c1.7,0,3.2-1.4,3.2-3.2
	C27.2,179.7,25.8,178.3,24.1,178.3z M73.4,118.6c-1.8,0-3.2,1.4-3.2,3.2c0,1.8,1.4,3.2,3.2,3.2c1.8,0,3.2-1.4,3.2-3.2
	C76.6,120,75.2,118.6,73.4,118.6z M62.3,122.6c-1.8,0-3.2,1.4-3.2,3.2c0,1.8,1.4,3.2,3.2,3.2c1.8,0,3.2-1.4,3.2-3.2
	C65.5,124,64.1,122.6,62.3,122.6z M51.2,128.1c-1.8,0-3.2,1.4-3.2,3.2c0,1.8,1.4,3.2,3.2,3.2c1.8,0,3.2-1.4,3.2-3.2
	C54.4,129.6,53,128.1,51.2,128.1z M41.1,134.7c-1.8,0-3.2,1.4-3.2,3.2c0,1.8,1.4,3.2,3.2,3.2s3.2-1.4,3.2-3.2
	C44.3,136.1,42.9,134.7,41.1,134.7z M84.2,148.4c-1.8,0-3.2,1.4-3.2,3.2c0,1.8,1.4,3.2,3.2,3.2c1.8,0,3.2-1.4,3.2-3.2
	C87.3,149.8,85.9,148.4,84.2,148.4z M86.7,126.2c-1.8,0-3.2,1.4-3.2,3.2c0,1.8,1.4,3.2,3.2,3.2c1.8,0,3.2-1.4,3.2-3.2
	C89.9,127.6,88.5,126.2,86.7,126.2z M84.5,116.4c-1.8,0-3.2,1.4-3.2,3.2c0,1.8,1.4,3.2,3.2,3.2c1.8,0,3.2-1.4,3.2-3.2
	C87.7,117.9,86.3,116.4,84.5,116.4z M111.9,161.1c-1.8,0-3.2,1.4-3.2,3.2c0,1.8,1.4,3.2,3.2,3.2c1.8,0,3.2-1.4,3.2-3.2
	C115.1,162.5,113.7,161.1,111.9,161.1z M111.1,171.2c-1.8,0-3.2,1.4-3.2,3.2c0,1.8,1.4,3.2,3.2,3.2c1.7,0,3.2-1.4,3.2-3.2
	C114.3,172.6,112.9,171.2,111.1,171.2z M112.9,180.7c-1.8,0-3.2,1.4-3.2,3.2c0,1.8,1.4,3.2,3.2,3.2c1.8,0,3.2-1.4,3.2-3.2
	C116.1,182.1,114.7,180.7,112.9,180.7z M117.5,190c-1.8,0-3.2,1.4-3.2,3.2c0,1.8,1.4,3.2,3.2,3.2c1.8,0,3.2-1.4,3.2-3.2
	C120.6,191.4,119.2,190,117.5,190z M129.8,208.5c-1.8,0-3.2,1.4-3.2,3.2c0,1.8,1.4,3.2,3.2,3.2c1.7,0,3.2-1.4,3.2-3.2
	C132.9,209.9,131.5,208.5,129.8,208.5z M122.6,216c-1.8,0-3.2,1.4-3.2,3.2c0,1.8,1.4,3.2,3.2,3.2c1.7,0,3.2-1.4,3.2-3.2
	C125.8,217.4,124.4,216,122.6,216z M119.3,225.7c-1.7,0-3.2,1.4-3.2,3.2c0,1.8,1.4,3.2,3.2,3.2c1.8,0,3.2-1.4,3.2-3.2
	C122.4,227.1,121,225.7,119.3,225.7z M120,236.4c-1.8,0-3.2,1.4-3.2,3.2c0,1.8,1.4,3.2,3.2,3.2c1.8,0,3.2-1.4,3.2-3.2
	C123.2,237.8,121.8,236.4,120,236.4z M123.8,247.1c-1.8,0-3.2,1.4-3.2,3.2c0,1.8,1.4,3.2,3.2,3.2c1.8,0,3.2-1.4,3.2-3.2
	C127,248.6,125.6,247.1,123.8,247.1z M131.6,256.9c-1.8,0-3.2,1.4-3.2,3.2c0,1.8,1.4,3.2,3.2,3.2c1.8,0,3.2-1.4,3.2-3.2
	C134.7,258.3,133.3,256.9,131.6,256.9z M141.9,264.6c-1.8,0-3.2,1.4-3.2,3.2c0,1.8,1.4,3.2,3.2,3.2c1.7,0,3.2-1.4,3.2-3.2
	C145,266,143.6,264.6,141.9,264.6z M132.5,268.4c-1.8,0-3.2,1.4-3.2,3.2c0,1.8,1.4,3.2,3.2,3.2c1.8,0,3.2-1.4,3.2-3.2
	C135.7,269.8,134.3,268.4,132.5,268.4z M122,269.9c-1.7,0-3.2,1.4-3.2,3.2c0,1.8,1.4,3.2,3.2,3.2c1.8,0,3.2-1.4,3.2-3.2
	C125.2,271.4,123.8,269.9,122,269.9z M111.1,269.5c-1.8,0-3.2,1.4-3.2,3.2c0,1.8,1.4,3.2,3.2,3.2c1.7,0,3.2-1.4,3.2-3.2
	C114.3,271,112.9,269.5,111.1,269.5z M100.2,267c-1.8,0-3.2,1.4-3.2,3.2c0,1.8,1.4,3.2,3.2,3.2c1.8,0,3.2-1.4,3.2-3.2
	C103.4,268.4,102,267,100.2,267z M89.3,262.2c-1.8,0-3.2,1.4-3.2,3.2c0,1.7,1.4,3.2,3.2,3.2c1.8,0,3.2-1.4,3.2-3.2
	C92.5,263.6,91.1,262.2,89.3,262.2z M78.8,255.5c-1.8,0-3.2,1.4-3.2,3.2c0,1.8,1.4,3.2,3.2,3.2c1.8,0,3.2-1.4,3.2-3.2
	C82,256.9,80.5,255.5,78.8,255.5z M69.5,246.9c-1.8,0-3.2,1.4-3.2,3.2c0,1.8,1.4,3.2,3.2,3.2c1.8,0,3.2-1.4,3.2-3.2
	C72.6,248.4,71.2,246.9,69.5,246.9z M61.3,236.8c-1.8,0-3.2,1.4-3.2,3.2c0,1.7,1.4,3.2,3.2,3.2c1.8,0,3.2-1.4,3.2-3.2
	C64.5,238.2,63.1,236.8,61.3,236.8z M72.6,237c-1.8,0-3.2,1.4-3.2,3.2c0,1.8,1.4,3.2,3.2,3.2c1.8,0,3.2-1.4,3.2-3.2
	C75.8,238.4,74.4,237,72.6,237z M85.5,236c-1.8,0-3.2,1.4-3.2,3.2c0,1.8,1.4,3.2,3.2,3.2s3.2-1.4,3.2-3.2
	C88.7,237.4,87.3,236,85.5,236z M100.4,232.7c-1.8,0-3.2,1.4-3.2,3.2c0,1.8,1.4,3.2,3.2,3.2c1.7,0,3.2-1.4,3.2-3.2
	C103.6,234.1,102.2,232.7,100.4,232.7z M109.1,223.9c-1.7,0-3.2,1.4-3.2,3.2s1.4,3.2,3.2,3.2c1.8,0,3.2-1.4,3.2-3.2
	S110.9,223.9,109.1,223.9z M111.9,212.8c-1.8,0-3.2,1.4-3.2,3.2c0,1.8,1.4,3.2,3.2,3.2c1.8,0,3.2-1.4,3.2-3.2
	C115.1,214.2,113.7,212.8,111.9,212.8z M117.5,204.1c-1.8,0-3.2,1.4-3.2,3.2c0,1.8,1.4,3.2,3.2,3.2c1.8,0,3.2-1.4,3.2-3.2
	C120.6,205.5,119.2,204.1,117.5,204.1z M109.5,197.2c-1.8,0-3.2,1.4-3.2,3.2c0,1.8,1.4,3.2,3.2,3.2c1.7,0,3.2-1.4,3.2-3.2
	C112.7,198.6,111.3,197.2,109.5,197.2z M103.8,188.8c-1.8,0-3.2,1.4-3.2,3.2c0,1.8,1.4,3.2,3.2,3.2c1.8,0,3.2-1.4,3.2-3.2
	C107,190.2,105.5,188.8,103.8,188.8z M100.8,179.5c-1.8,0-3.2,1.4-3.2,3.2c0,1.8,1.4,3.2,3.2,3.2c1.8,0,3.2-1.4,3.2-3.2
	C104,180.9,102.6,179.5,100.8,179.5z M100.2,169c-1.8,0-3.2,1.4-3.2,3.2c0,1.8,1.4,3.2,3.2,3.2c1.8,0,3.2-1.4,3.2-3.2
	C103.4,170.4,102,169,100.2,169z M89.5,169.8c-1.8,0-3.2,1.4-3.2,3.2c0,1.8,1.4,3.2,3.2,3.2c1.8,0,3.2-1.4,3.2-3.2
	C92.7,171.2,91.3,169.8,89.5,169.8z M89.9,180.5c-1.8,0-3.2,1.4-3.2,3.2c0,1.8,1.4,3.2,3.2,3.2c1.7,0,3.2-1.4,3.2-3.2
	C93.1,181.9,91.7,180.5,89.9,180.5z M92.3,190.6c-1.8,0-3.2,1.4-3.2,3.2c0,1.8,1.4,3.2,3.2,3.2c1.8,0,3.2-1.4,3.2-3.2
	C95.5,192,94,190.6,92.3,190.6z M97,199.7c-1.8,0-3.2,1.4-3.2,3.2c0,1.8,1.4,3.2,3.2,3.2c1.8,0,3.2-1.4,3.2-3.2
	C100.2,201.2,98.8,199.7,97,199.7z M86.7,204.3c-1.8,0-3.2,1.4-3.2,3.2c0,1.8,1.4,3.2,3.2,3.2c1.8,0,3.2-1.4,3.2-3.2
	C89.9,205.7,88.5,204.3,86.7,204.3z M78,210.8c-1.7,0-3.2,1.4-3.2,3.2c0,1.8,1.4,3.2,3.2,3.2c1.8,0,3.2-1.4,3.2-3.2
	C81.2,212.3,79.8,210.8,78,210.8z M71.3,218.4c-1.7,0-3.2,1.4-3.2,3.2c0,1.8,1.4,3.2,3.2,3.2c1.8,0,3.2-1.4,3.2-3.2
	C74.4,219.8,73,218.4,71.3,218.4z M65.5,226.9c-1.8,0-3.2,1.4-3.2,3.2c0,1.8,1.4,3.2,3.2,3.2c1.8,0,3.2-1.4,3.2-3.2
	C68.7,228.3,67.3,226.9,65.5,226.9z M54.2,224.9c-1.8,0-3.2,1.4-3.2,3.2c0,1.7,1.4,3.2,3.2,3.2c1.8,0,3.2-1.4,3.2-3.2
	C57.4,226.3,56,224.9,54.2,224.9z M44.5,221.8c-1.7,0-3.2,1.4-3.2,3.2c0,1.7,1.4,3.2,3.2,3.2c1.8,0,3.2-1.4,3.2-3.2
	C47.7,223.2,46.2,221.8,44.5,221.8z M35.2,217.8c-1.8,0-3.2,1.4-3.2,3.2c0,1.8,1.4,3.2,3.2,3.2c1.8,0,3.2-1.4,3.2-3.2
	C38.3,219.2,36.9,217.8,35.2,217.8z M40.1,207.3c-1.7,0-3.2,1.4-3.2,3.2c0,1.8,1.4,3.2,3.2,3.2c1.8,0,3.2-1.4,3.2-3.2
	C43.3,208.7,41.9,207.3,40.1,207.3z M49.2,212c-1.8,0-3.2,1.4-3.2,3.2c0,1.8,1.4,3.2,3.2,3.2c1.8,0,3.2-1.4,3.2-3.2
	C52.4,213.5,51,212,49.2,212z M59.4,215.6c-1.7,0-3.2,1.4-3.2,3.2c0,1.8,1.4,3.2,3.2,3.2c1.8,0,3.2-1.4,3.2-3.2
	C62.5,217,61.1,215.6,59.4,215.6z M65.9,207.3c-1.8,0-3.2,1.4-3.2,3.2c0,1.8,1.4,3.2,3.2,3.2c1.8,0,3.2-1.4,3.2-3.2
	C69.1,208.7,67.7,207.3,65.9,207.3z M73.6,200.3c-1.8,0-3.2,1.4-3.2,3.2c0,1.8,1.4,3.2,3.2,3.2c1.8,0,3.2-1.4,3.2-3.2
	C76.8,201.7,75.4,200.3,73.6,200.3z M82.2,194.8c-1.8,0-3.2,1.4-3.2,3.2c0,1.8,1.4,3.2,3.2,3.2c1.8,0,3.2-1.4,3.2-3.2
	C85.3,196.2,83.9,194.8,82.2,194.8z M80,183.9c-1.7,0-3.2,1.4-3.2,3.2c0,1.8,1.4,3.2,3.2,3.2c1.8,0,3.2-1.4,3.2-3.2
	C83.2,185.3,81.7,183.9,80,183.9z M79.2,172c-1.8,0-3.2,1.4-3.2,3.2c0,1.8,1.4,3.2,3.2,3.2c1.8,0,3.2-1.4,3.2-3.2
	C82.4,173.4,80.9,172,79.2,172z M69.7,176.3c-1.7,0-3.2,1.4-3.2,3.2c0,1.8,1.4,3.2,3.2,3.2c1.8,0,3.2-1.4,3.2-3.2
	C72.8,177.8,71.4,176.3,69.7,176.3z M70.9,188.8c-1.8,0-3.2,1.4-3.2,3.2c0,1.8,1.4,3.2,3.2,3.2c1.8,0,3.2-1.4,3.2-3.2
	C74,190.2,72.6,188.8,70.9,188.8z M62.5,195.2c-1.7,0-3.2,1.4-3.2,3.2c0,1.8,1.4,3.2,3.2,3.2c1.8,0,3.2-1.4,3.2-3.2
	C65.7,196.6,64.3,195.2,62.5,195.2z M61,182.1c-1.8,0-3.2,1.4-3.2,3.2c0,1.8,1.4,3.2,3.2,3.2c1.7,0,3.2-1.4,3.2-3.2
	C64.1,183.5,62.7,182.1,61,182.1z M53.2,189.4c-1.8,0-3.2,1.4-3.2,3.2c0,1.8,1.4,3.2,3.2,3.2c1.8,0,3.2-1.4,3.2-3.2
	C56.4,190.8,55,189.4,53.2,189.4z M46.3,197.9c-1.7,0-3.2,1.4-3.2,3.2c0,1.8,1.4,3.2,3.2,3.2c1.8,0,3.2-1.4,3.2-3.2
	C49.4,199.4,48,197.9,46.3,197.9z M55.4,202.9c-1.8,0-3.2,1.4-3.2,3.2c0,1.8,1.4,3.2,3.2,3.2c1.8,0,3.2-1.4,3.2-3.2
	C58.6,204.3,57.1,202.9,55.4,202.9z M103.4,207.3c-1.7,0-3.2,1.4-3.2,3.2c0,1.8,1.4,3.2,3.2,3.2c1.8,0,3.2-1.4,3.2-3.2
	C106.6,208.7,105.1,207.3,103.4,207.3z M100.2,219.4c-1.8,0-3.2,1.4-3.2,3.2c0,1.8,1.4,3.2,3.2,3.2c1.8,0,3.2-1.4,3.2-3.2
	C103.4,220.8,102,219.4,100.2,219.4z M91.9,227.1c-1.8,0-3.2,1.4-3.2,3.2c0,1.8,1.4,3.2,3.2,3.2c1.8,0,3.2-1.4,3.2-3.2
	C95.1,228.5,93.6,227.1,91.9,227.1z M84.4,219.8c-1.8,0-3.2,1.4-3.2,3.2c0,1.8,1.4,3.2,3.2,3.2c1.7,0,3.2-1.4,3.2-3.2
	C87.5,221.2,86.1,219.8,84.4,219.8z M92.7,213c-1.8,0-3.2,1.4-3.2,3.2c0,1.8,1.4,3.2,3.2,3.2c1.8,0,3.2-1.4,3.2-3.2
	C95.9,214.4,94.4,213,92.7,213z M77.8,228.1c-1.8,0-3.2,1.4-3.2,3.2c0,1.8,1.4,3.2,3.2,3.2c1.8,0,3.2-1.4,3.2-3.2
	C81,229.5,79.6,228.1,77.8,228.1z M109.7,235.8c-1.8,0-3.2,1.4-3.2,3.2c0,1.8,1.4,3.2,3.2,3.2c1.8,0,3.2-1.4,3.2-3.2
	C112.9,237.2,111.5,235.8,109.7,235.8z M114.1,247.7c-1.8,0-3.2,1.4-3.2,3.2c0,1.8,1.4,3.2,3.2,3.2c1.8,0,3.2-1.4,3.2-3.2
	C117.3,249.1,115.8,247.7,114.1,247.7z M104.2,245.9c-1.7,0-3.2,1.4-3.2,3.2c0,1.8,1.4,3.2,3.2,3.2c1.8,0,3.2-1.4,3.2-3.2
	C107.4,247.4,105.9,245.9,104.2,245.9z M94.7,242.2c-1.8,0-3.2,1.4-3.2,3.2c0,1.8,1.4,3.2,3.2,3.2c1.8,0,3.2-1.4,3.2-3.2
	C97.8,243.6,96.4,242.2,94.7,242.2z M81.6,245.5c-1.8,0-3.2,1.4-3.2,3.2c0,1.8,1.4,3.2,3.2,3.2c1.8,0,3.2-1.4,3.2-3.2
	C84.7,247,83.3,245.5,81.6,245.5z M90.9,252.1c-1.8,0-3.2,1.4-3.2,3.2c0,1.8,1.4,3.2,3.2,3.2c1.7,0,3.2-1.4,3.2-3.2
	C94.1,253.5,92.6,252.1,90.9,252.1z M101,256.5c-1.7,0-3.2,1.4-3.2,3.2c0,1.8,1.4,3.2,3.2,3.2c1.8,0,3.2-1.4,3.2-3.2
	C104.2,257.9,102.8,256.5,101,256.5z M111.5,258.8c-1.8,0-3.2,1.4-3.2,3.2c0,1.8,1.4,3.2,3.2,3.2c1.7,0,3.2-1.4,3.2-3.2
	C114.7,260.3,113.3,258.8,111.5,258.8z M121.6,259c-1.7,0-3.2,1.4-3.2,3.2c0,1.8,1.4,3.2,3.2,3.2c1.8,0,3.2-1.4,3.2-3.2
	C124.8,260.5,123.4,259,121.6,259z M50.6,235c-1.8,0-3.2,1.4-3.2,3.2c0,1.8,1.4,3.2,3.2,3.2c1.8,0,3.2-1.4,3.2-3.2
	C53.8,236.5,52.4,235,50.6,235z M40.7,232.7c-1.8,0-3.2,1.4-3.2,3.2c0,1.8,1.4,3.2,3.2,3.2c1.8,0,3.2-1.4,3.2-3.2
	C43.9,234.1,42.5,232.7,40.7,232.7z M31.6,229.1c-1.8,0-3.2,1.4-3.2,3.2c0,1.8,1.4,3.2,3.2,3.2c1.8,0,3.2-1.4,3.2-3.2
	C34.8,230.5,33.3,229.1,31.6,229.1z M29.2,241c-1.8,0-3.2,1.4-3.2,3.2c0,1.8,1.4,3.2,3.2,3.2c1.8,0,3.2-1.4,3.2-3.2
	C32.4,242.4,31,241,29.2,241z M38.5,244c-1.8,0-3.2,1.4-3.2,3.2c0,1.8,1.4,3.2,3.2,3.2c1.8,0,3.2-1.4,3.2-3.2
	C41.7,245.4,40.3,244,38.5,244z M48.3,246.1c-1.8,0-3.2,1.4-3.2,3.2c0,1.8,1.4,3.2,3.2,3.2c1.8,0,3.2-1.4,3.2-3.2
	C51.4,247.6,50,246.1,48.3,246.1z M58.6,247.1c-1.8,0-3.2,1.4-3.2,3.2c0,1.8,1.4,3.2,3.2,3.2c1.8,0,3.2-1.4,3.2-3.2
	C61.7,248.6,60.3,247.1,58.6,247.1z M28,253.3c-1.8,0-3.2,1.4-3.2,3.2c0,1.8,1.4,3.2,3.2,3.2c1.7,0,3.2-1.4,3.2-3.2
	C31.2,254.7,29.8,253.3,28,253.3z M37.6,255.9c-1.8,0-3.2,1.4-3.2,3.2c0,1.7,1.4,3.2,3.2,3.2c1.8,0,3.2-1.4,3.2-3.2
	C40.8,257.3,39.3,255.9,37.6,255.9z M47.1,257.6c-1.7,0-3.2,1.4-3.2,3.2c0,1.8,1.4,3.2,3.2,3.2c1.8,0,3.2-1.4,3.2-3.2
	C50.3,259,48.9,257.6,47.1,257.6z M57.2,258.1c-1.8,0-3.2,1.4-3.2,3.2c0,1.8,1.4,3.2,3.2,3.2c1.7,0,3.2-1.4,3.2-3.2
	C60.4,259.5,59,258.1,57.2,258.1z M67.8,257.6c-1.8,0-3.2,1.4-3.2,3.2c0,1.8,1.4,3.2,3.2,3.2c1.8,0,3.2-1.4,3.2-3.2
	C71,259,69.5,257.6,67.8,257.6z M78.2,266c-1.8,0-3.2,1.4-3.2,3.2c0,1.8,1.4,3.2,3.2,3.2c1.8,0,3.2-1.4,3.2-3.2
	C81.4,267.4,80,266,78.2,266z M67.7,268.4c-1.8,0-3.2,1.4-3.2,3.2c0,1.8,1.4,3.2,3.2,3.2c1.8,0,3.2-1.4,3.2-3.2
	C70.8,269.8,69.4,268.4,67.7,268.4z M57.2,269.3c-1.8,0-3.2,1.4-3.2,3.2c0,1.8,1.4,3.2,3.2,3.2c1.7,0,3.2-1.4,3.2-3.2
	C60.4,270.7,59,269.3,57.2,269.3z M47.5,269.1c-1.8,0-3.2,1.4-3.2,3.2c0,1.8,1.4,3.2,3.2,3.2c1.8,0,3.2-1.4,3.2-3.2
	C50.7,270.6,49.3,269.1,47.5,269.1z M37.8,268c-1.8,0-3.2,1.4-3.2,3.2c0,1.8,1.4,3.2,3.2,3.2c1.7,0,3.2-1.4,3.2-3.2
	C41,269.4,39.6,268,37.8,268z M49.3,281.1c-1.8,0-3.2,1.4-3.2,3.2c0,1.8,1.4,3.2,3.2,3.2c1.8,0,3.2-1.4,3.2-3.2
	C52.5,282.5,51,281.1,49.3,281.1z M58.8,280.7c-1.8,0-3.2,1.4-3.2,3.2c0,1.8,1.4,3.2,3.2,3.2c1.8,0,3.2-1.4,3.2-3.2
	C62,282.1,60.6,280.7,58.8,280.7z M68.9,279.2c-1.8,0-3.2,1.4-3.2,3.2c0,1.8,1.4,3.2,3.2,3.2s3.2-1.4,3.2-3.2
	C72.1,280.6,70.7,279.2,68.9,279.2z M79,276.7c-1.8,0-3.2,1.4-3.2,3.2s1.4,3.2,3.2,3.2c1.7,0,3.2-1.4,3.2-3.2S80.7,276.7,79,276.7z
	 M52.3,293.2c-1.8,0-3.2,1.4-3.2,3.2c0,1.8,1.4,3.2,3.2,3.2c1.8,0,3.2-1.4,3.2-3.2C55.5,294.6,54.1,293.2,52.3,293.2z M62.1,292.3
	c-1.8,0-3.2,1.4-3.2,3.2c0,1.8,1.4,3.2,3.2,3.2c1.8,0,3.2-1.4,3.2-3.2C65.3,293.7,63.9,292.3,62.1,292.3z M71.7,290.4
	c-1.8,0-3.2,1.4-3.2,3.2s1.4,3.2,3.2,3.2c1.8,0,3.2-1.4,3.2-3.2S73.4,290.4,71.7,290.4z M81.4,287.1c-1.8,0-3.2,1.4-3.2,3.2
	c0,1.8,1.4,3.2,3.2,3.2c1.8,0,3.2-1.4,3.2-3.2C84.5,288.5,83.1,287.1,81.4,287.1z M91.1,283c-1.8,0-3.2,1.4-3.2,3.2
	c0,1.8,1.4,3.2,3.2,3.2c1.8,0,3.2-1.4,3.2-3.2C94.2,284.4,92.8,283,91.1,283z M103.8,287.4c-1.8,0-3.2,1.4-3.2,3.2
	c0,1.8,1.4,3.2,3.2,3.2c1.7,0,3.2-1.4,3.2-3.2C106.9,288.8,105.5,287.4,103.8,287.4z M89.3,272.7c-1.8,0-3.2,1.4-3.2,3.2
	c0,1.8,1.4,3.2,3.2,3.2c1.8,0,3.2-1.4,3.2-3.2C92.5,274.1,91,272.7,89.3,272.7z M101,277.2c-1.7,0-3.2,1.4-3.2,3.2
	c0,1.8,1.4,3.2,3.2,3.2c1.8,0,3.2-1.4,3.2-3.2C104.2,278.6,102.7,277.2,101,277.2z M112.7,279.7c-1.8,0-3.2,1.4-3.2,3.2
	c0,1.8,1.4,3.2,3.2,3.2c1.8,0,3.2-1.4,3.2-3.2C115.9,281.1,114.5,279.7,112.7,279.7z M124.3,280.2c-1.8,0-3.2,1.4-3.2,3.2
	c0,1.8,1.4,3.2,3.2,3.2c1.7,0,3.2-1.4,3.2-3.2C127.4,281.6,126,280.2,124.3,280.2z M135.7,278.8c-1.7,0-3.2,1.4-3.2,3.2
	c0,1.8,1.4,3.2,3.2,3.2c1.8,0,3.2-1.4,3.2-3.2C138.9,280.2,137.4,278.8,135.7,278.8z M145.7,275.4c-1.8,0-3.2,1.4-3.2,3.2
	c0,1.8,1.4,3.2,3.2,3.2c1.8,0,3.2-1.4,3.2-3.2C148.9,276.8,147.5,275.4,145.7,275.4z M151.4,284.3c-1.8,0-3.2,1.4-3.2,3.2
	c0,1.8,1.4,3.2,3.2,3.2c1.7,0,3.2-1.4,3.2-3.2C154.6,285.7,153.2,284.3,151.4,284.3z M158.3,292.1c-1.8,0-3.2,1.4-3.2,3.2
	c0,1.8,1.4,3.2,3.2,3.2c1.7,0,3.2-1.4,3.2-3.2C161.5,293.5,160.1,292.1,158.3,292.1z M166.5,298.4c-1.8,0-3.2,1.4-3.2,3.2
	c0,1.8,1.4,3.2,3.2,3.2c1.8,0,3.2-1.4,3.2-3.2C169.7,299.8,168.3,298.4,166.5,298.4z M175.8,303.2c-1.8,0-3.2,1.4-3.2,3.2
	s1.4,3.2,3.2,3.2c1.8,0,3.2-1.4,3.2-3.2S177.6,303.2,175.8,303.2z M186,307c-1.8,0-3.2,1.4-3.2,3.2c0,1.7,1.4,3.2,3.2,3.2
	c1.8,0,3.2-1.4,3.2-3.2C189.2,308.4,187.8,307,186,307z M196.7,309.1c-1.8,0-3.2,1.4-3.2,3.2c0,1.8,1.4,3.2,3.2,3.2
	c1.7,0,3.2-1.4,3.2-3.2C199.9,310.5,198.5,309.1,196.7,309.1z M208,310c-1.8,0-3.2,1.4-3.2,3.2c0,1.8,1.4,3.2,3.2,3.2
	c1.8,0,3.2-1.4,3.2-3.2C211.2,311.4,209.8,310,208,310z M219.5,309.2c-1.8,0-3.2,1.4-3.2,3.2c0,1.8,1.4,3.2,3.2,3.2
	c1.8,0,3.2-1.4,3.2-3.2C222.6,310.6,221.2,309.2,219.5,309.2z M231.3,307.1c-1.8,0-3.2,1.4-3.2,3.2c0,1.8,1.4,3.2,3.2,3.2
	c1.8,0,3.2-1.4,3.2-3.2C234.5,308.5,233.1,307.1,231.3,307.1z M231.3,316.8c-1.8,0-3.2,1.4-3.2,3.2c0,1.8,1.4,3.2,3.2,3.2
	c1.8,0,3.2-1.4,3.2-3.2C234.5,318.2,233.1,316.8,231.3,316.8z M219.1,319c-1.7,0-3.2,1.4-3.2,3.2c0,1.8,1.4,3.2,3.2,3.2
	c1.8,0,3.2-1.4,3.2-3.2C222.3,320.5,220.8,319,219.1,319z M207,319.7c-1.7,0-3.2,1.4-3.2,3.2c0,1.8,1.4,3.2,3.2,3.2
	c1.8,0,3.2-1.4,3.2-3.2C210.2,321.1,208.8,319.7,207,319.7z M195.2,319.2c-1.7,0-3.2,1.4-3.2,3.2c0,1.8,1.4,3.2,3.2,3.2
	c1.8,0,3.2-1.4,3.2-3.2C198.4,320.6,196.9,319.2,195.2,319.2z M183.9,317.2c-1.8,0-3.2,1.4-3.2,3.2c0,1.8,1.4,3.2,3.2,3.2
	c1.7,0,3.2-1.4,3.2-3.2C187,318.6,185.6,317.2,183.9,317.2z M173.3,313.6c-1.8,0-3.2,1.4-3.2,3.2c0,1.8,1.4,3.2,3.2,3.2
	c1.7,0,3.2-1.4,3.2-3.2C176.5,315.1,175,313.6,173.3,313.6z M163.6,309.1c-1.8,0-3.2,1.4-3.2,3.2c0,1.8,1.4,3.2,3.2,3.2
	c1.7,0,3.2-1.4,3.2-3.2C166.8,310.5,165.4,309.1,163.6,309.1z M154.4,303.1c-1.8,0-3.2,1.4-3.2,3.2c0,1.8,1.4,3.2,3.2,3.2
	c1.8,0,3.2-1.4,3.2-3.2C157.6,304.5,156.2,303.1,154.4,303.1z M150,313c-1.8,0-3.2,1.4-3.2,3.2c0,1.8,1.4,3.2,3.2,3.2
	c1.8,0,3.2-1.4,3.2-3.2C153.2,314.4,151.8,313,150,313z M144.6,321.7c-1.8,0-3.2,1.4-3.2,3.2c0,1.8,1.4,3.2,3.2,3.2
	c1.8,0,3.2-1.4,3.2-3.2C147.8,323.1,146.4,321.7,144.6,321.7z M138.6,329.6c-1.8,0-3.2,1.4-3.2,3.2c0,1.8,1.4,3.2,3.2,3.2
	c1.7,0,3.2-1.4,3.2-3.2C141.7,331,140.3,329.6,138.6,329.6z M131.8,336.5c-1.8,0-3.2,1.4-3.2,3.2c0,1.8,1.4,3.2,3.2,3.2
	c1.8,0,3.2-1.4,3.2-3.2C135,338,133.5,336.5,131.8,336.5z M148.9,335.5c-1.7,0-3.2,1.4-3.2,3.2c0,1.8,1.4,3.2,3.2,3.2
	c1.8,0,3.2-1.4,3.2-3.2C152.1,336.9,150.6,335.5,148.9,335.5z M160.2,340.1c-1.8,0-3.2,1.4-3.2,3.2c0,1.8,1.4,3.2,3.2,3.2
	c1.8,0,3.2-1.4,3.2-3.2C163.4,341.5,162,340.1,160.2,340.1z M165.4,332c-1.8,0-3.2,1.4-3.2,3.2c0,1.8,1.4,3.2,3.2,3.2
	c1.8,0,3.2-1.4,3.2-3.2C168.5,333.4,167.1,332,165.4,332z M169.8,323.3c-1.8,0-3.2,1.4-3.2,3.2c0,1.8,1.4,3.2,3.2,3.2
	c1.8,0,3.2-1.4,3.2-3.2C173,324.7,171.5,323.3,169.8,323.3z M181.1,326.5c-1.8,0-3.2,1.4-3.2,3.2c0,1.8,1.4,3.2,3.2,3.2
	c1.8,0,3.2-1.4,3.2-3.2C184.3,327.9,182.9,326.5,181.1,326.5z M177.2,335.4c-1.8,0-3.2,1.4-3.2,3.2c0,1.8,1.4,3.2,3.2,3.2
	c1.8,0,3.2-1.4,3.2-3.2C180.4,336.8,179,335.4,177.2,335.4z M189.5,337.5c-1.7,0-3.2,1.4-3.2,3.2c0,1.8,1.4,3.2,3.2,3.2
	c1.8,0,3.2-1.4,3.2-3.2C192.7,339,191.3,337.5,189.5,337.5z M192.9,328.6c-1.8,0-3.2,1.4-3.2,3.2c0,1.8,1.4,3.2,3.2,3.2
	c1.8,0,3.2-1.4,3.2-3.2C196.1,330,194.7,328.6,192.9,328.6z M205,329.4c-1.8,0-3.2,1.4-3.2,3.2c0,1.8,1.4,3.2,3.2,3.2
	c1.8,0,3.2-1.4,3.2-3.2C208.2,330.8,206.8,329.4,205,329.4z M159.6,318.8c-1.8,0-3.2,1.4-3.2,3.2c0,1.8,1.4,3.2,3.2,3.2
	c1.8,0,3.2-1.4,3.2-3.2C162.8,320.2,161.3,318.8,159.6,318.8z M154.6,327.3c-1.8,0-3.2,1.4-3.2,3.2c0,1.8,1.4,3.2,3.2,3.2
	c1.8,0,3.2-1.4,3.2-3.2C157.7,328.8,156.3,327.3,154.6,327.3z M242.7,303.7c-1.7,0-3.2,1.4-3.2,3.2c0,1.8,1.4,3.2,3.2,3.2
	c1.8,0,3.2-1.4,3.2-3.2C245.9,305.1,244.5,303.7,242.7,303.7z M146.9,296.1c-1.8,0-3.2,1.4-3.2,3.2c0,1.8,1.4,3.2,3.2,3.2
	c1.8,0,3.2-1.4,3.2-3.2C150.1,297.6,148.6,296.1,146.9,296.1z M141.6,306.2c-1.8,0-3.2,1.4-3.2,3.2c0,1.8,1.4,3.2,3.2,3.2
	c1.8,0,3.2-1.4,3.2-3.2C144.8,307.6,143.4,306.2,141.6,306.2z M135.7,314.8c-1.7,0-3.2,1.4-3.2,3.2c0,1.8,1.4,3.2,3.2,3.2
	c1.8,0,3.2-1.4,3.2-3.2C138.9,316.2,137.4,314.8,135.7,314.8z M129.3,322.7c-1.8,0-3.2,1.4-3.2,3.2c0,1.8,1.4,3.2,3.2,3.2
	c1.8,0,3.2-1.4,3.2-3.2C132.4,324.1,131,322.7,129.3,322.7z M122,329.4c-1.8,0-3.2,1.4-3.2,3.2c0,1.8,1.4,3.2,3.2,3.2
	c1.8,0,3.2-1.4,3.2-3.2C125.1,330.8,123.7,329.4,122,329.4z M114.4,335.1c-1.8,0-3.2,1.4-3.2,3.2c0,1.8,1.4,3.2,3.2,3.2
	c1.8,0,3.2-1.4,3.2-3.2C117.6,336.6,116.2,335.1,114.4,335.1z M105.1,326.7c-1.8,0-3.2,1.4-3.2,3.2c0,1.8,1.4,3.2,3.2,3.2
	c1.8,0,3.2-1.4,3.2-3.2C108.3,328.1,106.9,326.7,105.1,326.7z M88.6,321.9c-1.8,0-3.2,1.4-3.2,3.2c0,1.8,1.4,3.2,3.2,3.2
	c1.8,0,3.2-1.4,3.2-3.2C91.8,323.4,90.4,321.9,88.6,321.9z M81.5,311.7c-1.8,0-3.2,1.4-3.2,3.2s1.4,3.2,3.2,3.2
	c1.8,0,3.2-1.4,3.2-3.2S83.2,311.7,81.5,311.7z M66.6,303.6c-1.8,0-3.2,1.4-3.2,3.2c0,1.7,1.4,3.2,3.2,3.2c1.8,0,3.2-1.4,3.2-3.2
	C69.8,305,68.4,303.6,66.6,303.6z M75.8,301.2c-1.8,0-3.2,1.4-3.2,3.2c0,1.8,1.4,3.2,3.2,3.2c1.8,0,3.2-1.4,3.2-3.2
	C79,302.6,77.5,301.2,75.8,301.2z M85.1,297.8c-1.8,0-3.2,1.4-3.2,3.2c0,1.8,1.4,3.2,3.2,3.2c1.8,0,3.2-1.4,3.2-3.2
	C88.3,299.2,86.9,297.8,85.1,297.8z M90.5,308c-1.8,0-3.2,1.4-3.2,3.2c0,1.8,1.4,3.2,3.2,3.2c1.8,0,3.2-1.4,3.2-3.2
	C93.7,309.4,92.3,308,90.5,308z M99.3,303.2c-1.8,0-3.2,1.4-3.2,3.2s1.4,3.2,3.2,3.2c1.8,0,3.2-1.4,3.2-3.2S101.1,303.2,99.3,303.2z
	 M107.7,297.2c-1.8,0-3.2,1.4-3.2,3.2c0,1.7,1.4,3.2,3.2,3.2c1.8,0,3.2-1.4,3.2-3.2C110.9,298.6,109.5,297.2,107.7,297.2z
	 M116.3,289.7c-1.8,0-3.2,1.4-3.2,3.2c0,1.8,1.4,3.2,3.2,3.2c1.8,0,3.2-1.4,3.2-3.2C119.5,291.1,118.1,289.7,116.3,289.7z
	 M128.5,289.9c-1.8,0-3.2,1.4-3.2,3.2c0,1.8,1.4,3.2,3.2,3.2c1.8,0,3.2-1.4,3.2-3.2C131.7,291.3,130.3,289.9,128.5,289.9z
	 M121.5,298.9c-1.8,0-3.2,1.4-3.2,3.2c0,1.8,1.4,3.2,3.2,3.2c1.8,0,3.2-1.4,3.2-3.2C124.6,300.3,123.2,298.9,121.5,298.9z
	 M113.7,306.2c-1.8,0-3.2,1.4-3.2,3.2c0,1.8,1.4,3.2,3.2,3.2c1.8,0,3.2-1.4,3.2-3.2C116.8,307.6,115.4,306.2,113.7,306.2z
	 M105.5,312.5c-1.8,0-3.2,1.4-3.2,3.2c0,1.8,1.4,3.2,3.2,3.2c1.8,0,3.2-1.4,3.2-3.2C108.7,313.9,107.2,312.5,105.5,312.5z
	 M113,321.2c-1.8,0-3.2,1.4-3.2,3.2c0,1.8,1.4,3.2,3.2,3.2c1.8,0,3.2-1.4,3.2-3.2C116.2,322.6,114.8,321.2,113,321.2z M120.8,314.9
	c-1.8,0-3.2,1.4-3.2,3.2c0,1.8,1.4,3.2,3.2,3.2c1.8,0,3.2-1.4,3.2-3.2C124,316.3,122.6,314.9,120.8,314.9z M127.9,307.2
	c-1.8,0-3.2,1.4-3.2,3.2c0,1.8,1.4,3.2,3.2,3.2c1.8,0,3.2-1.4,3.2-3.2C131.1,308.6,129.6,307.2,127.9,307.2z M134.4,298.4
	c-1.8,0-3.2,1.4-3.2,3.2c0,1.8,1.4,3.2,3.2,3.2c1.8,0,3.2-1.4,3.2-3.2C137.6,299.8,136.2,298.4,134.4,298.4z M140.3,288
	c-1.8,0-3.2,1.4-3.2,3.2c0,1.8,1.4,3.2,3.2,3.2c1.8,0,3.2-1.4,3.2-3.2C143.5,289.4,142.1,288,140.3,288z M97.3,317.8
	c-1.8,0-3.2,1.4-3.2,3.2c0,1.7,1.4,3.2,3.2,3.2s3.2-1.4,3.2-3.2C100.5,319.2,99.1,317.8,97.3,317.8z M94.5,293.1
	c-1.8,0-3.2,1.4-3.2,3.2c0,1.8,1.4,3.2,3.2,3.2c1.7,0,3.2-1.4,3.2-3.2C97.7,294.5,96.3,293.1,94.5,293.1z M101.4,158.5
	c-1.8,0-3.2,1.4-3.2,3.2c0,1.8,1.4,3.2,3.2,3.2c1.8,0,3.2-1.4,3.2-3.2C104.6,159.9,103.2,158.5,101.4,158.5z M90.9,158.5
	c-1.8,0-3.2,1.4-3.2,3.2c0,1.8,1.4,3.2,3.2,3.2c1.7,0,3.2-1.4,3.2-3.2C94.1,159.9,92.6,158.5,90.9,158.5z M80.8,160.1
	c-1.8,0-3.2,1.4-3.2,3.2c0,1.8,1.4,3.2,3.2,3.2c1.8,0,3.2-1.4,3.2-3.2C84,161.5,82.5,160.1,80.8,160.1z M70.9,163.8
	c-1.8,0-3.2,1.4-3.2,3.2c0,1.8,1.4,3.2,3.2,3.2c1.8,0,3.2-1.4,3.2-3.2C74,165.3,72.6,163.8,70.9,163.8z M61.5,168.6
	c-1.8,0-3.2,1.4-3.2,3.2c0,1.8,1.4,3.2,3.2,3.2c1.8,0,3.2-1.4,3.2-3.2C64.7,170,63.3,168.6,61.5,168.6z M52.8,175.1
	c-1.8,0-3.2,1.4-3.2,3.2c0,1.8,1.4,3.2,3.2,3.2c1.8,0,3.2-1.4,3.2-3.2C56,176.6,54.6,175.1,52.8,175.1z M44.9,182.9
	c-1.8,0-3.2,1.4-3.2,3.2c0,1.8,1.4,3.2,3.2,3.2c1.8,0,3.2-1.4,3.2-3.2C48.1,184.3,46.6,182.9,44.9,182.9z M37.7,191.8
	c-1.8,0-3.2,1.4-3.2,3.2c0,1.7,1.4,3.2,3.2,3.2c1.8,0,3.2-1.4,3.2-3.2C40.9,193.2,39.5,191.8,37.7,191.8z M31.8,201.9
	c-1.8,0-3.2,1.4-3.2,3.2c0,1.8,1.4,3.2,3.2,3.2c1.7,0,3.2-1.4,3.2-3.2C35,203.3,33.5,201.9,31.8,201.9z M26.6,213
	c-1.8,0-3.2,1.4-3.2,3.2c0,1.8,1.4,3.2,3.2,3.2c1.8,0,3.2-1.4,3.2-3.2C29.8,214.4,28.4,213,26.6,213z M23.1,224.7
	c-1.8,0-3.2,1.4-3.2,3.2c0,1.8,1.4,3.2,3.2,3.2c1.8,0,3.2-1.4,3.2-3.2C26.2,226.1,24.8,224.7,23.1,224.7z M84,96.6
	c-1.8,0-3.2,1.4-3.2,3.2s1.4,3.2,3.2,3.2c1.8,0,3.2-1.4,3.2-3.2S85.7,96.6,84,96.6z M83.8,106.1c-1.8,0-3.2,1.4-3.2,3.2
	c0,1.8,1.4,3.2,3.2,3.2c1.7,0,3.2-1.4,3.2-3.2C86.9,107.6,85.5,106.1,83.8,106.1z M72.3,109.1c-1.8,0-3.2,1.4-3.2,3.2
	c0,1.8,1.4,3.2,3.2,3.2c1.8,0,3.2-1.4,3.2-3.2C75.4,110.5,74,109.1,72.3,109.1z M60.4,113.3c-1.8,0-3.2,1.4-3.2,3.2
	c0,1.8,1.4,3.2,3.2,3.2c1.7,0,3.2-1.4,3.2-3.2C63.5,114.7,62.1,113.3,60.4,113.3z M127.2,120.8c-1.7,0-3.2,1.4-3.2,3.2
	c0,1.8,1.4,3.2,3.2,3.2c1.8,0,3.2-1.4,3.2-3.2C130.4,122.2,128.9,120.8,127.2,120.8z M117.1,117.2c-1.7,0-3.2,1.4-3.2,3.2
	c0,1.8,1.4,3.2,3.2,3.2c1.8,0,3.2-1.4,3.2-3.2C120.2,118.7,118.8,117.2,117.1,117.2z M106.8,115.2c-1.8,0-3.2,1.4-3.2,3.2
	c0,1.8,1.4,3.2,3.2,3.2c1.8,0,3.2-1.4,3.2-3.2C109.9,116.7,108.5,115.2,106.8,115.2z M107.9,126.4c-1.7,0-3.2,1.4-3.2,3.2
	c0,1.8,1.4,3.2,3.2,3.2c1.8,0,3.2-1.4,3.2-3.2C111.1,127.8,109.7,126.4,107.9,126.4z M127.6,132.9c-1.8,0-3.2,1.4-3.2,3.2
	c0,1.8,1.4,3.2,3.2,3.2c1.8,0,3.2-1.4,3.2-3.2C130.8,134.3,129.3,132.9,127.6,132.9z M118.1,128.7c-1.8,0-3.2,1.4-3.2,3.2
	s1.4,3.2,3.2,3.2c1.7,0,3.2-1.4,3.2-3.2S119.8,128.7,118.1,128.7z M171.4,112.5c-1.8,0-3.2,1.4-3.2,3.2c0,1.8,1.4,3.2,3.2,3.2
	c1.8,0,3.2-1.4,3.2-3.2C174.6,113.9,173.2,112.5,171.4,112.5z M216.8,88.1c-1.8,0-3.2,1.4-3.2,3.2c0,1.8,1.4,3.2,3.2,3.2
	c1.8,0,3.2-1.4,3.2-3.2C220,89.5,218.6,88.1,216.8,88.1z M147.2,193c-1.8,0-3.2,1.4-3.2,3.2c0,1.8,1.4,3.2,3.2,3.2
	c1.8,0,3.2-1.4,3.2-3.2C150.4,194.4,149,193,147.2,193z M182.7,194.4c-1.7,0-3.2,1.4-3.2,3.2c0,1.8,1.4,3.2,3.2,3.2
	c1.8,0,3.2-1.4,3.2-3.2C185.9,195.8,184.5,194.4,182.7,194.4z M203.5,198.7c-1.8,0-3.2,1.4-3.2,3.2c0,1.8,1.4,3.2,3.2,3.2
	c1.8,0,3.2-1.4,3.2-3.2C206.7,200.2,205.3,198.7,203.5,198.7z M211.5,204.9c-1.8,0-3.2,1.4-3.2,3.2c0,1.8,1.4,3.2,3.2,3.2
	c1.8,0,3.2-1.4,3.2-3.2C214.6,206.3,213.2,204.9,211.5,204.9z M217.8,212.8c-1.8,0-3.2,1.4-3.2,3.2c0,1.8,1.4,3.2,3.2,3.2
	c1.7,0,3.2-1.4,3.2-3.2C221,214.2,219.6,212.8,217.8,212.8z M222,222.1c-1.7,0-3.2,1.4-3.2,3.2c0,1.8,1.4,3.2,3.2,3.2
	c1.8,0,3.2-1.4,3.2-3.2C225.2,223.6,223.7,222.1,222,222.1z M224.4,232.9c-1.8,0-3.2,1.4-3.2,3.2c0,1.8,1.4,3.2,3.2,3.2
	c1.8,0,3.2-1.4,3.2-3.2C227.5,234.3,226.1,232.9,224.4,232.9z M234.9,240.6c-1.8,0-3.2,1.4-3.2,3.2c0,1.8,1.4,3.2,3.2,3.2
	c1.7,0,3.2-1.4,3.2-3.2C238,242,236.6,240.6,234.9,240.6z M244.2,235.4c-1.8,0-3.2,1.4-3.2,3.2c0,1.8,1.4,3.2,3.2,3.2
	c1.8,0,3.2-1.4,3.2-3.2C247.4,236.9,246,235.4,244.2,235.4z M252.3,229.3c-1.8,0-3.2,1.4-3.2,3.2c0,1.8,1.4,3.2,3.2,3.2
	c1.8,0,3.2-1.4,3.2-3.2C255.5,230.7,254.1,229.3,252.3,229.3z M259.9,221.3c-1.8,0-3.2,1.4-3.2,3.2c0,1.8,1.4,3.2,3.2,3.2
	c1.8,0,3.2-1.4,3.2-3.2C263,222.8,261.6,221.3,259.9,221.3z M266.4,212.4c-1.7,0-3.2,1.4-3.2,3.2c0,1.8,1.4,3.2,3.2,3.2
	c1.8,0,3.2-1.4,3.2-3.2C269.6,213.8,268.2,212.4,266.4,212.4z M271.8,202.3c-1.8,0-3.2,1.4-3.2,3.2c0,1.8,1.4,3.2,3.2,3.2
	c1.8,0,3.2-1.4,3.2-3.2C274.9,203.7,273.5,202.3,271.8,202.3z M275.7,191.4c-1.7,0-3.2,1.4-3.2,3.2c0,1.8,1.4,3.2,3.2,3.2
	c1.8,0,3.2-1.4,3.2-3.2C278.9,192.8,277.5,191.4,275.7,191.4z M278.7,179.9c-1.8,0-3.2,1.4-3.2,3.2c0,1.8,1.4,3.2,3.2,3.2
	c1.8,0,3.2-1.4,3.2-3.2C281.9,181.3,280.5,179.9,278.7,179.9z M280.7,167.6c-1.8,0-3.2,1.4-3.2,3.2c0,1.8,1.4,3.2,3.2,3.2
	c1.8,0,3.2-1.4,3.2-3.2C283.9,169,282.4,167.6,280.7,167.6z M271.4,164.8c-1.8,0-3.2,1.4-3.2,3.2c0,1.8,1.4,3.2,3.2,3.2
	c1.8,0,3.2-1.4,3.2-3.2C274.5,166.3,273.1,164.8,271.4,164.8z M271.8,152.7c-1.8,0-3.2,1.4-3.2,3.2c0,1.8,1.4,3.2,3.2,3.2
	c1.8,0,3.2-1.4,3.2-3.2C274.9,154.2,273.5,152.7,271.8,152.7z M270.6,140.4c-1.7,0-3.2,1.4-3.2,3.2c0,1.8,1.4,3.2,3.2,3.2
	c1.8,0,3.2-1.4,3.2-3.2C273.7,141.9,272.3,140.4,270.6,140.4z M261.6,162.8c-1.8,0-3.2,1.4-3.2,3.2c0,1.8,1.4,3.2,3.2,3.2
	c1.8,0,3.2-1.4,3.2-3.2C264.8,164.3,263.4,162.8,261.6,162.8z M262,151.4c-1.8,0-3.2,1.4-3.2,3.2c0,1.8,1.4,3.2,3.2,3.2
	c1.8,0,3.2-1.4,3.2-3.2C265.2,152.8,263.8,151.4,262,151.4z M260.9,139.4c-1.8,0-3.2,1.4-3.2,3.2c0,1.8,1.4,3.2,3.2,3.2
	c1.8,0,3.2-1.4,3.2-3.2C264,140.9,262.6,139.4,260.9,139.4z M258.7,127.7c-1.7,0-3.2,1.4-3.2,3.2c0,1.8,1.4,3.2,3.2,3.2
	c1.8,0,3.2-1.4,3.2-3.2C261.8,129.2,260.4,127.7,258.7,127.7z M249,128.1c-1.8,0-3.2,1.4-3.2,3.2c0,1.8,1.4,3.2,3.2,3.2
	c1.8,0,3.2-1.4,3.2-3.2C252.1,129.6,250.7,128.1,249,128.1z M251.1,139.8c-1.8,0-3.2,1.4-3.2,3.2c0,1.8,1.4,3.2,3.2,3.2
	c1.8,0,3.2-1.4,3.2-3.2C254.3,141.3,252.9,139.8,251.1,139.8z M251.9,150.9c-1.8,0-3.2,1.4-3.2,3.2c0,1.8,1.4,3.2,3.2,3.2
	c1.8,0,3.2-1.4,3.2-3.2C255.1,152.4,253.7,150.9,251.9,150.9z M242,151.9c-1.8,0-3.2,1.4-3.2,3.2c0,1.8,1.4,3.2,3.2,3.2
	c1.7,0,3.2-1.4,3.2-3.2C245.2,153.4,243.8,151.9,242,151.9z M241,140.8c-1.8,0-3.2,1.4-3.2,3.2c0,1.8,1.4,3.2,3.2,3.2
	c1.7,0,3.2-1.4,3.2-3.2C244.2,142.2,242.8,140.8,241,140.8z M239,129.7c-1.8,0-3.2,1.4-3.2,3.2c0,1.8,1.4,3.2,3.2,3.2
	c1.8,0,3.2-1.4,3.2-3.2C242.2,131.1,240.8,129.7,239,129.7z M235.7,119c-1.8,0-3.2,1.4-3.2,3.2c0,1.8,1.4,3.2,3.2,3.2
	c1.7,0,3.2-1.4,3.2-3.2C238.8,120.4,237.4,119,235.7,119z M230.7,108.1c-1.8,0-3.2,1.4-3.2,3.2c0,1.8,1.4,3.2,3.2,3.2
	c1.7,0,3.2-1.4,3.2-3.2C233.9,109.5,232.5,108.1,230.7,108.1z M224.6,97.6c-1.8,0-3.2,1.4-3.2,3.2c0,1.8,1.4,3.2,3.2,3.2
	c1.8,0,3.2-1.4,3.2-3.2C227.7,99,226.3,97.6,224.6,97.6z M245.4,116.6c-1.8,0-3.2,1.4-3.2,3.2c0,1.8,1.4,3.2,3.2,3.2
	c1.8,0,3.2-1.4,3.2-3.2C248.6,118.1,247.1,116.6,245.4,116.6z M240.2,105.5c-1.7,0-3.2,1.4-3.2,3.2c0,1.8,1.4,3.2,3.2,3.2
	c1.8,0,3.2-1.4,3.2-3.2C243.4,106.9,242,105.5,240.2,105.5z M251.3,161.9c-1.8,0-3.2,1.4-3.2,3.2c0,1.7,1.4,3.2,3.2,3.2
	c1.8,0,3.2-1.4,3.2-3.2C254.5,163.3,253.1,161.9,251.3,161.9z M240.6,162.6c-1.8,0-3.2,1.4-3.2,3.2c0,1.7,1.4,3.2,3.2,3.2
	c1.7,0,3.2-1.4,3.2-3.2C243.8,164.1,242.4,162.6,240.6,162.6z M229.1,164.2c-1.8,0-3.2,1.4-3.2,3.2c0,1.8,1.4,3.2,3.2,3.2
	c1.8,0,3.2-1.4,3.2-3.2C232.3,165.7,230.9,164.2,229.1,164.2z M230.9,153.7c-1.8,0-3.2,1.4-3.2,3.2c0,1.7,1.4,3.2,3.2,3.2
	c1.8,0,3.2-1.4,3.2-3.2C234.1,155.1,232.7,153.7,230.9,153.7z M230.9,143.4c-1.8,0-3.2,1.4-3.2,3.2c0,1.8,1.4,3.2,3.2,3.2
	c1.8,0,3.2-1.4,3.2-3.2C234.1,144.8,232.7,143.4,230.9,143.4z M229.1,132.7c-1.8,0-3.2,1.4-3.2,3.2c0,1.8,1.4,3.2,3.2,3.2
	c1.8,0,3.2-1.4,3.2-3.2C232.3,134.1,230.9,132.7,229.1,132.7z M226.2,122c-1.8,0-3.2,1.4-3.2,3.2c0,1.8,1.4,3.2,3.2,3.2
	c1.8,0,3.2-1.4,3.2-3.2C229.3,123.4,227.9,122,226.2,122z M221.4,111.5c-1.8,0-3.2,1.4-3.2,3.2c0,1.8,1.4,3.2,3.2,3.2
	c1.8,0,3.2-1.4,3.2-3.2C224.6,112.9,223.1,111.5,221.4,111.5z M215.4,101.8c-1.8,0-3.2,1.4-3.2,3.2c0,1.7,1.4,3.2,3.2,3.2
	c1.8,0,3.2-1.4,3.2-3.2C218.6,103.2,217.2,101.8,215.4,101.8z M226,174.2c-1.8,0-3.2,1.4-3.2,3.2c0,1.8,1.4,3.2,3.2,3.2
	c1.8,0,3.2-1.4,3.2-3.2C229.1,175.6,227.7,174.2,226,174.2z M220.8,183.3c-1.8,0-3.2,1.4-3.2,3.2c0,1.8,1.4,3.2,3.2,3.2
	c1.8,0,3.2-1.4,3.2-3.2C224,184.7,222.6,183.3,220.8,183.3z M213.5,191.4c-1.8,0-3.2,1.4-3.2,3.2c0,1.8,1.4,3.2,3.2,3.2
	c1.8,0,3.2-1.4,3.2-3.2C216.6,192.8,215.2,191.4,213.5,191.4z M220.8,198.7c-1.8,0-3.2,1.4-3.2,3.2c0,1.8,1.4,3.2,3.2,3.2
	c1.8,0,3.2-1.4,3.2-3.2C224,200.2,222.6,198.7,220.8,198.7z M227.1,207.5c-1.8,0-3.2,1.4-3.2,3.2c0,1.8,1.4,3.2,3.2,3.2
	c1.8,0,3.2-1.4,3.2-3.2C230.3,208.9,228.9,207.5,227.1,207.5z M231.7,217.4c-1.8,0-3.2,1.4-3.2,3.2c0,1.8,1.4,3.2,3.2,3.2
	c1.7,0,3.2-1.4,3.2-3.2C234.9,218.8,233.5,217.4,231.7,217.4z M239.6,210.8c-1.8,0-3.2,1.4-3.2,3.2c0,1.8,1.4,3.2,3.2,3.2
	c1.7,0,3.2-1.4,3.2-3.2C242.8,212.3,241.4,210.8,239.6,210.8z M246.6,203.5c-1.7,0-3.2,1.4-3.2,3.2c0,1.8,1.4,3.2,3.2,3.2
	c1.8,0,3.2-1.4,3.2-3.2C249.8,204.9,248.3,203.5,246.6,203.5z M241.2,192.2c-1.8,0-3.2,1.4-3.2,3.2c0,1.8,1.4,3.2,3.2,3.2
	c1.8,0,3.2-1.4,3.2-3.2C244.4,193.6,243,192.2,241.2,192.2z M234.1,182.1c-1.8,0-3.2,1.4-3.2,3.2c0,1.8,1.4,3.2,3.2,3.2
	c1.8,0,3.2-1.4,3.2-3.2C237.3,183.5,235.8,182.1,234.1,182.1z M238.2,172.6c-1.8,0-3.2,1.4-3.2,3.2c0,1.8,1.4,3.2,3.2,3.2
	c1.8,0,3.2-1.4,3.2-3.2C241.4,174,240,172.6,238.2,172.6z M249.4,173c-1.8,0-3.2,1.4-3.2,3.2c0,1.8,1.4,3.2,3.2,3.2
	c1.8,0,3.2-1.4,3.2-3.2C252.5,174.4,251.1,173,249.4,173z M246,182.9c-1.8,0-3.2,1.4-3.2,3.2c0,1.8,1.4,3.2,3.2,3.2
	c1.8,0,3.2-1.4,3.2-3.2C249.2,184.3,247.7,182.9,246,182.9z M252.5,194.4c-1.8,0-3.2,1.4-3.2,3.2c0,1.8,1.4,3.2,3.2,3.2
	c1.8,0,3.2-1.4,3.2-3.2C255.7,195.8,254.3,194.4,252.5,194.4z M256.9,184.9c-1.8,0-3.2,1.4-3.2,3.2c0,1.8,1.4,3.2,3.2,3.2
	c1.7,0,3.2-1.4,3.2-3.2C260.1,186.3,258.6,184.9,256.9,184.9z M259.9,174.2c-1.8,0-3.2,1.4-3.2,3.2c0,1.8,1.4,3.2,3.2,3.2
	c1.8,0,3.2-1.4,3.2-3.2C263,175.6,261.6,174.2,259.9,174.2z M234.9,200.1c-1.8,0-3.2,1.4-3.2,3.2c0,1.7,1.4,3.2,3.2,3.2
	c1.7,0,3.2-1.4,3.2-3.2C238,201.6,236.6,200.1,234.9,200.1z M228.3,190.8c-1.7,0-3.2,1.4-3.2,3.2c0,1.7,1.4,3.2,3.2,3.2
	c1.8,0,3.2-1.4,3.2-3.2C231.5,192.2,230.1,190.8,228.3,190.8z M234.3,228.5c-1.8,0-3.2,1.4-3.2,3.2c0,1.8,1.4,3.2,3.2,3.2
	c1.8,0,3.2-1.4,3.2-3.2C237.5,229.9,236,228.5,234.3,228.5z M242.6,222.9c-1.8,0-3.2,1.4-3.2,3.2c0,1.8,1.4,3.2,3.2,3.2
	c1.8,0,3.2-1.4,3.2-3.2C245.8,224.4,244.4,222.9,242.6,222.9z M250.5,215.6c-1.8,0-3.2,1.4-3.2,3.2c0,1.8,1.4,3.2,3.2,3.2
	c1.8,0,3.2-1.4,3.2-3.2C253.7,217,252.3,215.6,250.5,215.6z M257.1,207.1c-1.8,0-3.2,1.4-3.2,3.2c0,1.8,1.4,3.2,3.2,3.2
	c1.8,0,3.2-1.4,3.2-3.2C260.3,208.5,258.8,207.1,257.1,207.1z M262.6,197.9c-1.7,0-3.2,1.4-3.2,3.2c0,1.8,1.4,3.2,3.2,3.2
	c1.8,0,3.2-1.4,3.2-3.2C265.8,199.4,264.4,197.9,262.6,197.9z M266.6,187.2c-1.7,0-3.2,1.4-3.2,3.2c0,1.8,1.4,3.2,3.2,3.2
	c1.8,0,3.2-1.4,3.2-3.2C269.8,188.7,268.4,187.2,266.6,187.2z M269.6,176.5c-1.8,0-3.2,1.4-3.2,3.2c0,1.7,1.4,3.2,3.2,3.2
	c1.8,0,3.2-1.4,3.2-3.2C272.8,178,271.3,176.5,269.6,176.5z M243.2,248.5c-1.8,0-3.2,1.4-3.2,3.2c0,1.8,1.4,3.2,3.2,3.2
	c1.8,0,3.2-1.4,3.2-3.2C246.4,249.9,245,248.5,243.2,248.5z M250,257.1c-1.8,0-3.2,1.4-3.2,3.2c0,1.8,1.4,3.2,3.2,3.2
	c1.7,0,3.2-1.4,3.2-3.2C253.1,258.5,251.7,257.1,250,257.1z M255.5,265.8c-1.7,0-3.2,1.4-3.2,3.2c0,1.8,1.4,3.2,3.2,3.2
	c1.8,0,3.2-1.4,3.2-3.2C258.7,267.2,257.3,265.8,255.5,265.8z M259.7,274.1c-1.8,0-3.2,1.4-3.2,3.2c0,1.8,1.4,3.2,3.2,3.2
	c1.8,0,3.2-1.4,3.2-3.2C262.8,275.5,261.4,274.1,259.7,274.1z M269.6,267.4c-1.8,0-3.2,1.4-3.2,3.2c0,1.8,1.4,3.2,3.2,3.2
	c1.8,0,3.2-1.4,3.2-3.2C272.8,268.8,271.3,267.4,269.6,267.4z M264.6,258.8c-1.8,0-3.2,1.4-3.2,3.2c0,1.8,1.4,3.2,3.2,3.2
	c1.8,0,3.2-1.4,3.2-3.2C267.8,260.3,266.4,258.8,264.6,258.8z M278.7,258.4c-1.8,0-3.2,1.4-3.2,3.2c0,1.8,1.4,3.2,3.2,3.2
	c1.8,0,3.2-1.4,3.2-3.2C281.9,259.9,280.5,258.4,278.7,258.4z M273.7,250.5c-1.8,0-3.2,1.4-3.2,3.2c0,1.8,1.4,3.2,3.2,3.2
	c1.8,0,3.2-1.4,3.2-3.2C276.9,251.9,275.5,250.5,273.7,250.5z M267.4,243c-1.8,0-3.2,1.4-3.2,3.2c0,1.8,1.4,3.2,3.2,3.2
	c1.8,0,3.2-1.4,3.2-3.2C270.6,244.4,269.2,243,267.4,243z M259.1,250.7c-1.8,0-3.2,1.4-3.2,3.2c0,1.8,1.4,3.2,3.2,3.2
	c1.7,0,3.2-1.4,3.2-3.2C262.2,252.1,260.8,250.7,259.1,250.7z M251.9,242.8c-1.8,0-3.2,1.4-3.2,3.2c0,1.8,1.4,3.2,3.2,3.2
	c1.8,0,3.2-1.4,3.2-3.2C255.1,244.2,253.7,242.8,251.9,242.8z M260.5,235.6c-1.8,0-3.2,1.4-3.2,3.2c0,1.8,1.4,3.2,3.2,3.2
	c1.8,0,3.2-1.4,3.2-3.2C263.6,237.1,262.2,235.6,260.5,235.6z M268.2,227.5c-1.8,0-3.2,1.4-3.2,3.2c0,1.8,1.4,3.2,3.2,3.2
	c1.8,0,3.2-1.4,3.2-3.2C271.4,228.9,269.9,227.5,268.2,227.5z M274.5,218c-1.7,0-3.2,1.4-3.2,3.2c0,1.8,1.4,3.2,3.2,3.2
	c1.8,0,3.2-1.4,3.2-3.2C277.7,219.4,276.3,218,274.5,218z M280.1,207.5c-1.8,0-3.2,1.4-3.2,3.2c0,1.8,1.4,3.2,3.2,3.2
	c1.7,0,3.2-1.4,3.2-3.2C283.3,208.9,281.8,207.5,280.1,207.5z M284.5,196c-1.8,0-3.2,1.4-3.2,3.2c0,1.8,1.4,3.2,3.2,3.2
	c1.7,0,3.2-1.4,3.2-3.2C287.6,197.4,286.2,196,284.5,196z M287.4,183.9c-1.7,0-3.2,1.4-3.2,3.2c0,1.8,1.4,3.2,3.2,3.2
	c1.8,0,3.2-1.4,3.2-3.2C290.6,185.3,289.2,183.9,287.4,183.9z M275.1,233.8c-1.8,0-3.2,1.4-3.2,3.2c0,1.8,1.4,3.2,3.2,3.2
	c1.8,0,3.2-1.4,3.2-3.2C278.3,235.3,276.9,233.8,275.1,233.8z M282.1,224.1c-1.8,0-3.2,1.4-3.2,3.2c0,1.8,1.4,3.2,3.2,3.2
	c1.8,0,3.2-1.4,3.2-3.2C285.3,225.5,283.8,224.1,282.1,224.1z M287.4,213.2c-1.7,0-3.2,1.4-3.2,3.2c0,1.8,1.4,3.2,3.2,3.2
	c1.8,0,3.2-1.4,3.2-3.2C290.6,214.6,289.2,213.2,287.4,213.2z M281.7,241c-1.8,0-3.2,1.4-3.2,3.2c0,1.8,1.4,3.2,3.2,3.2
	c1.8,0,3.2-1.4,3.2-3.2C284.9,242.4,283.4,241,281.7,241z M263,283.6c-1.8,0-3.2,1.4-3.2,3.2c0,1.7,1.4,3.2,3.2,3.2
	c1.7,0,3.2-1.4,3.2-3.2C266.2,285,264.8,283.6,263,283.6z M252.5,289.4c-1.8,0-3.2,1.4-3.2,3.2c0,1.8,1.4,3.2,3.2,3.2
	c1.8,0,3.2-1.4,3.2-3.2C255.7,290.8,254.3,289.4,252.5,289.4z M241.6,294.1c-1.8,0-3.2,1.4-3.2,3.2c0,1.8,1.4,3.2,3.2,3.2
	c1.8,0,3.2-1.4,3.2-3.2C244.8,295.6,243.4,294.1,241.6,294.1z M230.3,297.3c-1.8,0-3.2,1.4-3.2,3.2c0,1.8,1.4,3.2,3.2,3.2
	c1.8,0,3.2-1.4,3.2-3.2C233.5,298.7,232.1,297.3,230.3,297.3z M219,299.3c-1.8,0-3.2,1.4-3.2,3.2c0,1.8,1.4,3.2,3.2,3.2
	c1.8,0,3.2-1.4,3.2-3.2C222.2,300.7,220.8,299.3,219,299.3z M207.7,299.7c-1.8,0-3.2,1.4-3.2,3.2c0,1.8,1.4,3.2,3.2,3.2
	c1.8,0,3.2-1.4,3.2-3.2C210.9,301.1,209.5,299.7,207.7,299.7z M197,298.5c-1.8,0-3.2,1.4-3.2,3.2c0,1.7,1.4,3.2,3.2,3.2
	c1.8,0,3.2-1.4,3.2-3.2C200.2,299.9,198.7,298.5,197,298.5z M186.7,296.1c-1.8,0-3.2,1.4-3.2,3.2c0,1.8,1.4,3.2,3.2,3.2
	c1.8,0,3.2-1.4,3.2-3.2C189.9,297.5,188.4,296.1,186.7,296.1z M177.2,291.8c-1.8,0-3.2,1.4-3.2,3.2c0,1.8,1.4,3.2,3.2,3.2
	c1.8,0,3.2-1.4,3.2-3.2C180.3,293.2,178.9,291.8,177.2,291.8z M168.2,286.2c-1.8,0-3.2,1.4-3.2,3.2c0,1.7,1.4,3.2,3.2,3.2
	c1.8,0,3.2-1.4,3.2-3.2C171.4,287.6,170,286.2,168.2,286.2z M160.7,279.1c-1.8,0-3.2,1.4-3.2,3.2c0,1.8,1.4,3.2,3.2,3.2
	c1.8,0,3.2-1.4,3.2-3.2C163.9,280.5,162.5,279.1,160.7,279.1z M154.6,270.1c-1.8,0-3.2,1.4-3.2,3.2c0,1.8,1.4,3.2,3.2,3.2
	c1.8,0,3.2-1.4,3.2-3.2C157.7,271.6,156.3,270.1,154.6,270.1z M192.2,217.6c-1.8,0-3.2,1.4-3.2,3.2c0,1.8,1.4,3.2,3.2,3.2
	c1.8,0,3.2-1.4,3.2-3.2C195.4,219,194,217.6,192.2,217.6z M199.4,209.1c-1.8,0-3.2,1.4-3.2,3.2c0,1.7,1.4,3.2,3.2,3.2
	c1.8,0,3.2-1.4,3.2-3.2C202.5,210.5,201.1,209.1,199.4,209.1z M198.8,225.5c-1.7,0-3.2,1.4-3.2,3.2c0,1.8,1.4,3.2,3.2,3.2
	c1.8,0,3.2-1.4,3.2-3.2C202,226.9,200.5,225.5,198.8,225.5z M206.3,216.6c-1.8,0-3.2,1.4-3.2,3.2c0,1.8,1.4,3.2,3.2,3.2
	c1.8,0,3.2-1.4,3.2-3.2C209.5,218,208.1,216.6,206.3,216.6z M202.5,235c-1.8,0-3.2,1.4-3.2,3.2c0,1.8,1.4,3.2,3.2,3.2
	c1.8,0,3.2-1.4,3.2-3.2C205.7,236.5,204.3,235,202.5,235z M203.9,244.9c-1.8,0-3.2,1.4-3.2,3.2c0,1.8,1.4,3.2,3.2,3.2
	c1.8,0,3.2-1.4,3.2-3.2C207.1,246.4,205.7,244.9,203.9,244.9z M214.8,245.7c-1.8,0-3.2,1.4-3.2,3.2c0,1.8,1.4,3.2,3.2,3.2
	c1.8,0,3.2-1.4,3.2-3.2C218,247.2,216.6,245.7,214.8,245.7z M225.2,243.8c-1.8,0-3.2,1.4-3.2,3.2c0,1.8,1.4,3.2,3.2,3.2
	c1.8,0,3.2-1.4,3.2-3.2C228.3,245.2,226.9,243.8,225.2,243.8z M214.1,235c-1.7,0-3.2,1.4-3.2,3.2c0,1.8,1.4,3.2,3.2,3.2
	c1.8,0,3.2-1.4,3.2-3.2C217.2,236.5,215.8,235,214.1,235z M211.5,225.3c-1.8,0-3.2,1.4-3.2,3.2c0,1.8,1.4,3.2,3.2,3.2
	c1.8,0,3.2-1.4,3.2-3.2C214.6,226.7,213.2,225.3,211.5,225.3z M183.5,222.5c-1.8,0-3.2,1.4-3.2,3.2c0,1.8,1.4,3.2,3.2,3.2
	c1.8,0,3.2-1.4,3.2-3.2C186.7,224,185.3,222.5,183.5,222.5z M179.3,234.4c-1.8,0-3.2,1.4-3.2,3.2c0,1.8,1.4,3.2,3.2,3.2
	c1.8,0,3.2-1.4,3.2-3.2C182.5,235.9,181.1,234.4,179.3,234.4z M170.2,244.6c-1.8,0-3.2,1.4-3.2,3.2c0,1.8,1.4,3.2,3.2,3.2
	c1.8,0,3.2-1.4,3.2-3.2C173.4,246,172,244.6,170.2,244.6z M156.5,251.1c-1.8,0-3.2,1.4-3.2,3.2c0,1.8,1.4,3.2,3.2,3.2
	c1.8,0,3.2-1.4,3.2-3.2C159.7,252.5,158.3,251.1,156.5,251.1z M148,244.8c-1.8,0-3.2,1.4-3.2,3.2c0,1.8,1.4,3.2,3.2,3.2
	c1.7,0,3.2-1.4,3.2-3.2C151.2,246.2,149.8,244.8,148,244.8z M140.7,252.5c-1.8,0-3.2,1.4-3.2,3.2c0,1.7,1.4,3.2,3.2,3.2
	c1.8,0,3.2-1.4,3.2-3.2C143.8,253.9,142.4,252.5,140.7,252.5z M149.8,259c-1.8,0-3.2,1.4-3.2,3.2c0,1.8,1.4,3.2,3.2,3.2
	c1.7,0,3.2-1.4,3.2-3.2C153,260.5,151.5,259,149.8,259z M161.7,263.2c-1.8,0-3.2,1.4-3.2,3.2c0,1.8,1.4,3.2,3.2,3.2
	c1.8,0,3.2-1.4,3.2-3.2C164.9,264.6,163.4,263.2,161.7,263.2z M169,272.3c-1.8,0-3.2,1.4-3.2,3.2c0,1.8,1.4,3.2,3.2,3.2
	c1.8,0,3.2-1.4,3.2-3.2C172.2,273.7,170.8,272.3,169,272.3z M177,279.1c-1.8,0-3.2,1.4-3.2,3.2c0,1.8,1.4,3.2,3.2,3.2
	c1.7,0,3.2-1.4,3.2-3.2C180.1,280.5,178.7,279.1,177,279.1z M186.5,284c-1.8,0-3.2,1.4-3.2,3.2c0,1.8,1.4,3.2,3.2,3.2
	c1.8,0,3.2-1.4,3.2-3.2C189.7,285.4,188.2,284,186.5,284z M196.2,287.2c-1.8,0-3.2,1.4-3.2,3.2c0,1.8,1.4,3.2,3.2,3.2
	c1.8,0,3.2-1.4,3.2-3.2C199.4,288.6,198,287.2,196.2,287.2z M206.7,289.2c-1.8,0-3.2,1.4-3.2,3.2c0,1.8,1.4,3.2,3.2,3.2
	c1.8,0,3.2-1.4,3.2-3.2C209.9,290.6,208.5,289.2,206.7,289.2z M217.4,288.8c-1.8,0-3.2,1.4-3.2,3.2c0,1.8,1.4,3.2,3.2,3.2
	c1.7,0,3.2-1.4,3.2-3.2C220.6,290.2,219.2,288.8,217.4,288.8z M228.3,287.8c-1.7,0-3.2,1.4-3.2,3.2c0,1.8,1.4,3.2,3.2,3.2
	c1.8,0,3.2-1.4,3.2-3.2C231.5,289.2,230.1,287.8,228.3,287.8z M239,284.4c-1.8,0-3.2,1.4-3.2,3.2c0,1.8,1.4,3.2,3.2,3.2
	c1.8,0,3.2-1.4,3.2-3.2C242.2,285.8,240.8,284.4,239,284.4z M249.4,280.3c-1.8,0-3.2,1.4-3.2,3.2c0,1.8,1.4,3.2,3.2,3.2
	c1.8,0,3.2-1.4,3.2-3.2C252.5,281.7,251.1,280.3,249.4,280.3z M245.6,271.1c-1.7,0-3.2,1.4-3.2,3.2c0,1.8,1.4,3.2,3.2,3.2
	c1.8,0,3.2-1.4,3.2-3.2C248.8,272.6,247.3,271.1,245.6,271.1z M235.3,275.1c-1.8,0-3.2,1.4-3.2,3.2c0,1.8,1.4,3.2,3.2,3.2
	c1.8,0,3.2-1.4,3.2-3.2C238.4,276.5,237,275.1,235.3,275.1z M224.8,277.7c-1.8,0-3.2,1.4-3.2,3.2c0,1.8,1.4,3.2,3.2,3.2
	c1.8,0,3.2-1.4,3.2-3.2C227.9,279.1,226.5,277.7,224.8,277.7z M214.1,278.3c-1.7,0-3.2,1.4-3.2,3.2c0,1.8,1.4,3.2,3.2,3.2
	c1.8,0,3.2-1.4,3.2-3.2C217.2,279.7,215.8,278.3,214.1,278.3z M203.5,277.5c-1.8,0-3.2,1.4-3.2,3.2c0,1.8,1.4,3.2,3.2,3.2
	c1.8,0,3.2-1.4,3.2-3.2C206.7,278.9,205.3,277.5,203.5,277.5z M193.6,275.1c-1.8,0-3.2,1.4-3.2,3.2c0,1.8,1.4,3.2,3.2,3.2
	c1.8,0,3.2-1.4,3.2-3.2C196.8,276.5,195.4,275.1,193.6,275.1z M184.1,270.5c-1.7,0-3.2,1.4-3.2,3.2c0,1.8,1.4,3.2,3.2,3.2
	c1.8,0,3.2-1.4,3.2-3.2C187.3,272,185.9,270.5,184.1,270.5z M189.3,261.2c-1.8,0-3.2,1.4-3.2,3.2c0,1.8,1.4,3.2,3.2,3.2
	c1.8,0,3.2-1.4,3.2-3.2C192.4,262.6,191,261.2,189.3,261.2z M199.2,265.4c-1.8,0-3.2,1.4-3.2,3.2c0,1.8,1.4,3.2,3.2,3.2
	c1.8,0,3.2-1.4,3.2-3.2C202.4,266.8,200.9,265.4,199.2,265.4z M209.3,267.4c-1.8,0-3.2,1.4-3.2,3.2c0,1.8,1.4,3.2,3.2,3.2
	c1.8,0,3.2-1.4,3.2-3.2C212.5,268.8,211,267.4,209.3,267.4z M219.8,267c-1.8,0-3.2,1.4-3.2,3.2c0,1.8,1.4,3.2,3.2,3.2
	c1.8,0,3.2-1.4,3.2-3.2C223,268.4,221.6,267,219.8,267z M230.3,265.4c-1.8,0-3.2,1.4-3.2,3.2c0,1.8,1.4,3.2,3.2,3.2
	c1.8,0,3.2-1.4,3.2-3.2C233.5,266.8,232.1,265.4,230.3,265.4z M240.4,261.8c-1.8,0-3.2,1.4-3.2,3.2c0,1.8,1.4,3.2,3.2,3.2
	c1.8,0,3.2-1.4,3.2-3.2C243.6,263.2,242.2,261.8,240.4,261.8z M233.5,252.7c-1.8,0-3.2,1.4-3.2,3.2c0,1.8,1.4,3.2,3.2,3.2
	c1.8,0,3.2-1.4,3.2-3.2C236.7,254.1,235.2,252.7,233.5,252.7z M223.6,255.5c-1.8,0-3.2,1.4-3.2,3.2c0,1.8,1.4,3.2,3.2,3.2
	c1.8,0,3.2-1.4,3.2-3.2C226.7,256.9,225.3,255.5,223.6,255.5z M213.3,256.5c-1.8,0-3.2,1.4-3.2,3.2c0,1.8,1.4,3.2,3.2,3.2
	c1.8,0,3.2-1.4,3.2-3.2C216.4,257.9,215,256.5,213.3,256.5z M202.5,255.3c-1.8,0-3.2,1.4-3.2,3.2c0,1.8,1.4,3.2,3.2,3.2
	c1.8,0,3.2-1.4,3.2-3.2C205.7,256.7,204.3,255.3,202.5,255.3z M191.4,251.7c-1.8,0-3.2,1.4-3.2,3.2c0,1.7,1.4,3.2,3.2,3.2
	c1.8,0,3.2-1.4,3.2-3.2C194.6,253.1,193.2,251.7,191.4,251.7z M192,241.6c-1.8,0-3.2,1.4-3.2,3.2c0,1.8,1.4,3.2,3.2,3.2
	c1.8,0,3.2-1.4,3.2-3.2C195.2,243,193.8,241.6,192,241.6z M189.5,231.9c-1.8,0-3.2,1.4-3.2,3.2c0,1.8,1.4,3.2,3.2,3.2
	c1.8,0,3.2-1.4,3.2-3.2C192.6,233.3,191.2,231.9,189.5,231.9z M167.4,254.7c-1.8,0-3.2,1.4-3.2,3.2c0,1.8,1.4,3.2,3.2,3.2
	c1.8,0,3.2-1.4,3.2-3.2C170.6,256.1,169.2,254.7,167.4,254.7z M175.4,264c-1.8,0-3.2,1.4-3.2,3.2c0,1.8,1.4,3.2,3.2,3.2
	c1.8,0,3.2-1.4,3.2-3.2C178.6,265.4,177.1,264,175.4,264z M179.3,255.1c-1.8,0-3.2,1.4-3.2,3.2c0,1.8,1.4,3.2,3.2,3.2
	c1.8,0,3.2-1.4,3.2-3.2C182.5,256.5,181.1,255.1,179.3,255.1z M180.7,245.2c-1.8,0-3.2,1.4-3.2,3.2c0,1.8,1.4,3.2,3.2,3.2
	c1.7,0,3.2-1.4,3.2-3.2C183.9,246.6,182.5,245.2,180.7,245.2z M133.7,243.8c-1.8,0-3.2,1.4-3.2,3.2c0,1.8,1.4,3.2,3.2,3.2
	c1.8,0,3.2-1.4,3.2-3.2C136.9,245.2,135.5,243.8,133.7,243.8z M130.2,233.7c-1.8,0-3.2,1.4-3.2,3.2c0,1.8,1.4,3.2,3.2,3.2
	c1.8,0,3.2-1.4,3.2-3.2C133.3,235.1,131.9,233.7,130.2,233.7z M131.6,223.5c-1.8,0-3.2,1.4-3.2,3.2c0,1.7,1.4,3.2,3.2,3.2
	c1.8,0,3.2-1.4,3.2-3.2C134.7,225,133.3,223.5,131.6,223.5z"/>
</svg>
