<?xml version="1.0" encoding="utf-8"?>
<!-- Generator: Adobe Illustrator 18.0.0, SVG Export Plug-In . SVG Version: 6.00 Build 0)  -->
<!DOCTYPE svg PUBLIC "-//W3C//DTD SVG 1.1//EN" "http://www.w3.org/Graphics/SVG/1.1/DTD/svg11.dtd">
<svg version="1.1" id="Layer_1" xmlns="http://www.w3.org/2000/svg" xmlns:xlink="http://www.w3.org/1999/xlink" x="0px" y="0px"
	 viewBox="0 0 319 550" enable-background="new 0 0 319 550" xml:space="preserve">
<rect y="60.4" fill="#73C7AA" width="319" height="429.2"/>
<g>
	<path fill="none" stroke="#FFFFFF" stroke-width="7" stroke-linecap="round" stroke-linejoin="round" stroke-miterlimit="10" d="
		M144.1,406l5.9,0.5l5.9,0.3l5.9,0.1c61.9-1.2,114.4-44.7,126.9-105.4l1.1-5.8l0.7-5.8c7-61.3-29.7-119.4-88-139.4l-5.6-1.8
		l-5.7-1.5l-5.8-1.3l-5.8-1c-61.2-9.3-120.2,24.9-142.8,82.5l-2,5.6l-1.7,5.6C15.7,297.8,42,361,96.2,390.8l5.3,2.7l5.4,2.6l5.5,2.3
		"/>
	<path fill="none" stroke="#FFFFFF" stroke-width="7" stroke-linecap="round" stroke-linejoin="round" stroke-miterlimit="10" d="
		M148.9,401.7"/>
	<path fill="none" stroke="#FFFFFF" stroke-width="7" stroke-linecap="round" stroke-linejoin="round" stroke-miterlimit="10" d="
		M174.2,374l5-0.9c52.1-10.3,87.2-60.2,79.3-112.6l-0.8-5"/>
	<path fill="none" stroke="#FFFFFF" stroke-width="7" stroke-linecap="round" stroke-linejoin="round" stroke-miterlimit="10" d="
		M240.5,216.1l-3.2-4l-3.3-3.9c-34.6-38.6-92.6-44.3-134.2-13.5l-4,3.2l-3.8,3.4c-39.6,36.3-43.5,97.3-8.9,138.4l3.5,3.8l3.6,3.7"/>
	<path fill="none" stroke="#FFFFFF" stroke-width="7" stroke-linecap="round" stroke-linejoin="round" stroke-miterlimit="10" d="
		M196.5,330.5l3.5-2.5l3.3-2.7c24.5-21.3,30.2-56.9,13.5-84.7l-2.3-3.6l-2.5-3.5c-20-25.4-55.5-32.9-83.9-17.6l-3.7,2l-3.5,2.4"/>
	<path fill="none" stroke="#FFFFFF" stroke-width="7" stroke-linecap="round" stroke-linejoin="round" stroke-miterlimit="10" d="
		M95.8,255.4l-1.1,4.1c-5.1,21,0.5,43.3,14.7,59.5l3,3.1"/>
	<path fill="none" stroke="#FFFFFF" stroke-width="7" stroke-linecap="round" stroke-linejoin="round" stroke-miterlimit="10" d="
		M174.2,308.5l2.7-1.3l2.6-1.5c28.7-19.3,17.9-63.1-16.6-67l-3.1-0.1l-3.1,0.1c-34.6,3-46.3,46.7-18,66.6l2.5,1.6l2.7,1.4"/>
	
		<line fill="none" stroke="#FFFFFF" stroke-width="7" stroke-linecap="round" stroke-linejoin="round" stroke-miterlimit="10" x1="112.3" y1="398.1" x2="112.3" y2="322.1"/>
	
		<line fill="none" stroke="#FFFFFF" stroke-width="7" stroke-linecap="round" stroke-linejoin="round" stroke-miterlimit="10" x1="144.1" y1="406" x2="144.1" y2="308.2"/>
	
		<line fill="none" stroke="#FFFFFF" stroke-width="7" stroke-linecap="round" stroke-linejoin="round" stroke-miterlimit="10" x1="174.2" y1="374" x2="174.2" y2="308.5"/>
	
		<line fill="none" stroke="#FFFFFF" stroke-width="7" stroke-linecap="round" stroke-linejoin="round" stroke-miterlimit="10" x1="129.4" y1="254.3" x2="78.2" y2="216.7"/>
	
		<line fill="none" stroke="#FFFFFF" stroke-width="7" stroke-linecap="round" stroke-linejoin="round" stroke-miterlimit="10" x1="220.5" y1="247.9" x2="279.8" y2="221.1"/>
</g>
</svg>
