<?xml version="1.0" encoding="utf-8"?>
<!-- Generator: Adobe Illustrator 18.0.0, SVG Export Plug-In . SVG Version: 6.00 Build 0)  -->
<!DOCTYPE svg PUBLIC "-//W3C//DTD SVG 1.1//EN" "http://www.w3.org/Graphics/SVG/1.1/DTD/svg11.dtd" [
	<!ENTITY st0 "fill:#ADDEDC;">
	<!ENTITY st1 "fill:#E361A4;">
	<!ENTITY st2 "fill:#BB5CA3;">
	<!ENTITY st3 "fill:#7D57A4;">
	<!ENTITY st4 "fill:#A4D0EF;">
	<!ENTITY st5 "fill:#00548D;">
	<!ENTITY st6 "fill:#009BDA;">
	<!ENTITY st7 "fill:#F15A29;">
	<!ENTITY st8 "fill:#FFFFFF;">
	<!ENTITY st9 "fill:#97ABD8;">
	<!ENTITY st10 "fill:#F8BFD8;">
	<!ENTITY st11 "fill:#F69080;">
	<!ENTITY st12 "fill:none;stroke:#00AEEF;stroke-width:7;stroke-linecap:round;stroke-linejoin:round;stroke-miterlimit:10;">
	<!ENTITY st13 "fill:none;stroke:#EF4136;stroke-width:7;stroke-linecap:round;stroke-linejoin:round;stroke-miterlimit:10;">
	<!ENTITY st14 "fill:none;stroke:#FFF200;stroke-width:7;stroke-linecap:round;stroke-linejoin:round;stroke-miterlimit:10;">
	<!ENTITY st15 "fill:none;stroke:#DA1C5C;stroke-width:7;stroke-linecap:round;stroke-linejoin:round;stroke-miterlimit:10;">
	<!ENTITY st16 "fill:none;stroke:#2BB673;stroke-width:7;stroke-linecap:round;stroke-linejoin:round;stroke-miterlimit:10;">
	<!ENTITY st17 "fill:none;stroke:#87CBF0;stroke-width:7;stroke-linecap:round;stroke-linejoin:round;stroke-miterlimit:10;">
	<!ENTITY st18 "fill:none;stroke:#F6ADCD;stroke-width:7;stroke-linecap:round;stroke-linejoin:round;stroke-miterlimit:10;">
	<!ENTITY st19 "fill:none;stroke:#FFFFFF;stroke-width:7;stroke-linecap:round;stroke-linejoin:round;stroke-miterlimit:10;">
	<!ENTITY st20 "fill:none;stroke:#8B5E3C;stroke-width:7;stroke-linecap:round;stroke-linejoin:round;stroke-miterlimit:10;">
	<!ENTITY st21 "fill:#F16460;">
	<!ENTITY st22 "fill:none;stroke:#FFF200;stroke-width:7;stroke-miterlimit:10;">
	<!ENTITY st23 "fill:#E6E7E8;">
	<!ENTITY st24 "fill:#F17DB1;stroke:#F17DB1;stroke-width:8.2549;stroke-miterlimit:10;">
	<!ENTITY st25 "fill:#DBA5CB;stroke:#DBA5CB;stroke-width:8.2549;stroke-miterlimit:10;">
	<!ENTITY st26 "fill:#EC008C;stroke:#EC008C;stroke-width:8.2549;stroke-miterlimit:10;">
	<!ENTITY st27 "fill:#9E91C5;">
	<!ENTITY st28 "fill:none;stroke:#FFF200;stroke-width:7;stroke-linecap:round;stroke-miterlimit:10;">
	<!ENTITY st29 "fill:#4D9D47;">
	<!ENTITY st30 "fill:none;stroke:#FFFFFF;stroke-width:6;stroke-linecap:round;stroke-linejoin:round;stroke-miterlimit:10;">
	<!ENTITY st31 "fill:#55BF9E;">
	<!ENTITY st32 "fill:#8ED8F8;">
	<!ENTITY st33 "fill:#00969E;">
	<!ENTITY st34 "fill:none;stroke:#00969E;stroke-width:7;stroke-miterlimit:10;">
	<!ENTITY st35 "fill:#B1CFDE;">
	<!ENTITY st36 "fill:#F26522;">
	<!ENTITY st37 "fill:#ED1B32;">
	<!ENTITY st38 "fill:#FFF200;">
	<!ENTITY st39 "fill:#A5DFF9;">
	<!ENTITY st40 "fill:#8DC63F;">
	<!ENTITY st41 "fill:#F26971;">
	<!ENTITY st42 "fill:#AC88B1;">
	<!ENTITY st43 "fill:#EF4136;">
	<!ENTITY st44 "fill:#00AEEF;">
	<!ENTITY st45 "fill:#8B5E3C;">
	<!ENTITY st46 "fill:#2BB673;">
	<!ENTITY st47 "fill:#DA1C5C;">
	<!ENTITY st48 "fill:#87CBF0;">
	<!ENTITY st49 "fill:#F6ADCD;">
	<!ENTITY st50 "fill:#0064A0;">
	<!ENTITY st51 "fill:#73C7AA;">
	<!ENTITY st52 "fill:none;stroke:#9159A4;stroke-width:50;stroke-linecap:round;stroke-miterlimit:10;">
	<!ENTITY st53 "fill:none;stroke:#EF4444;stroke-width:50;stroke-linecap:round;stroke-miterlimit:10;">
	<!ENTITY st54 "fill:#F79880;">
	<!ENTITY st55 "fill:#74C273;">
	<!ENTITY st56 "fill:#F17DB1;">
]>
<svg version="1.1" id="Layer_1" xmlns="http://www.w3.org/2000/svg" xmlns:xlink="http://www.w3.org/1999/xlink" x="0px" y="0px"
	 viewBox="0 0 311.3 420.4" style="enable-background:new 0 0 311.3 420.4;" xml:space="preserve">
<rect x="0" y="0" style="&st32;" width="311.3" height="420.4"/>
<polygon style="&st33;" points="311.3,269.9 283,269.9 283,251 254.8,251 254.8,232.2 226.5,232.2 226.5,213.3 85,213.3 85,232.2 
	56.7,232.2 56.7,251 28.4,251 28.4,269.9 0.2,269.9 0.2,420.4 311.3,420.4 "/>
<g>
	<path style="&st34;" d="M311.3,269.9h-28.3c0,0,0,0,0,0v-18.8c0,0,0,0,0,0h-28.2c0,0,0,0,0,0v-18.8c0,0,0,0,0,0h-28.2c0,0,0,0,0,0
		v-18.8c0,0,0,0,0,0H85.1c0,0,0,0,0,0v18.8c0,0,0,0,0,0H56.8c0,0,0,0,0,0V251c0,0,0,0,0,0H28.5c0,0,0,0,0,0v18.8c0,0,0,0,0,0H0.2"/>
</g>
</svg>
