<?xml version="1.0" encoding="utf-8"?>
<!-- Generator: Adobe Illustrator 18.0.0, SVG Export Plug-In . SVG Version: 6.00 Build 0)  -->
<!DOCTYPE svg PUBLIC "-//W3C//DTD SVG 1.1//EN" "http://www.w3.org/Graphics/SVG/1.1/DTD/svg11.dtd" [
	<!ENTITY st0 "fill:#ADDEDC;">
	<!ENTITY st1 "fill:#E361A4;">
	<!ENTITY st2 "fill:#BB5CA3;">
	<!ENTITY st3 "fill:#7D57A4;">
	<!ENTITY st4 "fill:#A4D0EF;">
	<!ENTITY st5 "fill:#00548D;">
	<!ENTITY st6 "fill:#009BDA;">
	<!ENTITY st7 "fill:#F15A29;">
	<!ENTITY st8 "fill:#FFFFFF;">
	<!ENTITY st9 "fill:#97ABD8;">
	<!ENTITY st10 "fill:#F8BFD8;">
	<!ENTITY st11 "fill:#F69080;">
	<!ENTITY st12 "fill:none;stroke:#00AEEF;stroke-width:7;stroke-linecap:round;stroke-linejoin:round;stroke-miterlimit:10;">
	<!ENTITY st13 "fill:none;stroke:#EF4136;stroke-width:7;stroke-linecap:round;stroke-linejoin:round;stroke-miterlimit:10;">
	<!ENTITY st14 "fill:none;stroke:#FFF200;stroke-width:7;stroke-linecap:round;stroke-linejoin:round;stroke-miterlimit:10;">
	<!ENTITY st15 "fill:none;stroke:#DA1C5C;stroke-width:7;stroke-linecap:round;stroke-linejoin:round;stroke-miterlimit:10;">
	<!ENTITY st16 "fill:none;stroke:#2BB673;stroke-width:7;stroke-linecap:round;stroke-linejoin:round;stroke-miterlimit:10;">
	<!ENTITY st17 "fill:none;stroke:#87CBF0;stroke-width:7;stroke-linecap:round;stroke-linejoin:round;stroke-miterlimit:10;">
	<!ENTITY st18 "fill:none;stroke:#F6ADCD;stroke-width:7;stroke-linecap:round;stroke-linejoin:round;stroke-miterlimit:10;">
	<!ENTITY st19 "fill:none;stroke:#FFFFFF;stroke-width:7;stroke-linecap:round;stroke-linejoin:round;stroke-miterlimit:10;">
	<!ENTITY st20 "fill:none;stroke:#8B5E3C;stroke-width:7;stroke-linecap:round;stroke-linejoin:round;stroke-miterlimit:10;">
	<!ENTITY st21 "fill:#F16460;">
	<!ENTITY st22 "fill:none;stroke:#FFF200;stroke-width:7;stroke-miterlimit:10;">
	<!ENTITY st23 "fill:#E6E7E8;">
	<!ENTITY st24 "fill:#F17DB1;stroke:#F17DB1;stroke-width:8.2549;stroke-miterlimit:10;">
	<!ENTITY st25 "fill:#DBA5CB;stroke:#DBA5CB;stroke-width:8.2549;stroke-miterlimit:10;">
	<!ENTITY st26 "fill:#EC008C;stroke:#EC008C;stroke-width:8.2549;stroke-miterlimit:10;">
	<!ENTITY st27 "fill:#9E91C5;">
	<!ENTITY st28 "fill:none;stroke:#FFF200;stroke-width:7;stroke-linecap:round;stroke-miterlimit:10;">
	<!ENTITY st29 "fill:#4D9D47;">
	<!ENTITY st30 "fill:none;stroke:#FFFFFF;stroke-width:6;stroke-linecap:round;stroke-linejoin:round;stroke-miterlimit:10;">
	<!ENTITY st31 "fill:#55BF9E;">
	<!ENTITY st32 "fill:#8ED8F8;">
	<!ENTITY st33 "fill:#00969E;">
	<!ENTITY st34 "fill:none;stroke:#00969E;stroke-width:7;stroke-miterlimit:10;">
	<!ENTITY st35 "fill:#B1CFDE;">
	<!ENTITY st36 "fill:#F26522;">
	<!ENTITY st37 "fill:#ED1B32;">
	<!ENTITY st38 "fill:#FFF200;">
	<!ENTITY st39 "fill:#A5DFF9;">
	<!ENTITY st40 "fill:#8DC63F;">
	<!ENTITY st41 "fill:#F26971;">
	<!ENTITY st42 "fill:#AC88B1;">
	<!ENTITY st43 "fill:#EF4136;">
	<!ENTITY st44 "fill:#00AEEF;">
	<!ENTITY st45 "fill:#8B5E3C;">
	<!ENTITY st46 "fill:#2BB673;">
	<!ENTITY st47 "fill:#DA1C5C;">
	<!ENTITY st48 "fill:#87CBF0;">
	<!ENTITY st49 "fill:#F6ADCD;">
	<!ENTITY st50 "fill:#0064A0;">
	<!ENTITY st51 "fill:#73C7AA;">
	<!ENTITY st52 "fill:none;stroke:#9159A4;stroke-width:50;stroke-linecap:round;stroke-miterlimit:10;">
	<!ENTITY st53 "fill:none;stroke:#EF4444;stroke-width:50;stroke-linecap:round;stroke-miterlimit:10;">
	<!ENTITY st54 "fill:#F79880;">
	<!ENTITY st55 "fill:#74C273;">
	<!ENTITY st56 "fill:#F17DB1;">
]>
<svg version="1.1" id="Layer_1" xmlns="http://www.w3.org/2000/svg" xmlns:xlink="http://www.w3.org/1999/xlink" x="0px" y="0px"
	 viewBox="0 0 311.8 419.5" style="enable-background:new 0 0 311.8 419.5;" xml:space="preserve">
<rect x="0" y="0" style="&st51;" width="311.8" height="419.5"/>
<g>
	<path style="&st19;" d="M140.8,337.8l5.8,0.5l5.8,0.3l5.8,0.1c60.5-1.2,111.8-43.7,124-103l1.1-5.7l0.7-5.7
		c6.8-59.9-29-116.7-86-136.3l-5.5-1.8l-5.6-1.5l-5.7-1.3l-5.7-1c-59.8-9.1-117.5,24.3-139.6,80.6l-2,5.5l-1.7,5.5
		c-16.9,58,8.9,119.8,61.8,148.9l5.2,2.6l5.3,2.5l5.4,2.2"/>
	<path style="&st19;" d="M145.5,333.6"/>
	<path style="&st19;" d="M170.3,306.5l4.9-0.9c50.9-10.1,85.2-58.8,77.5-110.1l-0.8-4.9"/>
	<path style="&st19;" d="M235.1,152.2l-3.1-3.9l-3.2-3.8c-33.8-37.7-90.5-43.3-131.2-13.2l-3.9,3.1l-3.7,3.3
		c-38.7,35.5-42.5,95.1-8.7,135.3l3.4,3.7l3.5,3.6"/>
	<path style="&st19;" d="M192.1,264l3.4-2.4l3.2-2.6c23.9-20.8,29.5-55.6,13.2-82.8l-2.2-3.5l-2.4-3.4c-19.5-24.8-54.2-32.2-82-17.2
		l-3.6,2l-3.4,2.3"/>
	<path style="&st19;" d="M93.6,190.6l-1.1,4c-5,20.5,0.5,42.3,14.4,58.2l2.9,3"/>
	<path style="&st19;" d="M170.3,242.5l2.6-1.3l2.5-1.5c28.1-18.9,17.5-61.7-16.2-65.5l-3-0.1l-3,0.1c-33.8,2.9-45.3,45.6-17.6,65.1
		l2.4,1.6l2.6,1.4"/>
	<line style="&st19;" x1="109.8" y1="330.1" x2="109.8" y2="255.8"/>
	<line style="&st19;" x1="140.8" y1="337.8" x2="140.8" y2="242.2"/>
	<line style="&st19;" x1="170.3" y1="306.5" x2="170.3" y2="242.5"/>
	<line style="&st19;" x1="126.5" y1="189.5" x2="76.4" y2="152.8"/>
	<line style="&st19;" x1="215.5" y1="183.3" x2="273.5" y2="157.1"/>
</g>
</svg>
