<?xml version="1.0" encoding="utf-8"?>
<!-- Generator: Adobe Illustrator 18.0.0, SVG Export Plug-In . SVG Version: 6.00 Build 0)  -->
<!DOCTYPE svg PUBLIC "-//W3C//DTD SVG 1.1//EN" "http://www.w3.org/Graphics/SVG/1.1/DTD/svg11.dtd">
<svg version="1.1" id="Layer_1" xmlns="http://www.w3.org/2000/svg" xmlns:xlink="http://www.w3.org/1999/xlink" x="0px" y="0px"
	 viewBox="0 0 311.3 420.4" enable-background="new 0 0 311.3 420.4" xml:space="preserve">
<rect x="0" y="0" fill="none" width="311.3" height="420.4"/>
<g>
	<circle fill="#FFF100" cx="156.8" cy="210.6" r="47.5"/>
	<path fill="#231F20" d="M159.6,213.1c0,0.6-0.4,1-1,1c-0.6,0-1-0.4-1-1c0-0.6,0.4-1,1-1C159.2,212.1,159.6,212.6,159.6,213.1z
		 M155.2,210.9c-0.6,0-1,0.4-1,1c0,0.6,0.4,1,1,1c0.6,0,1-0.4,1-1C156.2,211.3,155.7,210.9,155.2,210.9z M155.3,214.1
		c-0.6,0-1,0.4-1,1c0,0.6,0.4,1,1,1c0.6,0,1-0.5,1-1C156.3,214.6,155.9,214.1,155.3,214.1z M158.5,215.6c-0.6,0-1,0.4-1,1
		c0,0.6,0.4,1,1,1c0.6,0,1-0.4,1-1C159.5,216.1,159.1,215.6,158.5,215.6z M161.7,211.4c-0.6,0-1,0.4-1,1c0,0.6,0.4,1,1,1
		c0.6,0,1-0.4,1-1C162.7,211.9,162.2,211.4,161.7,211.4z M162.4,214.4c-0.6,0-1,0.4-1,1c0,0.6,0.4,1,1,1c0.6,0,1-0.4,1-1
		C163.4,214.9,163,214.4,162.4,214.4z M161.3,217.6c-0.6,0-1,0.4-1,1s0.4,1,1,1c0.6,0,1-0.4,1-1S161.8,217.6,161.3,217.6z
		 M158.5,220.2c-0.6,0-1,0.4-1,1c0,0.6,0.4,1,1,1c0.6,0,1-0.4,1-1C159.5,220.6,159,220.2,158.5,220.2z M156.3,217.9
		c-0.6,0-1,0.4-1,1c0,0.6,0.4,1,1,1c0.6,0,1-0.4,1-1C157.3,218.4,156.8,217.9,156.3,217.9z M152.8,218.7c-0.6,0-1,0.4-1,1
		c0,0.6,0.4,1,1,1c0.6,0,1-0.4,1-1C153.8,219.1,153.3,218.7,152.8,218.7z M152.5,215.4c-0.6,0-1,0.4-1,1c0,0.6,0.4,1,1,1
		c0.6,0,1-0.4,1-1C153.5,215.8,153.1,215.4,152.5,215.4z M151.3,211.8c-0.6,0-1,0.4-1,1c0,0.6,0.4,1,1,1c0.6,0,1-0.4,1-1
		C152.3,212.3,151.9,211.8,151.3,211.8z M152.8,208.9c-0.6,0-1,0.4-1,1c0,0.6,0.4,1,1,1c0.6,0,1-0.5,1-1
		C153.8,209.4,153.4,208.9,152.8,208.9z M156.8,206.9c-0.6,0-1,0.5-1,1c0,0.6,0.5,1,1,1c0.6,0,1-0.4,1-1
		C157.8,207.3,157.4,206.9,156.8,206.9z M160.2,207.3c-0.6,0-1,0.4-1,1c0,0.6,0.4,1,1,1c0.6,0,1-0.4,1-1
		C161.2,207.7,160.8,207.3,160.2,207.3z M158.3,209.4c-0.6,0-1,0.4-1,1c0,0.6,0.4,1,1,1s1-0.4,1-1
		C159.3,209.8,158.8,209.4,158.3,209.4z M163.3,208.1c-0.6,0-1,0.4-1,1c0,0.6,0.5,1,1,1c0.6,0,1-0.4,1-1
		C164.3,208.6,163.8,208.1,163.3,208.1z M165.3,210.7c-0.6,0-1,0.4-1,1c0,0.6,0.4,1,1,1c0.6,0,1-0.4,1-1
		C166.3,211.2,165.8,210.7,165.3,210.7z M167.7,208.7c-0.6,0-1,0.4-1,1c0,0.6,0.4,1,1,1c0.6,0,1-0.4,1-1
		C168.7,209.1,168.2,208.7,167.7,208.7z M169.1,205.6c-0.6,0-1,0.4-1,1c0,0.6,0.4,1,1,1c0.6,0,1-0.4,1-1
		C170.1,206.1,169.7,205.6,169.1,205.6z M172.5,203c-0.6,0-1,0.4-1,1c0,0.6,0.4,1,1,1c0.6,0,1-0.4,1-1
		C173.5,203.4,173.1,203,172.5,203z M169.4,202.2c-0.6,0-1,0.4-1,1c0,0.6,0.4,1,1,1c0.6,0,1-0.4,1-1
		C170.4,202.6,169.9,202.2,169.4,202.2z M166,202.3c-0.6,0-1,0.4-1,1c0,0.6,0.4,1,1,1c0.6,0,1-0.4,1-1
		C167,202.7,166.5,202.3,166,202.3z M162.3,203.9c-0.6,0-1,0.4-1,1c0,0.6,0.4,1,1,1c0.6,0,1-0.4,1-1
		C163.3,204.3,162.8,203.9,162.3,203.9z M159.2,204.2c-0.6,0-1,0.4-1,1c0,0.6,0.4,1,1,1c0.6,0,1-0.4,1-1
		C160.2,204.6,159.7,204.2,159.2,204.2z M158.5,200.7c-0.6,0-1,0.4-1,1s0.4,1,1,1c0.6,0,1-0.4,1-1S159.1,200.7,158.5,200.7z
		 M162.2,200.7c-0.6,0-1,0.4-1,1c0,0.6,0.4,1,1,1c0.6,0,1-0.4,1-1C163.2,201.1,162.8,200.7,162.2,200.7z M165.4,199
		c-0.6,0-1,0.4-1,1c0,0.6,0.4,1,1,1c0.6,0,1-0.4,1-1C166.4,199.5,166,199,165.4,199z M168.6,198.7c-0.6,0-1,0.4-1,1c0,0.6,0.4,1,1,1
		c0.6,0,1-0.4,1-1C169.6,199.1,169.2,198.7,168.6,198.7z M171.7,199c-0.6,0-1,0.4-1,1c0,0.6,0.4,1,1,1c0.6,0,1-0.4,1-1
		C172.7,199.4,172.2,199,171.7,199z M174.7,200c-0.6,0-1,0.4-1,1c0,0.6,0.4,1,1,1c0.6,0,1-0.4,1-1C175.8,200.5,175.3,200,174.7,200z
		 M176.2,197.1c-0.6,0-1,0.4-1,1s0.4,1,1,1s1-0.4,1-1S176.7,197.1,176.2,197.1z M173.1,195.7c-0.6,0-1,0.4-1,1c0,0.6,0.4,1,1,1
		c0.6,0,1-0.4,1-1C174.1,196.2,173.7,195.7,173.1,195.7z M169.9,195c-0.6,0-1,0.4-1,1c0,0.6,0.4,1,1,1c0.6,0,1-0.4,1-1
		C170.9,195.5,170.5,195,169.9,195z M166.7,195.1c-0.6,0-1,0.4-1,1c0,0.6,0.4,1,1,1c0.6,0,1-0.4,1-1
		C167.7,195.5,167.3,195.1,166.7,195.1z M163.7,196c-0.6,0-1,0.4-1,1c0,0.6,0.4,1,1,1c0.6,0,1-0.4,1-1
		C164.7,196.4,164.2,196,163.7,196z M160.9,197.7c-0.6,0-1,0.4-1,1c0,0.6,0.4,1,1,1c0.6,0,1-0.4,1-1
		C161.9,198.2,161.5,197.7,160.9,197.7z M158.4,195.3c-0.6,0-1,0.4-1,1c0,0.6,0.4,1,1,1c0.6,0,1-0.4,1-1
		C159.4,195.7,159,195.3,158.4,195.3z M156.6,198.2c-0.6,0-1,0.5-1,1c0,0.6,0.4,1,1,1c0.6,0,1-0.4,1-1
		C157.6,198.6,157.1,198.2,156.6,198.2z M155.7,202.2c-0.6,0-1,0.4-1,1c0,0.6,0.4,1,1,1c0.6,0,1-0.4,1-1
		C156.7,202.7,156.3,202.2,155.7,202.2z M153.1,200.1c-0.6,0-1,0.4-1,1c0,0.6,0.4,1,1,1c0.6,0,1-0.4,1-1
		C154.1,200.5,153.6,200.1,153.1,200.1z M153.7,196.6c-0.6,0-1,0.4-1,1c0,0.6,0.4,1,1,1c0.6,0,1-0.4,1-1
		C154.7,197,154.3,196.6,153.7,196.6z M155.2,193.7c-0.6,0-1,0.4-1,1s0.4,1,1,1c0.6,0,1-0.4,1-1S155.8,193.7,155.2,193.7z
		 M157.5,191.4c-0.6,0-1,0.4-1,1c0,0.6,0.4,1,1,1c0.6,0,1-0.4,1-1C158.5,191.8,158,191.4,157.5,191.4z M160.9,193.3
		c-0.6,0-1,0.4-1,1c0,0.6,0.4,1,1,1c0.6,0,1-0.4,1-1C161.9,193.8,161.5,193.3,160.9,193.3z M163.9,192c-0.6,0-1,0.4-1,1
		c0,0.6,0.4,1,1,1c0.6,0,1-0.4,1-1C164.9,192.5,164.4,192,163.9,192z M167,191.5c-0.6,0-1,0.4-1,1c0,0.6,0.4,1,1,1c0.6,0,1-0.4,1-1
		C168.1,191.9,167.6,191.5,167,191.5z M170.4,191.6c-0.6,0-1,0.4-1,1c0,0.6,0.4,1,1,1c0.6,0,1-0.4,1-1
		C171.4,192.1,171,191.6,170.4,191.6z M173.7,192.4c-0.6,0-1,0.4-1,1c0,0.6,0.4,1,1,1c0.6,0,1-0.4,1-1
		C174.7,192.8,174.3,192.4,173.7,192.4z M177,193.8c-0.6,0-1,0.4-1,1s0.4,1,1,1c0.6,0,1-0.4,1-1S177.6,193.8,177,193.8z
		 M177.3,190.6c-0.6,0-1,0.4-1,1s0.4,1,1,1c0.6,0,1-0.4,1-1S177.9,190.6,177.3,190.6z M173.7,189.2c-0.6,0-1,0.4-1,1
		c0,0.6,0.4,1,1,1c0.6,0,1-0.4,1-1C174.7,189.7,174.2,189.2,173.7,189.2z M177,187.3c-0.6,0-1,0.5-1,1c0,0.6,0.4,1,1,1
		c0.6,0,1-0.4,1-1C178,187.8,177.6,187.3,177,187.3z M176.3,184.1c-0.6,0-1,0.4-1,1c0,0.6,0.4,1,1,1c0.6,0,1-0.4,1-1
		C177.3,184.6,176.8,184.1,176.3,184.1z M174.9,180.9c-0.6,0-1,0.4-1,1c0,0.6,0.4,1,1,1c0.6,0,1-0.4,1-1
		C175.9,181.3,175.5,180.9,174.9,180.9z M173.1,177.9c-0.6,0-1,0.5-1,1c0,0.6,0.4,1,1,1c0.6,0,1-0.4,1-1
		C174.1,178.3,173.7,177.9,173.1,177.9z M170.5,179.8c-0.6,0-1,0.4-1,1c0,0.6,0.4,1,1,1c0.6,0,1-0.4,1-1
		C171.5,180.2,171,179.8,170.5,179.8z M172.1,182.8c-0.6,0-1,0.4-1,1c0,0.6,0.4,1,1,1c0.6,0,1-0.4,1-1
		C173.1,183.3,172.7,182.8,172.1,182.8z M173.2,186c-0.6,0-1,0.4-1,1c0,0.6,0.4,1,1,1c0.6,0,1-0.4,1-1
		C174.2,186.4,173.8,186,173.2,186z M170.2,188.3c-0.6,0-1,0.4-1,1c0,0.6,0.4,1,1,1c0.6,0,1-0.4,1-1
		C171.2,188.8,170.7,188.3,170.2,188.3z M166.6,188.2c-0.6,0-1,0.4-1,1c0,0.6,0.4,1,1,1c0.6,0,1-0.4,1-1
		C167.6,188.7,167.2,188.2,166.6,188.2z M163.2,188.6c-0.6,0-1,0.4-1,1c0,0.6,0.4,1,1,1c0.6,0,1-0.4,1-1
		C164.2,189,163.8,188.6,163.2,188.6z M160.1,189.7c-0.6,0-1,0.4-1,1c0,0.6,0.4,1,1,1c0.6,0,1-0.4,1-1
		C161.1,190.2,160.7,189.7,160.1,189.7z M158.6,186.6c-0.6,0-1,0.4-1,1c0,0.6,0.4,1,1,1c0.6,0,1-0.4,1-1
		C159.6,187.1,159.2,186.6,158.6,186.6z M156.6,183.9c-0.6,0-1,0.4-1,1c0,0.6,0.4,1,1,1c0.6,0,1-0.4,1-1
		C157.6,184.4,157.1,183.9,156.6,183.9z M160.1,182.8c-0.6,0-1,0.4-1,1c0,0.6,0.4,1,1,1c0.6,0,1-0.4,1-1
		C161.1,183.3,160.7,182.8,160.1,182.8z M161.9,185.5c-0.6,0-1,0.4-1,1c0,0.6,0.4,1,1,1c0.6,0,1-0.4,1-1
		C162.9,186,162.5,185.5,161.9,185.5z M165.5,185c-0.6,0-1,0.4-1,1c0,0.6,0.4,1,1,1c0.6,0,1-0.5,1-1C166.5,185.5,166,185,165.5,185z
		 M169.4,185.1c-0.6,0-1,0.4-1,1c0,0.6,0.4,1,1,1c0.6,0,1-0.4,1-1C170.4,185.6,169.9,185.1,169.4,185.1z M168,182.1
		c-0.6,0-1,0.4-1,1c0,0.6,0.4,1,1,1c0.6,0,1-0.4,1-1C169,182.6,168.5,182.1,168,182.1z M163.9,182.2c-0.6,0-1,0.4-1,1
		c0,0.6,0.4,1,1,1c0.6,0,1-0.4,1-1C164.9,182.6,164.4,182.2,163.9,182.2z M166.1,179.4c-0.6,0-1,0.4-1,1c0,0.6,0.4,1,1,1
		c0.6,0,1-0.4,1-1C167.1,179.8,166.7,179.4,166.1,179.4z M168.4,176.9c-0.6,0-1,0.4-1,1c0,0.6,0.4,1,1,1c0.6,0,1-0.4,1-1
		C169.4,177.4,169,176.9,168.4,176.9z M170.9,175c-0.6,0-1,0.4-1,1c0,0.6,0.4,1,1,1c0.6,0,1-0.4,1-1
		C171.9,175.4,171.5,175,170.9,175z M173.5,173.2c-0.6,0-1,0.4-1,1c0,0.6,0.4,1,1,1c0.6,0,1-0.4,1-1
		C174.5,173.7,174.1,173.2,173.5,173.2z M170.9,170.5c-0.6,0-1,0.4-1,1c0,0.6,0.4,1,1,1c0.6,0,1-0.4,1-1
		C171.9,170.9,171.4,170.5,170.9,170.5z M168.4,172.3c-0.6,0-1,0.4-1,1c0,0.6,0.4,1,1,1c0.6,0,1-0.4,1-1
		C169.4,172.8,168.9,172.3,168.4,172.3z M165.4,169.9c-0.6,0-1,0.4-1,1c0,0.6,0.4,1,1,1c0.6,0,1-0.4,1-1
		C166.4,170.4,166,169.9,165.4,169.9z M162.1,167.8c-0.6,0-1,0.4-1,1c0,0.6,0.4,1,1,1c0.6,0,1-0.4,1-1
		C163.1,168.2,162.7,167.8,162.1,167.8z M160,170c-0.6,0-1,0.4-1,1c0,0.6,0.4,1,1,1c0.6,0,1-0.4,1-1C161,170.5,160.6,170,160,170z
		 M156.6,168.4c-0.6,0-1,0.4-1,1c0,0.6,0.4,1,1,1c0.6,0,1-0.4,1-1C157.6,168.8,157.1,168.4,156.6,168.4z M163.3,172.1
		c-0.6,0-1,0.4-1,1c0,0.6,0.5,1,1,1c0.6,0,1-0.4,1-1C164.3,172.5,163.8,172.1,163.3,172.1z M166,174.4c-0.6,0-1,0.4-1,1
		c0,0.6,0.4,1,1,1c0.6,0,1-0.4,1-1C167,174.8,166.6,174.4,166,174.4z M163.9,176.8c-0.6,0-1,0.4-1,1c0,0.6,0.5,1,1,1
		c0.6,0,1-0.4,1-1C164.9,177.3,164.5,176.8,163.9,176.8z M161.2,174.6c-0.6,0-1,0.4-1,1c0,0.6,0.4,1,1,1c0.6,0,1-0.4,1-1
		C162.2,175,161.7,174.6,161.2,174.6z M159.4,177.2c-0.6,0-1,0.4-1,1c0,0.6,0.4,1,1,1c0.6,0,1-0.4,1-1
		C160.4,177.6,160,177.2,159.4,177.2z M157.8,180.4c-0.6,0-1,0.4-1,1c0,0.6,0.4,1,1,1c0.6,0,1-0.4,1-1
		C158.8,180.9,158.4,180.4,157.8,180.4z M155.7,188.3c-0.6,0-1,0.4-1,1c0,0.6,0.4,1,1,1c0.6,0,1-0.4,1-1
		C156.7,188.7,156.2,188.3,155.7,188.3z M153.2,190.4c-0.6,0-1,0.4-1,1c0,0.6,0.4,1,1,1c0.6,0,1-0.4,1-1
		C154.2,190.8,153.8,190.4,153.2,190.4z M151.4,193c-0.6,0-1,0.4-1,1c0,0.6,0.4,1,1,1c0.6,0,1-0.4,1-1
		C152.4,193.5,152,193,151.4,193z M150.3,196c-0.6,0-1,0.4-1,1c0,0.6,0.4,1,1,1c0.6,0,1-0.4,1-1C151.3,196.4,150.8,196,150.3,196z
		 M150,199.3c-0.6,0-1,0.4-1,1c0,0.6,0.4,1,1,1c0.6,0,1-0.4,1-1C151,199.7,150.6,199.3,150,199.3z M151.1,203c-0.6,0-1,0.4-1,1
		c0,0.6,0.4,1,1,1c0.6,0,1-0.4,1-1C152.1,203.4,151.6,203,151.1,203z M151,206.3c-0.6,0-1,0.5-1,1c0,0.6,0.4,1,1,1c0.6,0,1-0.4,1-1
		C152,206.7,151.5,206.3,151,206.3z M147.5,206.7c-0.6,0-1,0.4-1,1c0,0.6,0.4,1,1,1s1-0.4,1-1C148.5,207.2,148.1,206.7,147.5,206.7z
		 M148,202.9c-0.6,0-1,0.4-1,1c0,0.6,0.4,1,1,1c0.6,0,1-0.4,1-1C149,203.4,148.5,202.9,148,202.9z M146.6,199.7c-0.6,0-1,0.4-1,1
		c0,0.6,0.4,1,1,1c0.6,0,1-0.4,1-1C147.6,200.2,147.2,199.7,146.6,199.7z M146.5,196.5c-0.6,0-1,0.4-1,1c0,0.6,0.4,1,1,1
		c0.6,0,1-0.4,1-1C147.5,196.9,147.1,196.5,146.5,196.5z M147.3,193.4c-0.6,0-1,0.4-1,1c0,0.6,0.4,1,1,1c0.6,0,1-0.4,1-1
		C148.3,193.8,147.8,193.4,147.3,193.4z M148.7,190.5c-0.6,0-1,0.4-1,1c0,0.6,0.4,1,1,1c0.6,0,1-0.4,1-1
		C149.7,191,149.3,190.5,148.7,190.5z M145.8,188.8c-0.6,0-1,0.4-1,1s0.4,1,1,1c0.6,0,1-0.4,1-1S146.4,188.8,145.8,188.8z
		 M144.1,191.8c-0.6,0-1,0.4-1,1c0,0.6,0.4,1,1,1c0.6,0,1-0.4,1-1C145.1,192.2,144.7,191.8,144.1,191.8z M142.6,187.7
		c-0.6,0-1,0.4-1,1c0,0.6,0.4,1,1,1c0.6,0,1-0.4,1-1C143.6,188.2,143.2,187.7,142.6,187.7z M150.8,188c-0.6,0-1,0.4-1,1
		c0,0.6,0.4,1,1,1c0.6,0,1-0.4,1-1C151.8,188.4,151.4,188,150.8,188z M153.5,185.7c-0.6,0-1,0.4-1,1c0,0.6,0.4,1,1,1
		c0.6,0,1-0.4,1-1C154.5,186.1,154.1,185.7,153.5,185.7z M151,183.7c-0.6,0-1,0.4-1,1s0.4,1,1,1c0.6,0,1-0.4,1-1
		S151.5,183.7,151,183.7z M154.2,181.8c-0.6,0-1,0.4-1,1s0.4,1,1,1c0.6,0,1-0.4,1-1S154.8,181.8,154.2,181.8z M155.3,178.4
		c-0.6,0-1,0.4-1,1c0,0.6,0.4,1,1,1c0.6,0,1-0.4,1-1C156.3,178.8,155.8,178.4,155.3,178.4z M156.7,175.2c-0.6,0-1,0.4-1,1
		c0,0.6,0.4,1,1,1c0.6,0,1-0.4,1-1C157.7,175.7,157.2,175.2,156.7,175.2z M158.2,172.4c-0.6,0-1,0.4-1,1c0,0.6,0.4,1,1,1s1-0.4,1-1
		C159.2,172.9,158.8,172.4,158.2,172.4z M154.9,170.9c-0.6,0-1,0.4-1,1c0,0.6,0.4,1,1,1c0.6,0,1-0.4,1-1
		C155.9,171.3,155.5,170.9,154.9,170.9z M153.5,173.6c-0.6,0-1,0.4-1,1c0,0.6,0.4,1,1,1c0.6,0,1-0.4,1-1
		C154.5,174.1,154,173.6,153.5,173.6z M152.3,176.7c-0.6,0-1,0.4-1,1c0,0.6,0.4,1,1,1c0.6,0,1-0.4,1-1
		C153.3,177.1,152.8,176.7,152.3,176.7z M151.3,180.1c-0.6,0-1,0.4-1,1c0,0.6,0.4,1,1,1c0.6,0,1-0.4,1-1
		C152.3,180.5,151.9,180.1,151.3,180.1z M148.4,178.6c-0.6,0-1,0.4-1,1c0,0.6,0.4,1,1,1c0.6,0,1-0.4,1-1
		C149.4,179.1,148.9,178.6,148.4,178.6z M149.1,175.4c-0.6,0-1,0.4-1,1c0,0.6,0.4,1,1,1c0.6,0,1-0.4,1-1
		C150.1,175.9,149.6,175.4,149.1,175.4z M150.1,172.4c-0.6,0-1,0.4-1,1c0,0.6,0.4,1,1,1c0.6,0,1-0.4,1-1
		C151.1,172.9,150.6,172.4,150.1,172.4z M151.4,169.6c-0.6,0-1,0.4-1,1c0,0.6,0.4,1,1,1c0.6,0,1-0.4,1-1
		C152.4,170.1,152,169.6,151.4,169.6z M147.6,168.8c-0.6,0-1,0.4-1,1c0,0.6,0.4,1,1,1c0.6,0,1-0.4,1-1
		C148.6,169.2,148.1,168.8,147.6,168.8z M146.4,171.6c-0.6,0-1,0.4-1,1c0,0.6,0.4,1,1,1c0.6,0,1-0.4,1-1
		C147.4,172,146.9,171.6,146.4,171.6z M145.6,174.6c-0.6,0-1,0.4-1,1c0,0.6,0.4,1,1,1c0.6,0,1-0.4,1-1
		C146.6,175,146.1,174.6,145.6,174.6z M145,177.7c-0.6,0-1,0.4-1,1c0,0.6,0.4,1,1,1c0.6,0,1-0.4,1-1
		C146,178.2,145.5,177.7,145,177.7z M141.5,177.3c-0.6,0-1,0.4-1,1c0,0.6,0.4,1,1,1c0.6,0,1-0.4,1-1
		C142.5,177.8,142.1,177.3,141.5,177.3z M142,174.2c-0.6,0-1,0.4-1,1c0,0.6,0.4,1,1,1c0.6,0,1-0.4,1-1
		C143,174.7,142.6,174.2,142,174.2z M142.6,171.1c-0.6,0-1,0.4-1,1c0,0.6,0.4,1,1,1c0.6,0,1-0.4,1-1
		C143.6,171.6,143.2,171.1,142.6,171.1z M138.8,171.2c-0.6,0-1,0.4-1,1c0,0.6,0.4,1,1,1c0.6,0,1-0.4,1-1
		C139.8,171.7,139.3,171.2,138.8,171.2z M138.2,174.2c-0.6,0-1,0.4-1,1c0,0.6,0.4,1,1,1s1-0.4,1-1
		C139.2,174.6,138.7,174.2,138.2,174.2z M137.9,177.2c-0.6,0-1,0.4-1,1c0,0.6,0.4,1,1,1s1-0.4,1-1
		C138.9,177.7,138.5,177.2,137.9,177.2z M138.1,180.4c-0.6,0-1,0.4-1,1c0,0.6,0.4,1,1,1s1-0.4,1-1
		C139.1,180.9,138.6,180.4,138.1,180.4z M138.5,183.7c-0.6,0-1,0.4-1,1s0.4,1,1,1c0.6,0,1-0.4,1-1S139.1,183.7,138.5,183.7z
		 M139.4,187.3c-0.6,0-1,0.5-1,1c0,0.6,0.4,1,1,1c0.6,0,1-0.4,1-1C140.4,187.7,140,187.3,139.4,187.3z M140.9,190.9
		c-0.6,0-1,0.4-1,1c0,0.6,0.4,1,1,1c0.6,0,1-0.4,1-1C141.9,191.3,141.4,190.9,140.9,190.9z M137.6,190.6c-0.6,0-1,0.4-1,1s0.4,1,1,1
		c0.6,0,1-0.4,1-1S138.2,190.6,137.6,190.6z M136.1,187.3c-0.6,0-1,0.5-1,1c0,0.6,0.4,1,1,1c0.6,0,1-0.4,1-1
		C137.1,187.7,136.7,187.3,136.1,187.3z M132.8,187.8c-0.6,0-1,0.4-1,1c0,0.6,0.4,1,1,1c0.6,0,1-0.4,1-1
		C133.8,188.2,133.4,187.8,132.8,187.8z M131.7,184.7c-0.6,0-1,0.4-1,1c0,0.6,0.4,1,1,1c0.6,0,1-0.4,1-1
		C132.7,185.1,132.2,184.7,131.7,184.7z M128.4,185.9c-0.6,0-1,0.4-1,1s0.4,1,1,1c0.6,0,1-0.4,1-1S128.9,185.9,128.4,185.9z
		 M125,187.5c-0.6,0-1,0.4-1,1c0,0.6,0.4,1,1,1c0.6,0,1-0.4,1-1C126,187.9,125.6,187.5,125,187.5z M121.8,189.5c-0.6,0-1,0.4-1,1
		c0,0.6,0.5,1,1,1c0.6,0,1-0.4,1-1C122.9,189.9,122.4,189.5,121.8,189.5z M118.8,192c-0.6,0-1,0.4-1,1c0,0.6,0.4,1,1,1
		c0.6,0,1-0.4,1-1C119.8,192.5,119.3,192,118.8,192z M120.4,194.6c-0.6,0-1,0.4-1,1c0,0.6,0.4,1,1,1c0.6,0,1-0.4,1-1
		C121.4,195,121,194.6,120.4,194.6z M123.3,192.2c-0.6,0-1,0.4-1,1c0,0.6,0.4,1,1,1c0.6,0,1-0.4,1-1
		C124.3,192.7,123.8,192.2,123.3,192.2z M126.4,190.3c-0.6,0-1,0.4-1,1c0,0.6,0.4,1,1,1c0.6,0,1-0.4,1-1
		C127.4,190.7,126.9,190.3,126.4,190.3z M129.5,188.8c-0.6,0-1,0.4-1,1s0.4,1,1,1c0.6,0,1-0.4,1-1S130,188.8,129.5,188.8z
		 M131.2,191.8c-0.6,0-1,0.4-1,1c0,0.6,0.4,1,1,1c0.6,0,1-0.4,1-1C132.2,192.2,131.7,191.8,131.2,191.8z M128,193.1
		c-0.6,0-1,0.4-1,1c0,0.6,0.4,1,1,1c0.6,0,1-0.4,1-1C129,193.5,128.5,193.1,128,193.1z M125.1,194.8c-0.6,0-1,0.4-1,1
		c0,0.6,0.4,1,1,1c0.6,0,1-0.4,1-1C126.1,195.3,125.7,194.8,125.1,194.8z M122.3,197.1c-0.6,0-1,0.4-1,1s0.4,1,1,1c0.6,0,1-0.4,1-1
		S122.8,197.1,122.3,197.1z M119.7,199.7c-0.6,0-1,0.4-1,1c0,0.6,0.4,1,1,1c0.6,0,1-0.4,1-1C120.7,200.1,120.3,199.7,119.7,199.7z
		 M117.5,202.7c-0.6,0-1,0.4-1,1c0,0.6,0.4,1,1,1c0.6,0,1-0.4,1-1C118.5,203.1,118,202.7,117.5,202.7z M115.5,205.9
		c-0.6,0-1,0.4-1,1c0,0.6,0.4,1,1,1c0.6,0,1-0.4,1-1C116.5,206.4,116.1,205.9,115.5,205.9z M117.8,197.3c-0.6,0-1,0.4-1,1
		c0,0.6,0.4,1,1,1c0.6,0,1-0.4,1-1C118.8,197.8,118.3,197.3,117.8,197.3z M115.4,200.4c-0.6,0-1,0.4-1,1c0,0.6,0.4,1,1,1
		c0.6,0,1-0.4,1-1C116.4,200.9,116,200.4,115.4,200.4z M131,181.6c-0.6,0-1,0.4-1,1c0,0.6,0.4,1,1,1c0.6,0,1-0.4,1-1
		C132,182,131.5,181.6,131,181.6z M127.5,182.8c-0.6,0-1,0.4-1,1c0,0.6,0.4,1,1,1c0.6,0,1-0.4,1-1
		C128.5,183.3,128,182.8,127.5,182.8z M124,184.6c-0.6,0-1,0.4-1,1c0,0.6,0.4,1,1,1c0.6,0,1-0.4,1-1C125,185,124.5,184.6,124,184.6z
		 M120.8,186.6c-0.6,0-1,0.4-1,1c0,0.6,0.4,1,1,1c0.6,0,1-0.4,1-1C121.8,187.1,121.3,186.6,120.8,186.6z M134.4,191
		c-0.6,0-1,0.4-1,1c0,0.6,0.4,1,1,1c0.6,0,1-0.4,1-1C135.4,191.4,134.9,191,134.4,191z M135.2,183.9c-0.6,0-1,0.4-1,1
		c0,0.6,0.4,1,1,1c0.6,0,1-0.4,1-1C136.2,184.4,135.7,183.9,135.2,183.9z M134.5,180.9c-0.6,0-1,0.4-1,1c0,0.6,0.4,1,1,1
		c0.6,0,1-0.4,1-1C135.5,181.3,135,180.9,134.5,180.9z M143.1,195c-0.6,0-1,0.4-1,1c0,0.6,0.4,1,1,1c0.6,0,1-0.4,1-1
		C144.1,195.4,143.7,195,143.1,195z M142.9,198.2c-0.6,0-1,0.5-1,1c0,0.6,0.5,1,1,1c0.6,0,1-0.4,1-1
		C143.9,198.6,143.4,198.2,142.9,198.2z M143.4,201.2c-0.6,0-1,0.4-1,1c0,0.6,0.4,1,1,1c0.6,0,1-0.4,1-1
		C144.4,201.6,144,201.2,143.4,201.2z M144.9,204.1c-0.6,0-1,0.4-1,1c0,0.6,0.4,1,1,1c0.6,0,1-0.4,1-1
		C145.9,204.6,145.4,204.1,144.9,204.1z M148.8,209.9c-0.6,0-1,0.4-1,1c0,0.6,0.4,1,1,1c0.6,0,1-0.4,1-1
		C149.8,210.4,149.3,209.9,148.8,209.9z M146.5,212.3c-0.6,0-1,0.4-1,1c0,0.6,0.4,1,1,1c0.6,0,1-0.4,1-1
		C147.5,212.8,147.1,212.3,146.5,212.3z M145.5,215.4c-0.6,0-1,0.4-1,1c0,0.6,0.4,1,1,1c0.6,0,1-0.4,1-1
		C146.5,215.8,146,215.4,145.5,215.4z M145.7,218.8c-0.6,0-1,0.4-1,1c0,0.6,0.4,1,1,1c0.6,0,1-0.4,1-1
		C146.7,219.2,146.3,218.8,145.7,218.8z M146.9,222.1c-0.6,0-1,0.4-1,1s0.4,1,1,1c0.6,0,1-0.4,1-1S147.4,222.1,146.9,222.1z
		 M149.3,225.2c-0.6,0-1,0.4-1,1c0,0.6,0.4,1,1,1c0.6,0,1-0.4,1-1C150.3,225.7,149.9,225.2,149.3,225.2z M152.6,227.6
		c-0.6,0-1,0.4-1,1c0,0.6,0.4,1,1,1c0.6,0,1-0.4,1-1C153.6,228.1,153.1,227.6,152.6,227.6z M149.6,228.8c-0.6,0-1,0.4-1,1
		c0,0.6,0.4,1,1,1c0.6,0,1-0.4,1-1C150.6,229.3,150.2,228.8,149.6,228.8z M146.3,229.3c-0.6,0-1,0.4-1,1c0,0.6,0.4,1,1,1
		c0.6,0,1-0.4,1-1C147.3,229.8,146.9,229.3,146.3,229.3z M142.9,229.2c-0.6,0-1,0.4-1,1c0,0.6,0.5,1,1,1c0.6,0,1-0.4,1-1
		C143.9,229.7,143.4,229.2,142.9,229.2z M139.4,228.4c-0.6,0-1,0.4-1,1c0,0.6,0.4,1,1,1c0.6,0,1-0.4,1-1
		C140.4,228.8,140,228.4,139.4,228.4z M136,226.9c-0.6,0-1,0.4-1,1s0.4,1,1,1c0.6,0,1-0.4,1-1S136.6,226.9,136,226.9z M132.7,224.8
		c-0.6,0-1,0.4-1,1c0,0.6,0.4,1,1,1c0.6,0,1-0.4,1-1C133.7,225.2,133.2,224.8,132.7,224.8z M129.7,222.1c-0.6,0-1,0.4-1,1s0.4,1,1,1
		c0.6,0,1-0.4,1-1S130.3,222.1,129.7,222.1z M127.2,218.9c-0.6,0-1,0.4-1,1c0,0.6,0.4,1,1,1c0.6,0,1-0.4,1-1
		C128.2,219.3,127.7,218.9,127.2,218.9z M130.7,218.9c-0.6,0-1,0.4-1,1c0,0.6,0.4,1,1,1c0.6,0,1-0.4,1-1
		C131.7,219.4,131.3,218.9,130.7,218.9z M134.8,218.6c-0.6,0-1,0.4-1,1c0,0.6,0.4,1,1,1c0.6,0,1-0.4,1-1
		C135.8,219.1,135.4,218.6,134.8,218.6z M139.5,217.6c-0.6,0-1,0.4-1,1s0.4,1,1,1c0.6,0,1-0.4,1-1S140.1,217.6,139.5,217.6z
		 M142.3,214.8c-0.6,0-1,0.4-1,1c0,0.6,0.4,1,1,1c0.6,0,1-0.4,1-1C143.3,215.3,142.8,214.8,142.3,214.8z M143.1,211.3
		c-0.6,0-1,0.4-1,1c0,0.6,0.4,1,1,1c0.6,0,1-0.4,1-1C144.1,211.8,143.7,211.3,143.1,211.3z M144.9,208.5c-0.6,0-1,0.4-1,1s0.4,1,1,1
		c0.6,0,1-0.4,1-1S145.4,208.5,144.9,208.5z M142.4,206.4c-0.6,0-1,0.4-1,1c0,0.6,0.4,1,1,1c0.6,0,1-0.4,1-1
		C143.4,206.8,142.9,206.4,142.4,206.4z M140.6,203.7c-0.6,0-1,0.4-1,1c0,0.6,0.4,1,1,1c0.6,0,1-0.4,1-1
		C141.6,204.2,141.1,203.7,140.6,203.7z M139.6,200.8c-0.6,0-1,0.4-1,1c0,0.6,0.4,1,1,1c0.6,0,1-0.4,1-1
		C140.6,201.2,140.2,200.8,139.6,200.8z M139.4,197.5c-0.6,0-1,0.4-1,1c0,0.6,0.4,1,1,1c0.6,0,1-0.4,1-1
		C140.4,197.9,140,197.5,139.4,197.5z M136.1,197.7c-0.6,0-1,0.4-1,1c0,0.6,0.4,1,1,1c0.6,0,1-0.4,1-1
		C137.1,198.2,136.6,197.7,136.1,197.7z M136.2,201.1c-0.6,0-1,0.4-1,1c0,0.6,0.4,1,1,1c0.6,0,1-0.4,1-1
		C137.2,201.5,136.7,201.1,136.2,201.1z M136.9,204.3c-0.6,0-1,0.4-1,1c0,0.6,0.4,1,1,1c0.6,0,1-0.4,1-1
		C137.9,204.7,137.5,204.3,136.9,204.3z M138.4,207.2c-0.6,0-1,0.4-1,1c0,0.6,0.4,1,1,1c0.6,0,1-0.4,1-1
		C139.4,207.6,139,207.2,138.4,207.2z M135.2,208.6c-0.6,0-1,0.4-1,1c0,0.6,0.4,1,1,1c0.6,0,1-0.4,1-1
		C136.2,209.1,135.7,208.6,135.2,208.6z M132.4,210.7c-0.6,0-1,0.4-1,1c0,0.6,0.4,1,1,1c0.6,0,1-0.4,1-1
		C133.4,211.1,133,210.7,132.4,210.7z M130.3,213.1c-0.6,0-1,0.4-1,1c0,0.6,0.5,1,1,1c0.6,0,1-0.4,1-1
		C131.3,213.5,130.9,213.1,130.3,213.1z M128.5,215.7c-0.6,0-1,0.4-1,1c0,0.6,0.4,1,1,1c0.6,0,1-0.4,1-1
		C129.5,216.2,129,215.7,128.5,215.7z M124.9,215.1c-0.6,0-1,0.4-1,1c0,0.6,0.4,1,1,1c0.6,0,1-0.4,1-1
		C125.9,215.6,125.5,215.1,124.9,215.1z M121.8,214.1c-0.6,0-1,0.4-1,1c0,0.6,0.5,1,1,1c0.6,0,1-0.5,1-1
		C122.9,214.6,122.4,214.1,121.8,214.1z M118.9,212.9c-0.6,0-1,0.4-1,1c0,0.6,0.4,1,1,1c0.6,0,1-0.4,1-1
		C119.9,213.3,119.5,212.9,118.9,212.9z M120.5,209.6c-0.6,0-1,0.4-1,1c0,0.6,0.4,1,1,1c0.6,0,1-0.4,1-1
		C121.5,210,121,209.6,120.5,209.6z M123.4,211.1c-0.6,0-1,0.4-1,1c0,0.6,0.4,1,1,1c0.6,0,1-0.4,1-1
		C124.4,211.5,123.9,211.1,123.4,211.1z M126.5,212.2c-0.6,0-1,0.4-1,1c0,0.6,0.4,1,1,1c0.6,0,1-0.4,1-1
		C127.5,212.6,127.1,212.2,126.5,212.2z M128.6,209.6c-0.6,0-1,0.4-1,1c0,0.6,0.4,1,1,1c0.6,0,1-0.4,1-1
		C129.6,210,129.2,209.6,128.6,209.6z M131.1,207.4c-0.6,0-1,0.4-1,1c0,0.6,0.4,1,1,1c0.6,0,1-0.4,1-1
		C132.1,207.8,131.6,207.4,131.1,207.4z M133.7,205.6c-0.6,0-1,0.4-1,1c0,0.6,0.4,1,1,1c0.6,0,1-0.4,1-1
		C134.7,206.1,134.3,205.6,133.7,205.6z M133.1,202.2c-0.6,0-1,0.4-1,1c0,0.6,0.4,1,1,1c0.6,0,1-0.4,1-1
		C134.1,202.6,133.6,202.2,133.1,202.2z M132.8,198.4c-0.6,0-1,0.4-1,1c0,0.6,0.4,1,1,1c0.6,0,1-0.4,1-1
		C133.8,198.9,133.4,198.4,132.8,198.4z M129.8,199.8c-0.6,0-1,0.4-1,1c0,0.6,0.4,1,1,1c0.6,0,1-0.4,1-1
		C130.8,200.2,130.4,199.8,129.8,199.8z M130.2,203.7c-0.6,0-1,0.4-1,1c0,0.6,0.4,1,1,1c0.6,0,1-0.4,1-1
		C131.2,204.2,130.7,203.7,130.2,203.7z M127.5,205.7c-0.6,0-1,0.4-1,1c0,0.6,0.4,1,1,1c0.6,0,1-0.4,1-1
		C128.5,206.2,128.1,205.7,127.5,205.7z M127,201.6c-0.6,0-1,0.4-1,1c0,0.6,0.4,1,1,1c0.6,0,1-0.4,1-1
		C128,202.1,127.6,201.6,127,201.6z M124.6,203.9c-0.6,0-1,0.4-1,1c0,0.6,0.4,1,1,1c0.6,0,1-0.4,1-1
		C125.6,204.4,125.2,203.9,124.6,203.9z M122.4,206.6c-0.6,0-1,0.4-1,1c0,0.6,0.4,1,1,1c0.6,0,1-0.4,1-1
		C123.4,207.1,123,206.6,122.4,206.6z M125.3,208.2c-0.6,0-1,0.4-1,1c0,0.6,0.4,1,1,1c0.6,0,1-0.4,1-1
		C126.3,208.6,125.8,208.2,125.3,208.2z M140.4,209.6c-0.6,0-1,0.4-1,1c0,0.6,0.5,1,1,1c0.6,0,1-0.4,1-1
		C141.4,210,141,209.6,140.4,209.6z M139.4,213.4c-0.6,0-1,0.4-1,1c0,0.6,0.4,1,1,1c0.6,0,1-0.4,1-1
		C140.4,213.8,140,213.4,139.4,213.4z M136.8,215.8c-0.6,0-1,0.4-1,1c0,0.6,0.4,1,1,1c0.6,0,1-0.4,1-1
		C137.8,216.3,137.4,215.8,136.8,215.8z M134.4,213.5c-0.6,0-1,0.4-1,1c0,0.6,0.4,1,1,1c0.6,0,1-0.4,1-1
		C135.4,213.9,135,213.5,134.4,213.5z M137.1,211.4c-0.6,0-1,0.4-1,1c0,0.6,0.4,1,1,1c0.6,0,1-0.4,1-1
		C138.1,211.8,137.6,211.4,137.1,211.4z M132.4,216.1c-0.6,0-1,0.4-1,1c0,0.6,0.4,1,1,1c0.6,0,1-0.4,1-1
		C133.4,216.6,132.9,216.1,132.4,216.1z M142.4,218.6c-0.6,0-1,0.4-1,1c0,0.6,0.4,1,1,1c0.6,0,1-0.4,1-1
		C143.4,219,143,218.6,142.4,218.6z M143.8,222.3c-0.6,0-1,0.4-1,1c0,0.6,0.4,1,1,1c0.6,0,1-0.4,1-1
		C144.8,222.8,144.4,222.3,143.8,222.3z M140.7,221.8c-0.6,0-1,0.4-1,1s0.5,1,1,1c0.6,0,1-0.4,1-1S141.2,221.8,140.7,221.8z
		 M137.7,220.6c-0.6,0-1,0.4-1,1c0,0.6,0.4,1,1,1c0.6,0,1-0.4,1-1C138.7,221,138.2,220.6,137.7,220.6z M133.6,221.6
		c-0.6,0-1,0.4-1,1c0,0.6,0.4,1,1,1c0.6,0,1-0.4,1-1C134.6,222.1,134.1,221.6,133.6,221.6z M136.5,223.7c-0.6,0-1,0.4-1,1
		c0,0.6,0.4,1,1,1c0.6,0,1-0.4,1-1C137.5,224.1,137.1,223.7,136.5,223.7z M139.7,225.1c-0.6,0-1,0.4-1,1c0,0.6,0.4,1,1,1
		c0.6,0,1-0.4,1-1C140.7,225.5,140.2,225.1,139.7,225.1z M143,225.8c-0.6,0-1,0.4-1,1c0,0.6,0.4,1,1,1c0.6,0,1-0.4,1-1
		C144,226.3,143.6,225.8,143,225.8z M146.2,225.9c-0.6,0-1,0.5-1,1c0,0.6,0.4,1,1,1c0.6,0,1-0.4,1-1
		C147.2,226.3,146.8,225.9,146.2,225.9z M123.8,218.3c-0.6,0-1,0.4-1,1c0,0.6,0.4,1,1,1c0.6,0,1-0.4,1-1
		C124.8,218.8,124.3,218.3,123.8,218.3z M120.7,217.6c-0.6,0-1,0.4-1,1s0.4,1,1,1c0.6,0,1-0.4,1-1S121.2,217.6,120.7,217.6z
		 M117.8,216.4c-0.6,0-1,0.5-1,1c0,0.6,0.4,1,1,1c0.6,0,1-0.4,1-1C118.8,216.9,118.3,216.4,117.8,216.4z M117,220.2
		c-0.6,0-1,0.4-1,1c0,0.6,0.4,1,1,1c0.6,0,1-0.4,1-1C118,220.6,117.6,220.2,117,220.2z M120,221.1c-0.6,0-1,0.4-1,1c0,0.6,0.4,1,1,1
		c0.6,0,1-0.4,1-1C121,221.6,120.5,221.1,120,221.1z M123,221.8c-0.6,0-1,0.4-1,1s0.4,1,1,1c0.6,0,1-0.4,1-1S123.6,221.8,123,221.8z
		 M126.3,222.1c-0.6,0-1,0.4-1,1s0.4,1,1,1c0.6,0,1-0.4,1-1S126.8,222.1,126.3,222.1z M116.7,224.1c-0.6,0-1,0.4-1,1
		c0,0.6,0.4,1,1,1c0.6,0,1-0.4,1-1C117.7,224.5,117.2,224.1,116.7,224.1z M119.7,224.9c-0.6,0-1,0.4-1,1c0,0.6,0.4,1,1,1s1-0.5,1-1
		C120.7,225.4,120.2,224.9,119.7,224.9z M122.7,225.4c-0.6,0-1,0.4-1,1s0.4,1,1,1c0.6,0,1-0.4,1-1S123.2,225.4,122.7,225.4z
		 M125.9,225.6c-0.6,0-1,0.4-1,1c0,0.6,0.4,1,1,1c0.6,0,1-0.4,1-1C126.9,226,126.4,225.6,125.9,225.6z M129.2,225.4
		c-0.6,0-1,0.4-1,1s0.4,1,1,1c0.6,0,1-0.4,1-1S129.8,225.4,129.2,225.4z M132.5,228.1c-0.6,0-1,0.4-1,1c0,0.6,0.4,1,1,1s1-0.4,1-1
		C133.5,228.5,133.1,228.1,132.5,228.1z M129.2,228.8c-0.6,0-1,0.4-1,1c0,0.6,0.4,1,1,1c0.6,0,1-0.4,1-1
		C130.2,229.3,129.7,228.8,129.2,228.8z M125.9,229.1c-0.6,0-1,0.4-1,1c0,0.6,0.4,1,1,1c0.6,0,1-0.4,1-1
		C126.9,229.6,126.4,229.1,125.9,229.1z M122.8,229.1c-0.6,0-1,0.4-1,1c0,0.6,0.4,1,1,1c0.6,0,1-0.4,1-1
		C123.8,229.5,123.4,229.1,122.8,229.1z M119.8,228.7c-0.6,0-1,0.4-1,1c0,0.6,0.4,1,1,1c0.6,0,1-0.4,1-1
		C120.8,229.2,120.3,228.7,119.8,228.7z M123.4,232.9c-0.6,0-1,0.4-1,1c0,0.6,0.4,1,1,1c0.6,0,1-0.4,1-1
		C124.4,233.3,123.9,232.9,123.4,232.9z M126.4,232.7c-0.6,0-1,0.4-1,1c0,0.6,0.4,1,1,1c0.6,0,1-0.4,1-1
		C127.4,233.2,126.9,232.7,126.4,232.7z M129.6,232.3c-0.6,0-1,0.4-1,1c0,0.6,0.4,1,1,1c0.6,0,1-0.4,1-1
		C130.6,232.7,130.1,232.3,129.6,232.3z M132.7,231.5c-0.6,0-1,0.4-1,1c0,0.6,0.4,1,1,1c0.6,0,1-0.4,1-1
		C133.7,231.9,133.3,231.5,132.7,231.5z M124.3,236.7c-0.6,0-1,0.4-1,1c0,0.6,0.4,1,1,1c0.6,0,1-0.4,1-1
		C125.3,237.1,124.9,236.7,124.3,236.7z M127.4,236.4c-0.6,0-1,0.4-1,1c0,0.6,0.4,1,1,1c0.6,0,1-0.4,1-1
		C128.4,236.8,128,236.4,127.4,236.4z M130.4,235.8c-0.6,0-1,0.4-1,1c0,0.6,0.4,1,1,1c0.6,0,1-0.4,1-1
		C131.4,236.2,131,235.8,130.4,235.8z M133.5,234.8c-0.6,0-1,0.4-1,1c0,0.6,0.4,1,1,1c0.6,0,1-0.4,1-1
		C134.5,235.2,134,234.8,133.5,234.8z M136.6,233.4c-0.6,0-1,0.4-1,1c0,0.6,0.4,1,1,1c0.6,0,1-0.4,1-1
		C137.6,233.9,137.1,233.4,136.6,233.4z M140.6,234.8c-0.6,0-1,0.4-1,1c0,0.6,0.4,1,1,1c0.6,0,1-0.4,1-1
		C141.6,235.3,141.1,234.8,140.6,234.8z M136,230.2c-0.6,0-1,0.4-1,1c0,0.6,0.4,1,1,1c0.6,0,1-0.4,1-1
		C137,230.6,136.5,230.2,136,230.2z M139.7,231.6c-0.5,0-1,0.4-1,1c0,0.6,0.5,1,1,1c0.6,0,1-0.4,1-1
		C140.7,232.1,140.2,231.6,139.7,231.6z M143.4,232.4c-0.6,0-1,0.4-1,1c0,0.6,0.4,1,1,1c0.6,0,1-0.4,1-1
		C144.4,232.9,143.9,232.4,143.4,232.4z M147,232.6c-0.6,0-1,0.4-1,1c0,0.6,0.4,1,1,1c0.6,0,1-0.4,1-1
		C148,233,147.6,232.6,147,232.6z M150.6,232.1c-0.6,0-1,0.4-1,1c0,0.6,0.4,1,1,1c0.6,0,1-0.4,1-1
		C151.6,232.6,151.2,232.1,150.6,232.1z M153.8,231.1c-0.6,0-1,0.4-1,1c0,0.6,0.4,1,1,1s1-0.4,1-1
		C154.8,231.5,154.4,231.1,153.8,231.1z M155.6,233.9c-0.6,0-1,0.4-1,1c0,0.6,0.4,1,1,1c0.6,0,1-0.4,1-1
		C156.6,234.3,156.2,233.9,155.6,233.9z M157.8,236.3c-0.6,0-1,0.4-1,1c0,0.6,0.4,1,1,1c0.6,0,1-0.4,1-1
		C158.8,236.8,158.3,236.3,157.8,236.3z M160.4,238.3c-0.6,0-1,0.4-1,1c0,0.6,0.4,1,1,1c0.6,0,1-0.4,1-1
		C161.4,238.8,160.9,238.3,160.4,238.3z M163.3,239.8c-0.6,0-1,0.4-1,1s0.4,1,1,1c0.6,0,1-0.4,1-1S163.9,239.8,163.3,239.8z
		 M166.5,241c-0.6,0-1,0.4-1,1c0,0.6,0.4,1,1,1c0.6,0,1-0.5,1-1C167.5,241.5,167.1,241,166.5,241z M169.9,241.7c-0.6,0-1,0.4-1,1
		c0,0.6,0.4,1,1,1c0.6,0,1-0.4,1-1C170.9,242.1,170.5,241.7,169.9,241.7z M173.5,242c-0.6,0-1,0.4-1,1c0,0.6,0.4,1,1,1
		c0.6,0,1-0.4,1-1C174.5,242.4,174,242,173.5,242z M177.1,241.7c-0.6,0-1,0.4-1,1c0,0.6,0.4,1,1,1c0.6,0,1-0.4,1-1
		C178.1,242.2,177.6,241.7,177.1,241.7z M180.8,241.1c-0.6,0-1,0.4-1,1c0,0.6,0.4,1,1,1c0.6,0,1-0.4,1-1
		C181.8,241.5,181.4,241.1,180.8,241.1z M180.8,244.1c-0.6,0-1,0.4-1,1c0,0.6,0.4,1,1,1c0.6,0,1-0.4,1-1
		C181.8,244.6,181.4,244.1,180.8,244.1z M177,244.8c-0.6,0-1,0.4-1,1c0,0.6,0.4,1,1,1c0.6,0,1-0.4,1-1
		C178,245.3,177.5,244.8,177,244.8z M173.2,245c-0.6,0-1,0.4-1,1c0,0.6,0.4,1,1,1c0.6,0,1-0.4,1-1C174.2,245.5,173.7,245,173.2,245z
		 M169.4,244.9c-0.6,0-1,0.4-1,1c0,0.6,0.5,1,1,1c0.6,0,1-0.4,1-1C170.4,245.3,170,244.9,169.4,244.9z M165.8,244.2
		c-0.6,0-1,0.4-1,1c0,0.6,0.4,1,1,1c0.6,0,1-0.4,1-1C166.8,244.7,166.4,244.2,165.8,244.2z M162.5,243.1c-0.6,0-1,0.4-1,1
		c0,0.6,0.4,1,1,1c0.6,0,1-0.4,1-1C163.5,243.6,163.1,243.1,162.5,243.1z M159.5,241.7c-0.6,0-1,0.4-1,1c0,0.6,0.4,1,1,1
		c0.6,0,1-0.4,1-1C160.5,242.1,160,241.7,159.5,241.7z M156.6,239.8c-0.6,0-1,0.4-1,1s0.4,1,1,1c0.6,0,1-0.4,1-1
		S157.1,239.8,156.6,239.8z M155.2,242.9c-0.6,0-1,0.4-1,1c0,0.6,0.4,1,1,1c0.6,0,1-0.4,1-1C156.2,243.4,155.7,242.9,155.2,242.9z
		 M153.5,245.7c-0.6,0-1,0.4-1,1c0,0.6,0.4,1,1,1c0.6,0,1-0.4,1-1C154.5,246.1,154,245.7,153.5,245.7z M151.6,248.2
		c-0.6,0-1,0.4-1,1c0,0.6,0.4,1,1,1c0.6,0,1-0.4,1-1C152.6,248.6,152.1,248.2,151.6,248.2z M149.4,250.4c-0.6,0-1,0.4-1,1
		c0,0.6,0.4,1,1,1s1-0.4,1-1C150.4,250.8,150,250.4,149.4,250.4z M154.8,250c-0.6,0-1,0.4-1,1c0,0.6,0.4,1,1,1c0.6,0,1-0.4,1-1
		C155.8,250.5,155.4,250,154.8,250z M158.4,251.5c-0.6,0-1,0.4-1,1c0,0.6,0.4,1,1,1c0.6,0,1-0.4,1-1
		C159.4,251.9,158.9,251.5,158.4,251.5z M160,248.9c-0.6,0-1,0.4-1,1c0,0.6,0.4,1,1,1c0.6,0,1-0.4,1-1
		C161,249.4,160.6,248.9,160,248.9z M161.4,246.2c-0.6,0-1,0.4-1,1s0.4,1,1,1c0.6,0,1-0.4,1-1S162,246.2,161.4,246.2z M165,247.2
		c-0.6,0-1,0.4-1,1c0,0.6,0.4,1,1,1c0.6,0,1-0.4,1-1C166,247.6,165.5,247.2,165,247.2z M163.7,250c-0.6,0-1,0.4-1,1c0,0.6,0.4,1,1,1
		c0.6,0,1-0.4,1-1C164.7,250.4,164.3,250,163.7,250z M167.6,250.7c-0.6,0-1,0.4-1,1c0,0.6,0.4,1,1,1c0.6,0,1-0.4,1-1
		C168.6,251.1,168.2,250.7,167.6,250.7z M168.7,247.9c-0.6,0-1,0.4-1,1c0,0.6,0.4,1,1,1c0.6,0,1-0.4,1-1
		C169.7,248.3,169.3,247.9,168.7,247.9z M172.5,248.1c-0.6,0-1,0.4-1,1c0,0.6,0.4,1,1,1c0.6,0,1-0.4,1-1
		C173.5,248.5,173.1,248.1,172.5,248.1z M158.2,244.8c-0.6,0-1,0.4-1,1c0,0.6,0.4,1,1,1c0.6,0,1-0.4,1-1
		C159.2,245.2,158.7,244.8,158.2,244.8z M156.6,247.5c-0.6,0-1,0.4-1,1c0,0.6,0.4,1,1,1c0.6,0,1-0.4,1-1
		C157.6,247.9,157.1,247.5,156.6,247.5z M184.4,240c-0.6,0-1,0.4-1,1c0,0.6,0.4,1,1,1c0.6,0,1-0.4,1-1
		C185.4,240.4,185,240,184.4,240z M154.2,237.6c-0.6,0-1,0.4-1,1s0.4,1,1,1c0.6,0,1-0.4,1-1S154.7,237.6,154.2,237.6z M152.5,240.8
		c-0.6,0-1,0.4-1,1c0,0.6,0.4,1,1,1c0.6,0,1-0.4,1-1C153.5,241.2,153.1,240.8,152.5,240.8z M150.6,243.5c-0.6,0-1,0.5-1,1
		c0,0.6,0.4,1,1,1c0.6,0,1-0.4,1-1C151.6,243.9,151.2,243.5,150.6,243.5z M148.6,246c-0.6,0-1,0.4-1,1c0,0.6,0.4,1,1,1
		c0.6,0,1-0.4,1-1C149.6,246.4,149.2,246,148.6,246z M146.3,248.1c-0.6,0-1,0.4-1,1c0,0.6,0.4,1,1,1c0.6,0,1-0.4,1-1
		C147.3,248.5,146.9,248.1,146.3,248.1z M143.9,249.9c-0.6,0-1,0.4-1,1c0,0.6,0.4,1,1,1c0.6,0,1-0.4,1-1
		C144.9,250.4,144.5,249.9,143.9,249.9z M141,247.3c-0.6,0-1,0.4-1,1c0,0.6,0.4,1,1,1c0.6,0,1-0.4,1-1
		C142,247.7,141.5,247.3,141,247.3z M135.8,245.7c-0.6,0-1,0.4-1,1c0,0.6,0.4,1,1,1c0.6,0,1-0.4,1-1
		C136.8,246.2,136.3,245.7,135.8,245.7z M133.5,242.5c-0.6,0-1,0.4-1,1c0,0.6,0.5,1,1,1c0.6,0,1-0.4,1-1
		C134.5,243,134.1,242.5,133.5,242.5z M128.8,239.9c-0.6,0-1,0.4-1,1c0,0.6,0.4,1,1,1c0.6,0,1-0.5,1-1
		C129.8,240.4,129.4,239.9,128.8,239.9z M131.7,239.2c-0.6,0-1,0.4-1,1c0,0.6,0.4,1,1,1c0.6,0,1-0.4,1-1
		C132.7,239.6,132.3,239.2,131.7,239.2z M134.7,238.1c-0.6,0-1,0.4-1,1c0,0.6,0.4,1,1,1c0.6,0,1-0.4,1-1
		C135.7,238.6,135.2,238.1,134.7,238.1z M136.4,241.3c-0.6,0-1,0.4-1,1c0,0.6,0.4,1,1,1c0.6,0,1-0.4,1-1
		C137.4,241.8,136.9,241.3,136.4,241.3z M139.2,239.8c-0.6,0-1,0.4-1,1s0.4,1,1,1c0.6,0,1-0.4,1-1S139.7,239.8,139.2,239.8z
		 M141.8,237.9c-0.6,0-1,0.4-1,1c0,0.6,0.4,1,1,1c0.6,0,1-0.4,1-1C142.8,238.4,142.4,237.9,141.8,237.9z M144.5,235.6
		c-0.6,0-1,0.4-1,1c0,0.6,0.4,1,1,1c0.6,0,1-0.4,1-1C145.5,236,145.1,235.6,144.5,235.6z M148.4,235.6c-0.6,0-1,0.4-1,1
		c0,0.6,0.4,1,1,1c0.6,0,1-0.4,1-1C149.4,236.1,148.9,235.6,148.4,235.6z M146.1,238.5c-0.6,0-1,0.4-1,1c0,0.6,0.4,1,1,1
		c0.6,0,1-0.4,1-1C147.1,238.9,146.7,238.5,146.1,238.5z M143.7,240.8c-0.6,0-1,0.4-1,1c0,0.6,0.4,1,1,1c0.6,0,1-0.4,1-1
		C144.7,241.2,144.2,240.8,143.7,240.8z M141.1,242.8c-0.6,0-1,0.4-1,1c0,0.6,0.4,1,1,1c0.6,0,1-0.4,1-1
		C142.1,243.2,141.7,242.8,141.1,242.8z M143.5,245.5c-0.6,0-1,0.4-1,1c0,0.6,0.4,1,1,1c0.6,0,1-0.4,1-1
		C144.5,246,144,245.5,143.5,245.5z M146,243.5c-0.6,0-1,0.4-1,1c0,0.6,0.4,1,1,1c0.6,0,1-0.4,1-1C147,244,146.5,243.5,146,243.5z
		 M148.2,241.1c-0.6,0-1,0.4-1,1c0,0.6,0.4,1,1,1c0.6,0,1-0.4,1-1C149.2,241.5,148.7,241.1,148.2,241.1z M150.2,238.3
		c-0.6,0-1,0.4-1,1c0,0.6,0.4,1,1,1c0.6,0,1-0.4,1-1C151.2,238.8,150.8,238.3,150.2,238.3z M152.1,235c-0.6,0-1,0.4-1,1
		c0,0.6,0.4,1,1,1c0.6,0,1-0.4,1-1C153.1,235.5,152.7,235,152.1,235z M138.5,244.4c-0.6,0-1,0.4-1,1c0,0.6,0.4,1,1,1
		c0.6,0,1-0.4,1-1C139.5,244.9,139.1,244.4,138.5,244.4z M137.6,236.7c-0.6,0-1,0.4-1,1c0,0.6,0.4,1,1,1c0.6,0,1-0.4,1-1
		C138.6,237.1,138.2,236.7,137.6,236.7z M139.8,194.2c-0.6,0-1,0.4-1,1c0,0.6,0.4,1,1,1c0.6,0,1-0.4,1-1
		C140.8,194.6,140.4,194.2,139.8,194.2z M136.5,194.2c-0.6,0-1,0.4-1,1c0,0.6,0.4,1,1,1c0.6,0,1-0.4,1-1
		C137.5,194.6,137.1,194.2,136.5,194.2z M133.3,194.7c-0.6,0-1,0.4-1,1c0,0.6,0.4,1,1,1c0.6,0,1-0.4,1-1
		C134.3,195.1,133.9,194.7,133.3,194.7z M130.2,195.8c-0.6,0-1,0.4-1,1c0,0.6,0.4,1,1,1c0.6,0,1-0.4,1-1
		C131.2,196.3,130.7,195.8,130.2,195.8z M127.2,197.3c-0.6,0-1,0.4-1,1c0,0.6,0.4,1,1,1c0.6,0,1-0.4,1-1
		C128.2,197.8,127.8,197.3,127.2,197.3z M124.5,199.4c-0.6,0-1,0.4-1,1c0,0.6,0.4,1,1,1c0.6,0,1-0.4,1-1
		C125.5,199.9,125,199.4,124.5,199.4z M122,201.9c-0.6,0-1,0.4-1,1c0,0.6,0.4,1,1,1c0.6,0,1-0.4,1-1
		C123,202.3,122.5,201.9,122,201.9z M119.7,204.7c-0.6,0-1,0.4-1,1c0,0.6,0.4,1,1,1c0.6,0,1-0.4,1-1
		C120.7,205.1,120.3,204.7,119.7,204.7z M117.8,207.9c-0.6,0-1,0.4-1,1c0,0.6,0.4,1,1,1c0.6,0,1-0.4,1-1
		C118.8,208.3,118.4,207.9,117.8,207.9z M116.2,211.4c-0.6,0-1,0.4-1,1c0,0.6,0.4,1,1,1c0.6,0,1-0.4,1-1
		C117.2,211.8,116.8,211.4,116.2,211.4z M115.1,215.1c-0.6,0-1,0.4-1,1c0,0.6,0.4,1,1,1c0.6,0,1-0.4,1-1
		C116.1,215.5,115.6,215.1,115.1,215.1z M134.3,174.6c-0.6,0-1,0.4-1,1c0,0.6,0.4,1,1,1c0.6,0,1-0.4,1-1
		C135.3,175.1,134.9,174.6,134.3,174.6z M134.2,177.6c-0.6,0-1,0.4-1,1c0,0.6,0.4,1,1,1c0.6,0,1-0.4,1-1
		C135.2,178.1,134.8,177.6,134.2,177.6z M130.6,178.6c-0.6,0-1,0.4-1,1c0,0.6,0.4,1,1,1c0.6,0,1-0.4,1-1
		C131.6,179,131.2,178.6,130.6,178.6z M126.9,179.9c-0.6,0-1,0.4-1,1c0,0.6,0.4,1,1,1c0.6,0,1-0.4,1-1
		C127.9,180.3,127.4,179.9,126.9,179.9z M148,182.3c-0.6,0-1,0.4-1,1c0,0.6,0.4,1,1,1c0.6,0,1-0.4,1-1
		C149,182.7,148.5,182.3,148,182.3z M144.8,181.1c-0.6,0-1,0.4-1,1c0,0.6,0.4,1,1,1c0.6,0,1-0.4,1-1
		C145.8,181.6,145.3,181.1,144.8,181.1z M141.5,180.5c-0.6,0-1,0.4-1,1c0,0.6,0.4,1,1,1c0.6,0,1-0.4,1-1
		C142.5,181,142.1,180.5,141.5,180.5z M141.9,184c-0.6,0-1,0.4-1,1s0.4,1,1,1c0.6,0,1-0.4,1-1S142.4,184,141.9,184z M148.1,186.1
		c-0.6,0-1,0.4-1,1c0,0.6,0.4,1,1,1c0.6,0,1-0.4,1-1C149.1,186.5,148.6,186.1,148.1,186.1z M145.1,184.8c-0.6,0-1,0.4-1,1
		c0,0.6,0.4,1,1,1c0.6,0,1-0.4,1-1C146.1,185.2,145.6,184.8,145.1,184.8z M161.9,179.6c-0.6,0-1,0.4-1,1c0,0.6,0.4,1,1,1
		c0.6,0,1-0.4,1-1C162.9,180.1,162.5,179.6,161.9,179.6z M176.3,171.9c-0.6,0-1,0.4-1,1c0,0.6,0.4,1,1,1c0.6,0,1-0.4,1-1
		C177.3,172.4,176.8,171.9,176.3,171.9z M154.3,205c-0.6,0-1,0.4-1,1c0,0.6,0.4,1,1,1c0.6,0,1-0.4,1-1
		C155.3,205.5,154.8,205,154.3,205z M165.5,205.5c-0.6,0-1,0.4-1,1c0,0.6,0.4,1,1,1c0.6,0,1-0.4,1-1
		C166.5,205.9,166,205.5,165.5,205.5z M172.1,206.9c-0.6,0-1,0.5-1,1c0,0.6,0.4,1,1,1c0.6,0,1-0.4,1-1
		C173.1,207.3,172.6,206.9,172.1,206.9z M174.6,208.8c-0.6,0-1,0.4-1,1c0,0.6,0.4,1,1,1c0.6,0,1-0.4,1-1
		C175.6,209.2,175.1,208.8,174.6,208.8z M176.6,211.3c-0.6,0-1,0.4-1,1c0,0.6,0.4,1,1,1c0.6,0,1-0.4,1-1
		C177.6,211.8,177.1,211.3,176.6,211.3z M177.9,214.2c-0.6,0-1,0.4-1,1c0,0.6,0.4,1,1,1c0.6,0,1-0.4,1-1
		C178.9,214.7,178.4,214.2,177.9,214.2z M178.6,217.6c-0.6,0-1,0.4-1,1s0.4,1,1,1c0.6,0,1-0.4,1-1S179.2,217.6,178.6,217.6z
		 M181.9,220.1c-0.6,0-1,0.4-1,1c0,0.6,0.4,1,1,1c0.6,0,1-0.4,1-1C183,220.5,182.5,220.1,181.9,220.1z M184.9,218.4
		c-0.6,0-1,0.4-1,1c0,0.6,0.4,1,1,1c0.6,0,1-0.4,1-1C185.9,218.9,185.4,218.4,184.9,218.4z M187.5,216.5c-0.6,0-1,0.4-1,1
		c0,0.6,0.4,1,1,1c0.6,0,1-0.4,1-1C188.5,216.9,188,216.5,187.5,216.5z M189.8,214c-0.6,0-1,0.4-1,1c0,0.6,0.4,1,1,1
		c0.6,0,1-0.4,1-1C190.8,214.4,190.4,214,189.8,214z M191.9,211.2c-0.6,0-1,0.4-1,1c0,0.6,0.4,1,1,1c0.6,0,1-0.4,1-1
		C192.9,211.6,192.5,211.2,191.9,211.2z M193.6,208c-0.6,0-1,0.4-1,1c0,0.6,0.4,1,1,1c0.6,0,1-0.4,1-1
		C194.6,208.4,194.1,208,193.6,208z M194.8,204.5c-0.6,0-1,0.4-1,1c0,0.6,0.4,1,1,1c0.6,0,1-0.4,1-1
		C195.8,205,195.4,204.5,194.8,204.5z M195.8,200.9c-0.6,0-1,0.4-1,1c0,0.6,0.4,1,1,1c0.6,0,1-0.4,1-1
		C196.8,201.4,196.3,200.9,195.8,200.9z M196.4,197c-0.6,0-1,0.4-1,1c0,0.6,0.4,1,1,1c0.6,0,1-0.4,1-1
		C197.4,197.5,197,197,196.4,197z M193.5,196.2c-0.6,0-1,0.4-1,1c0,0.6,0.4,1,1,1c0.6,0,1-0.4,1-1
		C194.5,196.6,194,196.2,193.5,196.2z M193.6,192.3c-0.6,0-1,0.4-1,1c0,0.6,0.4,1,1,1c0.6,0,1-0.4,1-1
		C194.6,192.8,194.1,192.3,193.6,192.3z M193.2,188.5c-0.6,0-1,0.4-1,1s0.4,1,1,1c0.6,0,1-0.4,1-1S193.8,188.5,193.2,188.5z
		 M190.4,195.5c-0.6,0-1,0.4-1,1c0,0.6,0.4,1,1,1c0.6,0,1-0.4,1-1C191.4,196,191,195.5,190.4,195.5z M190.5,191.9c-0.6,0-1,0.4-1,1
		c0,0.6,0.4,1,1,1c0.6,0,1-0.4,1-1C191.5,192.3,191.1,191.9,190.5,191.9z M190.1,188.1c-0.6,0-1,0.4-1,1c0,0.6,0.4,1,1,1
		c0.6,0,1-0.4,1-1C191.2,188.6,190.7,188.1,190.1,188.1z M189.5,184.4c-0.6,0-1,0.4-1,1c0,0.6,0.4,1,1,1c0.6,0,1-0.4,1-1
		C190.5,184.9,190,184.4,189.5,184.4z M186.4,184.6c-0.6,0-1,0.4-1,1c0,0.6,0.4,1,1,1c0.6,0,1-0.4,1-1
		C187.4,185,186.9,184.6,186.4,184.6z M187.1,188.3c-0.6,0-1,0.4-1,1c0,0.6,0.4,1,1,1c0.6,0,1-0.4,1-1
		C188.1,188.7,187.6,188.3,187.1,188.3z M187.3,191.8c-0.6,0-1,0.4-1,1c0,0.6,0.4,1,1,1c0.6,0,1-0.4,1-1
		C188.3,192.2,187.9,191.8,187.3,191.8z M184.2,192.1c-0.6,0-1,0.4-1,1c0,0.6,0.4,1,1,1c0.6,0,1-0.4,1-1
		C185.2,192.5,184.8,192.1,184.2,192.1z M183.9,188.6c-0.6,0-1,0.4-1,1c0,0.6,0.4,1,1,1c0.6,0,1-0.4,1-1
		C184.9,189,184.4,188.6,183.9,188.6z M183.3,185.1c-0.6,0-1,0.4-1,1c0,0.6,0.4,1,1,1c0.6,0,1-0.4,1-1
		C184.3,185.5,183.8,185.1,183.3,185.1z M182.2,181.7c-0.6,0-1,0.4-1,1c0,0.6,0.4,1,1,1c0.6,0,1-0.4,1-1
		C183.2,182.1,182.8,181.7,182.2,181.7z M180.6,178.3c-0.6,0-1,0.4-1,1c0,0.6,0.4,1,1,1c0.6,0,1-0.4,1-1
		C181.6,178.7,181.2,178.3,180.6,178.3z M178.7,174.9c-0.6,0-1,0.4-1,1c0,0.6,0.4,1,1,1c0.6,0,1-0.4,1-1
		C179.7,175.4,179.2,174.9,178.7,174.9z M185.3,180.9c-0.6,0-1,0.4-1,1c0,0.6,0.4,1,1,1c0.6,0,1-0.4,1-1
		C186.3,181.4,185.8,180.9,185.3,180.9z M183.6,177.4c-0.6,0-1,0.4-1,1c0,0.6,0.4,1,1,1c0.6,0,1-0.4,1-1
		C184.6,177.9,184.2,177.4,183.6,177.4z M187.1,195.2c-0.6,0-1,0.4-1,1c0,0.6,0.4,1,1,1c0.6,0,1-0.4,1-1
		C188.1,195.7,187.7,195.2,187.1,195.2z M183.8,195.5c-0.6,0-1,0.4-1,1c0,0.6,0.4,1,1,1c0.6,0,1-0.4,1-1
		C184.8,195.9,184.3,195.5,183.8,195.5z M180.1,196c-0.6,0-1,0.4-1,1c0,0.6,0.4,1,1,1c0.6,0,1-0.4,1-1
		C181.1,196.4,180.7,196,180.1,196z M180.7,192.6c-0.6,0-1,0.4-1,1c0,0.6,0.4,1,1,1s1-0.4,1-1C181.7,193.1,181.2,192.6,180.7,192.6z
		 M180.7,189.4c-0.6,0-1,0.4-1,1c0,0.6,0.4,1,1,1s1-0.4,1-1C181.7,189.8,181.2,189.4,180.7,189.4z M180.1,186c-0.6,0-1,0.4-1,1
		c0,0.6,0.4,1,1,1c0.6,0,1-0.4,1-1C181.1,186.5,180.7,186,180.1,186z M179.2,182.6c-0.6,0-1,0.4-1,1c0,0.6,0.4,1,1,1
		c0.6,0,1-0.4,1-1C180.2,183.1,179.7,182.6,179.2,182.6z M177.7,179.3c-0.6,0-1,0.4-1,1c0,0.6,0.4,1,1,1c0.6,0,1-0.4,1-1
		C178.7,179.8,178.2,179.3,177.7,179.3z M175.8,176.2c-0.6,0-1,0.4-1,1c0,0.6,0.4,1,1,1s1-0.4,1-1
		C176.8,176.7,176.4,176.2,175.8,176.2z M179.1,199.1c-0.6,0-1,0.4-1,1c0,0.6,0.4,1,1,1c0.6,0,1-0.4,1-1
		C180.1,199.5,179.7,199.1,179.1,199.1z M177.5,202c-0.6,0-1,0.4-1,1c0,0.6,0.4,1,1,1c0.6,0,1-0.4,1-1
		C178.5,202.4,178.1,202,177.5,202z M175.2,204.5c-0.6,0-1,0.4-1,1c0,0.6,0.4,1,1,1c0.6,0,1-0.4,1-1
		C176.2,205,175.7,204.5,175.2,204.5z M177.5,206.9c-0.6,0-1,0.5-1,1c0,0.6,0.4,1,1,1c0.6,0,1-0.4,1-1
		C178.5,207.3,178.1,206.9,177.5,206.9z M179.5,209.6c-0.6,0-1,0.4-1,1c0,0.6,0.4,1,1,1c0.6,0,1-0.4,1-1
		C180.5,210.1,180.1,209.6,179.5,209.6z M180.9,212.7c-0.6,0-1,0.4-1,1c0,0.6,0.4,1,1,1s1-0.4,1-1
		C181.9,213.2,181.5,212.7,180.9,212.7z M183.5,210.7c-0.6,0-1,0.4-1,1c0,0.6,0.4,1,1,1c0.6,0,1-0.4,1-1
		C184.5,211.1,184,210.7,183.5,210.7z M185.6,208.4c-0.6,0-1,0.4-1,1c0,0.6,0.4,1,1,1c0.6,0,1-0.4,1-1
		C186.6,208.8,186.2,208.4,185.6,208.4z M184,204.8c-0.6,0-1,0.4-1,1c0,0.6,0.4,1,1,1c0.6,0,1-0.4,1-1
		C185,205.2,184.5,204.8,184,204.8z M181.7,201.6c-0.6,0-1,0.4-1,1c0,0.6,0.4,1,1,1c0.6,0,1-0.4,1-1
		C182.7,202.1,182.3,201.6,181.7,201.6z M183,198.6c-0.6,0-1,0.4-1,1c0,0.6,0.4,1,1,1c0.6,0,1-0.4,1-1
		C184,199,183.6,198.6,183,198.6z M186.5,198.7c-0.6,0-1,0.4-1,1c0,0.6,0.4,1,1,1c0.6,0,1-0.4,1-1
		C187.5,199.2,187.1,198.7,186.5,198.7z M185.5,201.9c-0.6,0-1,0.4-1,1c0,0.6,0.4,1,1,1c0.6,0,1-0.4,1-1
		C186.5,202.3,186,201.9,185.5,201.9z M187.5,205.5c-0.6,0-1,0.4-1,1c0,0.6,0.4,1,1,1c0.6,0,1-0.4,1-1
		C188.5,205.9,188.1,205.5,187.5,205.5z M188.9,202.5c-0.6,0-1,0.4-1,1c0,0.6,0.4,1,1,1c0.6,0,1-0.4,1-1
		C189.9,202.9,189.5,202.5,188.9,202.5z M189.8,199.1c-0.6,0-1,0.4-1,1c0,0.6,0.4,1,1,1c0.6,0,1-0.4,1-1
		C190.8,199.5,190.4,199.1,189.8,199.1z M181.9,207.3c-0.6,0-1,0.4-1,1c0,0.6,0.4,1,1,1c0.6,0,1-0.4,1-1
		C183,207.7,182.5,207.3,181.9,207.3z M179.9,204.4c-0.6,0-1,0.4-1,1c0,0.6,0.4,1,1,1c0.6,0,1-0.4,1-1
		C180.9,204.8,180.4,204.4,179.9,204.4z M181.8,216.2c-0.6,0-1,0.4-1,1c0,0.6,0.4,1,1,1c0.6,0,1-0.4,1-1
		C182.8,216.7,182.3,216.2,181.8,216.2z M184.4,214.5c-0.6,0-1,0.4-1,1c0,0.6,0.4,1,1,1c0.6,0,1-0.4,1-1
		C185.4,214.9,184.9,214.5,184.4,214.5z M186.9,212.2c-0.6,0-1,0.4-1,1c0,0.6,0.4,1,1,1c0.6,0,1-0.4,1-1
		C187.9,212.6,187.4,212.2,186.9,212.2z M189,209.5c-0.6,0-1,0.4-1,1c0,0.6,0.4,1,1,1c0.6,0,1-0.4,1-1
		C190,209.9,189.5,209.5,189,209.5z M190.7,206.6c-0.6,0-1,0.4-1,1c0,0.6,0.5,1,1,1c0.6,0,1-0.4,1-1
		C191.7,207.1,191.3,206.6,190.7,206.6z M192,203.2c-0.6,0-1,0.4-1,1c0,0.6,0.4,1,1,1c0.6,0,1-0.4,1-1
		C193,203.7,192.5,203.2,192,203.2z M192.9,199.8c-0.6,0-1,0.4-1,1c0,0.6,0.4,1,1,1c0.6,0,1-0.4,1-1
		C193.9,200.3,193.5,199.8,192.9,199.8z M184.6,222.6c-0.6,0-1,0.4-1,1c0,0.6,0.4,1,1,1c0.6,0,1-0.4,1-1
		C185.6,223,185.1,222.6,184.6,222.6z M186.7,225.3c-0.6,0-1,0.4-1,1c0,0.6,0.4,1,1,1c0.6,0,1-0.4,1-1
		C187.7,225.7,187.3,225.3,186.7,225.3z M188.5,228c-0.6,0-1,0.4-1,1c0,0.6,0.4,1,1,1c0.6,0,1-0.4,1-1
		C189.5,228.5,189,228,188.5,228z M189.8,230.6c-0.6,0-1,0.4-1,1c0,0.6,0.4,1,1,1c0.6,0,1-0.4,1-1
		C190.8,231.1,190.3,230.6,189.8,230.6z M192.9,228.5c-0.6,0-1,0.4-1,1c0,0.6,0.4,1,1,1c0.6,0,1-0.4,1-1
		C193.9,229,193.5,228.5,192.9,228.5z M191.3,225.8c-0.6,0-1,0.4-1,1c0,0.6,0.4,1,1,1c0.6,0,1-0.4,1-1
		C192.3,226.3,191.9,225.8,191.3,225.8z M195.8,225.7c-0.6,0-1,0.4-1,1c0,0.6,0.4,1,1,1c0.6,0,1-0.4,1-1
		C196.8,226.2,196.3,225.7,195.8,225.7z M194.2,223.2c-0.6,0-1,0.4-1,1c0,0.6,0.4,1,1,1c0.6,0,1-0.4,1-1
		C195.2,223.6,194.8,223.2,194.2,223.2z M192.2,220.8c-0.6,0-1,0.4-1,1c0,0.6,0.4,1,1,1c0.6,0,1-0.4,1-1
		C193.2,221.3,192.8,220.8,192.2,220.8z M189.6,223.3c-0.6,0-1,0.4-1,1c0,0.6,0.4,1,1,1c0.6,0,1-0.4,1-1
		C190.6,223.7,190.1,223.3,189.6,223.3z M187.3,220.8c-0.6,0-1,0.4-1,1c0,0.6,0.4,1,1,1c0.6,0,1-0.4,1-1
		C188.3,221.2,187.9,220.8,187.3,220.8z M190,218.5c-0.6,0-1,0.4-1,1c0,0.6,0.4,1,1,1c0.6,0,1-0.4,1-1
		C191,219,190.6,218.5,190,218.5z M192.5,215.9c-0.6,0-1,0.4-1,1c0,0.6,0.4,1,1,1c0.6,0,1-0.4,1-1
		C193.5,216.4,193,215.9,192.5,215.9z M194.5,212.9c-0.6,0-1,0.4-1,1c0,0.6,0.4,1,1,1c0.6,0,1-0.4,1-1
		C195.5,213.4,195,212.9,194.5,212.9z M196.2,209.6c-0.6,0-1,0.4-1,1c0,0.6,0.4,1,1,1c0.6,0,1-0.4,1-1
		C197.2,210.1,196.8,209.6,196.2,209.6z M197.6,206c-0.6,0-1,0.4-1,1c0,0.6,0.4,1,1,1c0.6,0,1-0.4,1-1
		C198.6,206.4,198.2,206,197.6,206z M198.5,202.2c-0.6,0-1,0.4-1,1c0,0.6,0.4,1,1,1c0.6,0,1-0.4,1-1
		C199.5,202.6,199.1,202.2,198.5,202.2z M194.7,217.9c-0.6,0-1,0.4-1,1c0,0.6,0.4,1,1,1c0.6,0,1-0.4,1-1
		C195.7,218.4,195.2,217.9,194.7,217.9z M196.8,214.9c-0.6,0-1,0.4-1,1c0,0.6,0.4,1,1,1c0.6,0,1-0.4,1-1
		C197.9,215.3,197.4,214.9,196.8,214.9z M198.5,211.4c-0.6,0-1,0.4-1,1c0,0.6,0.4,1,1,1c0.6,0,1-0.4,1-1
		C199.5,211.9,199.1,211.4,198.5,211.4z M196.7,220.2c-0.6,0-1,0.4-1,1c0,0.6,0.4,1,1,1c0.6,0,1-0.4,1-1
		C197.7,220.6,197.3,220.2,196.7,220.2z M190.8,233.7c-0.6,0-1,0.4-1,1c0,0.6,0.4,1,1,1c0.6,0,1-0.4,1-1
		C191.8,234.1,191.4,233.7,190.8,233.7z M187.5,235.5c-0.6,0-1,0.4-1,1c0,0.6,0.4,1,1,1c0.6,0,1-0.4,1-1
		C188.5,235.9,188.1,235.5,187.5,235.5z M184.1,237c-0.6,0-1,0.4-1,1c0,0.6,0.4,1,1,1c0.6,0,1-0.4,1-1
		C185.1,237.4,184.6,237,184.1,237z M180.5,238c-0.6,0-1,0.4-1,1c0,0.6,0.4,1,1,1c0.6,0,1-0.4,1-1C181.5,238.4,181.1,238,180.5,238z
		 M176.9,238.6c-0.6,0-1,0.4-1,1c0,0.6,0.4,1,1,1c0.6,0,1-0.4,1-1C177.9,239,177.5,238.6,176.9,238.6z M173.4,238.7
		c-0.6,0-1,0.4-1,1c0,0.6,0.4,1,1,1c0.6,0,1-0.4,1-1C174.4,239.2,173.9,238.7,173.4,238.7z M170,238.3c-0.6,0-1,0.4-1,1
		c0,0.6,0.4,1,1,1c0.6,0,1-0.4,1-1C171,238.8,170.5,238.3,170,238.3z M166.7,237.6c-0.6,0-1,0.4-1,1c0,0.6,0.4,1,1,1
		c0.6,0,1-0.4,1-1C167.7,238,167.3,237.6,166.7,237.6z M163.7,236.2c-0.6,0-1,0.4-1,1c0,0.6,0.4,1,1,1s1-0.4,1-1
		C164.7,236.7,164.3,236.2,163.7,236.2z M160.9,234.5c-0.6,0-1,0.4-1,1c0,0.6,0.4,1,1,1c0.6,0,1-0.5,1-1
		C161.9,234.9,161.5,234.5,160.9,234.5z M158.5,232.2c-0.6,0-1,0.4-1,1c0,0.6,0.4,1,1,1c0.6,0,1-0.4,1-1
		C159.5,232.7,159.1,232.2,158.5,232.2z M156.6,229.4c-0.6,0-1,0.4-1,1c0,0.6,0.4,1,1,1c0.6,0,1-0.4,1-1
		C157.6,229.8,157.1,229.4,156.6,229.4z M168.5,212.8c-0.6,0-1,0.4-1,1c0,0.6,0.4,1,1,1c0.6,0,1-0.4,1-1
		C169.5,213.3,169,212.8,168.5,212.8z M170.7,210.1c-0.6,0-1,0.4-1,1c0,0.6,0.4,1,1,1c0.6,0,1-0.4,1-1
		C171.7,210.6,171.3,210.1,170.7,210.1z M170.6,215.3c-0.6,0-1,0.4-1,1c0,0.6,0.5,1,1,1c0.6,0,1-0.4,1-1
		C171.6,215.8,171.1,215.3,170.6,215.3z M172.9,212.5c-0.6,0-1,0.4-1,1c0,0.6,0.4,1,1,1c0.6,0,1-0.4,1-1
		C173.9,212.9,173.5,212.5,172.9,212.5z M171.7,218.3c-0.6,0-1,0.4-1,1c0,0.6,0.4,1,1,1c0.6,0,1-0.4,1-1
		C172.7,218.8,172.3,218.3,171.7,218.3z M172.2,221.4c-0.6,0-1,0.4-1,1c0,0.6,0.4,1,1,1c0.6,0,1-0.4,1-1
		C173.2,221.9,172.7,221.4,172.2,221.4z M175.6,221.7c-0.6,0-1,0.4-1,1c0,0.6,0.4,1,1,1c0.6,0,1-0.4,1-1
		C176.6,222.1,176.2,221.7,175.6,221.7z M178.9,221.1c-0.6,0-1,0.4-1,1c0,0.6,0.4,1,1,1c0.6,0,1-0.4,1-1
		C179.9,221.5,179.4,221.1,178.9,221.1z M175.4,218.3c-0.6,0-1,0.4-1,1c0,0.6,0.4,1,1,1c0.6,0,1-0.4,1-1
		C176.4,218.8,175.9,218.3,175.4,218.3z M174.6,215.2c-0.6,0-1,0.4-1,1c0,0.6,0.4,1,1,1c0.6,0,1-0.4,1-1
		C175.6,215.7,175.1,215.2,174.6,215.2z M165.7,214.4c-0.6,0-1,0.4-1,1c0,0.6,0.4,1,1,1c0.6,0,1-0.4,1-1
		C166.7,214.8,166.3,214.4,165.7,214.4z M164.4,218.1c-0.6,0-1,0.4-1,1c0,0.6,0.4,1,1,1c0.6,0,1-0.4,1-1
		C165.4,218.6,165,218.1,164.4,218.1z M161.5,221.3c-0.6,0-1,0.4-1,1c0,0.6,0.4,1,1,1c0.6,0,1-0.4,1-1
		C162.5,221.8,162.1,221.3,161.5,221.3z M157.2,223.4c-0.6,0-1,0.4-1,1c0,0.6,0.4,1,1,1c0.6,0,1-0.4,1-1
		C158.2,223.8,157.8,223.4,157.2,223.4z M154.5,221.4c-0.6,0-1,0.4-1,1c0,0.6,0.4,1,1,1c0.6,0,1-0.4,1-1
		C155.5,221.8,155.1,221.4,154.5,221.4z M152.2,223.8c-0.6,0-1,0.4-1,1c0,0.6,0.4,1,1,1c0.6,0,1-0.4,1-1
		C153.2,224.3,152.8,223.8,152.2,223.8z M155.1,225.9c-0.6,0-1,0.5-1,1c0,0.6,0.4,1,1,1c0.6,0,1-0.4,1-1
		C156.1,226.3,155.6,225.9,155.1,225.9z M158.8,227.2c-0.6,0-1,0.4-1,1s0.4,1,1,1c0.6,0,1-0.4,1-1S159.4,227.2,158.8,227.2z
		 M161.2,230.1c-0.6,0-1,0.4-1,1c0,0.6,0.4,1,1,1c0.6,0,1-0.4,1-1C162.2,230.5,161.7,230.1,161.2,230.1z M163.7,232.2
		c-0.6,0-1,0.4-1,1c0,0.6,0.4,1,1,1c0.6,0,1-0.4,1-1C164.7,232.7,164.2,232.2,163.7,232.2z M166.7,233.8c-0.6,0-1,0.4-1,1
		c0,0.6,0.4,1,1,1c0.6,0,1-0.4,1-1C167.7,234.2,167.2,233.8,166.7,233.8z M169.7,234.8c-0.6,0-1,0.4-1,1c0,0.6,0.4,1,1,1
		c0.6,0,1-0.4,1-1C170.7,235.2,170.3,234.8,169.7,234.8z M173.1,235.4c-0.6,0-1,0.4-1,1c0,0.6,0.4,1,1,1c0.6,0,1-0.4,1-1
		C174.1,235.9,173.6,235.4,173.1,235.4z M176.4,235.3c-0.6,0-1,0.4-1,1c0,0.6,0.4,1,1,1c0.6,0,1-0.4,1-1
		C177.4,235.7,177,235.3,176.4,235.3z M179.9,235c-0.6,0-1,0.4-1,1c0,0.6,0.4,1,1,1c0.6,0,1-0.4,1-1
		C180.9,235.4,180.4,235,179.9,235z M183.3,233.9c-0.6,0-1,0.4-1,1c0,0.6,0.4,1,1,1c0.6,0,1-0.4,1-1
		C184.3,234.4,183.8,233.9,183.3,233.9z M186.5,232.6c-0.6,0-1,0.4-1,1c0,0.6,0.4,1,1,1c0.6,0,1-0.4,1-1
		C187.5,233,187.1,232.6,186.5,232.6z M185.3,229.7c-0.6,0-1,0.4-1,1c0,0.6,0.4,1,1,1c0.6,0,1-0.4,1-1
		C186.3,230.2,185.9,229.7,185.3,229.7z M182.1,231c-0.6,0-1,0.4-1,1c0,0.6,0.4,1,1,1c0.6,0,1-0.4,1-1
		C183.1,231.4,182.6,231,182.1,231z M178.8,231.8c-0.6,0-1,0.4-1,1c0,0.6,0.4,1,1,1c0.6,0,1-0.4,1-1
		C179.8,232.2,179.3,231.8,178.8,231.8z M175.4,232c-0.6,0-1,0.4-1,1c0,0.6,0.4,1,1,1c0.6,0,1-0.4,1-1
		C176.4,232.4,175.9,232,175.4,232z M172.1,231.7c-0.6,0-1,0.4-1,1c0,0.6,0.4,1,1,1c0.6,0,1-0.4,1-1
		C173.1,232.2,172.6,231.7,172.1,231.7z M168.9,231c-0.6,0-1,0.4-1,1c0,0.6,0.4,1,1,1c0.6,0,1-0.4,1-1
		C169.9,231.4,169.5,231,168.9,231z M165.9,229.5c-0.6,0-1,0.4-1,1c0,0.6,0.4,1,1,1c0.6,0,1-0.4,1-1
		C166.9,230,166.5,229.5,165.9,229.5z M167.6,226.6c-0.6,0-1,0.4-1,1s0.4,1,1,1c0.6,0,1-0.4,1-1S168.1,226.6,167.6,226.6z
		 M170.7,227.9c-0.6,0-1,0.4-1,1c0,0.6,0.4,1,1,1c0.6,0,1-0.4,1-1C171.7,228.3,171.2,227.9,170.7,227.9z M173.9,228.5
		c-0.6,0-1,0.4-1,1c0,0.6,0.4,1,1,1c0.6,0,1-0.4,1-1C174.9,229,174.4,228.5,173.9,228.5z M177.2,228.4c-0.6,0-1,0.4-1,1
		c0,0.6,0.4,1,1,1c0.6,0,1-0.4,1-1C178.2,228.8,177.7,228.4,177.2,228.4z M180.5,227.9c-0.6,0-1,0.4-1,1c0,0.6,0.4,1,1,1
		c0.6,0,1-0.4,1-1C181.5,228.3,181.1,227.9,180.5,227.9z M183.7,226.8c-0.6,0-1,0.4-1,1c0,0.6,0.4,1,1,1c0.6,0,1-0.4,1-1
		C184.7,227.2,184.3,226.8,183.7,226.8z M181.5,223.9c-0.6,0-1,0.4-1,1c0,0.6,0.4,1,1,1c0.6,0,1-0.4,1-1
		C182.5,224.3,182.1,223.9,181.5,223.9z M178.4,224.8c-0.6,0-1,0.4-1,1c0,0.6,0.4,1,1,1c0.6,0,1-0.4,1-1
		C179.4,225.2,178.9,224.8,178.4,224.8z M175.1,225.1c-0.6,0-1,0.4-1,1c0,0.6,0.4,1,1,1c0.6,0,1-0.4,1-1
		C176.1,225.5,175.7,225.1,175.1,225.1z M171.7,224.7c-0.6,0-1,0.4-1,1c0,0.6,0.4,1,1,1c0.6,0,1-0.4,1-1
		C172.7,225.1,172.3,224.7,171.7,224.7z M168.2,223.6c-0.6,0-1,0.4-1,1c0,0.6,0.4,1,1,1c0.6,0,1-0.5,1-1
		C169.2,224,168.8,223.6,168.2,223.6z M168.4,220.4c-0.6,0-1,0.4-1,1c0,0.6,0.4,1,1,1c0.6,0,1-0.4,1-1
		C169.4,220.8,169,220.4,168.4,220.4z M167.6,217.3c-0.6,0-1,0.4-1,1c0,0.6,0.4,1,1,1c0.6,0,1-0.4,1-1
		C168.6,217.8,168.2,217.3,167.6,217.3z M160.7,224.5c-0.6,0-1,0.4-1,1c0,0.6,0.4,1,1,1c0.6,0,1-0.4,1-1
		C161.7,225,161.2,224.5,160.7,224.5z M163.2,227.5c-0.6,0-1,0.4-1,1c0,0.6,0.4,1,1,1c0.6,0,1-0.4,1-1
		C164.2,227.9,163.7,227.5,163.2,227.5z M164.4,224.6c-0.6,0-1,0.4-1,1c0,0.6,0.4,1,1,1c0.6,0,1-0.4,1-1
		C165.4,225.1,165,224.6,164.4,224.6z M164.9,221.5c-0.6,0-1,0.4-1,1c0,0.6,0.4,1,1,1c0.6,0,1-0.4,1-1
		C165.9,222,165.4,221.5,164.9,221.5z M150,221.1c-0.6,0-1,0.4-1,1c0,0.6,0.4,1,1,1c0.6,0,1-0.4,1-1
		C151,221.5,150.6,221.1,150,221.1z M148.9,217.9c-0.6,0-1,0.4-1,1c0,0.6,0.4,1,1,1c0.6,0,1-0.4,1-1
		C149.9,218.3,149.4,217.9,148.9,217.9z M149.3,214.7c-0.6,0-1,0.4-1,1c0,0.6,0.4,1,1,1c0.6,0,1-0.4,1-1
		C150.3,215.1,149.9,214.7,149.3,214.7z"/>
</g>
</svg>
