<?xml version="1.0" encoding="utf-8"?>
<!-- Generator: Adobe Illustrator 18.0.0, SVG Export Plug-In . SVG Version: 6.00 Build 0)  -->
<!DOCTYPE svg PUBLIC "-//W3C//DTD SVG 1.1//EN" "http://www.w3.org/Graphics/SVG/1.1/DTD/svg11.dtd">
<svg version="1.1" id="Layer_1" xmlns="http://www.w3.org/2000/svg" xmlns:xlink="http://www.w3.org/1999/xlink" x="0px" y="0px"
	 viewBox="115.6 351.6 97.4 97.4" enable-background="new 115.6 351.6 97.4 97.4" xml:space="preserve">
<g>
	<circle fill="#FFF100" cx="164.3" cy="400.3" r="48.7"/>
	<path fill="#231F20" d="M167,402.9c0,0.6-0.4,1-1,1s-1-0.4-1-1s0.4-1,1-1C166.6,401.8,167,402.3,167,402.9z M162.5,400.5
		c-0.6,0-1,0.4-1,1s0.4,1,1,1s1-0.4,1-1C163.6,401,163.2,400.5,162.5,400.5z M162.7,403.9c-0.6,0-1,0.4-1,1s0.4,1,1,1s1-0.5,1-1
		C163.8,404.3,163.3,403.9,162.7,403.9z M166,405.4c-0.6,0-1,0.4-1,1s0.4,1,1,1s1-0.4,1-1C167,405.9,166.5,405.4,166,405.4z
		 M169.2,401.1c-0.6,0-1,0.4-1,1s0.4,1,1,1s1-0.4,1-1S169.8,401.1,169.2,401.1z M170,404.2c-0.6,0-1,0.4-1,1s0.4,1,1,1s1-0.4,1-1
		C171,404.7,170.5,404.2,170,404.2z M168.8,407.5c-0.6,0-1,0.4-1,1s0.4,1,1,1s1-0.4,1-1C169.8,408,169.4,407.5,168.8,407.5z
		 M165.9,410.1c-0.6,0-1,0.4-1,1s0.4,1,1,1s1-0.4,1-1C166.9,410.6,166.5,410.1,165.9,410.1z M163.7,407.8c-0.6,0-1,0.4-1,1
		s0.4,1,1,1s1-0.4,1-1C164.7,408.3,164.3,407.8,163.7,407.8z M160.1,408.6c-0.6,0-1,0.4-1,1s0.4,1,1,1s1-0.4,1-1
		S160.7,408.6,160.1,408.6z M159.9,405.2c-0.6,0-1,0.4-1,1s0.4,1,1,1s1-0.4,1-1S160.4,405.2,159.9,405.2z M158.6,401.5
		c-0.6,0-1,0.4-1,1s0.4,1,1,1s1-0.4,1-1C159.7,401.9,159.2,401.5,158.6,401.5z M160.2,398.6c-0.6,0-1,0.4-1,1s0.4,1,1,1s1-0.5,1-1
		S160.7,398.6,160.2,398.6z M164.3,396.4c-0.6,0-1,0.5-1,1c0,0.6,0.5,1,1,1c0.6,0,1-0.4,1-1C165.3,396.9,164.8,396.4,164.3,396.4z
		 M167.8,396.9c-0.6,0-1,0.4-1,1s0.4,1,1,1s1-0.4,1-1S168.3,396.9,167.8,396.9z M165.7,399c-0.6,0-1,0.4-1,1s0.4,1,1,1s1-0.4,1-1
		C166.7,399.5,166.3,399,165.7,399z M170.8,397.7c-0.6,0-1,0.4-1,1s0.5,1,1,1c0.6,0,1-0.4,1-1C171.9,398.2,171.5,397.7,170.8,397.7z
		 M172.9,400.4c-0.6,0-1,0.4-1,1s0.4,1,1,1s1-0.4,1-1C173.9,400.9,173.5,400.4,172.9,400.4z M175.3,398.4c-0.6,0-1,0.4-1,1
		s0.4,1,1,1s1-0.4,1-1C176.4,398.8,176,398.4,175.3,398.4z M176.9,395.2c-0.6,0-1,0.4-1,1s0.4,1,1,1s1-0.4,1-1
		S177.4,395.2,176.9,395.2z M180.3,392.5c-0.6,0-1,0.4-1,1s0.4,1,1,1s1-0.4,1-1S180.9,392.5,180.3,392.5z M177.1,391.6
		c-0.6,0-1,0.4-1,1s0.4,1,1,1s1-0.4,1-1C178.1,392.1,177.7,391.6,177.1,391.6z M173.6,391.8c-0.6,0-1,0.4-1,1s0.4,1,1,1s1-0.4,1-1
		S174.2,391.8,173.6,391.8z M169.8,393.3c-0.6,0-1,0.4-1,1s0.4,1,1,1s1-0.4,1-1C170.8,393.9,170.4,393.3,169.8,393.3z M166.6,393.6
		c-0.6,0-1,0.4-1,1s0.4,1,1,1s1-0.4,1-1C167.7,394.2,167.3,393.6,166.6,393.6z M166,390.2c-0.6,0-1,0.4-1,1s0.4,1,1,1s1-0.4,1-1
		S166.5,390.2,166,390.2z M169.8,390.1c-0.6,0-1,0.4-1,1s0.4,1,1,1s1-0.4,1-1C170.8,390.6,170.3,390.1,169.8,390.1z M173.1,388.4
		c-0.6,0-1,0.4-1,1s0.4,1,1,1s1-0.4,1-1C174.1,388.9,173.6,388.4,173.1,388.4z M176.4,388c-0.6,0-1,0.4-1,1s0.4,1,1,1s1-0.4,1-1
		C177.4,388.5,176.9,388,176.4,388z M179.4,388.3c-0.6,0-1,0.4-1,1s0.4,1,1,1s1-0.4,1-1C180.5,388.8,180.1,388.3,179.4,388.3z
		 M182.6,389.4c-0.6,0-1,0.4-1,1s0.4,1,1,1s1-0.4,1-1C183.6,390,183.1,389.4,182.6,389.4z M184.1,386.5c-0.6,0-1,0.4-1,1s0.4,1,1,1
		s1-0.4,1-1S184.7,386.5,184.1,386.5z M181,385c-0.6,0-1,0.4-1,1s0.4,1,1,1s1-0.4,1-1S181.5,385,181,385z M177.7,384.3
		c-0.6,0-1,0.4-1,1s0.4,1,1,1s1-0.4,1-1C178.7,384.8,178.2,384.3,177.7,384.3z M174.4,384.4c-0.6,0-1,0.4-1,1s0.4,1,1,1s1-0.4,1-1
		C175.5,384.8,174.9,384.4,174.4,384.4z M171.2,385.2c-0.6,0-1,0.4-1,1s0.4,1,1,1s1-0.4,1-1S171.9,385.2,171.2,385.2z M168.5,387.1
		c-0.6,0-1,0.4-1,1s0.4,1,1,1s1-0.4,1-1S169,387.1,168.5,387.1z M165.9,384.6c-0.6,0-1,0.4-1,1s0.4,1,1,1s1-0.4,1-1
		S166.4,384.6,165.9,384.6z M164,387.5c-0.6,0-1,0.5-1,1c0,0.6,0.4,1,1,1s1-0.4,1-1C165,388,164.6,387.5,164,387.5z M163.2,391.7
		c-0.6,0-1,0.4-1,1s0.4,1,1,1s1-0.4,1-1C164.2,392.2,163.7,391.7,163.2,391.7z M160.4,389.6c-0.6,0-1,0.4-1,1s0.4,1,1,1s1-0.4,1-1
		S161,389.6,160.4,389.6z M161.1,386c-0.6,0-1,0.4-1,1s0.4,1,1,1s1-0.4,1-1S161.6,386,161.1,386z M162.6,383c-0.6,0-1,0.4-1,1
		s0.4,1,1,1s1-0.4,1-1S163.2,383,162.6,383z M164.9,380.6c-0.6,0-1,0.4-1,1s0.4,1,1,1s1-0.4,1-1S165.5,380.6,164.9,380.6z
		 M168.5,382.6c-0.6,0-1,0.4-1,1s0.4,1,1,1s1-0.4,1-1C169.5,383.1,169,382.6,168.5,382.6z M171.5,381.2c-0.6,0-1,0.4-1,1s0.4,1,1,1
		s1-0.4,1-1C172.5,381.7,172.1,381.2,171.5,381.2z M174.7,380.6c-0.6,0-1,0.4-1,1s0.4,1,1,1s1-0.4,1-1
		C175.8,381.1,175.2,380.6,174.7,380.6z M178.2,380.8c-0.6,0-1,0.4-1,1s0.4,1,1,1s1-0.4,1-1C179.2,381.4,178.7,380.8,178.2,380.8z
		 M181.6,381.7c-0.6,0-1,0.4-1,1s0.4,1,1,1s1-0.4,1-1S182.1,381.7,181.6,381.7z M184.9,383.1c-0.6,0-1,0.4-1,1s0.4,1,1,1s1-0.4,1-1
		S185.5,383.1,184.9,383.1z M185.3,379.8c-0.6,0-1,0.4-1,1s0.4,1,1,1s1-0.4,1-1S185.8,379.8,185.3,379.8z M181.5,378.4
		c-0.6,0-1,0.4-1,1s0.4,1,1,1s1-0.4,1-1C182.5,378.8,182.1,378.4,181.5,378.4z M184.9,376.4c-0.6,0-1,0.5-1,1c0,0.6,0.4,1,1,1
		s1-0.4,1-1C185.9,376.9,185.5,376.4,184.9,376.4z M184.2,373.2c-0.6,0-1,0.4-1,1s0.4,1,1,1s1-0.4,1-1
		C185.2,373.7,184.8,373.2,184.2,373.2z M182.8,369.9c-0.6,0-1,0.4-1,1s0.4,1,1,1s1-0.4,1-1S183.3,369.9,182.8,369.9z M181,366.8
		c-0.6,0-1,0.5-1,1c0,0.6,0.4,1,1,1s1-0.4,1-1S181.5,366.8,181,366.8z M178.2,368.6c-0.6,0-1,0.4-1,1s0.4,1,1,1s1-0.4,1-1
		C179.2,369.2,178.8,368.6,178.2,368.6z M180,371.8c-0.6,0-1,0.4-1,1s0.4,1,1,1s1-0.4,1-1S180.5,371.8,180,371.8z M181.1,375
		c-0.6,0-1,0.4-1,1s0.4,1,1,1s1-0.4,1-1C182.1,375.5,181.6,375,181.1,375z M177.9,377.5c-0.6,0-1,0.4-1,1s0.4,1,1,1s1-0.4,1-1
		C178.9,378,178.5,377.5,177.9,377.5z M174.3,377.4c-0.6,0-1,0.4-1,1s0.4,1,1,1s1-0.4,1-1S174.8,377.4,174.3,377.4z M170.8,377.8
		c-0.6,0-1,0.4-1,1s0.4,1,1,1s1-0.4,1-1C171.9,378.2,171.4,377.8,170.8,377.8z M167.6,378.9c-0.6,0-1,0.4-1,1s0.4,1,1,1s1-0.4,1-1
		S168.2,378.9,167.6,378.9z M166,375.7c-0.6,0-1,0.4-1,1s0.4,1,1,1s1-0.4,1-1C167,376.2,166.6,375.7,166,375.7z M164,372.9
		c-0.6,0-1,0.4-1,1s0.4,1,1,1s1-0.4,1-1C165,373.5,164.6,372.9,164,372.9z M167.6,371.8c-0.6,0-1,0.4-1,1s0.4,1,1,1s1-0.4,1-1
		S168.2,371.8,167.6,371.8z M169.5,374.6c-0.6,0-1,0.4-1,1s0.4,1,1,1s1-0.4,1-1S170,374.6,169.5,374.6z M173.1,374.1
		c-0.6,0-1,0.4-1,1s0.4,1,1,1s1-0.5,1-1C174.1,374.5,173.7,374.1,173.1,374.1z M177.1,374.2c-0.6,0-1,0.4-1,1s0.4,1,1,1s1-0.4,1-1
		C178.1,374.7,177.7,374.2,177.1,374.2z M175.7,371.1c-0.6,0-1,0.4-1,1s0.4,1,1,1s1-0.4,1-1C176.7,371.6,176.3,371.1,175.7,371.1z
		 M171.5,371.2c-0.6,0-1,0.4-1,1s0.4,1,1,1s1-0.4,1-1S172.1,371.2,171.5,371.2z M173.8,368.3c-0.6,0-1,0.4-1,1s0.4,1,1,1s1-0.4,1-1
		S174.3,368.3,173.8,368.3z M176.2,365.8c-0.6,0-1,0.4-1,1s0.4,1,1,1s1-0.4,1-1C177.2,366.3,176.7,365.8,176.2,365.8z M178.7,363.8
		c-0.6,0-1,0.4-1,1s0.4,1,1,1s1-0.4,1-1C179.8,364.2,179.2,363.8,178.7,363.8z M181.3,362c-0.6,0-1,0.4-1,1s0.4,1,1,1s1-0.4,1-1
		C182.3,362.5,181.9,362,181.3,362z M178.6,359.2c-0.6,0-1,0.4-1,1s0.4,1,1,1s1-0.4,1-1C179.7,359.6,179.2,359.2,178.6,359.2z
		 M176.1,361.1c-0.6,0-1,0.4-1,1s0.4,1,1,1s1-0.4,1-1S176.7,361.1,176.1,361.1z M173.1,358.6c-0.6,0-1,0.4-1,1s0.4,1,1,1s1-0.4,1-1
		S173.6,358.6,173.1,358.6z M169.6,356.5c-0.6,0-1,0.4-1,1s0.4,1,1,1s1-0.4,1-1S170.2,356.5,169.6,356.5z M167.6,358.7
		c-0.6,0-1,0.4-1,1s0.4,1,1,1s1-0.4,1-1C168.6,359.2,168.1,358.7,167.6,358.7z M164,357c-0.6,0-1,0.4-1,1s0.4,1,1,1s1-0.4,1-1
		C165,357.5,164.6,357,164,357z M170.8,360.8c-0.6,0-1,0.4-1,1s0.5,1,1,1c0.6,0,1-0.4,1-1C171.9,361.3,171.5,360.8,170.8,360.8z
		 M173.7,363.1c-0.6,0-1,0.4-1,1s0.4,1,1,1s1-0.4,1-1C174.7,363.6,174.2,363.1,173.7,363.1z M171.6,365.7c-0.6,0-1,0.4-1,1
		s0.5,1,1,1c0.6,0,1-0.4,1-1S172.1,365.7,171.6,365.7z M168.7,363.3c-0.6,0-1,0.4-1,1s0.4,1,1,1s1-0.4,1-1
		C169.7,363.8,169.3,363.3,168.7,363.3z M166.9,366.1c-0.6,0-1,0.4-1,1s0.4,1,1,1s1-0.4,1-1C168,366.5,167.5,366.1,166.9,366.1z
		 M165.3,369.4c-0.6,0-1,0.4-1,1s0.4,1,1,1s1-0.4,1-1C166.3,369.9,165.8,369.4,165.3,369.4z M163.1,377.4c-0.6,0-1,0.4-1,1
		s0.4,1,1,1s1-0.4,1-1C164.1,377.9,163.7,377.4,163.1,377.4z M160.6,379.6c-0.6,0-1,0.4-1,1s0.4,1,1,1s1-0.4,1-1
		S161.1,379.6,160.6,379.6z M158.6,382.3c-0.6,0-1,0.4-1,1s0.4,1,1,1s1-0.4,1-1S159.3,382.3,158.6,382.3z M157.5,385.2
		c-0.6,0-1,0.4-1,1s0.4,1,1,1s1-0.4,1-1S158.1,385.2,157.5,385.2z M157.3,388.7c-0.6,0-1,0.4-1,1s0.4,1,1,1s1-0.4,1-1
		S157.8,388.7,157.3,388.7z M158.3,392.5c-0.6,0-1,0.4-1,1s0.4,1,1,1s1-0.4,1-1S159,392.5,158.3,392.5z M158.2,395.9
		c-0.6,0-1,0.5-1,1c0,0.6,0.4,1,1,1s1-0.4,1-1C159.3,396.3,158.8,395.9,158.2,395.9z M154.8,396.3c-0.6,0-1,0.4-1,1s0.4,1,1,1
		s1-0.4,1-1C155.8,396.8,155.3,396.3,154.8,396.3z M155.2,392.4c-0.6,0-1,0.4-1,1s0.4,1,1,1s1-0.4,1-1
		C156.2,392.8,155.8,392.4,155.2,392.4z M153.8,389.1c-0.6,0-1,0.4-1,1s0.4,1,1,1s1-0.4,1-1S154.3,389.1,153.8,389.1z M153.7,385.8
		c-0.6,0-1,0.4-1,1s0.4,1,1,1s1-0.4,1-1C154.8,386.3,154.2,385.8,153.7,385.8z M154.4,382.7c-0.6,0-1,0.4-1,1s0.4,1,1,1s1-0.4,1-1
		C155.5,383.1,155.1,382.7,154.4,382.7z M156,379.7c-0.6,0-1,0.4-1,1s0.4,1,1,1s1-0.4,1-1S156.5,379.7,156,379.7z M153,378
		c-0.6,0-1,0.4-1,1s0.4,1,1,1s1-0.4,1-1S153.5,378,153,378z M151.3,381c-0.6,0-1,0.4-1,1s0.4,1,1,1s1-0.4,1-1S151.8,381,151.3,381z
		 M149.7,376.8c-0.6,0-1,0.4-1,1s0.4,1,1,1s1-0.4,1-1C150.8,377.3,150.2,376.8,149.7,376.8z M158.1,377c-0.6,0-1,0.4-1,1s0.4,1,1,1
		s1-0.4,1-1C159.2,377.6,158.6,377,158.1,377z M160.9,374.8c-0.6,0-1,0.4-1,1s0.4,1,1,1s1-0.4,1-1S161.4,374.8,160.9,374.8z
		 M158.2,372.7c-0.6,0-1,0.4-1,1s0.4,1,1,1s1-0.4,1-1C159.3,373.2,158.8,372.7,158.2,372.7z M161.6,370.8c-0.6,0-1,0.4-1,1
		s0.4,1,1,1s1-0.4,1-1S162.1,370.8,161.6,370.8z M162.6,367.3c-0.6,0-1,0.4-1,1s0.4,1,1,1s1-0.4,1-1
		C163.7,367.7,163.3,367.3,162.6,367.3z M164.1,364c-0.6,0-1,0.4-1,1s0.4,1,1,1s1-0.4,1-1C165.1,364.5,164.7,364,164.1,364z
		 M165.7,361.2c-0.6,0-1,0.4-1,1s0.4,1,1,1s1-0.4,1-1C166.7,361.7,166.2,361.2,165.7,361.2z M162.2,359.5c-0.6,0-1,0.4-1,1
		s0.4,1,1,1s1-0.4,1-1C163.3,360,162.8,359.5,162.2,359.5z M160.8,362.4c-0.6,0-1,0.4-1,1s0.4,1,1,1s1-0.4,1-1
		S161.4,362.4,160.8,362.4z M159.6,365.6c-0.6,0-1,0.4-1,1s0.4,1,1,1s1-0.4,1-1S160.2,365.6,159.6,365.6z M158.6,369
		c-0.6,0-1,0.4-1,1s0.4,1,1,1s1-0.4,1-1C159.7,369.5,159.2,369,158.6,369z M155.6,367.5c-0.6,0-1,0.4-1,1s0.4,1,1,1s1-0.4,1-1
		C156.6,368,156.2,367.5,155.6,367.5z M156.3,364.2c-0.6,0-1,0.4-1,1s0.4,1,1,1s1-0.4,1-1C157.3,364.8,156.9,364.2,156.3,364.2z
		 M157.3,361.2c-0.6,0-1,0.4-1,1s0.4,1,1,1s1-0.4,1-1C158.3,361.7,157.9,361.2,157.3,361.2z M158.6,358.3c-0.6,0-1,0.4-1,1
		s0.4,1,1,1s1-0.4,1-1C159.7,358.7,159.3,358.3,158.6,358.3z M154.8,357.5c-0.6,0-1,0.4-1,1s0.4,1,1,1s1-0.4,1-1
		S155.4,357.5,154.8,357.5z M153.5,360.2c-0.6,0-1,0.4-1,1s0.4,1,1,1s1-0.4,1-1C154.5,360.8,154.1,360.2,153.5,360.2z M152.7,363.3
		c-0.6,0-1,0.4-1,1s0.4,1,1,1s1-0.4,1-1C153.7,363.8,153.3,363.3,152.7,363.3z M152.1,366.6c-0.6,0-1,0.4-1,1s0.4,1,1,1s1-0.4,1-1
		C153.1,367.1,152.6,366.6,152.1,366.6z M148.6,366.2c-0.6,0-1,0.4-1,1s0.4,1,1,1s1-0.4,1-1S149.1,366.2,148.6,366.2z M149.1,363
		c-0.6,0-1,0.4-1,1s0.4,1,1,1s1-0.4,1-1C150.1,363.5,149.6,363,149.1,363z M149.7,359.8c-0.6,0-1,0.4-1,1s0.4,1,1,1s1-0.4,1-1
		C150.8,360.2,150.2,359.8,149.7,359.8z M145.7,359.9c-0.6,0-1,0.4-1,1s0.4,1,1,1s1-0.4,1-1C146.8,360.4,146.3,359.9,145.7,359.9z
		 M145.1,363c-0.6,0-1,0.4-1,1s0.4,1,1,1s1-0.4,1-1S145.7,363,145.1,363z M144.9,366.1c-0.6,0-1,0.4-1,1s0.4,1,1,1s1-0.4,1-1
		C145.9,366.6,145.4,366.1,144.9,366.1z M145,369.4c-0.6,0-1,0.4-1,1s0.4,1,1,1s1-0.4,1-1C146,369.9,145.6,369.4,145,369.4z
		 M145.4,372.7c-0.6,0-1,0.4-1,1s0.4,1,1,1s1-0.4,1-1C146.5,373.2,146,372.7,145.4,372.7z M146.5,376.3c-0.6,0-1,0.5-1,1
		c0,0.6,0.4,1,1,1s1-0.4,1-1C147.5,376.8,147,376.3,146.5,376.3z M147.9,380.1c-0.6,0-1,0.4-1,1s0.4,1,1,1s1-0.4,1-1
		S148.5,380.1,147.9,380.1z M144.6,379.8c-0.6,0-1,0.4-1,1s0.4,1,1,1s1-0.4,1-1S145.1,379.8,144.6,379.8z M143.1,376.3
		c-0.6,0-1,0.5-1,1c0,0.6,0.4,1,1,1s1-0.4,1-1C144.1,376.8,143.6,376.3,143.1,376.3z M139.7,376.8c-0.6,0-1,0.4-1,1s0.4,1,1,1
		s1-0.4,1-1C140.7,377.4,140.2,376.8,139.7,376.8z M138.5,373.8c-0.6,0-1,0.4-1,1s0.4,1,1,1s1-0.4,1-1S139.1,373.8,138.5,373.8z
		 M135.1,375c-0.6,0-1,0.4-1,1s0.4,1,1,1s1-0.4,1-1S135.7,375,135.1,375z M131.7,376.5c-0.6,0-1,0.4-1,1s0.4,1,1,1s1-0.4,1-1
		C132.7,377,132.2,376.5,131.7,376.5z M128.4,378.6c-0.6,0-1,0.4-1,1s0.5,1,1,1c0.6,0,1-0.4,1-1
		C129.4,379.1,128.9,378.6,128.4,378.6z M125.2,381.2c-0.6,0-1,0.4-1,1s0.4,1,1,1s1-0.4,1-1C126.3,381.7,125.9,381.2,125.2,381.2z
		 M127,383.9c-0.6,0-1,0.4-1,1s0.4,1,1,1s1-0.4,1-1C128,384.3,127.5,383.9,127,383.9z M129.8,381.5c-0.6,0-1,0.4-1,1s0.4,1,1,1
		s1-0.4,1-1S130.5,381.5,129.8,381.5z M133,379.4c-0.6,0-1,0.4-1,1s0.4,1,1,1s1-0.4,1-1C134.1,379.9,133.6,379.4,133,379.4z
		 M136.2,377.9c-0.6,0-1,0.4-1,1s0.4,1,1,1s1-0.4,1-1C137.2,378.3,136.8,377.9,136.2,377.9z M137.9,381c-0.6,0-1,0.4-1,1s0.4,1,1,1
		s1-0.4,1-1S138.6,381,137.9,381z M134.7,382.4c-0.6,0-1,0.4-1,1s0.4,1,1,1s1-0.4,1-1C135.7,382.8,135.3,382.4,134.7,382.4z
		 M131.8,384.1c-0.6,0-1,0.4-1,1s0.4,1,1,1s1-0.4,1-1C132.8,384.6,132.3,384.1,131.8,384.1z M128.8,386.5c-0.6,0-1,0.4-1,1
		s0.4,1,1,1s1-0.4,1-1S129.4,386.5,128.8,386.5z M126.3,389c-0.6,0-1,0.4-1,1s0.4,1,1,1s1-0.4,1-1C127.3,389.6,126.8,389,126.3,389z
		 M123.9,392.1c-0.6,0-1,0.4-1,1s0.4,1,1,1s1-0.4,1-1C124.9,392.6,124.5,392.1,123.9,392.1z M122,395.5c-0.6,0-1,0.4-1,1s0.4,1,1,1
		s1-0.4,1-1S122.5,395.5,122,395.5z M124.2,386.7c-0.6,0-1,0.4-1,1s0.4,1,1,1s1-0.4,1-1C125.2,387.2,124.8,386.7,124.2,386.7z
		 M121.8,389.9c-0.6,0-1,0.4-1,1s0.4,1,1,1s1-0.4,1-1C122.8,390.3,122.4,389.9,121.8,389.9z M137.7,370.5c-0.6,0-1,0.4-1,1
		s0.4,1,1,1s1-0.4,1-1C138.8,371,138.4,370.5,137.7,370.5z M134.2,371.8c-0.6,0-1,0.4-1,1s0.4,1,1,1s1-0.4,1-1
		S134.8,371.8,134.2,371.8z M130.6,373.6c-0.6,0-1,0.4-1,1s0.4,1,1,1s1-0.4,1-1C131.6,374.1,131.2,373.6,130.6,373.6z M127.3,375.7
		c-0.6,0-1,0.4-1,1s0.4,1,1,1s1-0.4,1-1C128.3,376.2,127.9,375.7,127.3,375.7z M141.2,380.1c-0.6,0-1,0.4-1,1s0.4,1,1,1s1-0.4,1-1
		C142.2,380.6,141.8,380.1,141.2,380.1z M142,372.9c-0.6,0-1,0.4-1,1s0.4,1,1,1s1-0.4,1-1C143.1,373.5,142.7,372.9,142,372.9z
		 M141.3,369.9c-0.6,0-1,0.4-1,1s0.4,1,1,1s1-0.4,1-1S141.9,369.9,141.3,369.9z M150.2,384.2c-0.6,0-1,0.4-1,1s0.4,1,1,1s1-0.4,1-1
		C151.3,384.7,150.8,384.2,150.2,384.2z M149.9,387.5c-0.6,0-1,0.5-1,1c0,0.6,0.5,1,1,1c0.6,0,1-0.4,1-1
		C151,388,150.5,387.5,149.9,387.5z M150.5,390.6c-0.6,0-1,0.4-1,1s0.4,1,1,1s1-0.4,1-1C151.6,391.1,151.1,390.6,150.5,390.6z
		 M152,393.6c-0.6,0-1,0.4-1,1s0.4,1,1,1s1-0.4,1-1C153,394.1,152.6,393.6,152,393.6z M156,399.6c-0.6,0-1,0.4-1,1s0.4,1,1,1
		s1-0.4,1-1C157,400.1,156.6,399.6,156,399.6z M153.7,402.1c-0.6,0-1,0.4-1,1s0.4,1,1,1s1-0.4,1-1
		C154.8,402.5,154.2,402.1,153.7,402.1z M152.6,405.2c-0.6,0-1,0.4-1,1s0.4,1,1,1s1-0.4,1-1S153.1,405.2,152.6,405.2z M152.8,408.6
		c-0.6,0-1,0.4-1,1s0.4,1,1,1s1-0.4,1-1C153.8,409.1,153.4,408.6,152.8,408.6z M154,412.1c-0.6,0-1,0.4-1,1s0.4,1,1,1s1-0.4,1-1
		C155.1,412.6,154.6,412.1,154,412.1z M156.6,415.3c-0.6,0-1,0.4-1,1s0.4,1,1,1s1-0.4,1-1S157.1,415.3,156.6,415.3z M159.9,417.7
		c-0.6,0-1,0.4-1,1s0.4,1,1,1s1-0.4,1-1C160.9,418.2,160.5,417.7,159.9,417.7z M156.9,419c-0.6,0-1,0.4-1,1s0.4,1,1,1s1-0.4,1-1
		S157.4,419,156.9,419z M153.5,419.5c-0.6,0-1,0.4-1,1s0.4,1,1,1s1-0.4,1-1S154,419.5,153.5,419.5z M149.9,419.4c-0.6,0-1,0.4-1,1
		s0.5,1,1,1c0.6,0,1-0.4,1-1C151,419.8,150.5,419.4,149.9,419.4z M146.5,418.6c-0.6,0-1,0.4-1,1s0.4,1,1,1s1-0.4,1-1
		S147,418.6,146.5,418.6z M142.9,417c-0.6,0-1,0.4-1,1s0.4,1,1,1s1-0.4,1-1S143.5,417,142.9,417z M139.5,414.8c-0.6,0-1,0.4-1,1
		s0.4,1,1,1s1-0.4,1-1C140.5,415.3,140.1,414.8,139.5,414.8z M136.5,412c-0.6,0-1,0.4-1,1s0.4,1,1,1s1-0.4,1-1
		C137.5,412.5,137,412,136.5,412z M133.8,408.8c-0.6,0-1,0.4-1,1s0.4,1,1,1s1-0.4,1-1S134.5,408.8,133.8,408.8z M137.5,408.8
		c-0.6,0-1,0.4-1,1s0.4,1,1,1s1-0.4,1-1C138.6,409.3,138,408.8,137.5,408.8z M141.7,408.5c-0.6,0-1,0.4-1,1s0.4,1,1,1s1-0.4,1-1
		C142.8,409,142.2,408.5,141.7,408.5z M146.5,407.4c-0.6,0-1,0.4-1,1s0.4,1,1,1s1-0.4,1-1C147.5,407.9,147.1,407.4,146.5,407.4z
		 M149.3,404.6c-0.6,0-1,0.4-1,1s0.4,1,1,1s1-0.4,1-1S149.9,404.6,149.3,404.6z M150.2,401c-0.6,0-1,0.4-1,1s0.4,1,1,1s1-0.4,1-1
		S150.8,401,150.2,401z M152,398.2c-0.6,0-1,0.4-1,1s0.4,1,1,1s1-0.4,1-1C153,398.7,152.6,398.2,152,398.2z M149.4,395.9
		c-0.6,0-1,0.4-1,1s0.4,1,1,1s1-0.4,1-1C150.4,396.4,150,395.9,149.4,395.9z M147.6,393.2c-0.6,0-1,0.4-1,1s0.4,1,1,1s1-0.4,1-1
		C148.6,393.8,148.2,393.2,147.6,393.2z M146.7,390.3c-0.6,0-1,0.4-1,1s0.4,1,1,1s1-0.4,1-1S147.2,390.3,146.7,390.3z M146.5,386.8
		c-0.6,0-1,0.4-1,1s0.4,1,1,1s1-0.4,1-1C147.5,387.3,147,386.8,146.5,386.8z M143,387.1c-0.6,0-1,0.4-1,1s0.4,1,1,1s1-0.4,1-1
		S143.6,387.1,143,387.1z M143.1,390.6c-0.6,0-1,0.4-1,1s0.4,1,1,1s1-0.4,1-1S143.7,390.6,143.1,390.6z M143.9,393.9
		c-0.6,0-1,0.4-1,1s0.4,1,1,1s1-0.4,1-1C144.9,394.3,144.4,393.9,143.9,393.9z M145.4,396.7c-0.6,0-1,0.4-1,1s0.4,1,1,1s1-0.4,1-1
		C146.5,397.2,145.9,396.7,145.4,396.7z M142,398.3c-0.6,0-1,0.4-1,1s0.4,1,1,1s1-0.4,1-1C143.1,398.7,142.7,398.3,142,398.3z
		 M139.3,400.4c-0.6,0-1,0.4-1,1s0.4,1,1,1s1-0.4,1-1C140.3,400.8,139.8,400.4,139.3,400.4z M137,402.8c-0.6,0-1,0.4-1,1s0.5,1,1,1
		c0.6,0,1-0.4,1-1C138,403.3,137.6,402.8,137,402.8z M135.2,405.5c-0.6,0-1,0.4-1,1s0.4,1,1,1s1-0.4,1-1
		C136.2,406,135.8,405.5,135.2,405.5z M131.6,404.9c-0.6,0-1,0.4-1,1s0.4,1,1,1s1-0.4,1-1S132.1,404.9,131.6,404.9z M128.4,403.9
		c-0.6,0-1,0.4-1,1s0.5,1,1,1c0.6,0,1-0.5,1-1C129.4,404.3,128.9,403.9,128.4,403.9z M125.4,402.6c-0.6,0-1,0.4-1,1s0.4,1,1,1
		s1-0.4,1-1C126.5,403.1,126,402.6,125.4,402.6z M127,399.2c-0.6,0-1,0.4-1,1s0.4,1,1,1s1-0.4,1-1C128,399.7,127.6,399.2,127,399.2z
		 M130,400.7c-0.6,0-1,0.4-1,1s0.4,1,1,1s1-0.4,1-1S130.5,400.7,130,400.7z M133.2,401.9c-0.6,0-1,0.4-1,1s0.4,1,1,1s1-0.4,1-1
		C134.3,402.4,133.7,401.9,133.2,401.9z M135.4,399.2c-0.6,0-1,0.4-1,1s0.4,1,1,1s1-0.4,1-1C136.4,399.7,135.9,399.2,135.4,399.2z
		 M137.8,396.9c-0.6,0-1,0.4-1,1s0.4,1,1,1s1-0.4,1-1C138.9,397.4,138.4,396.9,137.8,396.9z M140.6,395.2c-0.6,0-1,0.4-1,1
		s0.4,1,1,1s1-0.4,1-1S141.1,395.2,140.6,395.2z M139.9,391.6c-0.6,0-1,0.4-1,1s0.4,1,1,1s1-0.4,1-1
		C140.9,392.1,140.5,391.6,139.9,391.6z M139.7,387.8c-0.6,0-1,0.4-1,1s0.4,1,1,1s1-0.4,1-1S140.2,387.8,139.7,387.8z M136.5,389.2
		c-0.6,0-1,0.4-1,1s0.4,1,1,1s1-0.4,1-1S137.1,389.2,136.5,389.2z M136.9,393.2c-0.6,0-1,0.4-1,1s0.4,1,1,1s1-0.4,1-1
		C137.9,393.8,137.5,393.2,136.9,393.2z M134.3,395.3c-0.6,0-1,0.4-1,1s0.4,1,1,1s1-0.4,1-1C135.3,395.8,134.8,395.3,134.3,395.3z
		 M133.7,391.1c-0.6,0-1,0.4-1,1s0.4,1,1,1s1-0.4,1-1S134.3,391.1,133.7,391.1z M131.2,393.4c-0.6,0-1,0.4-1,1s0.4,1,1,1s1-0.4,1-1
		C132.3,393.9,131.8,393.4,131.2,393.4z M129,396.2c-0.6,0-1,0.4-1,1s0.4,1,1,1s1-0.4,1-1C130.1,396.6,129.5,396.2,129,396.2z
		 M131.9,397.9c-0.6,0-1,0.4-1,1s0.4,1,1,1s1-0.4,1-1C132.9,398.3,132.5,397.9,131.9,397.9z M147.5,399.2c-0.6,0-1,0.4-1,1
		s0.5,1,1,1c0.6,0,1-0.4,1-1C148.5,399.7,148,399.2,147.5,399.2z M146.5,403.1c-0.6,0-1,0.4-1,1s0.4,1,1,1s1-0.4,1-1
		C147.5,403.6,147,403.1,146.5,403.1z M143.8,405.6c-0.6,0-1,0.4-1,1s0.4,1,1,1s1-0.4,1-1S144.3,405.6,143.8,405.6z M141.3,403.3
		c-0.6,0-1,0.4-1,1s0.4,1,1,1s1-0.4,1-1C142.4,403.7,141.8,403.3,141.3,403.3z M144,401c-0.6,0-1,0.4-1,1s0.4,1,1,1s1-0.4,1-1
		S144.6,401,144,401z M139.2,405.9c-0.6,0-1,0.4-1,1s0.4,1,1,1s1-0.4,1-1C140.2,406.5,139.8,405.9,139.2,405.9z M149.5,408.4
		c-0.6,0-1,0.4-1,1s0.4,1,1,1s1-0.4,1-1C150.5,408.9,150,408.4,149.5,408.4z M151,412.3c-0.6,0-1,0.4-1,1s0.4,1,1,1s1-0.4,1-1
		S151.5,412.3,151,412.3z M147.7,411.7c-0.6,0-1,0.4-1,1s0.5,1,1,1c0.6,0,1-0.4,1-1C148.7,412.2,148.3,411.7,147.7,411.7z
		 M144.6,410.5c-0.6,0-1,0.4-1,1s0.4,1,1,1s1-0.4,1-1C145.6,411,145.2,410.5,144.6,410.5z M140.4,411.6c-0.6,0-1,0.4-1,1s0.4,1,1,1
		s1-0.4,1-1C141.4,412.1,141,411.6,140.4,411.6z M143.4,413.7c-0.6,0-1,0.4-1,1s0.4,1,1,1s1-0.4,1-1S144,413.7,143.4,413.7z
		 M146.7,415.2c-0.6,0-1,0.4-1,1s0.4,1,1,1s1-0.4,1-1S147.3,415.2,146.7,415.2z M150.1,415.9c-0.6,0-1,0.4-1,1s0.4,1,1,1s1-0.4,1-1
		C151.2,416.4,150.7,415.9,150.1,415.9z M153.3,416c-0.6,0-1,0.5-1,1c0,0.6,0.4,1,1,1s1-0.4,1-1S153.9,416,153.3,416z M130.4,408.2
		c-0.6,0-1,0.4-1,1s0.4,1,1,1s1-0.4,1-1S131,408.2,130.4,408.2z M127.2,407.4c-0.6,0-1,0.4-1,1s0.4,1,1,1s1-0.4,1-1
		C128.2,407.9,127.8,407.4,127.2,407.4z M124.2,406.3c-0.6,0-1,0.5-1,1c0,0.6,0.4,1,1,1s1-0.4,1-1
		C125.2,406.8,124.8,406.3,124.2,406.3z M123.5,410.1c-0.6,0-1,0.4-1,1s0.4,1,1,1s1-0.4,1-1C124.5,410.6,124,410.1,123.5,410.1z
		 M126.5,411.1c-0.6,0-1,0.4-1,1s0.4,1,1,1s1-0.4,1-1C127.5,411.6,127.1,411.1,126.5,411.1z M129.6,411.8c-0.6,0-1,0.4-1,1
		s0.4,1,1,1s1-0.4,1-1C130.7,412.2,130.2,411.8,129.6,411.8z M132.9,412.1c-0.6,0-1,0.4-1,1s0.4,1,1,1s1-0.4,1-1
		C133.9,412.6,133.5,412.1,132.9,412.1z M123.1,414.1c-0.6,0-1,0.4-1,1s0.4,1,1,1s1-0.4,1-1C124.1,414.6,123.7,414.1,123.1,414.1z
		 M126.2,415c-0.6,0-1,0.4-1,1s0.4,1,1,1s1-0.5,1-1C127.2,415.4,126.8,415,126.2,415z M129.2,415.5c-0.6,0-1,0.4-1,1s0.4,1,1,1
		s1-0.4,1-1C130.3,415.9,129.8,415.5,129.2,415.5z M132.5,415.7c-0.6,0-1,0.4-1,1s0.4,1,1,1s1-0.4,1-1S133.1,415.7,132.5,415.7z
		 M135.9,415.5c-0.6,0-1,0.4-1,1s0.4,1,1,1s1-0.4,1-1S136.5,415.5,135.9,415.5z M139.3,418.2c-0.6,0-1,0.4-1,1s0.4,1,1,1s1-0.4,1-1
		C140.3,418.7,139.9,418.2,139.3,418.2z M135.9,419c-0.6,0-1,0.4-1,1s0.4,1,1,1s1-0.4,1-1C136.9,419.5,136.5,419,135.9,419z
		 M132.5,419.3c-0.6,0-1,0.4-1,1s0.4,1,1,1s1-0.4,1-1S133.1,419.3,132.5,419.3z M129.4,419.3c-0.6,0-1,0.4-1,1s0.4,1,1,1s1-0.4,1-1
		S130,419.3,129.4,419.3z M126.3,418.9c-0.6,0-1,0.4-1,1s0.4,1,1,1s1-0.4,1-1S126.8,418.9,126.3,418.9z M130,423.1c-0.6,0-1,0.4-1,1
		s0.4,1,1,1s1-0.4,1-1C131,423.6,130.6,423.1,130,423.1z M133,423c-0.6,0-1,0.4-1,1s0.4,1,1,1s1-0.4,1-1
		C134.1,423.5,133.6,423,133,423z M136.3,422.4c-0.6,0-1,0.4-1,1s0.4,1,1,1s1-0.4,1-1C137.3,423,136.9,422.4,136.3,422.4z
		 M139.6,421.6c-0.6,0-1,0.4-1,1s0.4,1,1,1s1-0.4,1-1C140.6,422.1,140.1,421.6,139.6,421.6z M131,427c-0.6,0-1,0.4-1,1s0.4,1,1,1
		s1-0.4,1-1C132,427.5,131.5,427,131,427z M134.2,426.7c-0.6,0-1,0.4-1,1s0.4,1,1,1s1-0.4,1-1S134.7,426.7,134.2,426.7z
		 M137.2,426.1c-0.6,0-1,0.4-1,1s0.4,1,1,1s1-0.4,1-1C138.3,426.5,137.7,426.1,137.2,426.1z M140.3,425c-0.6,0-1,0.4-1,1s0.4,1,1,1
		s1-0.4,1-1C141.3,425.5,140.9,425,140.3,425z M143.5,423.7c-0.6,0-1,0.4-1,1s0.4,1,1,1s1-0.4,1-1
		C144.5,424.2,144,423.7,143.5,423.7z M147.6,425.1c-0.6,0-1,0.4-1,1s0.4,1,1,1s1-0.4,1-1C148.6,425.6,148.2,425.1,147.6,425.1z
		 M142.9,420.4c-0.6,0-1,0.4-1,1s0.4,1,1,1s1-0.4,1-1C143.9,420.8,143.5,420.4,142.9,420.4z M146.7,421.8c-0.5,0-1,0.4-1,1
		s0.5,1,1,1c0.6,0,1-0.4,1-1S147.3,421.8,146.7,421.8z M150.4,422.6c-0.6,0-1,0.4-1,1s0.4,1,1,1s1-0.4,1-1S151.1,422.6,150.4,422.6z
		 M154.2,422.9c-0.6,0-1,0.4-1,1s0.4,1,1,1s1-0.4,1-1S154.8,422.9,154.2,422.9z M157.9,422.3c-0.6,0-1,0.4-1,1s0.4,1,1,1s1-0.4,1-1
		C159,422.8,158.4,422.3,157.9,422.3z M161.2,421.2c-0.6,0-1,0.4-1,1s0.4,1,1,1s1-0.4,1-1C162.2,421.7,161.7,421.2,161.2,421.2z
		 M162.9,424.1c-0.6,0-1,0.4-1,1s0.4,1,1,1s1-0.4,1-1C164,424.6,163.6,424.1,162.9,424.1z M165.2,426.6c-0.6,0-1,0.4-1,1s0.4,1,1,1
		s1-0.4,1-1S165.8,426.6,165.2,426.6z M167.9,428.7c-0.6,0-1,0.4-1,1s0.4,1,1,1s1-0.4,1-1S168.5,428.7,167.9,428.7z M170.9,430.2
		c-0.6,0-1,0.4-1,1s0.4,1,1,1s1-0.4,1-1C172,430.6,171.5,430.2,170.9,430.2z M174.2,431.5c-0.6,0-1,0.4-1,1s0.4,1,1,1s1-0.5,1-1
		C175.2,431.9,174.7,431.5,174.2,431.5z M177.6,432.2c-0.6,0-1,0.4-1,1s0.4,1,1,1s1-0.4,1-1S178.2,432.2,177.6,432.2z M181.3,432.5
		c-0.6,0-1,0.4-1,1s0.4,1,1,1s1-0.4,1-1S181.9,432.5,181.3,432.5z M185,432.2c-0.6,0-1,0.4-1,1s0.4,1,1,1s1-0.4,1-1
		C186,432.7,185.6,432.2,185,432.2z M188.9,431.5c-0.6,0-1,0.4-1,1s0.4,1,1,1s1-0.4,1-1C189.9,432,189.4,431.5,188.9,431.5z
		 M188.9,434.6c-0.6,0-1,0.4-1,1s0.4,1,1,1s1-0.4,1-1S189.4,434.6,188.9,434.6z M184.9,435.4c-0.6,0-1,0.4-1,1s0.4,1,1,1s1-0.4,1-1
		C185.9,435.9,185.5,435.4,184.9,435.4z M181,435.6c-0.6,0-1,0.4-1,1s0.4,1,1,1s1-0.4,1-1C182,436.1,181.6,435.6,181,435.6z
		 M177.2,435.4c-0.6,0-1,0.4-1,1s0.5,1,1,1c0.6,0,1-0.4,1-1C178.2,435.9,177.7,435.4,177.2,435.4z M173.5,434.7c-0.6,0-1,0.4-1,1
		s0.4,1,1,1s1-0.4,1-1C174.5,435.3,174,434.7,173.5,434.7z M170.1,433.6c-0.6,0-1,0.4-1,1s0.4,1,1,1s1-0.4,1-1
		C171.1,434.1,170.6,433.6,170.1,433.6z M166.9,432.2c-0.6,0-1,0.4-1,1s0.4,1,1,1s1-0.4,1-1C168,432.6,167.5,432.2,166.9,432.2z
		 M164,430.2c-0.6,0-1,0.4-1,1s0.4,1,1,1s1-0.4,1-1S164.6,430.2,164,430.2z M162.5,433.4c-0.6,0-1,0.4-1,1s0.4,1,1,1s1-0.4,1-1
		C163.6,433.9,163.2,433.4,162.5,433.4z M160.8,436.2c-0.6,0-1,0.4-1,1s0.4,1,1,1s1-0.4,1-1C161.8,436.7,161.4,436.2,160.8,436.2z
		 M158.8,438.7c-0.6,0-1,0.4-1,1s0.4,1,1,1s1-0.4,1-1C159.9,439.2,159.4,438.7,158.8,438.7z M156.6,441c-0.6,0-1,0.4-1,1s0.4,1,1,1
		s1-0.4,1-1C157.7,441.5,157.2,441,156.6,441z M162.2,440.7c-0.6,0-1,0.4-1,1s0.4,1,1,1s1-0.4,1-1
		C163.3,441.2,162.7,440.7,162.2,440.7z M165.8,442.1c-0.6,0-1,0.4-1,1s0.4,1,1,1s1-0.4,1-1C166.8,442.6,166.4,442.1,165.8,442.1z
		 M167.6,439.6c-0.6,0-1,0.4-1,1s0.4,1,1,1s1-0.4,1-1S168.1,439.6,167.6,439.6z M168.9,436.8c-0.6,0-1,0.4-1,1s0.4,1,1,1s1-0.4,1-1
		S169.5,436.8,168.9,436.8z M172.6,437.8c-0.6,0-1,0.4-1,1s0.4,1,1,1s1-0.4,1-1S173.2,437.8,172.6,437.8z M171.4,440.7
		c-0.6,0-1,0.4-1,1s0.4,1,1,1s1-0.4,1-1S171.9,440.7,171.4,440.7z M175.3,441.3c-0.6,0-1,0.4-1,1s0.4,1,1,1s1-0.4,1-1
		C176.4,441.8,175.9,441.3,175.3,441.3z M176.5,438.4c-0.6,0-1,0.4-1,1s0.4,1,1,1s1-0.4,1-1C177.5,438.9,177,438.4,176.5,438.4z
		 M180.4,438.7c-0.6,0-1,0.4-1,1s0.4,1,1,1s1-0.4,1-1S180.9,438.7,180.4,438.7z M165.6,435.3c-0.6,0-1,0.4-1,1s0.4,1,1,1s1-0.4,1-1
		C166.6,435.8,166.2,435.3,165.6,435.3z M164,438c-0.6,0-1,0.4-1,1s0.4,1,1,1s1-0.4,1-1C165,438.5,164.6,438,164,438z M192.6,430.4
		c-0.6,0-1,0.4-1,1s0.4,1,1,1s1-0.4,1-1S193.1,430.4,192.6,430.4z M161.5,428c-0.6,0-1,0.4-1,1s0.4,1,1,1s1-0.4,1-1
		S162.1,428,161.5,428z M159.8,431.3c-0.6,0-1,0.4-1,1s0.4,1,1,1s1-0.4,1-1S160.4,431.3,159.8,431.3z M157.9,434c-0.6,0-1,0.5-1,1
		c0,0.6,0.4,1,1,1s1-0.4,1-1S158.4,434,157.9,434z M155.9,436.6c-0.6,0-1,0.4-1,1s0.4,1,1,1s1-0.4,1-1S156.4,436.6,155.9,436.6z
		 M153.5,438.7c-0.6,0-1,0.4-1,1s0.4,1,1,1s1-0.4,1-1S154,438.7,153.5,438.7z M151.1,440.6c-0.6,0-1,0.4-1,1s0.4,1,1,1s1-0.4,1-1
		S151.6,440.6,151.1,440.6z M148,437.8c-0.6,0-1,0.4-1,1s0.4,1,1,1s1-0.4,1-1C149,438.3,148.6,437.8,148,437.8z M142.7,436.3
		c-0.6,0-1,0.4-1,1s0.4,1,1,1s1-0.4,1-1C143.7,436.8,143.3,436.3,142.7,436.3z M140.4,433c-0.6,0-1,0.4-1,1s0.5,1,1,1
		c0.6,0,1-0.4,1-1C141.4,433.5,140.9,433,140.4,433z M135.6,430.3c-0.6,0-1,0.4-1,1s0.4,1,1,1s1-0.5,1-1S136.1,430.3,135.6,430.3z
		 M138.6,429.6c-0.6,0-1,0.4-1,1s0.4,1,1,1s1-0.4,1-1S139.1,429.6,138.6,429.6z M141.5,428.5c-0.6,0-1,0.4-1,1s0.4,1,1,1s1-0.4,1-1
		C142.6,428.9,142.1,428.5,141.5,428.5z M143.3,431.8c-0.6,0-1,0.4-1,1s0.4,1,1,1s1-0.4,1-1S143.9,431.8,143.3,431.8z M146.1,430.2
		c-0.6,0-1,0.4-1,1s0.4,1,1,1s1-0.4,1-1C147.2,430.6,146.8,430.2,146.1,430.2z M148.9,428.3c-0.6,0-1,0.4-1,1s0.4,1,1,1s1-0.4,1-1
		S149.4,428.3,148.9,428.3z M151.7,425.9c-0.6,0-1,0.4-1,1s0.4,1,1,1s1-0.4,1-1C152.7,426.3,152.2,425.9,151.7,425.9z M155.6,425.9
		c-0.6,0-1,0.4-1,1s0.4,1,1,1s1-0.4,1-1C156.6,426.3,156.2,425.9,155.6,425.9z M153.3,428.9c-0.6,0-1,0.4-1,1s0.4,1,1,1s1-0.4,1-1
		C154.3,429.3,153.8,428.9,153.3,428.9z M150.8,431.3c-0.6,0-1,0.4-1,1s0.4,1,1,1s1-0.4,1-1S151.4,431.3,150.8,431.3z M148.1,433.2
		c-0.6,0-1,0.4-1,1s0.4,1,1,1s1-0.4,1-1C149.2,433.7,148.7,433.2,148.1,433.2z M150.5,436.1c-0.6,0-1,0.4-1,1s0.4,1,1,1s1-0.4,1-1
		S151.2,436.1,150.5,436.1z M153.1,434c-0.6,0-1,0.4-1,1s0.4,1,1,1s1-0.4,1-1S153.6,434,153.1,434z M155.4,431.6c-0.6,0-1,0.4-1,1
		s0.4,1,1,1s1-0.4,1-1S156,431.6,155.4,431.6z M157.5,428.7c-0.6,0-1,0.4-1,1s0.4,1,1,1s1-0.4,1-1S158,428.7,157.5,428.7z
		 M159.5,425.3c-0.6,0-1,0.4-1,1s0.4,1,1,1s1-0.4,1-1S160,425.3,159.5,425.3z M145.5,434.9c-0.6,0-1,0.4-1,1s0.4,1,1,1s1-0.4,1-1
		C146.6,435.5,146,434.9,145.5,434.9z M144.6,427c-0.6,0-1,0.4-1,1s0.4,1,1,1s1-0.4,1-1C145.6,427.5,145.1,427,144.6,427z
		 M146.9,383.4c-0.6,0-1,0.4-1,1s0.4,1,1,1s1-0.4,1-1C147.9,383.9,147.4,383.4,146.9,383.4z M143.4,383.4c-0.6,0-1,0.4-1,1
		s0.4,1,1,1s1-0.4,1-1C144.4,383.9,144,383.4,143.4,383.4z M140.2,383.9c-0.6,0-1,0.4-1,1s0.4,1,1,1s1-0.4,1-1
		C141.2,384.4,140.7,383.9,140.2,383.9z M136.9,385.1c-0.6,0-1,0.4-1,1s0.4,1,1,1s1-0.4,1-1C137.9,385.7,137.5,385.1,136.9,385.1z
		 M133.9,386.7c-0.6,0-1,0.4-1,1s0.4,1,1,1s1-0.4,1-1C135,387.2,134.5,386.7,133.9,386.7z M131.1,388.8c-0.6,0-1,0.4-1,1s0.4,1,1,1
		s1-0.4,1-1S131.7,388.8,131.1,388.8z M128.5,391.3c-0.6,0-1,0.4-1,1s0.4,1,1,1c0.6,0,1-0.4,1-1
		C129.5,391.8,129.1,391.3,128.5,391.3z M126.3,394.2c-0.6,0-1,0.4-1,1s0.4,1,1,1s1-0.4,1-1C127.3,394.7,126.8,394.2,126.3,394.2z
		 M124.3,397.4c-0.6,0-1,0.4-1,1s0.4,1,1,1s1-0.4,1-1C125.3,398,124.8,397.4,124.3,397.4z M122.7,401c-0.6,0-1,0.4-1,1s0.4,1,1,1
		s1-0.4,1-1S123.2,401,122.7,401z M121.4,404.8c-0.6,0-1,0.4-1,1s0.4,1,1,1s1-0.4,1-1C122.5,405.3,122.1,404.8,121.4,404.8z
		 M141.2,363.4c-0.6,0-1,0.4-1,1s0.4,1,1,1s1-0.4,1-1S141.7,363.4,141.2,363.4z M141.1,366.5c-0.6,0-1,0.4-1,1s0.4,1,1,1s1-0.4,1-1
		C142.1,367,141.6,366.5,141.1,366.5z M137.4,367.4c-0.6,0-1,0.4-1,1s0.4,1,1,1s1-0.4,1-1C138.5,367.9,137.9,367.4,137.4,367.4z
		 M133.5,368.9c-0.6,0-1,0.4-1,1s0.4,1,1,1s1-0.4,1-1C134.6,369.3,134.2,368.9,133.5,368.9z M155.2,371.2c-0.6,0-1,0.4-1,1
		s0.4,1,1,1s1-0.4,1-1C156.2,371.7,155.8,371.2,155.2,371.2z M151.9,370.1c-0.6,0-1,0.4-1,1s0.4,1,1,1s1-0.4,1-1
		C152.9,370.6,152.5,370.1,151.9,370.1z M148.6,369.5c-0.6,0-1,0.4-1,1s0.4,1,1,1s1-0.4,1-1S149.1,369.5,148.6,369.5z M148.9,373.1
		c-0.6,0-1,0.4-1,1s0.4,1,1,1s1-0.4,1-1S149.5,373.1,148.9,373.1z M155.3,375.2c-0.6,0-1,0.4-1,1s0.4,1,1,1s1-0.4,1-1
		S155.9,375.2,155.3,375.2z M152.2,373.8c-0.6,0-1,0.4-1,1s0.4,1,1,1s1-0.4,1-1C153.2,374.3,152.8,373.8,152.2,373.8z M169.5,368.5
		c-0.6,0-1,0.4-1,1s0.4,1,1,1s1-0.4,1-1C170.5,369.1,170,368.5,169.5,368.5z M184.2,360.7c-0.6,0-1,0.4-1,1s0.4,1,1,1s1-0.4,1-1
		C185.2,361.2,184.8,360.7,184.2,360.7z M161.6,394.6c-0.6,0-1,0.4-1,1s0.4,1,1,1s1-0.4,1-1C162.6,395.1,162.2,394.6,161.6,394.6z
		 M173.1,395.1c-0.6,0-1,0.4-1,1s0.4,1,1,1s1-0.4,1-1S173.7,395.1,173.1,395.1z M179.9,396.4c-0.6,0-1,0.5-1,1c0,0.6,0.4,1,1,1
		s1-0.4,1-1C180.9,396.9,180.5,396.4,179.9,396.4z M182.4,398.5c-0.6,0-1,0.4-1,1s0.4,1,1,1s1-0.4,1-1S183,398.5,182.4,398.5z
		 M184.5,401c-0.6,0-1,0.4-1,1s0.4,1,1,1s1-0.4,1-1S185.1,401,184.5,401z M185.8,404c-0.6,0-1,0.4-1,1s0.4,1,1,1s1-0.4,1-1
		C186.8,404.5,186.4,404,185.8,404z M186.6,407.5c-0.6,0-1,0.4-1,1s0.4,1,1,1s1-0.4,1-1C187.6,408,187.1,407.5,186.6,407.5z
		 M190,409.9c-0.6,0-1,0.4-1,1s0.4,1,1,1s1-0.4,1-1C191,410.5,190.5,409.9,190,409.9z M193,408.3c-0.6,0-1,0.4-1,1s0.4,1,1,1
		s1-0.4,1-1C194,408.8,193.6,408.3,193,408.3z M195.6,406.4c-0.6,0-1,0.4-1,1s0.4,1,1,1s1-0.4,1-1S196.3,406.4,195.6,406.4z
		 M198.1,403.8c-0.6,0-1,0.4-1,1s0.4,1,1,1s1-0.4,1-1S198.6,403.8,198.1,403.8z M200.1,400.9c-0.6,0-1,0.4-1,1s0.4,1,1,1s1-0.4,1-1
		S200.8,400.9,200.1,400.9z M201.9,397.6c-0.6,0-1,0.4-1,1s0.4,1,1,1s1-0.4,1-1C202.9,398.1,202.5,397.6,201.9,397.6z M203.2,394.1
		c-0.6,0-1,0.4-1,1s0.4,1,1,1s1-0.4,1-1C204.2,394.6,203.7,394.1,203.2,394.1z M204.1,390.4c-0.6,0-1,0.4-1,1s0.4,1,1,1s1-0.4,1-1
		C205.2,390.8,204.8,390.4,204.1,390.4z M204.9,386.4c-0.6,0-1,0.4-1,1s0.4,1,1,1s1-0.4,1-1C205.9,386.9,205.4,386.4,204.9,386.4z
		 M201.8,385.5c-0.6,0-1,0.4-1,1s0.4,1,1,1s1-0.4,1-1C202.8,386,202.4,385.5,201.8,385.5z M201.9,381.6c-0.6,0-1,0.4-1,1s0.4,1,1,1
		s1-0.4,1-1C202.9,382.1,202.5,381.6,201.9,381.6z M201.6,377.6c-0.6,0-1,0.4-1,1s0.4,1,1,1s1-0.4,1-1S202.1,377.6,201.6,377.6z
		 M198.6,384.8c-0.6,0-1,0.4-1,1s0.4,1,1,1s1-0.4,1-1C199.6,385.3,199.2,384.8,198.6,384.8z M198.8,381.1c-0.6,0-1,0.4-1,1
		s0.4,1,1,1s1-0.4,1-1S199.3,381.1,198.8,381.1z M198.4,377.3c-0.6,0-1,0.4-1,1s0.4,1,1,1s1-0.4,1-1
		C199.4,377.8,198.9,377.3,198.4,377.3z M197.7,373.5c-0.6,0-1,0.4-1,1s0.4,1,1,1s1-0.4,1-1C198.7,374,198.3,373.5,197.7,373.5z
		 M194.5,373.6c-0.6,0-1,0.4-1,1s0.4,1,1,1s1-0.4,1-1C195.5,374.1,195.1,373.6,194.5,373.6z M195.2,377.4c-0.6,0-1,0.4-1,1
		s0.4,1,1,1s1-0.4,1-1C196.3,377.9,195.8,377.4,195.2,377.4z M195.5,381c-0.6,0-1,0.4-1,1s0.4,1,1,1s1-0.4,1-1S196,381,195.5,381z
		 M192.3,381.4c-0.6,0-1,0.4-1,1s0.4,1,1,1s1-0.4,1-1S192.9,381.4,192.3,381.4z M191.9,377.8c-0.6,0-1,0.4-1,1s0.4,1,1,1s1-0.4,1-1
		C193,378.2,192.6,377.8,191.9,377.8z M191.3,374.2c-0.6,0-1,0.4-1,1s0.4,1,1,1s1-0.4,1-1C192.4,374.6,191.9,374.2,191.3,374.2z
		 M190.2,370.7c-0.6,0-1,0.4-1,1s0.4,1,1,1s1-0.4,1-1S190.8,370.7,190.2,370.7z M188.7,367.1c-0.6,0-1,0.4-1,1s0.4,1,1,1s1-0.4,1-1
		C189.7,367.6,189.2,367.1,188.7,367.1z M186.6,363.7c-0.6,0-1,0.4-1,1s0.4,1,1,1s1-0.4,1-1C187.6,364.2,187.2,363.7,186.6,363.7z
		 M193.4,369.9c-0.6,0-1,0.4-1,1s0.4,1,1,1s1-0.4,1-1C194.4,370.4,194,369.9,193.4,369.9z M191.7,366.3c-0.6,0-1,0.4-1,1s0.4,1,1,1
		s1-0.4,1-1C192.8,366.8,192.3,366.3,191.7,366.3z M195.3,384.5c-0.6,0-1,0.4-1,1s0.4,1,1,1s1-0.4,1-1
		C196.4,384.9,195.8,384.5,195.3,384.5z M191.8,384.7c-0.6,0-1,0.4-1,1s0.4,1,1,1s1-0.4,1-1C192.9,385.2,192.5,384.7,191.8,384.7z
		 M188.2,385.2c-0.6,0-1,0.4-1,1s0.4,1,1,1s1-0.4,1-1S188.7,385.2,188.2,385.2z M188.7,381.9c-0.6,0-1,0.4-1,1s0.4,1,1,1s1-0.4,1-1
		C189.7,382.4,189.3,381.9,188.7,381.9z M188.7,378.6c-0.6,0-1,0.4-1,1s0.4,1,1,1s1-0.4,1-1S189.3,378.6,188.7,378.6z M188.2,375.1
		c-0.6,0-1,0.4-1,1s0.4,1,1,1s1-0.4,1-1S188.7,375.1,188.2,375.1z M187.1,371.6c-0.6,0-1,0.4-1,1s0.4,1,1,1s1-0.4,1-1
		C188.2,372.1,187.7,371.6,187.1,371.6z M185.6,368.2c-0.6,0-1,0.4-1,1s0.4,1,1,1s1-0.4,1-1S186.2,368.2,185.6,368.2z M183.8,365.1
		c-0.6,0-1,0.4-1,1s0.4,1,1,1s1-0.4,1-1C184.8,365.6,184.3,365.1,183.8,365.1z M187.1,388.5c-0.6,0-1,0.4-1,1s0.4,1,1,1s1-0.4,1-1
		C188.2,388.9,187.6,388.5,187.1,388.5z M185.4,391.5c-0.6,0-1,0.4-1,1s0.4,1,1,1s1-0.4,1-1S186,391.5,185.4,391.5z M183,394.1
		c-0.6,0-1,0.4-1,1s0.4,1,1,1s1-0.4,1-1C184.1,394.6,183.6,394.1,183,394.1z M185.4,396.4c-0.6,0-1,0.5-1,1c0,0.6,0.4,1,1,1
		s1-0.4,1-1C186.4,396.9,186,396.4,185.4,396.4z M187.5,399.3c-0.6,0-1,0.4-1,1s0.4,1,1,1s1-0.4,1-1S188.1,399.3,187.5,399.3z
		 M189,402.5c-0.6,0-1,0.4-1,1s0.4,1,1,1s1-0.4,1-1C190,403,189.5,402.5,189,402.5z M191.5,400.4c-0.6,0-1,0.4-1,1s0.4,1,1,1
		s1-0.4,1-1C192.6,400.8,192.1,400.4,191.5,400.4z M193.8,398c-0.6,0-1,0.4-1,1s0.4,1,1,1s1-0.4,1-1
		C194.8,398.5,194.3,398,193.8,398z M192.1,394.4c-0.6,0-1,0.4-1,1s0.4,1,1,1s1-0.4,1-1C193.1,394.8,192.6,394.4,192.1,394.4z
		 M189.7,391.1c-0.6,0-1,0.4-1,1s0.4,1,1,1s1-0.4,1-1S190.3,391.1,189.7,391.1z M191.1,388c-0.6,0-1,0.4-1,1s0.4,1,1,1s1-0.4,1-1
		C192.2,388.4,191.6,388,191.1,388z M194.7,388.1c-0.6,0-1,0.4-1,1s0.4,1,1,1s1-0.4,1-1S195.2,388.1,194.7,388.1z M193.6,391.3
		c-0.6,0-1,0.4-1,1s0.4,1,1,1s1-0.4,1-1C194.6,391.8,194.2,391.3,193.6,391.3z M195.7,395.1c-0.6,0-1,0.4-1,1s0.4,1,1,1s1-0.4,1-1
		C196.8,395.5,196.3,395.1,195.7,395.1z M197.1,392c-0.6,0-1,0.4-1,1s0.4,1,1,1s1-0.4,1-1S197.7,392,197.1,392z M198.1,388.5
		c-0.6,0-1,0.4-1,1s0.4,1,1,1s1-0.4,1-1S198.6,388.5,198.1,388.5z M190,396.9c-0.6,0-1,0.4-1,1s0.4,1,1,1s1-0.4,1-1
		S190.5,396.9,190,396.9z M187.8,393.9c-0.6,0-1,0.4-1,1s0.4,1,1,1s1-0.4,1-1C188.9,394.4,188.5,393.9,187.8,393.9z M189.8,406
		c-0.6,0-1,0.4-1,1s0.4,1,1,1s1-0.4,1-1C190.8,406.6,190.4,406,189.8,406z M192.5,404.3c-0.6,0-1,0.4-1,1s0.4,1,1,1s1-0.4,1-1
		S193.1,404.3,192.5,404.3z M195,401.9c-0.6,0-1,0.4-1,1s0.4,1,1,1s1-0.4,1-1C196,402.4,195.6,401.9,195,401.9z M197.2,399.2
		c-0.6,0-1,0.4-1,1s0.4,1,1,1s1-0.4,1-1S197.8,399.2,197.2,399.2z M199,396.2c-0.6,0-1,0.4-1,1s0.5,1,1,1c0.6,0,1-0.4,1-1
		S199.5,396.2,199,396.2z M200.2,392.7c-0.6,0-1,0.4-1,1s0.4,1,1,1s1-0.4,1-1C201.3,393.2,200.9,392.7,200.2,392.7z M201.2,389.2
		c-0.6,0-1,0.4-1,1s0.4,1,1,1s1-0.4,1-1C202.2,389.8,201.8,389.2,201.2,389.2z M192.7,412.6c-0.6,0-1,0.4-1,1s0.4,1,1,1s1-0.4,1-1
		S193.3,412.6,192.7,412.6z M194.9,415.3c-0.6,0-1,0.4-1,1s0.4,1,1,1s1-0.4,1-1C195.9,415.8,195.4,415.3,194.9,415.3z M196.7,418.1
		c-0.6,0-1,0.4-1,1s0.4,1,1,1s1-0.4,1-1S197.3,418.1,196.7,418.1z M198,420.8c-0.6,0-1,0.4-1,1s0.4,1,1,1s1-0.4,1-1
		C199,421.3,198.6,420.8,198,420.8z M201.2,418.7c-0.6,0-1,0.4-1,1s0.4,1,1,1s1-0.4,1-1S201.8,418.7,201.2,418.7z M199.6,415.9
		c-0.6,0-1,0.4-1,1s0.4,1,1,1s1-0.4,1-1C200.7,416.4,200.1,415.9,199.6,415.9z M204.1,415.8c-0.6,0-1,0.4-1,1s0.4,1,1,1s1-0.4,1-1
		C205.2,416.2,204.8,415.8,204.1,415.8z M202.6,413.2c-0.6,0-1,0.4-1,1s0.4,1,1,1s1-0.4,1-1S203.1,413.2,202.6,413.2z M200.6,410.8
		c-0.6,0-1,0.4-1,1s0.4,1,1,1s1-0.4,1-1S201.1,410.8,200.6,410.8z M197.8,413.2c-0.6,0-1,0.4-1,1s0.4,1,1,1s1-0.4,1-1
		C198.8,413.7,198.4,413.2,197.8,413.2z M195.5,410.7c-0.6,0-1,0.4-1,1s0.4,1,1,1s1-0.4,1-1C196.6,411.2,196,410.7,195.5,410.7z
		 M198.3,408.4c-0.6,0-1,0.4-1,1s0.4,1,1,1s1-0.4,1-1S198.8,408.4,198.3,408.4z M200.8,405.7c-0.6,0-1,0.4-1,1s0.4,1,1,1s1-0.4,1-1
		C201.8,406.3,201.4,405.7,200.8,405.7z M202.8,402.7c-0.6,0-1,0.4-1,1s0.4,1,1,1s1-0.4,1-1C203.8,403.2,203.4,402.7,202.8,402.7z
		 M204.7,399.3c-0.6,0-1,0.4-1,1s0.4,1,1,1s1-0.4,1-1S205.2,399.3,204.7,399.3z M206,395.6c-0.6,0-1,0.4-1,1s0.4,1,1,1s1-0.4,1-1
		S206.6,395.6,206,395.6z M207,391.6c-0.6,0-1,0.4-1,1s0.4,1,1,1s1-0.4,1-1C208,392.1,207.5,391.6,207,391.6z M203,407.8
		c-0.6,0-1,0.4-1,1s0.4,1,1,1s1-0.4,1-1C204,408.3,203.6,407.8,203,407.8z M205.3,404.6c-0.6,0-1,0.4-1,1s0.4,1,1,1s1-0.4,1-1
		C206.3,405.1,205.8,404.6,205.3,404.6z M207,401.1c-0.6,0-1,0.4-1,1s0.4,1,1,1s1-0.4,1-1S207.5,401.1,207,401.1z M205.2,410.1
		c-0.6,0-1,0.4-1,1s0.4,1,1,1s1-0.4,1-1C206.2,410.6,205.7,410.1,205.2,410.1z M199.1,423.9c-0.6,0-1,0.4-1,1s0.4,1,1,1s1-0.4,1-1
		C200.1,424.4,199.6,423.9,199.1,423.9z M195.7,425.7c-0.6,0-1,0.4-1,1s0.4,1,1,1s1-0.4,1-1C196.8,426.2,196.3,425.7,195.7,425.7z
		 M192.2,427.3c-0.6,0-1,0.4-1,1s0.4,1,1,1s1-0.4,1-1C193.2,427.8,192.8,427.3,192.2,427.3z M188.6,428.3c-0.6,0-1,0.4-1,1
		s0.4,1,1,1s1-0.4,1-1C189.6,428.8,189.1,428.3,188.6,428.3z M184.9,429c-0.6,0-1,0.4-1,1s0.4,1,1,1s1-0.4,1-1S185.4,429,184.9,429z
		 M181.2,429.1c-0.6,0-1,0.4-1,1s0.4,1,1,1s1-0.4,1-1S181.8,429.1,181.2,429.1z M177.7,428.7c-0.6,0-1,0.4-1,1s0.4,1,1,1s1-0.4,1-1
		C178.7,429.2,178.3,428.7,177.7,428.7z M174.4,428c-0.6,0-1,0.4-1,1s0.4,1,1,1s1-0.4,1-1C175.5,428.4,174.9,428,174.4,428z
		 M171.4,426.5c-0.6,0-1,0.4-1,1s0.4,1,1,1s1-0.4,1-1C172.4,427,171.9,426.5,171.4,426.5z M168.5,424.7c-0.6,0-1,0.4-1,1s0.4,1,1,1
		s1-0.5,1-1S169,424.7,168.5,424.7z M166,422.4c-0.6,0-1,0.4-1,1s0.4,1,1,1s1-0.4,1-1C167,422.9,166.5,422.4,166,422.4z M164,419.6
		c-0.6,0-1,0.4-1,1s0.4,1,1,1s1-0.4,1-1S164.6,419.6,164,419.6z M176.2,402.6c-0.6,0-1,0.4-1,1s0.4,1,1,1s1-0.4,1-1
		S176.8,402.6,176.2,402.6z M178.5,399.8c-0.6,0-1,0.4-1,1s0.4,1,1,1s1-0.4,1-1S179,399.8,178.5,399.8z M178.3,405.1
		c-0.6,0-1,0.4-1,1s0.5,1,1,1c0.6,0,1-0.4,1-1S178.9,405.1,178.3,405.1z M180.8,402.3c-0.6,0-1,0.4-1,1s0.4,1,1,1s1-0.4,1-1
		S181.3,402.3,180.8,402.3z M179.5,408.2c-0.6,0-1,0.4-1,1s0.4,1,1,1s1-0.4,1-1C180.6,408.6,180.1,408.2,179.5,408.2z M180,411.4
		c-0.6,0-1,0.4-1,1s0.4,1,1,1s1-0.4,1-1C181,411.9,180.6,411.4,180,411.4z M183.5,411.7c-0.6,0-1,0.4-1,1s0.4,1,1,1s1-0.4,1-1
		C184.6,412.1,184.1,411.7,183.5,411.7z M186.8,411c-0.6,0-1,0.4-1,1s0.4,1,1,1s1-0.4,1-1C187.8,411.5,187.4,411,186.8,411z
		 M183.2,408.2c-0.6,0-1,0.4-1,1s0.4,1,1,1s1-0.4,1-1C184.3,408.6,183.9,408.2,183.2,408.2z M182.4,405c-0.6,0-1,0.4-1,1s0.4,1,1,1
		s1-0.4,1-1C183.4,405.5,183,405,182.4,405z M173.4,404.1c-0.6,0-1,0.4-1,1s0.4,1,1,1s1-0.4,1-1
		C174.4,404.6,173.9,404.1,173.4,404.1z M172.1,408c-0.6,0-1,0.4-1,1s0.4,1,1,1s1-0.4,1-1C173.1,408.5,172.6,408,172.1,408z
		 M169.1,411.3c-0.6,0-1,0.4-1,1s0.4,1,1,1s1-0.4,1-1S169.6,411.3,169.1,411.3z M164.7,413.4c-0.6,0-1,0.4-1,1s0.4,1,1,1s1-0.4,1-1
		C165.7,413.8,165.2,413.4,164.7,413.4z M161.9,411.4c-0.6,0-1,0.4-1,1s0.4,1,1,1s1-0.4,1-1S162.4,411.4,161.9,411.4z M159.6,413.8
		c-0.6,0-1,0.4-1,1s0.4,1,1,1s1-0.4,1-1S160.1,413.8,159.6,413.8z M162.4,416c-0.6,0-1,0.5-1,1c0,0.6,0.4,1,1,1s1-0.4,1-1
		C163.5,416.4,163.1,416,162.4,416z M166.3,417.3c-0.6,0-1,0.4-1,1s0.4,1,1,1s1-0.4,1-1S166.8,417.3,166.3,417.3z M168.7,420.3
		c-0.6,0-1,0.4-1,1s0.4,1,1,1s1-0.4,1-1S169.3,420.3,168.7,420.3z M171.2,422.4c-0.6,0-1,0.4-1,1s0.4,1,1,1s1-0.4,1-1
		C172.3,422.9,171.9,422.4,171.2,422.4z M174.3,424.1c-0.6,0-1,0.4-1,1s0.4,1,1,1s1-0.4,1-1S174.9,424.1,174.3,424.1z M177.5,425.1
		c-0.6,0-1,0.4-1,1s0.4,1,1,1s1-0.4,1-1S178,425.1,177.5,425.1z M180.9,425.7c-0.6,0-1,0.4-1,1s0.4,1,1,1s1-0.4,1-1
		S181.5,425.7,180.9,425.7z M184.4,425.6c-0.6,0-1,0.4-1,1s0.4,1,1,1s1-0.4,1-1S184.9,425.6,184.4,425.6z M187.8,425.2
		c-0.6,0-1,0.4-1,1s0.4,1,1,1s1-0.4,1-1C188.9,425.7,188.5,425.2,187.8,425.2z M191.3,424.2c-0.6,0-1,0.4-1,1s0.4,1,1,1s1-0.4,1-1
		C192.4,424.6,191.9,424.2,191.3,424.2z M194.7,422.9c-0.6,0-1,0.4-1,1s0.4,1,1,1s1-0.4,1-1S195.2,422.9,194.7,422.9z M193.5,419.9
		c-0.6,0-1,0.4-1,1s0.4,1,1,1s1-0.4,1-1C194.5,420.3,194,419.9,193.5,419.9z M190.1,421.1c-0.6,0-1,0.4-1,1s0.4,1,1,1s1-0.4,1-1
		C191.1,421.6,190.7,421.1,190.1,421.1z M186.7,422c-0.6,0-1,0.4-1,1s0.4,1,1,1s1-0.4,1-1S187.3,422,186.7,422z M183.2,422.1
		c-0.6,0-1,0.4-1,1s0.4,1,1,1s1-0.4,1-1C184.3,422.6,183.9,422.1,183.2,422.1z M179.9,421.9c-0.6,0-1,0.4-1,1s0.4,1,1,1s1-0.4,1-1
		C180.9,422.3,180.5,421.9,179.9,421.9z M176.7,421.1c-0.6,0-1,0.4-1,1s0.4,1,1,1s1-0.4,1-1C177.7,421.6,177.2,421.1,176.7,421.1z
		 M173.6,419.7c-0.6,0-1,0.4-1,1s0.4,1,1,1s1-0.4,1-1S174.1,419.7,173.6,419.7z M175.2,416.7c-0.6,0-1,0.4-1,1s0.4,1,1,1s1-0.4,1-1
		S175.8,416.7,175.2,416.7z M178.4,418c-0.6,0-1,0.4-1,1s0.4,1,1,1s1-0.4,1-1S179,418,178.4,418z M181.7,418.7c-0.6,0-1,0.4-1,1
		s0.4,1,1,1s1-0.4,1-1S182.3,418.7,181.7,418.7z M185.1,418.6c-0.6,0-1,0.4-1,1s0.4,1,1,1s1-0.4,1-1S185.7,418.6,185.1,418.6z
		 M188.6,418c-0.6,0-1,0.4-1,1s0.4,1,1,1s1-0.4,1-1S189.1,418,188.6,418z M191.7,416.8c-0.6,0-1,0.4-1,1s0.4,1,1,1s1-0.4,1-1
		C192.8,417.3,192.4,416.8,191.7,416.8z M189.6,413.9c-0.6,0-1,0.4-1,1s0.4,1,1,1s1-0.4,1-1C190.6,414.3,190.1,413.9,189.6,413.9z
		 M186.3,414.8c-0.6,0-1,0.4-1,1s0.4,1,1,1s1-0.4,1-1C187.3,415.3,186.9,414.8,186.3,414.8z M183,415.2c-0.6,0-1,0.4-1,1s0.4,1,1,1
		s1-0.4,1-1S183.5,415.2,183,415.2z M179.5,414.8c-0.6,0-1,0.4-1,1s0.4,1,1,1s1-0.4,1-1S180.1,414.8,179.5,414.8z M176,413.6
		c-0.6,0-1,0.4-1,1s0.4,1,1,1s1-0.5,1-1C177,414,176.5,413.6,176,413.6z M176.2,410.4c-0.6,0-1,0.4-1,1s0.4,1,1,1s1-0.4,1-1
		C177.2,410.8,176.7,410.4,176.2,410.4z M175.3,407.2c-0.6,0-1,0.4-1,1s0.4,1,1,1s1-0.4,1-1S175.9,407.2,175.3,407.2z M168.2,414.6
		c-0.6,0-1,0.4-1,1s0.4,1,1,1s1-0.4,1-1S168.8,414.6,168.2,414.6z M170.7,417.5c-0.6,0-1,0.4-1,1s0.4,1,1,1s1-0.4,1-1
		C171.8,418,171.4,417.5,170.7,417.5z M172.1,414.7c-0.6,0-1,0.4-1,1s0.4,1,1,1s1-0.4,1-1C173.1,415.2,172.6,414.7,172.1,414.7z
		 M172.5,411.5c-0.6,0-1,0.4-1,1s0.4,1,1,1s1-0.4,1-1S173.1,411.5,172.5,411.5z M157.3,411c-0.6,0-1,0.4-1,1s0.4,1,1,1s1-0.4,1-1
		C158.3,411.5,157.8,411,157.3,411z M156.1,407.8c-0.6,0-1,0.4-1,1s0.4,1,1,1s1-0.4,1-1S156.7,407.8,156.1,407.8z M156.6,404.5
		c-0.6,0-1,0.4-1,1s0.4,1,1,1s1-0.4,1-1S157.1,404.5,156.6,404.5z"/>
</g>
</svg>
