<?xml version="1.0" encoding="utf-8"?>
<!-- Generator: Adobe Illustrator 18.0.0, SVG Export Plug-In . SVG Version: 6.00 Build 0)  -->
<!DOCTYPE svg PUBLIC "-//W3C//DTD SVG 1.1//EN" "http://www.w3.org/Graphics/SVG/1.1/DTD/svg11.dtd">
<svg version="1.1" id="Layer_1" xmlns="http://www.w3.org/2000/svg" xmlns:xlink="http://www.w3.org/1999/xlink" x="0px" y="0px"
	 viewBox="-17.7 97.3 58 58" style="enable-background:new -17.7 97.3 58 58;" xml:space="preserve">
<g>
	<circle style="fill:#7D56A3;" cx="11.5" cy="126.5" r="29"/>
	<g style="enable-background:new    ;">
		<path style="fill:#FFF100;" d="M5.7,134.7c-3.8,0-6.1-3.1-6.1-8.8c0-5.6,2.3-8.8,6.1-8.8c3.8,0,6.1,3.1,6.1,8.9
			C11.8,131.5,9.5,134.7,5.7,134.7z M9.1,125.9c0-4.2-1.2-6.4-3.3-6.4c-2.2,0-3.4,2.2-3.4,6.4c0,4.2,1.2,6.4,3.3,6.4
			C7.9,132.3,9.1,130.2,9.1,125.9z"/>
		<path style="fill:#FFF100;" d="M19.1,119.7h-3.5l1.1-2.2h4.9v16.8h-2.5V119.7z"/>
	</g>
</g>
</svg>
