<?xml version="1.0" encoding="utf-8"?>
<!-- Generator: Adobe Illustrator 18.0.0, SVG Export Plug-In . SVG Version: 6.00 Build 0)  -->
<!DOCTYPE svg PUBLIC "-//W3C//DTD SVG 1.1//EN" "http://www.w3.org/Graphics/SVG/1.1/DTD/svg11.dtd">
<svg version="1.1" id="Layer_1" xmlns="http://www.w3.org/2000/svg" xmlns:xlink="http://www.w3.org/1999/xlink" x="0px" y="0px"
	 viewBox="-17.7 97.3 58 58" style="enable-background:new -17.7 97.3 58 58;" xml:space="preserve">
<circle style="fill:#55BE9D;" cx="11.3" cy="126.3" r="29"/>
<g>
	<path style="fill:#FFF100;" d="M3.3,119.1h-3.5l1.1-2.2h5v16.8H3.3V119.1z"/>
	<path style="fill:#FFF100;" d="M18.5,134.2c-3.8,0-6.1-3.2-6.1-8.8c0-5.6,2.3-8.8,6.1-8.8c3.8,0,6.1,3.1,6.1,9
		C24.6,131,22.2,134.2,18.5,134.2z M21.8,125.3c0-4.2-1.2-6.4-3.3-6.4c-2.2,0-3.4,2.2-3.4,6.5c0,4.2,1.2,6.4,3.3,6.4
		C20.7,131.8,21.8,129.6,21.8,125.3z"/>
</g>
</svg>
