<?xml version="1.0" encoding="utf-8"?>
<!-- Generator: Adobe Illustrator 18.0.0, SVG Export Plug-In . SVG Version: 6.00 Build 0)  -->
<!DOCTYPE svg PUBLIC "-//W3C//DTD SVG 1.1//EN" "http://www.w3.org/Graphics/SVG/1.1/DTD/svg11.dtd">
<svg version="1.1" id="Layer_1" xmlns="http://www.w3.org/2000/svg" xmlns:xlink="http://www.w3.org/1999/xlink" x="0px" y="0px"
	 viewBox="130.5 246 58 58" enable-background="new 130.5 246 58 58" xml:space="preserve">
<g>
	<path fill="#00B8F1" d="M188.5,275c0,16-13,29-29,29s-29-13-29-29s13-29,29-29C175.6,246,188.5,259,188.5,275z"/>
	<g>
		<path fill="#FFF100" d="M151.5,267.8H148l1.1-2.2h5v16.8h-2.6V267.8z"/>
		<path fill="#FFF100" d="M171.4,282.4H160l6.3-7.6c1.5-1.8,2.3-3.2,2.3-4.5c0-1.7-1-2.7-2.8-2.7c-1.5,0-2.6,1-2.8,2.6h-2.7
			c0-3,2.2-5,5.6-5c3.3,0,5.3,1.8,5.3,4.7c0,2.7-1.7,4.8-4.3,7.7l-2.2,2.5h6.5v2.3H171.4z"/>
	</g>
</g>
</svg>
