<?xml version="1.0" encoding="utf-8"?>
<!-- Generator: Adobe Illustrator 18.0.0, SVG Export Plug-In . SVG Version: 6.00 Build 0)  -->
<!DOCTYPE svg PUBLIC "-//W3C//DTD SVG 1.1//EN" "http://www.w3.org/Graphics/SVG/1.1/DTD/svg11.dtd">
<svg version="1.1" id="Layer_1" xmlns="http://www.w3.org/2000/svg" xmlns:xlink="http://www.w3.org/1999/xlink" x="0px" y="0px"
	 viewBox="-17.7 97.3 58 58" style="enable-background:new -17.7 97.3 58 58;" xml:space="preserve">
<path style="fill:#EC1B32;" d="M40.3,126.3c0,16-13,29-29,29c-16,0-29-13-29-29c0-16,13-29,29-29C27.4,97.3,40.3,110.3,40.3,126.3z"
	/>
<g>
	<path style="fill:#FFF100;" d="M3.3,119.1h-3.5l1.1-2.2h5v16.8H3.3V119.1z"/>
	<path style="fill:#FFF100;" d="M23.2,133.7H11.8l6.3-7.6c1.5-1.8,2.3-3.2,2.3-4.5c0-1.7-1-2.7-2.8-2.7c-1.5,0-2.6,1-2.8,2.6h-2.7
		c0-3,2.2-5,5.6-5c3.3,0,5.3,1.8,5.3,4.7c0,2.7-1.7,4.8-4.3,7.7l-2.2,2.5h6.5V133.7z"/>
</g>
</svg>
