<?xml version="1.0" encoding="utf-8"?>
<!-- Generator: Adobe Illustrator 18.0.0, SVG Export Plug-In . SVG Version: 6.00 Build 0)  -->
<!DOCTYPE svg PUBLIC "-//W3C//DTD SVG 1.1//EN" "http://www.w3.org/Graphics/SVG/1.1/DTD/svg11.dtd">
<svg version="1.1" id="Layer_1" xmlns="http://www.w3.org/2000/svg" xmlns:xlink="http://www.w3.org/1999/xlink" x="0px" y="0px"
	 viewBox="130.5 246 58 58" enable-background="new 130.5 246 58 58" xml:space="preserve">
<g>
	<circle fill="#72C7AA" cx="159.5" cy="275" r="29"/>
	<g>
		<path fill="#FFF100" d="M151.5,267.8H148l1.1-2.2h5v16.8h-2.6V267.8z"/>
		<path fill="#FFF100" d="M163.3,277.9v0.1c0,1.5,1.1,2.6,3,2.6c2.1,0,3.2-1.1,3.2-3c0-2-1.2-3.1-3.4-3.1c-0.2,0-0.3,0-0.5,0v-2.2
			c0.2,0,0.3,0,0.5,0c2,0,3-0.8,3-2.5c0-1.4-1-2.4-2.5-2.4c-1.7,0-2.6,0.8-2.7,2.3h-2.5c0.2-2.9,2-4.5,5.2-4.5
			c3.1,0,5.1,1.8,5.1,4.5c0,2.1-1.1,3.5-2.9,3.8c2.1,0.4,3.3,1.9,3.3,4.4c0,2.9-2.2,4.9-5.9,4.9c-3.3,0-5.4-1.9-5.5-5h2.6V277.9z"/>
	</g>
</g>
</svg>
