<?xml version="1.0" encoding="utf-8"?>
<!-- Generator: Adobe Illustrator 18.0.0, SVG Export Plug-In . SVG Version: 6.00 Build 0)  -->
<!DOCTYPE svg PUBLIC "-//W3C//DTD SVG 1.1//EN" "http://www.w3.org/Graphics/SVG/1.1/DTD/svg11.dtd">
<svg version="1.1" id="Layer_1" xmlns="http://www.w3.org/2000/svg" xmlns:xlink="http://www.w3.org/1999/xlink" x="0px" y="0px"
	 viewBox="-17.7 97.3 58 58" style="enable-background:new -17.7 97.3 58 58;" xml:space="preserve">
<circle style="fill:#AA87B0;" cx="11.3" cy="126.3" r="29"/>
<g>
	<path style="fill:#FFF100;" d="M3.3,119.1h-3.5l1.1-2.2h5v16.8H3.3V119.1z"/>
	<path style="fill:#FFF100;" d="M17.6,131.9c2.2,0,3.8-1.5,3.8-3.9c0-2.2-1.6-3.8-4-3.8c-1.4,0-2.7,0.5-3.6,1.4l-0.7-0.1l2.1-8.6h8
		v2.2H17l-1,3.7c0.9-0.4,1.8-0.6,2.6-0.6c3.2,0,5.5,2.3,5.5,5.6c0,3.7-2.5,6.2-6.5,6.2c-2.3,0-4-0.8-5.3-2.5l1.8-2
		C14.9,131.1,16.2,131.9,17.6,131.9z"/>
</g>
</svg>
