<?xml version="1.0" encoding="utf-8"?>
<!-- Generator: Adobe Illustrator 18.0.0, SVG Export Plug-In . SVG Version: 6.00 Build 0)  -->
<!DOCTYPE svg PUBLIC "-//W3C//DTD SVG 1.1//EN" "http://www.w3.org/Graphics/SVG/1.1/DTD/svg11.dtd">
<svg version="1.1" id="Layer_1" xmlns="http://www.w3.org/2000/svg" xmlns:xlink="http://www.w3.org/1999/xlink" x="0px" y="0px"
	 viewBox="-17.7 97.3 58 58" style="enable-background:new -17.7 97.3 58 58;" xml:space="preserve">
<circle style="fill:#73C6A9;" cx="11.3" cy="126.3" r="29"/>
<g>
	<path style="fill:#FFF100;" d="M3.3,119.1h-3.5l1.1-2.2h5v16.8H3.3V119.1z"/>
	<path style="fill:#FFF100;" d="M13.2,121.1c0-2.7,2-4.5,5.2-4.5c3.3,0,5.3,1.9,5.3,4.7c0,1.7-0.9,2.9-2.4,3.5c1.9,0.6,3,2.3,3,4.4
		c0,3.1-2.1,5-5.8,5c-3.7,0-5.8-2-5.8-5c0-2.2,1.1-3.8,3-4.5C14,124,13.2,122.9,13.2,121.1z M21.7,129c0-1.9-1.2-3-3.2-3
		c-2,0-3.2,1.1-3.2,3c0,1.8,1.1,2.9,3.2,2.9C20.5,131.9,21.7,130.8,21.7,129z M15.9,121.2c0,1.4,0.9,2.3,2.5,2.3
		c1.7,0,2.6-0.9,2.6-2.3c0-1.4-0.9-2.3-2.5-2.3C16.9,118.8,15.9,119.7,15.9,121.2z"/>
</g>
</svg>
