<?xml version="1.0" encoding="utf-8"?>
<!-- Generator: Adobe Illustrator 18.0.0, SVG Export Plug-In . SVG Version: 6.00 Build 0)  -->
<!DOCTYPE svg PUBLIC "-//W3C//DTD SVG 1.1//EN" "http://www.w3.org/Graphics/SVG/1.1/DTD/svg11.dtd">
<svg version="1.1" id="Layer_1" xmlns="http://www.w3.org/2000/svg" xmlns:xlink="http://www.w3.org/1999/xlink" x="0px" y="0px"
	 viewBox="-17.7 97.3 58 58" style="enable-background:new -17.7 97.3 58 58;" xml:space="preserve">
<circle style="fill:#96AAD7;" cx="11.3" cy="126.3" r="29"/>
<g style="enable-background:new    ;">
	<path style="fill:#FFF100;" d="M4.2,134.1c-3.8,0-6.1-3.1-6.1-8.8c0-5.6,2.3-8.8,6.1-8.8c3.8,0,6.1,3.1,6.1,8.9
		C10.3,131,7.9,134.1,4.2,134.1z M7.5,125.3c0-4.2-1.2-6.4-3.3-6.4c-2.2,0-3.4,2.2-3.4,6.4c0,4.2,1.2,6.4,3.3,6.4
		C6.4,131.8,7.5,129.6,7.5,125.3z"/>
	<path style="fill:#FFF100;" d="M23.2,133.7H11.8l6.3-7.6c1.5-1.8,2.3-3.2,2.3-4.4c0-1.7-1-2.7-2.8-2.7c-1.5,0-2.6,1-2.7,2.6h-2.7
		c0-3,2.2-5,5.6-5c3.3,0,5.3,1.8,5.3,4.7c0,2.7-1.7,4.8-4.3,7.7l-2.2,2.5h6.4V133.7z"/>
</g>
</svg>
