<?xml version="1.0" encoding="utf-8"?>
<!-- Generator: Adobe Illustrator 18.0.0, SVG Export Plug-In . SVG Version: 6.00 Build 0)  -->
<!DOCTYPE svg PUBLIC "-//W3C//DTD SVG 1.1//EN" "http://www.w3.org/Graphics/SVG/1.1/DTD/svg11.dtd">
<svg version="1.1" id="Layer_1" xmlns="http://www.w3.org/2000/svg" xmlns:xlink="http://www.w3.org/1999/xlink" x="0px" y="0px"
	 viewBox="-17.7 97.3 58 58" style="enable-background:new -17.7 97.3 58 58;" xml:space="preserve">
<circle style="fill:#009AD9;" cx="11.3" cy="126.3" r="29"/>
<g>
	<path style="fill:#FFF100;" d="M4.2,134.2c-3.8,0-6.1-3.2-6.1-8.8c0-5.6,2.3-8.8,6.1-8.8c3.8,0,6.1,3.1,6.1,9
		C10.3,131,7.9,134.2,4.2,134.2z M7.5,125.3c0-4.2-1.2-6.4-3.3-6.4c-2.2,0-3.4,2.2-3.4,6.5c0,4.2,1.2,6.4,3.3,6.4
		C6.4,131.8,7.5,129.6,7.5,125.3z"/>
	<path style="fill:#FFF100;" d="M15.1,129.2v0.1c0,1.5,1.1,2.6,3,2.6c2.1,0,3.2-1.1,3.2-3c0-2-1.2-3.1-3.4-3.1c-0.2,0-0.3,0-0.5,0
		v-2.2c0.2,0,0.3,0,0.5,0c2,0,3-0.8,3-2.5c0-1.4-1-2.4-2.5-2.4c-1.7,0-2.6,0.8-2.7,2.3h-2.5c0.2-2.9,2-4.5,5.2-4.5
		c3.1,0,5.1,1.8,5.1,4.5c0,2.1-1.1,3.5-2.9,3.8c2.1,0.4,3.3,1.9,3.3,4.4c0,2.9-2.2,4.9-5.9,4.9c-3.3,0-5.4-1.9-5.5-5H15.1z"/>
</g>
</svg>
