<?xml version="1.0" encoding="utf-8"?>
<!-- Generator: Adobe Illustrator 18.0.0, SVG Export Plug-In . SVG Version: 6.00 Build 0)  -->
<!DOCTYPE svg PUBLIC "-//W3C//DTD SVG 1.1//EN" "http://www.w3.org/Graphics/SVG/1.1/DTD/svg11.dtd">
<svg version="1.1" id="Layer_1" xmlns="http://www.w3.org/2000/svg" xmlns:xlink="http://www.w3.org/1999/xlink" x="0px" y="0px"
	 viewBox="-17.7 97.3 58 58" style="enable-background:new -17.7 97.3 58 58;" xml:space="preserve">
<g>
	<circle style="fill:#F58F80;" cx="11.3" cy="126.3" r="29"/>
	<g>
		<path style="fill:#FFF100;" d="M5.6,134.6c-3.8,0-6.1-3.2-6.1-8.8c0-5.6,2.3-8.8,6.1-8.8c3.8,0,6.1,3.1,6.1,9
			C11.7,131.4,9.3,134.6,5.6,134.6z M8.9,125.7c0-4.2-1.2-6.4-3.3-6.4c-2.2,0-3.4,2.2-3.4,6.5c0,4.2,1.2,6.4,3.3,6.4
			C7.8,132.2,8.9,130,8.9,125.7z"/>
		<path style="fill:#FFF100;" d="M21.2,130.7H13l9.9-13.7h0.8v11.8h2.1v1.9h-2.1v3.4h-2.5V130.7z M16.9,128.8h4.2v-4.4
			c0-0.1,0-0.7,0.1-1.7L16.9,128.8z"/>
	</g>
</g>
</svg>
