<?xml version="1.0" encoding="utf-8"?>
<!-- Generator: Adobe Illustrator 18.0.0, SVG Export Plug-In . SVG Version: 6.00 Build 0)  -->
<!DOCTYPE svg PUBLIC "-//W3C//DTD SVG 1.1//EN" "http://www.w3.org/Graphics/SVG/1.1/DTD/svg11.dtd">
<svg version="1.1" id="Layer_1" xmlns="http://www.w3.org/2000/svg" xmlns:xlink="http://www.w3.org/1999/xlink" x="0px" y="0px"
	 viewBox="-17.7 97.3 58 58" style="enable-background:new -17.7 97.3 58 58;" xml:space="preserve">
<g>
	<circle style="fill:#F0645F;" cx="11.3" cy="126.3" r="29"/>
	<g>
		<path style="fill:#FFF100;" d="M4.4,135.1c-3.8,0-6.1-3.2-6.1-8.8c0-5.6,2.3-8.8,6.1-8.8c3.8,0,6.1,3.1,6.1,9
			C10.5,132,8.2,135.1,4.4,135.1z M7.8,126.3c0-4.2-1.2-6.4-3.3-6.4c-2.2,0-3.4,2.2-3.4,6.5c0,4.2,1.2,6.4,3.3,6.4
			C6.6,132.7,7.8,130.6,7.8,126.3z"/>
		<path style="fill:#FFF100;" d="M17.9,132.9c2.2,0,3.8-1.5,3.8-3.9c0-2.2-1.6-3.8-4-3.8c-1.4,0-2.7,0.5-3.6,1.4l-0.7-0.1l2.1-8.6h8
			v2.2h-6.4l-1,3.7c0.9-0.4,1.8-0.6,2.6-0.6c3.2,0,5.5,2.3,5.5,5.6c0,3.7-2.5,6.2-6.5,6.2c-2.3,0-4-0.8-5.3-2.5l1.8-2
			C15.1,132.1,16.4,132.9,17.9,132.9z"/>
	</g>
</g>
</svg>
