<?xml version="1.0" encoding="utf-8"?>
<!-- Generator: Adobe Illustrator 18.0.0, SVG Export Plug-In . SVG Version: 6.00 Build 0)  -->
<!DOCTYPE svg PUBLIC "-//W3C//DTD SVG 1.1//EN" "http://www.w3.org/Graphics/SVG/1.1/DTD/svg11.dtd">
<svg version="1.1" id="Layer_1" xmlns="http://www.w3.org/2000/svg" xmlns:xlink="http://www.w3.org/1999/xlink" x="0px" y="0px"
	 viewBox="-17.7 97.3 58 58" style="enable-background:new -17.7 97.3 58 58;" xml:space="preserve">
<path style="fill:#EB008B;" d="M40.3,126.3c0,16-13,29-29,29c-16,0-29-13-29-29c0-16,13-29,29-29C27.4,97.3,40.3,110.3,40.3,126.3z"
	/>
<g>
	<path style="fill:#FFF100;" d="M4.2,134.2c-3.8,0-6.1-3.2-6.1-8.8c0-5.6,2.3-8.8,6.1-8.8c3.8,0,6.1,3.1,6.1,9
		C10.3,131,7.9,134.2,4.2,134.2z M7.5,125.3c0-4.2-1.2-6.4-3.3-6.4c-2.2,0-3.4,2.2-3.4,6.5c0,4.2,1.2,6.4,3.3,6.4
		C6.4,131.8,7.5,129.6,7.5,125.3z"/>
	<path style="fill:#FFF100;" d="M19,122.9c3,0,5.2,2.2,5.2,5.5c0,3.5-2.4,5.8-6,5.8c-3.4,0-5.6-2.3-5.6-5.7c0-2.8,1.7-5.1,4-8.4
		l3-4.2l2.1,1.1l-4.9,6.4C17.6,123.1,18.3,122.9,19,122.9z M18.3,131.9c2,0,3.3-1.3,3.3-3.4c0-2.1-1.2-3.4-3.2-3.4
		c-1.8,0-3.1,1.4-3.1,3.4C15.3,130.6,16.6,131.9,18.3,131.9z"/>
</g>
</svg>
