<?xml version="1.0" encoding="utf-8"?>
<!-- Generator: Adobe Illustrator 18.0.0, SVG Export Plug-In . SVG Version: 6.00 Build 0)  -->
<!DOCTYPE svg PUBLIC "-//W3C//DTD SVG 1.1//EN" "http://www.w3.org/Graphics/SVG/1.1/DTD/svg11.dtd">
<svg version="1.1" id="Layer_1" xmlns="http://www.w3.org/2000/svg" xmlns:xlink="http://www.w3.org/1999/xlink" x="0px" y="0px"
	 viewBox="-17.7 97.3 58 58" style="enable-background:new -17.7 97.3 58 58;" xml:space="preserve">
<path style="fill:#F05A28;" d="M40.2,124c1.4,17.9-13.4,32.7-31.3,31.3c-14.1-1.1-25.4-12.5-26.5-26.5C-19,110.8-4.2,96,13.7,97.4
	C27.7,98.5,39.1,109.9,40.2,124z"/>
<g>
	<path style="fill:#FFF100;" d="M4.1,135c-3.8,0-6.1-3.2-6.1-8.8c0-5.6,2.3-8.8,6.1-8.8c3.8,0,6.1,3.1,6.1,9
		C10.2,131.9,7.8,135,4.1,135z M7.4,126.2c0-4.2-1.2-6.4-3.3-6.4c-2.2,0-3.4,2.2-3.4,6.5c0,4.2,1.2,6.4,3.3,6.4
		C6.3,132.7,7.4,130.5,7.4,126.2z"/>
	<path style="fill:#FFF100;" d="M20.8,120H13v-2.2h11.7l-8.5,17.4l-2.2-1L20.8,120z"/>
</g>
</svg>
