<?xml version="1.0" encoding="utf-8"?>
<!-- Generator: Adobe Illustrator 18.0.0, SVG Export Plug-In . SVG Version: 6.00 Build 0)  -->
<!DOCTYPE svg PUBLIC "-//W3C//DTD SVG 1.1//EN" "http://www.w3.org/Graphics/SVG/1.1/DTD/svg11.dtd">
<svg version="1.1" id="Layer_1" xmlns="http://www.w3.org/2000/svg" xmlns:xlink="http://www.w3.org/1999/xlink" x="0px" y="0px"
	 viewBox="-17.7 97.3 58 58" style="enable-background:new -17.7 97.3 58 58;" xml:space="preserve">
<circle style="fill:#9D90C4;" cx="11.3" cy="126.3" r="29"/>
<g>
	<path style="fill:#FFF100;" d="M4.3,135.1c-3.8,0-6.1-3.2-6.1-8.8c0-5.6,2.3-8.8,6.1-8.8c3.8,0,6.1,3.1,6.1,9
		C10.4,132,8.1,135.1,4.3,135.1z M7.7,126.3c0-4.2-1.2-6.4-3.3-6.4c-2.2,0-3.4,2.2-3.4,6.5c0,4.2,1.2,6.4,3.3,6.4
		C6.5,132.8,7.7,130.6,7.7,126.3z"/>
	<path style="fill:#FFF100;" d="M13.4,122.1c0-2.7,2-4.5,5.2-4.5c3.3,0,5.3,1.9,5.3,4.7c0,1.7-0.9,2.9-2.4,3.5c1.9,0.6,3,2.3,3,4.4
		c0,3.1-2.1,5-5.8,5c-3.7,0-5.8-2-5.8-5c0-2.2,1.1-3.8,3-4.5C14.2,125,13.4,123.9,13.4,122.1z M21.8,129.9c0-1.9-1.2-3-3.2-3
		c-2,0-3.2,1.1-3.2,3c0,1.8,1.1,2.9,3.2,2.9C20.6,132.9,21.8,131.7,21.8,129.9z M16.1,122.1c0,1.4,0.9,2.3,2.5,2.3
		c1.7,0,2.6-0.9,2.6-2.3c0-1.4-0.9-2.3-2.5-2.3C17.1,119.8,16.1,120.7,16.1,122.1z"/>
</g>
</svg>
