<?xml version="1.0" encoding="utf-8"?>
<!-- Generator: Adobe Illustrator 18.0.0, SVG Export Plug-In . SVG Version: 6.00 Build 0)  -->
<!DOCTYPE svg PUBLIC "-//W3C//DTD SVG 1.1//EN" "http://www.w3.org/Graphics/SVG/1.1/DTD/svg11.dtd">
<svg version="1.1" id="Layer_1" xmlns="http://www.w3.org/2000/svg" xmlns:xlink="http://www.w3.org/1999/xlink" x="0px" y="0px"
	 viewBox="-17.7 97.3 58 58" style="enable-background:new -17.7 97.3 58 58;" xml:space="preserve">
<circle style="fill:#4C9C47;" cx="11.3" cy="126.3" r="29"/>
<g>
	<path style="fill:#FFF100;" d="M4.2,134.2c-3.8,0-6.1-3.2-6.1-8.8c0-5.6,2.3-8.8,6.1-8.8c3.8,0,6.1,3.1,6.1,9
		C10.3,131,7.9,134.2,4.2,134.2z M7.5,125.3c0-4.2-1.2-6.4-3.3-6.4c-2.2,0-3.4,2.2-3.4,6.5c0,4.2,1.2,6.4,3.3,6.4
		C6.4,131.8,7.5,129.6,7.5,125.3z"/>
	<path style="fill:#FFF100;" d="M17.8,127.8c-3,0-5.2-2.2-5.2-5.5c0-3.5,2.4-5.8,6-5.8c3.4,0,5.6,2.3,5.6,5.6c0,2.8-1.7,5.1-4,8.4
		l-3,4.2l-2.1-1.1l4.9-6.4C19.2,127.7,18.5,127.8,17.8,127.8z M18.5,118.8c-2,0-3.3,1.3-3.3,3.4c0,2.1,1.2,3.4,3.2,3.4
		c1.8,0,3.1-1.4,3.1-3.4C21.5,120.1,20.3,118.8,18.5,118.8z"/>
</g>
</svg>
