<?xml version="1.0" encoding="utf-8"?>
<!-- Generator: Adobe Illustrator 18.0.0, SVG Export Plug-In . SVG Version: 6.00 Build 0)  -->
<!DOCTYPE svg PUBLIC "-//W3C//DTD SVG 1.1//EN" "http://www.w3.org/Graphics/SVG/1.1/DTD/svg11.dtd" [
	<!ENTITY st0 "fill:#474747;">
]>
<svg version="1.1" id="Layer_1" xmlns="http://www.w3.org/2000/svg" xmlns:xlink="http://www.w3.org/1999/xlink" x="0px" y="0px"
	 viewBox="0 0 95 95" style="enable-background:new 0 0 95 95;" xml:space="preserve">
<g>
	<path style="&st0;" d="M50.3,50c0,0.6-0.4,1-1,1c-0.6,0-1-0.4-1-1c0-0.6,0.4-1,1-1C49.8,49,50.3,49.4,50.3,50z M45.9,47.7
		c-0.6,0-1,0.4-1,1c0,0.6,0.4,1,1,1c0.6,0,1-0.4,1-1C46.9,48.2,46.4,47.7,45.9,47.7z M46,51c-0.6,0-1,0.4-1,1c0,0.6,0.4,1,1,1
		c0.6,0,1-0.5,1-1C47,51.4,46.6,51,46,51z M49.2,52.5c-0.6,0-1,0.4-1,1c0,0.6,0.4,1,1,1c0.6,0,1-0.4,1-1
		C50.2,53,49.8,52.5,49.2,52.5z M52.4,48.3c-0.6,0-1,0.4-1,1s0.4,1,1,1c0.6,0,1-0.4,1-1S52.9,48.3,52.4,48.3z M53.1,51.3
		c-0.6,0-1,0.4-1,1c0,0.6,0.4,1,1,1c0.6,0,1-0.4,1-1C54.1,51.8,53.7,51.3,53.1,51.3z M52,54.5c-0.6,0-1,0.4-1,1c0,0.6,0.4,1,1,1
		c0.6,0,1-0.4,1-1C53,55,52.5,54.5,52,54.5z M49.2,57.1c-0.6,0-1,0.4-1,1c0,0.6,0.4,1,1,1c0.6,0,1-0.4,1-1
		C50.2,57.5,49.7,57.1,49.2,57.1z M47,54.8c-0.6,0-1,0.4-1,1c0,0.6,0.4,1,1,1c0.6,0,1-0.4,1-1C48,55.3,47.5,54.8,47,54.8z
		 M43.5,55.6c-0.6,0-1,0.4-1,1c0,0.6,0.4,1,1,1c0.6,0,1-0.4,1-1C44.5,56,44,55.6,43.5,55.6z M43.2,52.3c-0.6,0-1,0.4-1,1
		c0,0.6,0.4,1,1,1c0.6,0,1-0.4,1-1C44.2,52.7,43.8,52.3,43.2,52.3z M42,48.7c-0.6,0-1,0.4-1,1c0,0.6,0.4,1,1,1c0.6,0,1-0.4,1-1
		C43,49.1,42.6,48.7,42,48.7z M43.5,45.8c-0.6,0-1,0.4-1,1c0,0.6,0.4,1,1,1c0.6,0,1-0.5,1-1C44.5,46.3,44.1,45.8,43.5,45.8z
		 M47.5,43.7c-0.6,0-1,0.5-1,1c0,0.6,0.5,1,1,1c0.6,0,1-0.4,1-1C48.5,44.2,48.1,43.7,47.5,43.7z M50.9,44.2c-0.6,0-1,0.4-1,1
		c0,0.6,0.4,1,1,1c0.6,0,1-0.4,1-1C51.9,44.6,51.5,44.2,50.9,44.2z M49,46.3c-0.6,0-1,0.4-1,1s0.4,1,1,1s1-0.4,1-1
		S49.5,46.3,49,46.3z M54,45c-0.6,0-1,0.4-1,1c0,0.6,0.5,1,1,1c0.6,0,1-0.4,1-1C55,45.4,54.5,45,54,45z M56,47.6c-0.6,0-1,0.4-1,1
		c0,0.6,0.4,1,1,1c0.6,0,1-0.4,1-1C57,48.1,56.5,47.6,56,47.6z M58.4,45.6c-0.6,0-1,0.4-1,1s0.4,1,1,1c0.6,0,1-0.4,1-1
		S58.9,45.6,58.4,45.6z M59.8,42.5c-0.6,0-1,0.4-1,1c0,0.6,0.4,1,1,1c0.6,0,1-0.4,1-1C60.8,42.9,60.4,42.5,59.8,42.5z M63.2,39.9
		c-0.6,0-1,0.4-1,1c0,0.6,0.4,1,1,1c0.6,0,1-0.4,1-1C64.2,40.3,63.7,39.9,63.2,39.9z M60.1,39c-0.6,0-1,0.4-1,1c0,0.6,0.4,1,1,1
		c0.6,0,1-0.4,1-1C61.1,39.5,60.6,39,60.1,39z M56.7,39.2c-0.6,0-1,0.4-1,1c0,0.6,0.4,1,1,1c0.6,0,1-0.4,1-1
		C57.7,39.6,57.2,39.2,56.7,39.2z M53,40.7c-0.6,0-1,0.4-1,1c0,0.6,0.4,1,1,1c0.6,0,1-0.4,1-1C54,41.2,53.5,40.7,53,40.7z M49.9,41
		c-0.6,0-1,0.4-1,1c0,0.6,0.4,1,1,1c0.6,0,1-0.4,1-1C50.9,41.5,50.4,41,49.9,41z M49.2,37.6c-0.6,0-1,0.4-1,1s0.4,1,1,1
		c0.6,0,1-0.4,1-1S49.8,37.6,49.2,37.6z M52.9,37.5c-0.6,0-1,0.4-1,1c0,0.6,0.4,1,1,1c0.6,0,1-0.4,1-1C53.9,38,53.5,37.5,52.9,37.5z
		 M56.1,35.9c-0.6,0-1,0.4-1,1c0,0.6,0.4,1,1,1c0.6,0,1-0.4,1-1C57.1,36.4,56.7,35.9,56.1,35.9z M59.3,35.5c-0.6,0-1,0.4-1,1
		c0,0.6,0.4,1,1,1c0.6,0,1-0.4,1-1C60.3,36,59.9,35.5,59.3,35.5z M62.4,35.9c-0.6,0-1,0.4-1,1c0,0.6,0.4,1,1,1c0.6,0,1-0.4,1-1
		C63.4,36.3,62.9,35.9,62.4,35.9z M65.4,36.9c-0.6,0-1,0.4-1,1c0,0.6,0.4,1,1,1c0.6,0,1-0.4,1-1C66.4,37.4,66,36.9,65.4,36.9z
		 M66.9,34c-0.6,0-1,0.4-1,1c0,0.6,0.4,1,1,1c0.6,0,1-0.4,1-1C67.9,34.4,67.4,34,66.9,34z M63.8,32.6c-0.6,0-1,0.4-1,1
		c0,0.6,0.4,1,1,1c0.6,0,1-0.4,1-1C64.8,33,64.4,32.6,63.8,32.6z M60.6,31.9c-0.6,0-1,0.4-1,1c0,0.6,0.4,1,1,1c0.6,0,1-0.4,1-1
		C61.6,32.4,61.2,31.9,60.6,31.9z M57.4,32c-0.6,0-1,0.4-1,1c0,0.6,0.4,1,1,1s1-0.4,1-1C58.4,32.4,58,32,57.4,32z M54.4,32.8
		c-0.6,0-1,0.4-1,1s0.4,1,1,1c0.6,0,1-0.4,1-1S54.9,32.8,54.4,32.8z M51.6,34.6c-0.6,0-1,0.4-1,1c0,0.6,0.4,1,1,1c0.6,0,1-0.4,1-1
		C52.6,35,52.2,34.6,51.6,34.6z M49.1,32.2c-0.6,0-1,0.4-1,1c0,0.6,0.4,1,1,1s1-0.4,1-1C50.1,32.6,49.7,32.2,49.1,32.2z M47.3,35
		c-0.6,0-1,0.5-1,1c0,0.6,0.4,1,1,1c0.6,0,1-0.4,1-1C48.3,35.5,47.8,35,47.3,35z M46.4,39.1c-0.6,0-1,0.4-1,1c0,0.6,0.4,1,1,1
		c0.6,0,1-0.4,1-1C47.4,39.6,47,39.1,46.4,39.1z M43.8,37c-0.6,0-1,0.4-1,1c0,0.6,0.4,1,1,1c0.6,0,1-0.4,1-1
		C44.8,37.4,44.3,37,43.8,37z M44.4,33.5c-0.6,0-1,0.4-1,1c0,0.6,0.4,1,1,1c0.6,0,1-0.4,1-1C45.4,33.9,45,33.5,44.4,33.5z
		 M45.9,30.6c-0.6,0-1,0.4-1,1s0.4,1,1,1c0.6,0,1-0.4,1-1S46.5,30.6,45.9,30.6z M48.2,28.3c-0.6,0-1,0.4-1,1s0.4,1,1,1
		c0.6,0,1-0.4,1-1S48.7,28.3,48.2,28.3z M51.6,30.2c-0.6,0-1,0.4-1,1c0,0.6,0.4,1,1,1c0.6,0,1-0.4,1-1
		C52.6,30.7,52.2,30.2,51.6,30.2z M54.6,28.9c-0.6,0-1,0.4-1,1c0,0.6,0.4,1,1,1c0.6,0,1-0.4,1-1C55.6,29.3,55.1,28.9,54.6,28.9z
		 M57.7,28.3c-0.6,0-1,0.4-1,1c0,0.6,0.4,1,1,1c0.6,0,1-0.4,1-1C58.7,28.8,58.3,28.3,57.7,28.3z M61.1,28.5c-0.6,0-1,0.4-1,1
		c0,0.6,0.4,1,1,1c0.6,0,1-0.4,1-1C62.1,29,61.7,28.5,61.1,28.5z M64.4,29.3c-0.6,0-1,0.4-1,1c0,0.6,0.4,1,1,1c0.6,0,1-0.4,1-1
		C65.4,29.7,65,29.3,64.4,29.3z M67.7,30.7c-0.6,0-1,0.4-1,1s0.4,1,1,1c0.6,0,1-0.4,1-1S68.3,30.7,67.7,30.7z M68,27.5
		c-0.6,0-1,0.4-1,1s0.4,1,1,1c0.6,0,1-0.4,1-1S68.6,27.5,68,27.5z M64.4,26.1c-0.6,0-1,0.4-1,1c0,0.6,0.4,1,1,1c0.6,0,1-0.4,1-1
		C65.4,26.5,64.9,26.1,64.4,26.1z M67.7,24.2c-0.6,0-1,0.5-1,1c0,0.6,0.4,1,1,1c0.6,0,1-0.4,1-1C68.7,24.7,68.3,24.2,67.7,24.2z
		 M66.9,21c-0.6,0-1,0.4-1,1c0,0.6,0.4,1,1,1c0.6,0,1-0.4,1-1C67.9,21.5,67.5,21,66.9,21z M65.6,17.8c-0.6,0-1,0.4-1,1
		c0,0.6,0.4,1,1,1c0.6,0,1-0.4,1-1C66.6,18.2,66.2,17.8,65.6,17.8z M63.8,14.8c-0.6,0-1,0.5-1,1c0,0.6,0.4,1,1,1c0.6,0,1-0.4,1-1
		C64.8,15.2,64.4,14.8,63.8,14.8z M61.2,16.6c-0.6,0-1,0.4-1,1c0,0.6,0.4,1,1,1c0.6,0,1-0.4,1-1C62.2,17.1,61.7,16.6,61.2,16.6z
		 M62.8,19.7c-0.6,0-1,0.4-1,1c0,0.6,0.4,1,1,1c0.6,0,1-0.4,1-1C63.8,20.1,63.4,19.7,62.8,19.7z M63.9,22.8c-0.6,0-1,0.4-1,1
		c0,0.6,0.4,1,1,1s1-0.4,1-1C64.9,23.3,64.5,22.8,63.9,22.8z M60.9,25.2c-0.6,0-1,0.4-1,1c0,0.6,0.4,1,1,1c0.6,0,1-0.4,1-1
		C61.9,25.7,61.4,25.2,60.9,25.2z M57.3,25.1c-0.6,0-1,0.4-1,1c0,0.6,0.4,1,1,1s1-0.4,1-1C58.3,25.5,57.9,25.1,57.3,25.1z
		 M53.9,25.5c-0.6,0-1,0.4-1,1c0,0.6,0.4,1,1,1c0.6,0,1-0.4,1-1C54.9,25.9,54.5,25.5,53.9,25.5z M50.8,26.6c-0.6,0-1,0.4-1,1
		c0,0.6,0.4,1,1,1c0.6,0,1-0.4,1-1C51.8,27,51.4,26.6,50.8,26.6z M49.3,23.5c-0.6,0-1,0.4-1,1c0,0.6,0.4,1,1,1c0.6,0,1-0.4,1-1
		C50.3,24,49.8,23.5,49.3,23.5z M47.3,20.8c-0.6,0-1,0.4-1,1c0,0.6,0.4,1,1,1c0.6,0,1-0.4,1-1C48.3,21.3,47.8,20.8,47.3,20.8z
		 M50.8,19.7c-0.6,0-1,0.4-1,1c0,0.6,0.4,1,1,1c0.6,0,1-0.4,1-1C51.8,20.1,51.4,19.7,50.8,19.7z M52.6,22.4c-0.6,0-1,0.4-1,1
		c0,0.6,0.4,1,1,1c0.6,0,1-0.4,1-1C53.6,22.8,53.2,22.4,52.6,22.4z M56.2,21.9c-0.6,0-1,0.4-1,1c0,0.6,0.4,1,1,1c0.6,0,1-0.5,1-1
		C57.2,22.3,56.7,21.9,56.2,21.9z M60.1,22c-0.6,0-1,0.4-1,1c0,0.6,0.4,1,1,1c0.6,0,1-0.4,1-1C61.1,22.5,60.6,22,60.1,22z M58.7,19
		c-0.6,0-1,0.4-1,1c0,0.6,0.4,1,1,1c0.6,0,1-0.4,1-1C59.7,19.5,59.2,19,58.7,19z M54.6,19.1c-0.6,0-1,0.4-1,1c0,0.6,0.4,1,1,1
		c0.6,0,1-0.4,1-1C55.6,19.5,55.1,19.1,54.6,19.1z M56.8,16.3c-0.6,0-1,0.4-1,1c0,0.6,0.4,1,1,1s1-0.4,1-1
		C57.8,16.7,57.4,16.3,56.8,16.3z M59.1,13.8c-0.6,0-1,0.4-1,1c0,0.6,0.4,1,1,1s1-0.4,1-1C60.1,14.3,59.7,13.8,59.1,13.8z
		 M61.6,11.9c-0.6,0-1,0.4-1,1c0,0.6,0.4,1,1,1c0.6,0,1-0.4,1-1C62.6,12.3,62.2,11.9,61.6,11.9z M64.2,10.1c-0.6,0-1,0.4-1,1
		c0,0.6,0.4,1,1,1c0.6,0,1-0.4,1-1C65.2,10.6,64.7,10.1,64.2,10.1z M61.6,7.4c-0.6,0-1,0.4-1,1c0,0.6,0.4,1,1,1s1-0.4,1-1
		C62.6,7.8,62.1,7.4,61.6,7.4z M59.1,9.2c-0.6,0-1,0.4-1,1c0,0.6,0.4,1,1,1c0.6,0,1-0.4,1-1C60.1,9.6,59.6,9.2,59.1,9.2z M56.1,6.8
		c-0.6,0-1,0.4-1,1s0.4,1,1,1c0.6,0,1-0.4,1-1S56.7,6.8,56.1,6.8z M52.8,4.7c-0.6,0-1,0.4-1,1c0,0.6,0.4,1,1,1c0.6,0,1-0.4,1-1
		C53.8,5.1,53.4,4.7,52.8,4.7z M50.7,6.9c-0.6,0-1,0.4-1,1c0,0.6,0.4,1,1,1c0.6,0,1-0.4,1-1C51.7,7.4,51.3,6.9,50.7,6.9z M47.3,5.2
		c-0.6,0-1,0.4-1,1c0,0.6,0.4,1,1,1c0.6,0,1-0.4,1-1C48.3,5.7,47.8,5.2,47.3,5.2z M54,8.9c-0.6,0-1,0.4-1,1c0,0.6,0.5,1,1,1
		c0.6,0,1-0.4,1-1C55,9.4,54.5,8.9,54,8.9z M56.7,11.2c-0.6,0-1,0.4-1,1c0,0.6,0.4,1,1,1c0.6,0,1-0.4,1-1
		C57.7,11.7,57.3,11.2,56.7,11.2z M54.6,13.7c-0.6,0-1,0.4-1,1c0,0.6,0.5,1,1,1c0.6,0,1-0.4,1-1C55.6,14.1,55.2,13.7,54.6,13.7z
		 M51.9,11.4c-0.6,0-1,0.4-1,1c0,0.6,0.4,1,1,1c0.6,0,1-0.4,1-1C52.9,11.9,52.4,11.4,51.9,11.4z M50.1,14.1c-0.6,0-1,0.4-1,1
		c0,0.6,0.4,1,1,1c0.6,0,1-0.4,1-1C51.1,14.5,50.7,14.1,50.1,14.1z M48.5,17.3c-0.6,0-1,0.4-1,1c0,0.6,0.4,1,1,1c0.6,0,1-0.4,1-1
		C49.5,17.8,49.1,17.3,48.5,17.3z M46.4,25.1c-0.6,0-1,0.4-1,1c0,0.6,0.4,1,1,1c0.6,0,1-0.4,1-1C47.4,25.6,46.9,25.1,46.4,25.1z
		 M43.9,27.3c-0.6,0-1,0.4-1,1c0,0.6,0.4,1,1,1c0.6,0,1-0.4,1-1C44.9,27.7,44.5,27.3,43.9,27.3z M42.1,29.9c-0.6,0-1,0.4-1,1
		c0,0.6,0.4,1,1,1c0.6,0,1-0.4,1-1C43.1,30.4,42.6,29.9,42.1,29.9z M41,32.8c-0.6,0-1,0.4-1,1s0.4,1,1,1c0.6,0,1-0.4,1-1
		S41.5,32.8,41,32.8z M40.7,36.2c-0.6,0-1,0.4-1,1c0,0.6,0.4,1,1,1c0.6,0,1-0.4,1-1C41.7,36.6,41.3,36.2,40.7,36.2z M41.8,39.9
		c-0.6,0-1,0.4-1,1c0,0.6,0.4,1,1,1s1-0.4,1-1C42.8,40.3,42.3,39.9,41.8,39.9z M41.7,43.2c-0.6,0-1,0.5-1,1c0,0.6,0.4,1,1,1
		c0.6,0,1-0.4,1-1C42.7,43.6,42.2,43.2,41.7,43.2z M38.2,43.6c-0.6,0-1,0.4-1,1c0,0.6,0.4,1,1,1c0.6,0,1-0.4,1-1
		C39.2,44.1,38.8,43.6,38.2,43.6z M38.7,39.8c-0.6,0-1,0.4-1,1c0,0.6,0.4,1,1,1c0.6,0,1-0.4,1-1C39.7,40.2,39.2,39.8,38.7,39.8z
		 M37.3,36.6c-0.6,0-1,0.4-1,1s0.4,1,1,1c0.6,0,1-0.4,1-1S37.9,36.6,37.3,36.6z M37.2,33.3c-0.6,0-1,0.4-1,1c0,0.6,0.4,1,1,1
		c0.6,0,1-0.4,1-1C38.2,33.8,37.8,33.3,37.2,33.3z M38,30.3c-0.6,0-1,0.4-1,1c0,0.6,0.4,1,1,1c0.6,0,1-0.4,1-1
		C39,30.7,38.5,30.3,38,30.3z M39.4,27.4c-0.6,0-1,0.4-1,1c0,0.6,0.4,1,1,1s1-0.4,1-1C40.4,27.8,40,27.4,39.4,27.4z M36.5,25.7
		c-0.6,0-1,0.4-1,1c0,0.6,0.4,1,1,1c0.6,0,1-0.4,1-1C37.5,26.2,37.1,25.7,36.5,25.7z M34.8,28.7c-0.6,0-1,0.4-1,1c0,0.6,0.4,1,1,1
		c0.6,0,1-0.4,1-1C35.8,29.1,35.4,28.7,34.8,28.7z M33.3,24.6c-0.6,0-1,0.4-1,1c0,0.6,0.4,1,1,1c0.6,0,1-0.4,1-1
		C34.3,25,33.9,24.6,33.3,24.6z M41.5,24.8c-0.6,0-1,0.4-1,1c0,0.6,0.4,1,1,1s1-0.4,1-1C42.5,25.3,42.1,24.8,41.5,24.8z M44.2,22.6
		c-0.6,0-1,0.4-1,1c0,0.6,0.4,1,1,1c0.6,0,1-0.4,1-1C45.2,23,44.8,22.6,44.2,22.6z M41.7,20.6c-0.6,0-1,0.4-1,1c0,0.6,0.4,1,1,1
		c0.6,0,1-0.4,1-1C42.7,21,42.2,20.6,41.7,20.6z M44.9,18.7c-0.6,0-1,0.4-1,1c0,0.6,0.4,1,1,1c0.6,0,1-0.4,1-1
		C45.9,19.1,45.5,18.7,44.9,18.7z M46,15.3c-0.6,0-1,0.4-1,1c0,0.6,0.4,1,1,1c0.6,0,1-0.4,1-1C47,15.7,46.5,15.3,46,15.3z
		 M47.4,12.1c-0.6,0-1,0.4-1,1c0,0.6,0.4,1,1,1c0.6,0,1-0.4,1-1C48.4,12.6,47.9,12.1,47.4,12.1z M48.9,9.3c-0.6,0-1,0.4-1,1
		c0,0.6,0.4,1,1,1c0.6,0,1-0.4,1-1C49.9,9.8,49.5,9.3,48.9,9.3z M45.6,7.7c-0.6,0-1,0.4-1,1c0,0.6,0.4,1,1,1c0.6,0,1-0.4,1-1
		C46.6,8.2,46.2,7.7,45.6,7.7z M44.2,10.5c-0.6,0-1,0.4-1,1c0,0.6,0.4,1,1,1c0.6,0,1-0.4,1-1C45.2,10.9,44.7,10.5,44.2,10.5z
		 M43,13.6c-0.6,0-1,0.4-1,1c0,0.6,0.4,1,1,1c0.6,0,1-0.4,1-1C44,14,43.5,13.6,43,13.6z M42,16.9c-0.6,0-1,0.4-1,1c0,0.6,0.4,1,1,1
		c0.6,0,1-0.4,1-1C43,17.4,42.6,16.9,42,16.9z M39.1,15.5c-0.6,0-1,0.4-1,1c0,0.6,0.4,1,1,1c0.6,0,1-0.4,1-1
		C40.1,16,39.6,15.5,39.1,15.5z M39.8,12.3c-0.6,0-1,0.4-1,1c0,0.6,0.4,1,1,1c0.6,0,1-0.4,1-1C40.8,12.8,40.3,12.3,39.8,12.3z
		 M40.8,9.3c-0.6,0-1,0.4-1,1c0,0.6,0.4,1,1,1c0.6,0,1-0.4,1-1C41.8,9.8,41.3,9.3,40.8,9.3z M42.1,6.5c-0.6,0-1,0.4-1,1
		c0,0.6,0.4,1,1,1c0.6,0,1-0.4,1-1C43.1,6.9,42.6,6.5,42.1,6.5z M38.3,5.7c-0.6,0-1,0.4-1,1c0,0.6,0.4,1,1,1c0.6,0,1-0.4,1-1
		C39.3,6.1,38.8,5.7,38.3,5.7z M37.1,8.4c-0.6,0-1,0.4-1,1c0,0.6,0.4,1,1,1c0.6,0,1-0.4,1-1C38.1,8.9,37.6,8.4,37.1,8.4z M36.3,11.4
		c-0.6,0-1,0.4-1,1c0,0.6,0.4,1,1,1c0.6,0,1-0.4,1-1C37.3,11.9,36.8,11.4,36.3,11.4z M35.6,14.6c-0.6,0-1,0.4-1,1c0,0.6,0.4,1,1,1
		c0.6,0,1-0.4,1-1C36.6,15.1,36.2,14.6,35.6,14.6z M32.2,14.2c-0.6,0-1,0.4-1,1c0,0.6,0.4,1,1,1c0.6,0,1-0.4,1-1
		C33.2,14.6,32.8,14.2,32.2,14.2z M32.7,11.1c-0.6,0-1,0.4-1,1c0,0.6,0.4,1,1,1c0.6,0,1-0.4,1-1C33.7,11.6,33.3,11.1,32.7,11.1z
		 M33.3,8c-0.6,0-1,0.4-1,1c0,0.6,0.4,1,1,1c0.6,0,1-0.4,1-1C34.3,8.4,33.9,8,33.3,8z M29.4,8.1c-0.6,0-1,0.4-1,1c0,0.6,0.4,1,1,1
		c0.6,0,1-0.4,1-1C30.4,8.6,30,8.1,29.4,8.1z M28.9,11.1c-0.6,0-1,0.4-1,1c0,0.6,0.4,1,1,1s1-0.4,1-1C29.9,11.5,29.4,11.1,28.9,11.1
		z M28.6,14.1c-0.6,0-1,0.4-1,1c0,0.6,0.4,1,1,1s1-0.4,1-1C29.6,14.6,29.2,14.1,28.6,14.1z M28.8,17.3c-0.6,0-1,0.4-1,1
		c0,0.6,0.4,1,1,1s1-0.4,1-1C29.8,17.8,29.3,17.3,28.8,17.3z M29.2,20.6c-0.6,0-1,0.4-1,1c0,0.6,0.4,1,1,1c0.6,0,1-0.4,1-1
		C30.2,21,29.8,20.6,29.2,20.6z M30.1,24.1c-0.6,0-1,0.5-1,1c0,0.6,0.4,1,1,1c0.6,0,1-0.4,1-1C31.1,24.6,30.7,24.1,30.1,24.1z
		 M31.6,27.8c-0.6,0-1,0.4-1,1c0,0.6,0.4,1,1,1c0.6,0,1-0.4,1-1C32.6,28.2,32.1,27.8,31.6,27.8z M28.3,27.5c-0.6,0-1,0.4-1,1
		s0.4,1,1,1c0.6,0,1-0.4,1-1S28.9,27.5,28.3,27.5z M26.8,24.1c-0.6,0-1,0.5-1,1c0,0.6,0.4,1,1,1c0.6,0,1-0.4,1-1
		C27.8,24.6,27.4,24.1,26.8,24.1z M23.5,24.6c-0.6,0-1,0.4-1,1c0,0.6,0.4,1,1,1s1-0.4,1-1C24.5,25.1,24.1,24.6,23.5,24.6z
		 M22.4,21.6c-0.6,0-1,0.4-1,1c0,0.6,0.4,1,1,1c0.6,0,1-0.4,1-1C23.4,22,22.9,21.6,22.4,21.6z M19.1,22.8c-0.6,0-1,0.4-1,1
		c0,0.6,0.4,1,1,1c0.6,0,1-0.4,1-1C20.1,23.2,19.6,22.8,19.1,22.8z M15.7,24.3c-0.6,0-1,0.4-1,1c0,0.6,0.4,1,1,1c0.6,0,1-0.4,1-1
		C16.7,24.8,16.3,24.3,15.7,24.3z M12.5,26.3c-0.6,0-1,0.4-1,1c0,0.6,0.5,1,1,1c0.6,0,1-0.4,1-1C13.5,26.8,13.1,26.3,12.5,26.3z
		 M9.5,28.9c-0.6,0-1,0.4-1,1c0,0.6,0.4,1,1,1c0.6,0,1-0.4,1-1C10.5,29.3,10,28.9,9.5,28.9z M11.1,31.5c-0.6,0-1,0.4-1,1
		c0,0.6,0.4,1,1,1s1-0.4,1-1C12.1,31.9,11.7,31.5,11.1,31.5z M14,29.1c-0.6,0-1,0.4-1,1c0,0.6,0.4,1,1,1c0.6,0,1-0.4,1-1
		C15,29.5,14.5,29.1,14,29.1z M17.1,27.1c-0.6,0-1,0.4-1,1c0,0.6,0.4,1,1,1c0.6,0,1-0.4,1-1C18.1,27.6,17.6,27.1,17.1,27.1z
		 M20.2,25.6c-0.6,0-1,0.4-1,1c0,0.6,0.4,1,1,1c0.6,0,1-0.4,1-1C21.2,26.1,20.7,25.6,20.2,25.6z M21.9,28.7c-0.6,0-1,0.4-1,1
		c0,0.6,0.4,1,1,1c0.6,0,1-0.4,1-1C22.9,29.1,22.4,28.7,21.9,28.7z M18.7,30c-0.6,0-1,0.4-1,1c0,0.6,0.4,1,1,1s1-0.4,1-1
		C19.7,30.4,19.2,30,18.7,30z M15.8,31.7c-0.6,0-1,0.4-1,1c0,0.6,0.4,1,1,1c0.6,0,1-0.4,1-1C16.8,32.2,16.4,31.7,15.8,31.7z M13,34
		c-0.6,0-1,0.4-1,1c0,0.6,0.4,1,1,1c0.6,0,1-0.4,1-1C14,34.4,13.5,34,13,34z M10.4,36.5c-0.6,0-1,0.4-1,1c0,0.6,0.4,1,1,1s1-0.4,1-1
		C11.4,37,11,36.5,10.4,36.5z M8.2,39.5c-0.6,0-1,0.4-1,1c0,0.6,0.4,1,1,1c0.6,0,1-0.4,1-1C9.2,40,8.7,39.5,8.2,39.5z M6.2,42.8
		c-0.6,0-1,0.4-1,1c0,0.6,0.4,1,1,1c0.6,0,1-0.4,1-1C7.2,43.2,6.8,42.8,6.2,42.8z M8.5,34.2c-0.6,0-1,0.4-1,1c0,0.6,0.4,1,1,1
		c0.6,0,1-0.4,1-1C9.5,34.7,9,34.2,8.5,34.2z M6.1,37.3c-0.6,0-1,0.4-1,1c0,0.6,0.4,1,1,1c0.6,0,1-0.4,1-1
		C7.1,37.7,6.7,37.3,6.1,37.3z M21.7,18.4c-0.6,0-1,0.4-1,1c0,0.6,0.4,1,1,1c0.6,0,1-0.4,1-1C22.7,18.9,22.2,18.4,21.7,18.4z
		 M18.2,19.7c-0.6,0-1,0.4-1,1c0,0.6,0.4,1,1,1c0.6,0,1-0.4,1-1C19.2,20.1,18.7,19.7,18.2,19.7z M14.7,21.5c-0.6,0-1,0.4-1,1
		c0,0.6,0.4,1,1,1c0.6,0,1-0.4,1-1C15.7,21.9,15.2,21.5,14.7,21.5z M11.5,23.5c-0.6,0-1,0.4-1,1c0,0.6,0.4,1,1,1s1-0.4,1-1
		C12.5,24,12,23.5,11.5,23.5z M25.1,27.8c-0.6,0-1,0.4-1,1c0,0.6,0.4,1,1,1c0.6,0,1-0.4,1-1C26.1,28.3,25.6,27.8,25.1,27.8z
		 M25.9,20.8c-0.6,0-1,0.4-1,1c0,0.6,0.4,1,1,1c0.6,0,1-0.4,1-1C26.9,21.3,26.4,20.8,25.9,20.8z M25.2,17.8c-0.6,0-1,0.4-1,1
		c0,0.6,0.4,1,1,1c0.6,0,1-0.4,1-1C26.2,18.2,25.7,17.8,25.2,17.8z M33.8,31.8c-0.6,0-1,0.4-1,1c0,0.6,0.4,1,1,1c0.6,0,1-0.4,1-1
		C34.8,32.3,34.4,31.8,33.8,31.8z M33.6,35c-0.6,0-1,0.5-1,1c0,0.6,0.5,1,1,1c0.6,0,1-0.4,1-1C34.6,35.5,34.1,35,33.6,35z M34.1,38
		c-0.6,0-1,0.4-1,1c0,0.6,0.4,1,1,1c0.6,0,1-0.4,1-1C35.1,38.5,34.7,38,34.1,38z M35.6,41c-0.6,0-1,0.4-1,1c0,0.6,0.4,1,1,1
		c0.6,0,1-0.4,1-1C36.6,41.4,36.1,41,35.6,41z M39.5,46.8c-0.6,0-1,0.4-1,1c0,0.6,0.4,1,1,1c0.6,0,1-0.4,1-1
		C40.5,47.3,40,46.8,39.5,46.8z M37.2,49.2c-0.6,0-1,0.4-1,1c0,0.6,0.4,1,1,1c0.6,0,1-0.4,1-1C38.2,49.6,37.8,49.2,37.2,49.2z
		 M36.1,52.3c-0.6,0-1,0.4-1,1c0,0.6,0.4,1,1,1c0.6,0,1-0.4,1-1C37.1,52.7,36.7,52.3,36.1,52.3z M36.4,55.6c-0.6,0-1,0.4-1,1
		c0,0.6,0.4,1,1,1c0.6,0,1-0.4,1-1C37.4,56.1,37,55.6,36.4,55.6z M37.6,59c-0.6,0-1,0.4-1,1s0.4,1,1,1c0.6,0,1-0.4,1-1
		S38.1,59,37.6,59z M40,62.1c-0.6,0-1,0.4-1,1c0,0.6,0.4,1,1,1c0.6,0,1-0.4,1-1C41,62.5,40.6,62.1,40,62.1z M43.3,64.5
		c-0.6,0-1,0.4-1,1c0,0.6,0.4,1,1,1c0.6,0,1-0.4,1-1C44.3,65,43.8,64.5,43.3,64.5z M40.3,65.7c-0.6,0-1,0.4-1,1c0,0.6,0.4,1,1,1
		c0.6,0,1-0.4,1-1C41.3,66.2,40.9,65.7,40.3,65.7z M37,66.2c-0.6,0-1,0.4-1,1c0,0.6,0.4,1,1,1c0.6,0,1-0.4,1-1
		C38,66.7,37.6,66.2,37,66.2z M33.6,66.1c-0.6,0-1,0.4-1,1c0,0.6,0.5,1,1,1c0.6,0,1-0.4,1-1C34.6,66.5,34.1,66.1,33.6,66.1z
		 M30.1,65.3c-0.6,0-1,0.4-1,1c0,0.6,0.4,1,1,1c0.6,0,1-0.4,1-1C31.1,65.7,30.7,65.3,30.1,65.3z M26.7,63.8c-0.6,0-1,0.4-1,1
		c0,0.6,0.4,1,1,1c0.6,0,1-0.4,1-1C27.7,64.2,27.2,63.8,26.7,63.8z M23.4,61.6c-0.6,0-1,0.4-1,1c0,0.6,0.4,1,1,1c0.6,0,1-0.4,1-1
		C24.4,62.1,23.9,61.6,23.4,61.6z M20.4,58.9c-0.6,0-1,0.4-1,1s0.4,1,1,1c0.6,0,1-0.4,1-1S21,58.9,20.4,58.9z M17.9,55.8
		c-0.6,0-1,0.4-1,1c0,0.6,0.4,1,1,1c0.6,0,1-0.4,1-1C18.9,56.2,18.4,55.8,17.9,55.8z M21.4,55.8c-0.6,0-1,0.4-1,1c0,0.6,0.4,1,1,1
		c0.6,0,1-0.4,1-1C22.4,56.3,22,55.8,21.4,55.8z M25.5,55.5c-0.6,0-1,0.4-1,1c0,0.6,0.4,1,1,1c0.6,0,1-0.4,1-1
		C26.5,56,26.1,55.5,25.5,55.5z M30.2,54.4c-0.6,0-1,0.4-1,1c0,0.6,0.4,1,1,1c0.6,0,1-0.4,1-1C31.2,54.9,30.8,54.4,30.2,54.4z
		 M33,51.7c-0.6,0-1,0.4-1,1c0,0.6,0.4,1,1,1c0.6,0,1-0.4,1-1C34,52.1,33.5,51.7,33,51.7z M33.8,48.2c-0.6,0-1,0.4-1,1s0.4,1,1,1
		c0.6,0,1-0.4,1-1S34.4,48.2,33.8,48.2z M35.6,45.4c-0.6,0-1,0.4-1,1s0.4,1,1,1c0.6,0,1-0.4,1-1S36.1,45.4,35.6,45.4z M33.1,43.2
		c-0.6,0-1,0.4-1,1c0,0.6,0.4,1,1,1c0.6,0,1-0.4,1-1C34.1,43.7,33.6,43.2,33.1,43.2z M31.3,40.6c-0.6,0-1,0.4-1,1c0,0.6,0.4,1,1,1
		c0.6,0,1-0.4,1-1C32.3,41.1,31.8,40.6,31.3,40.6z M30.3,37.7c-0.6,0-1,0.4-1,1c0,0.6,0.4,1,1,1c0.6,0,1-0.4,1-1
		C31.3,38.1,30.9,37.7,30.3,37.7z M30.1,34.3c-0.6,0-1,0.4-1,1c0,0.6,0.4,1,1,1c0.6,0,1-0.4,1-1C31.1,34.8,30.7,34.3,30.1,34.3z
		 M26.8,34.6c-0.6,0-1,0.4-1,1c0,0.6,0.4,1,1,1c0.6,0,1-0.4,1-1C27.8,35,27.3,34.6,26.8,34.6z M26.9,38c-0.6,0-1,0.4-1,1
		c0,0.6,0.4,1,1,1c0.6,0,1-0.4,1-1C27.9,38.4,27.4,38,26.9,38z M27.6,41.2c-0.6,0-1,0.4-1,1c0,0.6,0.4,1,1,1c0.6,0,1-0.4,1-1
		C28.6,41.6,28.2,41.2,27.6,41.2z M29.1,44c-0.6,0-1,0.4-1,1c0,0.6,0.4,1,1,1c0.6,0,1-0.4,1-1C30.1,44.5,29.7,44,29.1,44z
		 M25.9,45.5c-0.6,0-1,0.4-1,1c0,0.6,0.4,1,1,1c0.6,0,1-0.4,1-1C26.9,45.9,26.4,45.5,25.9,45.5z M23.1,47.6c-0.6,0-1,0.4-1,1
		c0,0.6,0.4,1,1,1c0.6,0,1-0.4,1-1C24.1,48,23.7,47.6,23.1,47.6z M21,49.9c-0.6,0-1,0.4-1,1s0.5,1,1,1c0.6,0,1-0.4,1-1
		S21.6,49.9,21,49.9z M19.2,52.6c-0.6,0-1,0.4-1,1c0,0.6,0.4,1,1,1s1-0.4,1-1C20.2,53.1,19.7,52.6,19.2,52.6z M15.6,52
		c-0.6,0-1,0.4-1,1c0,0.6,0.4,1,1,1c0.6,0,1-0.4,1-1C16.6,52.4,16.2,52,15.6,52z M12.5,51c-0.6,0-1,0.4-1,1c0,0.6,0.5,1,1,1
		c0.6,0,1-0.5,1-1C13.5,51.4,13.1,51,12.5,51z M9.6,49.7c-0.6,0-1,0.4-1,1c0,0.6,0.4,1,1,1c0.6,0,1-0.4,1-1
		C10.6,50.2,10.2,49.7,9.6,49.7z M11.2,46.4c-0.6,0-1,0.4-1,1c0,0.6,0.4,1,1,1c0.6,0,1-0.4,1-1C12.2,46.9,11.7,46.4,11.2,46.4z
		 M14,47.9c-0.6,0-1,0.4-1,1s0.4,1,1,1c0.6,0,1-0.4,1-1S14.6,47.9,14,47.9z M17.2,49.1c-0.6,0-1,0.4-1,1c0,0.6,0.4,1,1,1
		c0.6,0,1-0.4,1-1C18.2,49.5,17.8,49.1,17.2,49.1z M19.3,46.4c-0.6,0-1,0.4-1,1c0,0.6,0.4,1,1,1c0.6,0,1-0.4,1-1
		C20.3,46.9,19.9,46.4,19.3,46.4z M21.7,44.2c-0.6,0-1,0.4-1,1c0,0.6,0.4,1,1,1s1-0.4,1-1C22.8,44.7,22.3,44.2,21.7,44.2z
		 M24.4,42.5c-0.6,0-1,0.4-1,1c0,0.6,0.4,1,1,1c0.6,0,1-0.4,1-1C25.4,42.9,25,42.5,24.4,42.5z M23.8,39c-0.6,0-1,0.4-1,1
		c0,0.6,0.4,1,1,1c0.6,0,1-0.4,1-1C24.8,39.5,24.3,39,23.8,39z M23.5,35.3c-0.6,0-1,0.4-1,1c0,0.6,0.4,1,1,1s1-0.4,1-1
		C24.5,35.7,24.1,35.3,23.5,35.3z M20.5,36.7c-0.6,0-1,0.4-1,1c0,0.6,0.4,1,1,1c0.6,0,1-0.4,1-1C21.5,37.1,21,36.7,20.5,36.7z
		 M20.9,40.6c-0.6,0-1,0.4-1,1c0,0.6,0.4,1,1,1c0.6,0,1-0.4,1-1C21.9,41.1,21.4,40.6,20.9,40.6z M18.2,42.6c-0.6,0-1,0.4-1,1
		c0,0.6,0.4,1,1,1c0.6,0,1-0.4,1-1C19.2,43.1,18.8,42.6,18.2,42.6z M17.7,38.5c-0.6,0-1,0.4-1,1c0,0.6,0.4,1,1,1c0.6,0,1-0.4,1-1
		C18.7,38.9,18.3,38.5,17.7,38.5z M15.3,40.8c-0.6,0-1,0.4-1,1c0,0.6,0.4,1,1,1c0.6,0,1-0.4,1-1C16.3,41.2,15.9,40.8,15.3,40.8z
		 M13.1,43.5c-0.6,0-1,0.4-1,1c0,0.6,0.4,1,1,1c0.6,0,1-0.4,1-1C14.1,43.9,13.7,43.5,13.1,43.5z M16,45.1c-0.6,0-1,0.4-1,1
		c0,0.6,0.4,1,1,1c0.6,0,1-0.4,1-1C17,45.5,16.5,45.1,16,45.1z M31.1,46.4c-0.6,0-1,0.4-1,1c0,0.6,0.5,1,1,1c0.6,0,1-0.4,1-1
		C32.1,46.9,31.7,46.4,31.1,46.4z M30.1,50.2c-0.6,0-1,0.4-1,1s0.4,1,1,1c0.6,0,1-0.4,1-1S30.7,50.2,30.1,50.2z M27.5,52.7
		c-0.6,0-1,0.4-1,1c0,0.6,0.4,1,1,1c0.6,0,1-0.4,1-1C28.5,53.1,28.1,52.7,27.5,52.7z M25.1,50.4c-0.6,0-1,0.4-1,1s0.4,1,1,1
		c0.6,0,1-0.4,1-1S25.7,50.4,25.1,50.4z M27.8,48.2c-0.6,0-1,0.4-1,1s0.4,1,1,1c0.6,0,1-0.4,1-1S28.3,48.2,27.8,48.2z M23.1,53
		c-0.6,0-1,0.4-1,1c0,0.6,0.4,1,1,1c0.6,0,1-0.4,1-1C24.1,53.5,23.6,53,23.1,53z M33.1,55.4c-0.6,0-1,0.4-1,1c0,0.6,0.4,1,1,1
		c0.6,0,1-0.4,1-1C34.1,55.9,33.7,55.4,33.1,55.4z M34.5,59.2c-0.6,0-1,0.4-1,1c0,0.6,0.4,1,1,1c0.6,0,1-0.4,1-1
		C35.5,59.6,35.1,59.2,34.5,59.2z M31.4,58.6c-0.6,0-1,0.4-1,1s0.5,1,1,1c0.6,0,1-0.4,1-1S31.9,58.6,31.4,58.6z M28.4,57.4
		c-0.6,0-1,0.4-1,1c0,0.6,0.4,1,1,1c0.6,0,1-0.4,1-1C29.4,57.9,28.9,57.4,28.4,57.4z M24.3,58.5c-0.6,0-1,0.4-1,1c0,0.6,0.4,1,1,1
		c0.6,0,1-0.4,1-1C25.3,59,24.8,58.5,24.3,58.5z M27.2,60.6c-0.6,0-1,0.4-1,1c0,0.6,0.4,1,1,1c0.6,0,1-0.4,1-1
		C28.2,61,27.7,60.6,27.2,60.6z M30.4,62c-0.6,0-1,0.4-1,1c0,0.6,0.4,1,1,1c0.6,0,1-0.4,1-1C31.4,62.4,30.9,62,30.4,62z M33.7,62.7
		c-0.6,0-1,0.4-1,1c0,0.6,0.4,1,1,1c0.6,0,1-0.4,1-1C34.7,63.2,34.3,62.7,33.7,62.7z M36.9,62.8c-0.6,0-1,0.5-1,1c0,0.6,0.4,1,1,1
		c0.6,0,1-0.4,1-1C37.9,63.2,37.5,62.8,36.9,62.8z M14.5,55.2c-0.6,0-1,0.4-1,1c0,0.6,0.4,1,1,1c0.6,0,1-0.4,1-1
		C15.5,55.6,15,55.2,14.5,55.2z M11.4,54.4c-0.6,0-1,0.4-1,1c0,0.6,0.4,1,1,1c0.6,0,1-0.4,1-1C12.4,54.9,11.9,54.4,11.4,54.4z
		 M8.5,53.3c-0.6,0-1,0.5-1,1c0,0.6,0.4,1,1,1c0.6,0,1-0.4,1-1C9.5,53.8,9,53.3,8.5,53.3z M7.7,57.1c-0.6,0-1,0.4-1,1
		c0,0.6,0.4,1,1,1c0.6,0,1-0.4,1-1C8.7,57.5,8.3,57.1,7.7,57.1z M10.7,58c-0.6,0-1,0.4-1,1c0,0.6,0.4,1,1,1s1-0.4,1-1
		C11.7,58.5,11.2,58,10.7,58z M13.7,58.7c-0.6,0-1,0.4-1,1s0.4,1,1,1c0.6,0,1-0.4,1-1S14.3,58.7,13.7,58.7z M17,59c-0.6,0-1,0.4-1,1
		s0.4,1,1,1c0.6,0,1-0.4,1-1S17.5,59,17,59z M7.4,61c-0.6,0-1,0.4-1,1s0.4,1,1,1c0.6,0,1-0.4,1-1S7.9,61,7.4,61z M10.4,61.8
		c-0.6,0-1,0.4-1,1c0,0.6,0.4,1,1,1c0.6,0,1-0.5,1-1C11.4,62.2,10.9,61.8,10.4,61.8z M13.4,62.3c-0.6,0-1,0.4-1,1c0,0.6,0.4,1,1,1
		c0.6,0,1-0.4,1-1C14.4,62.8,13.9,62.3,13.4,62.3z M16.6,62.5c-0.6,0-1,0.4-1,1c0,0.6,0.4,1,1,1c0.6,0,1-0.4,1-1
		C17.6,62.9,17.1,62.5,16.6,62.5z M19.9,62.3c-0.6,0-1,0.4-1,1c0,0.6,0.4,1,1,1c0.6,0,1-0.4,1-1C20.9,62.8,20.5,62.3,19.9,62.3z
		 M23.2,65c-0.6,0-1,0.4-1,1c0,0.6,0.4,1,1,1s1-0.4,1-1C24.2,65.4,23.8,65,23.2,65z M19.9,65.7c-0.6,0-1,0.4-1,1c0,0.6,0.4,1,1,1
		c0.6,0,1-0.4,1-1C20.9,66.2,20.4,65.7,19.9,65.7z M16.6,66c-0.6,0-1,0.4-1,1c0,0.6,0.4,1,1,1c0.6,0,1-0.4,1-1
		C17.6,66.4,17.1,66,16.6,66z M13.5,66c-0.6,0-1,0.4-1,1c0,0.6,0.4,1,1,1c0.6,0,1-0.4,1-1C14.5,66.4,14.1,66,13.5,66z M10.4,65.6
		c-0.6,0-1,0.4-1,1c0,0.6,0.4,1,1,1c0.6,0,1-0.4,1-1C11.4,66,11,65.6,10.4,65.6z M14.1,69.7c-0.6,0-1,0.4-1,1c0,0.6,0.4,1,1,1
		c0.6,0,1-0.4,1-1C15.1,70.2,14.6,69.7,14.1,69.7z M17.1,69.6c-0.6,0-1,0.4-1,1c0,0.6,0.4,1,1,1c0.6,0,1-0.4,1-1
		C18.1,70.1,17.6,69.6,17.1,69.6z M20.3,69.1c-0.6,0-1,0.4-1,1c0,0.6,0.4,1,1,1c0.6,0,1-0.4,1-1C21.3,69.6,20.8,69.1,20.3,69.1z
		 M23.4,68.3c-0.6,0-1,0.4-1,1s0.4,1,1,1c0.6,0,1-0.4,1-1S24,68.3,23.4,68.3z M15,73.5c-0.6,0-1,0.4-1,1c0,0.6,0.4,1,1,1
		c0.6,0,1-0.4,1-1C16,74,15.6,73.5,15,73.5z M18.1,73.3c-0.6,0-1,0.4-1,1c0,0.6,0.4,1,1,1c0.6,0,1-0.4,1-1
		C19.1,73.7,18.7,73.3,18.1,73.3z M21.1,72.7c-0.6,0-1,0.4-1,1c0,0.6,0.4,1,1,1c0.6,0,1-0.4,1-1C22.1,73.1,21.7,72.7,21.1,72.7z
		 M24.2,71.6c-0.6,0-1,0.4-1,1c0,0.6,0.4,1,1,1s1-0.4,1-1C25.2,72.1,24.7,71.6,24.2,71.6z M27.2,70.3c-0.6,0-1,0.4-1,1
		c0,0.6,0.4,1,1,1c0.6,0,1-0.4,1-1C28.2,70.8,27.8,70.3,27.2,70.3z M31.3,71.7c-0.6,0-1,0.4-1,1c0,0.6,0.4,1,1,1c0.6,0,1-0.4,1-1
		C32.3,72.2,31.8,71.7,31.3,71.7z M26.7,67.1c-0.6,0-1,0.4-1,1c0,0.6,0.4,1,1,1c0.6,0,1-0.4,1-1C27.7,67.5,27.2,67.1,26.7,67.1z
		 M30.4,68.5c-0.5,0-1,0.4-1,1c0,0.6,0.5,1,1,1c0.6,0,1-0.4,1-1C31.4,68.9,30.9,68.5,30.4,68.5z M34.1,69.3c-0.6,0-1,0.4-1,1
		c0,0.6,0.4,1,1,1c0.6,0,1-0.4,1-1C35.1,69.7,34.6,69.3,34.1,69.3z M37.7,69.5c-0.6,0-1,0.4-1,1c0,0.6,0.4,1,1,1c0.6,0,1-0.4,1-1
		C38.7,69.9,38.3,69.5,37.7,69.5z M41.3,69c-0.6,0-1,0.4-1,1c0,0.6,0.4,1,1,1c0.6,0,1-0.4,1-1C42.3,69.4,41.9,69,41.3,69z
		 M44.5,67.9c-0.6,0-1,0.4-1,1c0,0.6,0.4,1,1,1s1-0.4,1-1C45.5,68.4,45.1,67.9,44.5,67.9z M46.3,70.7c-0.6,0-1,0.4-1,1
		c0,0.6,0.4,1,1,1c0.6,0,1-0.4,1-1C47.3,71.2,46.9,70.7,46.3,70.7z M48.5,73.2c-0.6,0-1,0.4-1,1c0,0.6,0.4,1,1,1c0.6,0,1-0.4,1-1
		C49.5,73.7,49,73.2,48.5,73.2z M51.1,75.2c-0.6,0-1,0.4-1,1c0,0.6,0.4,1,1,1c0.6,0,1-0.4,1-1C52.1,75.6,51.6,75.2,51.1,75.2z
		 M54,76.7c-0.6,0-1,0.4-1,1c0,0.6,0.4,1,1,1s1-0.4,1-1C55,77.2,54.6,76.7,54,76.7z M57.2,77.9c-0.6,0-1,0.4-1,1c0,0.6,0.4,1,1,1
		s1-0.5,1-1C58.2,78.3,57.8,77.9,57.2,77.9z M60.6,78.6c-0.6,0-1,0.4-1,1c0,0.6,0.4,1,1,1c0.6,0,1-0.4,1-1
		C61.6,79,61.1,78.6,60.6,78.6z M64.2,78.9c-0.6,0-1,0.4-1,1c0,0.6,0.4,1,1,1c0.6,0,1-0.4,1-1C65.2,79.3,64.7,78.9,64.2,78.9z
		 M67.8,78.6c-0.6,0-1,0.4-1,1c0,0.6,0.4,1,1,1c0.6,0,1-0.4,1-1C68.8,79.1,68.3,78.6,67.8,78.6z M71.5,77.9c-0.6,0-1,0.4-1,1
		c0,0.6,0.4,1,1,1c0.6,0,1-0.4,1-1C72.5,78.4,72.1,77.9,71.5,77.9z M71.5,81c-0.6,0-1,0.4-1,1c0,0.6,0.4,1,1,1c0.6,0,1-0.4,1-1
		C72.5,81.4,72.1,81,71.5,81z M67.7,81.7c-0.6,0-1,0.4-1,1c0,0.6,0.4,1,1,1c0.6,0,1-0.4,1-1C68.7,82.2,68.2,81.7,67.7,81.7z
		 M63.9,81.9c-0.6,0-1,0.4-1,1c0,0.6,0.4,1,1,1c0.6,0,1-0.4,1-1C64.9,82.4,64.4,81.9,63.9,81.9z M60.1,81.8c-0.6,0-1,0.4-1,1
		c0,0.6,0.5,1,1,1c0.6,0,1-0.4,1-1C61.1,82.2,60.7,81.8,60.1,81.8z M56.5,81.1c-0.6,0-1,0.4-1,1c0,0.6,0.4,1,1,1s1-0.4,1-1
		C57.5,81.6,57.1,81.1,56.5,81.1z M53.2,80c-0.6,0-1,0.4-1,1c0,0.6,0.4,1,1,1c0.6,0,1-0.4,1-1C54.2,80.5,53.8,80,53.2,80z
		 M50.2,78.6c-0.6,0-1,0.4-1,1c0,0.6,0.4,1,1,1c0.6,0,1-0.4,1-1C51.2,79,50.7,78.6,50.2,78.6z M47.3,76.7c-0.6,0-1,0.4-1,1
		c0,0.6,0.4,1,1,1c0.6,0,1-0.4,1-1C48.3,77.1,47.8,76.7,47.3,76.7z M45.9,79.8c-0.6,0-1,0.4-1,1c0,0.6,0.4,1,1,1c0.6,0,1-0.4,1-1
		C46.9,80.3,46.4,79.8,45.9,79.8z M44.2,82.5c-0.6,0-1,0.4-1,1c0,0.6,0.4,1,1,1s1-0.4,1-1C45.2,83,44.7,82.5,44.2,82.5z M42.2,85
		c-0.6,0-1,0.4-1,1c0,0.6,0.4,1,1,1c0.6,0,1-0.4,1-1C43.2,85.5,42.8,85,42.2,85z M40.1,87.2c-0.6,0-1,0.4-1,1c0,0.6,0.4,1,1,1
		c0.6,0,1-0.4,1-1C41.1,87.7,40.7,87.2,40.1,87.2z M45.5,86.9c-0.6,0-1,0.4-1,1c0,0.6,0.4,1,1,1c0.6,0,1-0.4,1-1
		C46.5,87.4,46.1,86.9,45.5,86.9z M49.1,88.3c-0.6,0-1,0.4-1,1c0,0.6,0.4,1,1,1c0.6,0,1-0.4,1-1C50.1,88.8,49.6,88.3,49.1,88.3z
		 M50.7,85.8c-0.6,0-1,0.4-1,1c0,0.6,0.4,1,1,1c0.6,0,1-0.4,1-1C51.7,86.3,51.3,85.8,50.7,85.8z M52.1,83.1c-0.6,0-1,0.4-1,1
		c0,0.6,0.4,1,1,1c0.6,0,1-0.4,1-1C53.1,83.5,52.6,83.1,52.1,83.1z M55.7,84.1c-0.6,0-1,0.4-1,1c0,0.6,0.4,1,1,1s1-0.4,1-1
		C56.7,84.5,56.2,84.1,55.7,84.1z M54.4,86.9c-0.6,0-1,0.4-1,1c0,0.6,0.4,1,1,1c0.6,0,1-0.4,1-1C55.4,87.3,55,86.9,54.4,86.9z
		 M58.3,87.5c-0.6,0-1,0.4-1,1c0,0.6,0.4,1,1,1c0.6,0,1-0.4,1-1C59.3,88,58.9,87.5,58.3,87.5z M59.4,84.7c-0.6,0-1,0.4-1,1
		c0,0.6,0.4,1,1,1c0.6,0,1-0.4,1-1C60.4,85.2,60,84.7,59.4,84.7z M63.2,85c-0.6,0-1,0.4-1,1c0,0.6,0.4,1,1,1c0.6,0,1-0.4,1-1
		C64.2,85.4,63.8,85,63.2,85z M48.9,81.6c-0.6,0-1,0.4-1,1c0,0.6,0.4,1,1,1c0.6,0,1-0.4,1-1C49.9,82.1,49.4,81.6,48.9,81.6z
		 M47.3,84.3c-0.6,0-1,0.4-1,1c0,0.6,0.4,1,1,1c0.6,0,1-0.4,1-1C48.3,84.8,47.8,84.3,47.3,84.3z M75.1,76.9c-0.6,0-1,0.4-1,1
		c0,0.6,0.4,1,1,1c0.6,0,1-0.4,1-1C76.1,77.3,75.7,76.9,75.1,76.9z M44.9,74.5c-0.6,0-1,0.4-1,1c0,0.6,0.4,1,1,1c0.6,0,1-0.4,1-1
		C45.9,74.9,45.4,74.5,44.9,74.5z M43.2,77.7c-0.6,0-1,0.4-1,1c0,0.6,0.4,1,1,1c0.6,0,1-0.4,1-1C44.2,78.1,43.8,77.7,43.2,77.7z
		 M41.3,80.4c-0.6,0-1,0.5-1,1c0,0.6,0.4,1,1,1c0.6,0,1-0.4,1-1C42.3,80.8,41.9,80.4,41.3,80.4z M39.3,82.9c-0.6,0-1,0.4-1,1
		c0,0.6,0.4,1,1,1c0.6,0,1-0.4,1-1C40.3,83.3,39.9,82.9,39.3,82.9z M37,85c-0.6,0-1,0.4-1,1c0,0.6,0.4,1,1,1c0.6,0,1-0.4,1-1
		C38,85.4,37.6,85,37,85z M34.6,86.8c-0.6,0-1,0.4-1,1c0,0.6,0.4,1,1,1c0.6,0,1-0.4,1-1C35.6,87.2,35.2,86.8,34.6,86.8z M31.7,84.1
		c-0.6,0-1,0.4-1,1s0.4,1,1,1c0.6,0,1-0.4,1-1S32.2,84.1,31.7,84.1z M26.5,82.6c-0.6,0-1,0.4-1,1c0,0.6,0.4,1,1,1s1-0.4,1-1
		C27.5,83.1,27,82.6,26.5,82.6z M24.2,79.4c-0.6,0-1,0.4-1,1c0,0.6,0.5,1,1,1c0.6,0,1-0.4,1-1C25.2,79.9,24.8,79.4,24.2,79.4z
		 M19.5,76.8c-0.6,0-1,0.4-1,1c0,0.6,0.4,1,1,1c0.6,0,1-0.5,1-1C20.5,77.3,20.1,76.8,19.5,76.8z M22.4,76.1c-0.6,0-1,0.4-1,1
		c0,0.6,0.4,1,1,1c0.6,0,1-0.4,1-1C23.4,76.5,23,76.1,22.4,76.1z M25.4,75c-0.6,0-1,0.4-1,1c0,0.6,0.4,1,1,1c0.6,0,1-0.4,1-1
		C26.4,75.4,25.9,75,25.4,75z M27.1,78.2c-0.6,0-1,0.4-1,1c0,0.6,0.4,1,1,1c0.6,0,1-0.4,1-1C28.1,78.7,27.6,78.2,27.1,78.2z
		 M29.9,76.7c-0.6,0-1,0.4-1,1c0,0.6,0.4,1,1,1s1-0.4,1-1C30.9,77.2,30.4,76.7,29.9,76.7z M32.5,74.8c-0.6,0-1,0.4-1,1
		c0,0.6,0.4,1,1,1c0.6,0,1-0.4,1-1C33.5,75.2,33.1,74.8,32.5,74.8z M35.2,72.5c-0.6,0-1,0.4-1,1c0,0.6,0.4,1,1,1c0.6,0,1-0.4,1-1
		C36.2,72.9,35.8,72.5,35.2,72.5z M39.1,72.5c-0.6,0-1,0.4-1,1c0,0.6,0.4,1,1,1s1-0.4,1-1C40.1,72.9,39.6,72.5,39.1,72.5z
		 M36.8,75.4c-0.6,0-1,0.4-1,1c0,0.6,0.4,1,1,1c0.6,0,1-0.4,1-1C37.8,75.8,37.4,75.4,36.8,75.4z M34.4,77.7c-0.6,0-1,0.4-1,1
		c0,0.6,0.4,1,1,1c0.6,0,1-0.4,1-1C35.4,78.1,34.9,77.7,34.4,77.7z M31.8,79.6c-0.6,0-1,0.4-1,1c0,0.6,0.4,1,1,1c0.6,0,1-0.4,1-1
		C32.8,80.1,32.4,79.6,31.8,79.6z M34.2,82.4c-0.6,0-1,0.4-1,1c0,0.6,0.4,1,1,1c0.6,0,1-0.4,1-1C35.2,82.8,34.7,82.4,34.2,82.4z
		 M36.6,80.4c-0.6,0-1,0.4-1,1c0,0.6,0.4,1,1,1c0.6,0,1-0.4,1-1C37.6,80.8,37.2,80.4,36.6,80.4z M38.9,78c-0.6,0-1,0.4-1,1
		c0,0.6,0.4,1,1,1c0.6,0,1-0.4,1-1C39.9,78.4,39.4,78,38.9,78z M40.9,75.2c-0.6,0-1,0.4-1,1c0,0.6,0.4,1,1,1s1-0.4,1-1
		C41.9,75.6,41.5,75.2,40.9,75.2z M42.8,71.9c-0.6,0-1,0.4-1,1c0,0.6,0.4,1,1,1c0.6,0,1-0.4,1-1C43.8,72.4,43.4,71.9,42.8,71.9z
		 M29.2,81.3c-0.6,0-1,0.4-1,1c0,0.6,0.4,1,1,1c0.6,0,1-0.4,1-1C30.2,81.8,29.8,81.3,29.2,81.3z M28.3,73.5c-0.6,0-1,0.4-1,1
		c0,0.6,0.4,1,1,1c0.6,0,1-0.4,1-1C29.3,74,28.9,73.5,28.3,73.5z M30.5,31c-0.6,0-1,0.4-1,1c0,0.6,0.4,1,1,1c0.6,0,1-0.4,1-1
		C31.5,31.5,31.1,31,30.5,31z M27.2,31c-0.6,0-1,0.4-1,1c0,0.6,0.4,1,1,1c0.6,0,1-0.4,1-1C28.2,31.5,27.7,31,27.2,31z M24,31.5
		c-0.6,0-1,0.4-1,1c0,0.6,0.4,1,1,1c0.6,0,1-0.4,1-1C25,32,24.6,31.5,24,31.5z M20.9,32.7c-0.6,0-1,0.4-1,1c0,0.6,0.4,1,1,1
		c0.6,0,1-0.4,1-1C21.9,33.2,21.4,32.7,20.9,32.7z M17.9,34.2c-0.6,0-1,0.4-1,1c0,0.6,0.4,1,1,1c0.6,0,1-0.4,1-1
		C18.9,34.7,18.5,34.2,17.9,34.2z M15.2,36.3c-0.6,0-1,0.4-1,1s0.4,1,1,1c0.6,0,1-0.4,1-1S15.7,36.3,15.2,36.3z M12.7,38.7
		c-0.6,0-1,0.4-1,1c0,0.6,0.4,1,1,1c0.6,0,1-0.4,1-1C13.7,39.2,13.2,38.7,12.7,38.7z M10.4,41.5c-0.6,0-1,0.4-1,1c0,0.6,0.4,1,1,1
		s1-0.4,1-1C11.4,42,11,41.5,10.4,41.5z M8.5,44.7c-0.6,0-1,0.4-1,1c0,0.6,0.4,1,1,1c0.6,0,1-0.4,1-1C9.5,45.2,9.1,44.7,8.5,44.7z
		 M6.9,48.2c-0.6,0-1,0.4-1,1s0.4,1,1,1c0.6,0,1-0.4,1-1S7.5,48.2,6.9,48.2z M5.8,51.9c-0.6,0-1,0.4-1,1c0,0.6,0.4,1,1,1
		c0.6,0,1-0.4,1-1C6.8,52.4,6.3,51.9,5.8,51.9z M25,11.5c-0.6,0-1,0.4-1,1c0,0.6,0.4,1,1,1c0.6,0,1-0.4,1-1
		C26,11.9,25.6,11.5,25,11.5z M24.9,14.5c-0.6,0-1,0.4-1,1c0,0.6,0.4,1,1,1c0.6,0,1-0.4,1-1C25.9,15,25.5,14.5,24.9,14.5z
		 M21.3,15.4c-0.6,0-1,0.4-1,1c0,0.6,0.4,1,1,1c0.6,0,1-0.4,1-1C22.3,15.9,21.9,15.4,21.3,15.4z M17.6,16.8c-0.6,0-1,0.4-1,1
		c0,0.6,0.4,1,1,1c0.6,0,1-0.4,1-1C18.6,17.2,18.1,16.8,17.6,16.8z M38.7,19.1c-0.6,0-1,0.4-1,1c0,0.6,0.4,1,1,1c0.6,0,1-0.4,1-1
		C39.7,19.6,39.2,19.1,38.7,19.1z M35.5,18c-0.6,0-1,0.4-1,1c0,0.6,0.4,1,1,1c0.6,0,1-0.4,1-1C36.5,18.5,36,18,35.5,18z M32.2,17.4
		c-0.6,0-1,0.4-1,1c0,0.6,0.4,1,1,1c0.6,0,1-0.4,1-1C33.2,17.8,32.8,17.4,32.2,17.4z M32.6,20.9c-0.6,0-1,0.4-1,1c0,0.6,0.4,1,1,1
		c0.6,0,1-0.4,1-1C33.6,21.3,33.1,20.9,32.6,20.9z M38.8,23c-0.6,0-1,0.4-1,1c0,0.6,0.4,1,1,1c0.6,0,1-0.4,1-1
		C39.8,23.4,39.3,23,38.8,23z M35.8,21.6c-0.6,0-1,0.4-1,1c0,0.6,0.4,1,1,1c0.6,0,1-0.4,1-1C36.8,22.1,36.3,21.6,35.8,21.6z
		 M52.6,16.5c-0.6,0-1,0.4-1,1c0,0.6,0.4,1,1,1c0.6,0,1-0.4,1-1C53.6,17,53.2,16.5,52.6,16.5z M66.9,8.8c-0.6,0-1,0.4-1,1
		c0,0.6,0.4,1,1,1c0.6,0,1-0.4,1-1C67.9,9.3,67.5,8.8,66.9,8.8z M45,41.9c-0.6,0-1,0.4-1,1c0,0.6,0.4,1,1,1c0.6,0,1-0.4,1-1
		C46,42.4,45.5,41.9,45,41.9z M56.2,42.4c-0.6,0-1,0.4-1,1c0,0.6,0.4,1,1,1c0.6,0,1-0.4,1-1C57.2,42.8,56.7,42.4,56.2,42.4z
		 M62.8,43.7c-0.6,0-1,0.5-1,1c0,0.6,0.4,1,1,1c0.6,0,1-0.4,1-1C63.8,44.2,63.3,43.7,62.8,43.7z M65.3,45.7c-0.6,0-1,0.4-1,1
		c0,0.6,0.4,1,1,1c0.6,0,1-0.4,1-1C66.3,46.1,65.8,45.7,65.3,45.7z M67.3,48.2c-0.6,0-1,0.4-1,1s0.4,1,1,1c0.6,0,1-0.4,1-1
		S67.8,48.2,67.3,48.2z M68.6,51.1c-0.6,0-1,0.4-1,1s0.4,1,1,1c0.6,0,1-0.4,1-1S69.1,51.1,68.6,51.1z M69.3,54.5c-0.6,0-1,0.4-1,1
		c0,0.6,0.4,1,1,1c0.6,0,1-0.4,1-1C70.3,55,69.9,54.5,69.3,54.5z M72.6,56.9c-0.6,0-1,0.4-1,1c0,0.6,0.4,1,1,1c0.6,0,1-0.4,1-1
		C73.6,57.4,73.2,56.9,72.6,56.9z M75.6,55.3c-0.6,0-1,0.4-1,1c0,0.6,0.4,1,1,1c0.6,0,1-0.4,1-1C76.6,55.8,76.1,55.3,75.6,55.3z
		 M78.2,53.4c-0.6,0-1,0.4-1,1c0,0.6,0.4,1,1,1c0.6,0,1-0.4,1-1C79.2,53.8,78.7,53.4,78.2,53.4z M80.5,50.9c-0.6,0-1,0.4-1,1
		c0,0.6,0.4,1,1,1c0.6,0,1-0.4,1-1C81.5,51.3,81.1,50.9,80.5,50.9z M82.6,48.1c-0.6,0-1,0.4-1,1c0,0.6,0.4,1,1,1c0.6,0,1-0.4,1-1
		C83.6,48.5,83.2,48.1,82.6,48.1z M84.3,44.9c-0.6,0-1,0.4-1,1c0,0.6,0.4,1,1,1c0.6,0,1-0.4,1-1C85.3,45.3,84.8,44.9,84.3,44.9z
		 M85.5,41.4c-0.6,0-1,0.4-1,1c0,0.6,0.4,1,1,1c0.6,0,1-0.4,1-1C86.5,41.9,86.1,41.4,85.5,41.4z M86.5,37.8c-0.6,0-1,0.4-1,1
		c0,0.6,0.4,1,1,1c0.6,0,1-0.4,1-1C87.5,38.2,87,37.8,86.5,37.8z M87.1,33.9c-0.6,0-1,0.4-1,1c0,0.6,0.4,1,1,1c0.6,0,1-0.4,1-1
		C88.1,34.4,87.7,33.9,87.1,33.9z M84.2,33c-0.6,0-1,0.4-1,1c0,0.6,0.4,1,1,1c0.6,0,1-0.4,1-1C85.2,33.5,84.7,33,84.2,33z
		 M84.3,29.2c-0.6,0-1,0.4-1,1c0,0.6,0.4,1,1,1c0.6,0,1-0.4,1-1C85.3,29.7,84.8,29.2,84.3,29.2z M83.9,25.3c-0.6,0-1,0.4-1,1
		c0,0.6,0.4,1,1,1c0.6,0,1-0.4,1-1C84.9,25.8,84.5,25.3,83.9,25.3z M81.1,32.4c-0.6,0-1,0.4-1,1c0,0.6,0.4,1,1,1c0.6,0,1-0.4,1-1
		C82.1,32.9,81.6,32.4,81.1,32.4z M81.2,28.8c-0.6,0-1,0.4-1,1c0,0.6,0.4,1,1,1c0.6,0,1-0.4,1-1C82.2,29.2,81.8,28.8,81.2,28.8z
		 M80.8,25c-0.6,0-1,0.4-1,1c0,0.6,0.4,1,1,1c0.6,0,1-0.4,1-1C81.8,25.5,81.4,25,80.8,25z M80.2,21.3c-0.6,0-1,0.4-1,1
		c0,0.6,0.4,1,1,1c0.6,0,1-0.4,1-1C81.2,21.8,80.7,21.3,80.2,21.3z M77.1,21.5c-0.6,0-1,0.4-1,1c0,0.6,0.4,1,1,1c0.6,0,1-0.4,1-1
		C78.1,21.9,77.6,21.5,77.1,21.5z M77.8,25.1c-0.6,0-1,0.4-1,1c0,0.6,0.4,1,1,1c0.6,0,1-0.4,1-1C78.8,25.6,78.3,25.1,77.8,25.1z
		 M78,28.7c-0.6,0-1,0.4-1,1c0,0.6,0.4,1,1,1c0.6,0,1-0.4,1-1C79,29.1,78.6,28.7,78,28.7z M74.9,29c-0.6,0-1,0.4-1,1
		c0,0.6,0.4,1,1,1c0.6,0,1-0.4,1-1C75.9,29.4,75.5,29,74.9,29z M74.6,25.5c-0.6,0-1,0.4-1,1c0,0.6,0.4,1,1,1c0.6,0,1-0.4,1-1
		C75.6,25.9,75.1,25.5,74.6,25.5z M74,22c-0.6,0-1,0.4-1,1c0,0.6,0.4,1,1,1c0.6,0,1-0.4,1-1C75,22.4,74.5,22,74,22z M72.9,18.6
		c-0.6,0-1,0.4-1,1c0,0.6,0.4,1,1,1c0.6,0,1-0.4,1-1C73.9,19,73.4,18.6,72.9,18.6z M71.3,15.1c-0.6,0-1,0.4-1,1s0.4,1,1,1
		c0.6,0,1-0.4,1-1S71.9,15.1,71.3,15.1z M69.4,11.8c-0.6,0-1,0.4-1,1c0,0.6,0.4,1,1,1c0.6,0,1-0.4,1-1
		C70.4,12.3,69.9,11.8,69.4,11.8z M76,17.8c-0.6,0-1,0.4-1,1c0,0.6,0.4,1,1,1c0.6,0,1-0.4,1-1C77,18.3,76.5,17.8,76,17.8z
		 M74.3,14.3c-0.6,0-1,0.4-1,1c0,0.6,0.4,1,1,1c0.6,0,1-0.4,1-1C75.3,14.8,74.9,14.3,74.3,14.3z M77.8,32.1c-0.6,0-1,0.4-1,1
		c0,0.6,0.4,1,1,1c0.6,0,1-0.4,1-1C78.8,32.5,78.4,32.1,77.8,32.1z M74.5,32.3c-0.6,0-1,0.4-1,1c0,0.6,0.4,1,1,1c0.6,0,1-0.4,1-1
		C75.5,32.8,75,32.3,74.5,32.3z M70.8,32.8c-0.6,0-1,0.4-1,1s0.4,1,1,1c0.6,0,1-0.4,1-1S71.4,32.8,70.8,32.8z M71.4,29.5
		c-0.6,0-1,0.4-1,1c0,0.6,0.4,1,1,1c0.6,0,1-0.4,1-1C72.4,30,71.9,29.5,71.4,29.5z M71.4,26.3c-0.6,0-1,0.4-1,1c0,0.6,0.4,1,1,1
		c0.6,0,1-0.4,1-1C72.4,26.7,71.9,26.3,71.4,26.3z M70.8,22.9c-0.6,0-1,0.4-1,1c0,0.6,0.4,1,1,1c0.6,0,1-0.4,1-1
		C71.8,23.3,71.4,22.9,70.8,22.9z M69.9,19.5c-0.6,0-1,0.4-1,1c0,0.6,0.4,1,1,1c0.6,0,1-0.4,1-1C70.9,20,70.4,19.5,69.9,19.5z
		 M68.4,16.2c-0.6,0-1,0.4-1,1c0,0.6,0.4,1,1,1c0.6,0,1-0.4,1-1C69.4,16.6,68.9,16.2,68.4,16.2z M66.5,13.1c-0.6,0-1,0.4-1,1
		c0,0.6,0.4,1,1,1c0.6,0,1-0.4,1-1C67.5,13.6,67.1,13.1,66.5,13.1z M69.8,36c-0.6,0-1,0.4-1,1c0,0.6,0.4,1,1,1c0.6,0,1-0.4,1-1
		C70.8,36.4,70.4,36,69.8,36z M68.2,38.9c-0.6,0-1,0.4-1,1c0,0.6,0.4,1,1,1c0.6,0,1-0.4,1-1C69.2,39.3,68.8,38.9,68.2,38.9z
		 M65.9,41.4c-0.6,0-1,0.4-1,1c0,0.6,0.4,1,1,1c0.6,0,1-0.4,1-1C66.9,41.9,66.4,41.4,65.9,41.4z M68.2,43.7c-0.6,0-1,0.5-1,1
		c0,0.6,0.4,1,1,1c0.6,0,1-0.4,1-1C69.2,44.2,68.8,43.7,68.2,43.7z M70.2,46.5c-0.6,0-1,0.4-1,1c0,0.6,0.4,1,1,1c0.6,0,1-0.4,1-1
		C71.2,46.9,70.8,46.5,70.2,46.5z M71.6,49.6c-0.6,0-1,0.4-1,1c0,0.6,0.4,1,1,1c0.6,0,1-0.4,1-1C72.6,50.1,72.2,49.6,71.6,49.6z
		 M74.1,47.6c-0.6,0-1,0.4-1,1c0,0.6,0.4,1,1,1c0.6,0,1-0.4,1-1C75.1,48,74.7,47.6,74.1,47.6z M76.3,45.2c-0.6,0-1,0.4-1,1
		s0.4,1,1,1c0.6,0,1-0.4,1-1S76.9,45.2,76.3,45.2z M74.6,41.7c-0.6,0-1,0.4-1,1c0,0.6,0.4,1,1,1c0.6,0,1-0.4,1-1
		C75.7,42.1,75.2,41.7,74.6,41.7z M72.4,38.5c-0.6,0-1,0.4-1,1c0,0.6,0.4,1,1,1c0.6,0,1-0.4,1-1C73.4,38.9,72.9,38.5,72.4,38.5z
		 M73.7,35.5c-0.6,0-1,0.4-1,1c0,0.6,0.4,1,1,1c0.6,0,1-0.4,1-1C74.7,35.9,74.3,35.5,73.7,35.5z M77.2,35.6c-0.6,0-1,0.4-1,1
		c0,0.6,0.4,1,1,1c0.6,0,1-0.4,1-1C78.2,36,77.8,35.6,77.2,35.6z M76.2,38.7c-0.6,0-1,0.4-1,1c0,0.6,0.4,1,1,1c0.6,0,1-0.4,1-1
		C77.2,39.2,76.7,38.7,76.2,38.7z M78.2,42.4c-0.6,0-1,0.4-1,1c0,0.6,0.4,1,1,1c0.6,0,1-0.4,1-1C79.2,42.8,78.8,42.4,78.2,42.4z
		 M79.6,39.4c-0.6,0-1,0.4-1,1c0,0.6,0.4,1,1,1c0.6,0,1-0.4,1-1C80.6,39.8,80.1,39.4,79.6,39.4z M80.5,36c-0.6,0-1,0.4-1,1
		c0,0.6,0.4,1,1,1c0.6,0,1-0.4,1-1C81.5,36.4,81.1,36,80.5,36z M72.6,44.2c-0.6,0-1,0.4-1,1c0,0.6,0.4,1,1,1c0.6,0,1-0.4,1-1
		C73.6,44.6,73.2,44.2,72.6,44.2z M70.6,41.2c-0.6,0-1,0.4-1,1c0,0.6,0.4,1,1,1c0.6,0,1-0.4,1-1C71.6,41.7,71.1,41.2,70.6,41.2z
		 M72.5,53.1c-0.6,0-1,0.4-1,1c0,0.6,0.4,1,1,1c0.6,0,1-0.4,1-1C73.5,53.6,73,53.1,72.5,53.1z M75.1,51.4c-0.6,0-1,0.4-1,1
		c0,0.6,0.4,1,1,1c0.6,0,1-0.4,1-1C76.1,51.8,75.6,51.4,75.1,51.4z M77.6,49.1c-0.6,0-1,0.4-1,1c0,0.6,0.4,1,1,1c0.6,0,1-0.4,1-1
		C78.6,49.5,78.1,49.1,77.6,49.1z M79.7,46.4c-0.6,0-1,0.4-1,1c0,0.6,0.4,1,1,1c0.6,0,1-0.4,1-1C80.7,46.8,80.2,46.4,79.7,46.4z
		 M81.4,43.5c-0.6,0-1,0.4-1,1c0,0.6,0.5,1,1,1c0.6,0,1-0.4,1-1C82.4,43.9,82,43.5,81.4,43.5z M82.7,40.1c-0.6,0-1,0.4-1,1
		c0,0.6,0.4,1,1,1c0.6,0,1-0.4,1-1C83.7,40.6,83.2,40.1,82.7,40.1z M83.6,36.7c-0.6,0-1,0.4-1,1c0,0.6,0.4,1,1,1c0.6,0,1-0.4,1-1
		C84.6,37.2,84.2,36.7,83.6,36.7z M75.3,59.5c-0.6,0-1,0.4-1,1c0,0.6,0.4,1,1,1c0.6,0,1-0.4,1-1C76.3,59.9,75.8,59.5,75.3,59.5z
		 M77.4,62.1c-0.6,0-1,0.4-1,1c0,0.6,0.4,1,1,1c0.6,0,1-0.4,1-1C78.4,62.6,78,62.1,77.4,62.1z M79.2,64.9c-0.6,0-1,0.4-1,1
		c0,0.6,0.4,1,1,1c0.6,0,1-0.4,1-1C80.2,65.3,79.7,64.9,79.2,64.9z M80.5,67.5c-0.6,0-1,0.4-1,1c0,0.6,0.4,1,1,1c0.6,0,1-0.4,1-1
		C81.5,68,81,67.5,80.5,67.5z M83.6,65.4c-0.6,0-1,0.4-1,1c0,0.6,0.4,1,1,1c0.6,0,1-0.4,1-1C84.6,65.8,84.2,65.4,83.6,65.4z
		 M82,62.7c-0.6,0-1,0.4-1,1c0,0.6,0.4,1,1,1s1-0.4,1-1C83,63.2,82.6,62.7,82,62.7z M86.5,62.6c-0.6,0-1,0.4-1,1c0,0.6,0.4,1,1,1
		c0.6,0,1-0.4,1-1C87.5,63,87,62.6,86.5,62.6z M84.9,60.1c-0.6,0-1,0.4-1,1c0,0.6,0.4,1,1,1c0.6,0,1-0.4,1-1
		C85.9,60.5,85.5,60.1,84.9,60.1z M82.9,57.7c-0.6,0-1,0.4-1,1c0,0.6,0.4,1,1,1c0.6,0,1-0.4,1-1C83.9,58.1,83.5,57.7,82.9,57.7z
		 M80.3,60.1c-0.6,0-1,0.4-1,1c0,0.6,0.4,1,1,1c0.6,0,1-0.4,1-1C81.3,60.6,80.8,60.1,80.3,60.1z M78,57.6c-0.6,0-1,0.4-1,1
		c0,0.6,0.4,1,1,1c0.6,0,1-0.4,1-1C79,58.1,78.6,57.6,78,57.6z M80.7,55.4c-0.6,0-1,0.4-1,1c0,0.6,0.4,1,1,1c0.6,0,1-0.4,1-1
		C81.7,55.8,81.3,55.4,80.7,55.4z M83.2,52.8c-0.6,0-1,0.4-1,1c0,0.6,0.4,1,1,1c0.6,0,1-0.4,1-1C84.2,53.3,83.7,52.8,83.2,52.8z
		 M85.2,49.8c-0.6,0-1,0.4-1,1c0,0.6,0.4,1,1,1c0.6,0,1-0.4,1-1C86.2,50.3,85.7,49.8,85.2,49.8z M86.9,46.5c-0.6,0-1,0.4-1,1
		c0,0.6,0.4,1,1,1c0.6,0,1-0.4,1-1C87.9,46.9,87.5,46.5,86.9,46.5z M88.3,42.9c-0.6,0-1,0.4-1,1c0,0.6,0.4,1,1,1c0.6,0,1-0.4,1-1
		C89.3,43.3,88.8,42.9,88.3,42.9z M89.2,39c-0.6,0-1,0.4-1,1c0,0.6,0.4,1,1,1c0.6,0,1-0.4,1-1C90.2,39.5,89.8,39,89.2,39z
		 M85.4,54.8c-0.6,0-1,0.4-1,1c0,0.6,0.4,1,1,1c0.6,0,1-0.4,1-1C86.4,55.3,85.9,54.8,85.4,54.8z M87.5,51.8c-0.6,0-1,0.4-1,1
		c0,0.6,0.4,1,1,1c0.6,0,1-0.4,1-1C88.5,52.2,88.1,51.8,87.5,51.8z M89.2,48.3c-0.6,0-1,0.4-1,1s0.4,1,1,1c0.6,0,1-0.4,1-1
		S89.8,48.3,89.2,48.3z M87.4,57.1c-0.6,0-1,0.4-1,1c0,0.6,0.4,1,1,1c0.6,0,1-0.4,1-1C88.4,57.5,88,57.1,87.4,57.1z M81.5,70.5
		c-0.6,0-1,0.4-1,1c0,0.6,0.4,1,1,1c0.6,0,1-0.4,1-1C82.5,71,82.1,70.5,81.5,70.5z M78.2,72.3c-0.6,0-1,0.4-1,1c0,0.6,0.4,1,1,1
		c0.6,0,1-0.4,1-1C79.2,72.8,78.8,72.3,78.2,72.3z M74.8,73.9c-0.6,0-1,0.4-1,1c0,0.6,0.4,1,1,1c0.6,0,1-0.4,1-1
		C75.8,74.3,75.3,73.9,74.8,73.9z M71.2,74.9c-0.6,0-1,0.4-1,1c0,0.6,0.4,1,1,1c0.6,0,1-0.4,1-1C72.2,75.3,71.8,74.9,71.2,74.9z
		 M67.6,75.5c-0.6,0-1,0.4-1,1c0,0.6,0.4,1,1,1c0.6,0,1-0.4,1-1C68.6,75.9,68.2,75.5,67.6,75.5z M64.1,75.6c-0.6,0-1,0.4-1,1
		c0,0.6,0.4,1,1,1c0.6,0,1-0.4,1-1C65.1,76,64.6,75.6,64.1,75.6z M60.7,75.2c-0.6,0-1,0.4-1,1c0,0.6,0.4,1,1,1c0.6,0,1-0.4,1-1
		C61.7,75.7,61.2,75.2,60.7,75.2z M57.4,74.5c-0.6,0-1,0.4-1,1c0,0.6,0.4,1,1,1s1-0.4,1-1C58.4,74.9,58,74.5,57.4,74.5z M54.4,73.1
		c-0.6,0-1,0.4-1,1c0,0.6,0.4,1,1,1c0.6,0,1-0.4,1-1C55.4,73.5,55,73.1,54.4,73.1z M51.6,71.3c-0.6,0-1,0.4-1,1c0,0.6,0.4,1,1,1
		c0.6,0,1-0.5,1-1C52.6,71.8,52.2,71.3,51.6,71.3z M49.2,69.1c-0.6,0-1,0.4-1,1c0,0.6,0.4,1,1,1c0.6,0,1-0.4,1-1
		C50.2,69.5,49.8,69.1,49.2,69.1z M47.3,66.3c-0.6,0-1,0.4-1,1c0,0.6,0.4,1,1,1c0.6,0,1-0.4,1-1C48.3,66.7,47.8,66.3,47.3,66.3z
		 M59.2,49.7c-0.6,0-1,0.4-1,1c0,0.6,0.4,1,1,1c0.6,0,1-0.4,1-1C60.2,50.1,59.7,49.7,59.2,49.7z M61.4,47c-0.6,0-1,0.4-1,1
		c0,0.6,0.4,1,1,1c0.6,0,1-0.4,1-1C62.4,47.4,62,47,61.4,47z M61.3,52.2c-0.6,0-1,0.4-1,1c0,0.6,0.5,1,1,1c0.6,0,1-0.4,1-1
		C62.3,52.6,61.8,52.2,61.3,52.2z M63.6,49.4c-0.6,0-1,0.4-1,1c0,0.6,0.4,1,1,1c0.6,0,1-0.4,1-1C64.6,49.8,64.2,49.4,63.6,49.4z
		 M62.4,55.2c-0.6,0-1,0.4-1,1c0,0.6,0.4,1,1,1c0.6,0,1-0.4,1-1C63.4,55.6,63,55.2,62.4,55.2z M62.9,58.3c-0.6,0-1,0.4-1,1
		c0,0.6,0.4,1,1,1c0.6,0,1-0.4,1-1C63.9,58.8,63.4,58.3,62.9,58.3z M66.3,58.6c-0.6,0-1,0.4-1,1c0,0.6,0.4,1,1,1c0.6,0,1-0.4,1-1
		C67.3,59,66.9,58.6,66.3,58.6z M69.6,57.9c-0.6,0-1,0.4-1,1c0,0.6,0.4,1,1,1c0.6,0,1-0.4,1-1C70.6,58.4,70.1,57.9,69.6,57.9z
		 M66.1,55.2c-0.6,0-1,0.4-1,1c0,0.6,0.4,1,1,1c0.6,0,1-0.4,1-1C67.1,55.6,66.6,55.2,66.1,55.2z M65.3,52.1c-0.6,0-1,0.4-1,1
		c0,0.6,0.4,1,1,1c0.6,0,1-0.4,1-1C66.3,52.6,65.8,52.1,65.3,52.1z M56.4,51.3c-0.6,0-1,0.4-1,1c0,0.6,0.4,1,1,1c0.6,0,1-0.4,1-1
		C57.4,51.7,57,51.3,56.4,51.3z M55.1,55c-0.6,0-1,0.4-1,1c0,0.6,0.4,1,1,1c0.6,0,1-0.4,1-1C56.1,55.5,55.7,55,55.1,55z M52.2,58.2
		c-0.6,0-1,0.4-1,1c0,0.6,0.4,1,1,1c0.6,0,1-0.4,1-1C53.2,58.6,52.8,58.2,52.2,58.2z M47.9,60.3c-0.6,0-1,0.4-1,1c0,0.6,0.4,1,1,1
		c0.6,0,1-0.4,1-1C48.9,60.7,48.5,60.3,47.9,60.3z M45.2,58.3c-0.6,0-1,0.4-1,1c0,0.6,0.4,1,1,1c0.6,0,1-0.4,1-1
		C46.2,58.7,45.8,58.3,45.2,58.3z M42.9,60.7c-0.6,0-1,0.4-1,1c0,0.6,0.4,1,1,1c0.6,0,1-0.4,1-1C43.9,61.2,43.5,60.7,42.9,60.7z
		 M45.8,62.8c-0.6,0-1,0.5-1,1c0,0.6,0.4,1,1,1c0.6,0,1-0.4,1-1C46.8,63.2,46.3,62.8,45.8,62.8z M49.5,64.1c-0.6,0-1,0.4-1,1
		c0,0.6,0.4,1,1,1c0.6,0,1-0.4,1-1C50.5,64.5,50.1,64.1,49.5,64.1z M51.9,67c-0.6,0-1,0.4-1,1c0,0.6,0.4,1,1,1c0.6,0,1-0.4,1-1
		C52.9,67.4,52.4,67,51.9,67z M54.4,69.1c-0.6,0-1,0.4-1,1c0,0.6,0.4,1,1,1c0.6,0,1-0.4,1-1C55.4,69.5,54.9,69.1,54.4,69.1z
		 M57.4,70.7c-0.6,0-1,0.4-1,1c0,0.6,0.4,1,1,1c0.6,0,1-0.4,1-1C58.4,71.1,57.9,70.7,57.4,70.7z M60.4,71.7c-0.6,0-1,0.4-1,1
		c0,0.6,0.4,1,1,1c0.6,0,1-0.4,1-1C61.4,72.1,61,71.7,60.4,71.7z M63.8,72.3c-0.6,0-1,0.4-1,1c0,0.6,0.4,1,1,1c0.6,0,1-0.4,1-1
		C64.8,72.7,64.3,72.3,63.8,72.3z M67.1,72.2c-0.6,0-1,0.4-1,1c0,0.6,0.4,1,1,1c0.6,0,1-0.4,1-1C68.1,72.6,67.7,72.2,67.1,72.2z
		 M70.6,71.8c-0.6,0-1,0.4-1,1c0,0.6,0.4,1,1,1c0.6,0,1-0.4,1-1C71.6,72.3,71.1,71.8,70.6,71.8z M74,70.8c-0.6,0-1,0.4-1,1
		c0,0.6,0.4,1,1,1c0.6,0,1-0.4,1-1C75,71.2,74.5,70.8,74,70.8z M77.2,69.5c-0.6,0-1,0.4-1,1c0,0.6,0.4,1,1,1c0.6,0,1-0.4,1-1
		C78.2,69.9,77.8,69.5,77.2,69.5z M76,66.6c-0.6,0-1,0.4-1,1c0,0.6,0.4,1,1,1c0.6,0,1-0.4,1-1C77,67,76.6,66.6,76,66.6z M72.8,67.8
		c-0.6,0-1,0.4-1,1c0,0.6,0.4,1,1,1c0.6,0,1-0.4,1-1C73.8,68.3,73.3,67.8,72.8,67.8z M69.5,68.7c-0.6,0-1,0.4-1,1c0,0.6,0.4,1,1,1
		c0.6,0,1-0.4,1-1C70.5,69.1,70,68.7,69.5,68.7z M66.1,68.8c-0.6,0-1,0.4-1,1c0,0.6,0.4,1,1,1c0.6,0,1-0.4,1-1
		C67.1,69.3,66.6,68.8,66.1,68.8z M62.8,68.6c-0.6,0-1,0.4-1,1c0,0.6,0.4,1,1,1c0.6,0,1-0.4,1-1C63.8,69,63.3,68.6,62.8,68.6z
		 M59.6,67.8c-0.6,0-1,0.4-1,1c0,0.6,0.4,1,1,1c0.6,0,1-0.4,1-1C60.6,68.3,60.2,67.8,59.6,67.8z M56.6,66.4c-0.6,0-1,0.4-1,1
		c0,0.6,0.4,1,1,1c0.6,0,1-0.4,1-1C57.6,66.8,57.2,66.4,56.6,66.4z M58.2,63.5c-0.6,0-1,0.4-1,1c0,0.6,0.4,1,1,1c0.6,0,1-0.4,1-1
		C59.2,63.9,58.8,63.5,58.2,63.5z M61.4,64.8c-0.6,0-1,0.4-1,1c0,0.6,0.4,1,1,1c0.6,0,1-0.4,1-1C62.4,65.2,61.9,64.8,61.4,64.8z
		 M64.6,65.4c-0.6,0-1,0.4-1,1c0,0.6,0.4,1,1,1c0.6,0,1-0.4,1-1C65.6,65.8,65.1,65.4,64.6,65.4z M67.9,65.3c-0.6,0-1,0.4-1,1
		c0,0.6,0.4,1,1,1c0.6,0,1-0.4,1-1C68.9,65.7,68.4,65.3,67.9,65.3z M71.2,64.8c-0.6,0-1,0.4-1,1c0,0.6,0.4,1,1,1c0.6,0,1-0.4,1-1
		C72.2,65.2,71.8,64.8,71.2,64.8z M74.4,63.6c-0.6,0-1,0.4-1,1c0,0.6,0.4,1,1,1c0.6,0,1-0.4,1-1C75.4,64.1,75,63.6,74.4,63.6z
		 M72.2,60.8c-0.6,0-1,0.4-1,1c0,0.6,0.4,1,1,1c0.6,0,1-0.4,1-1C73.2,61.2,72.8,60.8,72.2,60.8z M69.1,61.6c-0.6,0-1,0.4-1,1
		c0,0.6,0.4,1,1,1c0.6,0,1-0.4,1-1C70.1,62.1,69.6,61.6,69.1,61.6z M65.8,62c-0.6,0-1,0.4-1,1c0,0.6,0.4,1,1,1c0.6,0,1-0.4,1-1
		C66.8,62.4,66.4,62,65.8,62z M62.4,61.6c-0.6,0-1,0.4-1,1c0,0.6,0.4,1,1,1c0.6,0,1-0.4,1-1C63.4,62,63,61.6,62.4,61.6z M58.9,60.5
		c-0.6,0-1,0.4-1,1c0,0.6,0.4,1,1,1c0.6,0,1-0.5,1-1C59.9,60.9,59.5,60.5,58.9,60.5z M59.1,57.3c-0.6,0-1,0.4-1,1c0,0.6,0.4,1,1,1
		s1-0.4,1-1C60.1,57.7,59.7,57.3,59.1,57.3z M58.3,54.2c-0.6,0-1,0.4-1,1c0,0.6,0.4,1,1,1c0.6,0,1-0.4,1-1
		C59.3,54.6,58.9,54.2,58.3,54.2z M51.4,61.4c-0.6,0-1,0.4-1,1s0.4,1,1,1c0.6,0,1-0.4,1-1S51.9,61.4,51.4,61.4z M53.9,64.3
		c-0.6,0-1,0.4-1,1c0,0.6,0.4,1,1,1c0.6,0,1-0.4,1-1C54.9,64.8,54.4,64.3,53.9,64.3z M55.1,61.5c-0.6,0-1,0.4-1,1c0,0.6,0.4,1,1,1
		c0.6,0,1-0.4,1-1C56.1,62,55.7,61.5,55.1,61.5z M55.6,58.4c-0.6,0-1,0.4-1,1c0,0.6,0.4,1,1,1c0.6,0,1-0.4,1-1
		C56.6,58.8,56.1,58.4,55.6,58.4z M40.7,57.9c-0.6,0-1,0.4-1,1c0,0.6,0.4,1,1,1c0.6,0,1-0.4,1-1C41.7,58.4,41.3,57.9,40.7,57.9z
		 M39.6,54.8c-0.6,0-1,0.4-1,1c0,0.6,0.4,1,1,1c0.6,0,1-0.4,1-1C40.6,55.2,40.1,54.8,39.6,54.8z M40,51.6c-0.6,0-1,0.4-1,1
		c0,0.6,0.4,1,1,1c0.6,0,1-0.4,1-1C41,52,40.6,51.6,40,51.6z"/>
</g>
</svg>
