<?xml version="1.0" encoding="utf-8"?>
<!-- Generator: Adobe Illustrator 18.0.0, SVG Export Plug-In . SVG Version: 6.00 Build 0)  -->
<!DOCTYPE svg PUBLIC "-//W3C//DTD SVG 1.1//EN" "http://www.w3.org/Graphics/SVG/1.1/DTD/svg11.dtd">
<svg version="1.1" id="Layer_1" xmlns="http://www.w3.org/2000/svg" xmlns:xlink="http://www.w3.org/1999/xlink" x="0px" y="0px"
	 viewBox="-6.8 -17 40.6 58" style="enable-background:new -6.8 -17 40.6 58;" xml:space="preserve">
<g>
	<path style="fill:#FF5337;" d="M13.6-17C2.4-17-6.8-7.9-6.8,3.3C-6.8,18.5,13.6,41,13.6,41S33.8,18.5,33.8,3.3
		C33.8-7.9,24.7-17,13.6-17z M13.6-11.2c3.2,0,5.8,2.6,5.8,5.8c0,3.2-2.6,5.8-5.8,5.8S7.8-2.2,7.8-5.4C7.8-8.6,10.4-11.2,13.6-11.2z
		 M13.6,17.8c-4.8,0-9.1-2.5-11.6-6.2C2,7.7,9.7,5.6,13.6,5.6s11.5,2.1,11.6,5.9C22.7,15.3,18.4,17.8,13.6,17.8z"/>
</g>
</svg>
